<?xml version="1.0" encoding="utf-8" standalone="no"?>
<!DOCTYPE svg PUBLIC "-//W3C//DTD SVG 1.1//EN"
  "http://www.w3.org/Graphics/SVG/1.1/DTD/svg11.dtd">
<svg xmlns:xlink="http://www.w3.org/1999/xlink" width="431.318437pt" height="364.24567pt" viewBox="0 0 431.318437 364.24567" xmlns="http://www.w3.org/2000/svg" version="1.1">
 <metadata>
  <rdf:RDF xmlns:dc="http://purl.org/dc/elements/1.1/" xmlns:cc="http://creativecommons.org/ns#" xmlns:rdf="http://www.w3.org/1999/02/22-rdf-syntax-ns#">
   <cc:Work>
    <dc:type rdf:resource="http://purl.org/dc/dcmitype/StillImage"/>
    <dc:date>2025-02-01T17:11:42.183820</dc:date>
    <dc:format>image/svg+xml</dc:format>
    <dc:creator>
     <cc:Agent>
      <dc:title>Matplotlib v3.8.4, https://matplotlib.org/</dc:title>
     </cc:Agent>
    </dc:creator>
   </cc:Work>
  </rdf:RDF>
 </metadata>
 <defs>
  <style type="text/css">*{stroke-linejoin: round; stroke-linecap: butt}</style>
 </defs>
 <g id="figure_1">
  <g id="patch_1">
   <path d="M 0 364.24567 
L 431.318437 364.24567 
L 431.318437 0 
L 0 0 
z
" style="fill: #ffffff"/>
  </g>
  <g id="axes_1">
   <g id="patch_2">
    <path d="M 59.149687 288.430125 
L 416.269688 288.430125 
L 416.269688 22.318125 
L 59.149687 22.318125 
z
" style="fill: #ffffff"/>
   </g>
   <g id="matplotlib.axis_1">
    <g id="xtick_1">
     <g id="line2d_1">
      <path d="M 75.382415 288.430125 
L 75.382415 22.318125 
" clip-path="url(#p072907ef38)" style="fill: none; stroke: #b0b0b0; stroke-width: 0.8; stroke-linecap: square"/>
     </g>
     <g id="line2d_2">
      <defs>
       <path id="m3bd51f52e2" d="M 0 0 
L 0 3.5 
" style="stroke: #000000; stroke-width: 0.8"/>
      </defs>
      <g>
       <use xlink:href="#m3bd51f52e2" x="75.382415" y="288.430125" style="stroke: #000000; stroke-width: 0.8"/>
      </g>
     </g>
     <g id="text_1">
      <!-- 2010-11-01 -->
      <g transform="translate(56.786611 341.896984) rotate(-45) scale(0.1 -0.1)">
       <defs>
        <path id="DejaVuSans-32" d="M 1228 531 
L 3431 531 
L 3431 0 
L 469 0 
L 469 531 
Q 828 903 1448 1529 
Q 2069 2156 2228 2338 
Q 2531 2678 2651 2914 
Q 2772 3150 2772 3378 
Q 2772 3750 2511 3984 
Q 2250 4219 1831 4219 
Q 1534 4219 1204 4116 
Q 875 4013 500 3803 
L 500 4441 
Q 881 4594 1212 4672 
Q 1544 4750 1819 4750 
Q 2544 4750 2975 4387 
Q 3406 4025 3406 3419 
Q 3406 3131 3298 2873 
Q 3191 2616 2906 2266 
Q 2828 2175 2409 1742 
Q 1991 1309 1228 531 
z
" transform="scale(0.015625)"/>
        <path id="DejaVuSans-30" d="M 2034 4250 
Q 1547 4250 1301 3770 
Q 1056 3291 1056 2328 
Q 1056 1369 1301 889 
Q 1547 409 2034 409 
Q 2525 409 2770 889 
Q 3016 1369 3016 2328 
Q 3016 3291 2770 3770 
Q 2525 4250 2034 4250 
z
M 2034 4750 
Q 2819 4750 3233 4129 
Q 3647 3509 3647 2328 
Q 3647 1150 3233 529 
Q 2819 -91 2034 -91 
Q 1250 -91 836 529 
Q 422 1150 422 2328 
Q 422 3509 836 4129 
Q 1250 4750 2034 4750 
z
" transform="scale(0.015625)"/>
        <path id="DejaVuSans-31" d="M 794 531 
L 1825 531 
L 1825 4091 
L 703 3866 
L 703 4441 
L 1819 4666 
L 2450 4666 
L 2450 531 
L 3481 531 
L 3481 0 
L 794 0 
L 794 531 
z
" transform="scale(0.015625)"/>
        <path id="DejaVuSans-2d" d="M 313 2009 
L 1997 2009 
L 1997 1497 
L 313 1497 
L 313 2009 
z
" transform="scale(0.015625)"/>
       </defs>
       <use xlink:href="#DejaVuSans-32"/>
       <use xlink:href="#DejaVuSans-30" x="63.623047"/>
       <use xlink:href="#DejaVuSans-31" x="127.246094"/>
       <use xlink:href="#DejaVuSans-30" x="190.869141"/>
       <use xlink:href="#DejaVuSans-2d" x="254.492188"/>
       <use xlink:href="#DejaVuSans-31" x="290.576172"/>
       <use xlink:href="#DejaVuSans-31" x="354.199219"/>
       <use xlink:href="#DejaVuSans-2d" x="417.822266"/>
       <use xlink:href="#DejaVuSans-30" x="453.90625"/>
       <use xlink:href="#DejaVuSans-31" x="517.529297"/>
      </g>
     </g>
    </g>
    <g id="xtick_2">
     <g id="line2d_3">
      <path d="M 113.271934 288.430125 
L 113.271934 22.318125 
" clip-path="url(#p072907ef38)" style="fill: none; stroke: #b0b0b0; stroke-width: 0.8; stroke-linecap: square"/>
     </g>
     <g id="line2d_4">
      <g>
       <use xlink:href="#m3bd51f52e2" x="113.271934" y="288.430125" style="stroke: #000000; stroke-width: 0.8"/>
      </g>
     </g>
     <g id="text_2">
      <!-- 2010-11-15 -->
      <g transform="translate(94.676131 341.896984) rotate(-45) scale(0.1 -0.1)">
       <defs>
        <path id="DejaVuSans-35" d="M 691 4666 
L 3169 4666 
L 3169 4134 
L 1269 4134 
L 1269 2991 
Q 1406 3038 1543 3061 
Q 1681 3084 1819 3084 
Q 2600 3084 3056 2656 
Q 3513 2228 3513 1497 
Q 3513 744 3044 326 
Q 2575 -91 1722 -91 
Q 1428 -91 1123 -41 
Q 819 9 494 109 
L 494 744 
Q 775 591 1075 516 
Q 1375 441 1709 441 
Q 2250 441 2565 725 
Q 2881 1009 2881 1497 
Q 2881 1984 2565 2268 
Q 2250 2553 1709 2553 
Q 1456 2553 1204 2497 
Q 953 2441 691 2322 
L 691 4666 
z
" transform="scale(0.015625)"/>
       </defs>
       <use xlink:href="#DejaVuSans-32"/>
       <use xlink:href="#DejaVuSans-30" x="63.623047"/>
       <use xlink:href="#DejaVuSans-31" x="127.246094"/>
       <use xlink:href="#DejaVuSans-30" x="190.869141"/>
       <use xlink:href="#DejaVuSans-2d" x="254.492188"/>
       <use xlink:href="#DejaVuSans-31" x="290.576172"/>
       <use xlink:href="#DejaVuSans-31" x="354.199219"/>
       <use xlink:href="#DejaVuSans-2d" x="417.822266"/>
       <use xlink:href="#DejaVuSans-31" x="453.90625"/>
       <use xlink:href="#DejaVuSans-35" x="517.529297"/>
      </g>
     </g>
    </g>
    <g id="xtick_3">
     <g id="line2d_5">
      <path d="M 156.574243 288.430125 
L 156.574243 22.318125 
" clip-path="url(#p072907ef38)" style="fill: none; stroke: #b0b0b0; stroke-width: 0.8; stroke-linecap: square"/>
     </g>
     <g id="line2d_6">
      <g>
       <use xlink:href="#m3bd51f52e2" x="156.574243" y="288.430125" style="stroke: #000000; stroke-width: 0.8"/>
      </g>
     </g>
     <g id="text_3">
      <!-- 2010-12-01 -->
      <g transform="translate(137.978439 341.896984) rotate(-45) scale(0.1 -0.1)">
       <use xlink:href="#DejaVuSans-32"/>
       <use xlink:href="#DejaVuSans-30" x="63.623047"/>
       <use xlink:href="#DejaVuSans-31" x="127.246094"/>
       <use xlink:href="#DejaVuSans-30" x="190.869141"/>
       <use xlink:href="#DejaVuSans-2d" x="254.492188"/>
       <use xlink:href="#DejaVuSans-31" x="290.576172"/>
       <use xlink:href="#DejaVuSans-32" x="354.199219"/>
       <use xlink:href="#DejaVuSans-2d" x="417.822266"/>
       <use xlink:href="#DejaVuSans-30" x="453.90625"/>
       <use xlink:href="#DejaVuSans-31" x="517.529297"/>
      </g>
     </g>
    </g>
    <g id="xtick_4">
     <g id="line2d_7">
      <path d="M 194.463762 288.430125 
L 194.463762 22.318125 
" clip-path="url(#p072907ef38)" style="fill: none; stroke: #b0b0b0; stroke-width: 0.8; stroke-linecap: square"/>
     </g>
     <g id="line2d_8">
      <g>
       <use xlink:href="#m3bd51f52e2" x="194.463762" y="288.430125" style="stroke: #000000; stroke-width: 0.8"/>
      </g>
     </g>
     <g id="text_4">
      <!-- 2010-12-15 -->
      <g transform="translate(175.867959 341.896984) rotate(-45) scale(0.1 -0.1)">
       <use xlink:href="#DejaVuSans-32"/>
       <use xlink:href="#DejaVuSans-30" x="63.623047"/>
       <use xlink:href="#DejaVuSans-31" x="127.246094"/>
       <use xlink:href="#DejaVuSans-30" x="190.869141"/>
       <use xlink:href="#DejaVuSans-2d" x="254.492188"/>
       <use xlink:href="#DejaVuSans-31" x="290.576172"/>
       <use xlink:href="#DejaVuSans-32" x="354.199219"/>
       <use xlink:href="#DejaVuSans-2d" x="417.822266"/>
       <use xlink:href="#DejaVuSans-31" x="453.90625"/>
       <use xlink:href="#DejaVuSans-35" x="517.529297"/>
      </g>
     </g>
    </g>
    <g id="xtick_5">
     <g id="line2d_9">
      <path d="M 240.472465 288.430125 
L 240.472465 22.318125 
" clip-path="url(#p072907ef38)" style="fill: none; stroke: #b0b0b0; stroke-width: 0.8; stroke-linecap: square"/>
     </g>
     <g id="line2d_10">
      <g>
       <use xlink:href="#m3bd51f52e2" x="240.472465" y="288.430125" style="stroke: #000000; stroke-width: 0.8"/>
      </g>
     </g>
     <g id="text_5">
      <!-- 2011-01-01 -->
      <g transform="translate(221.876661 341.896984) rotate(-45) scale(0.1 -0.1)">
       <use xlink:href="#DejaVuSans-32"/>
       <use xlink:href="#DejaVuSans-30" x="63.623047"/>
       <use xlink:href="#DejaVuSans-31" x="127.246094"/>
       <use xlink:href="#DejaVuSans-31" x="190.869141"/>
       <use xlink:href="#DejaVuSans-2d" x="254.492188"/>
       <use xlink:href="#DejaVuSans-30" x="290.576172"/>
       <use xlink:href="#DejaVuSans-31" x="354.199219"/>
       <use xlink:href="#DejaVuSans-2d" x="417.822266"/>
       <use xlink:href="#DejaVuSans-30" x="453.90625"/>
       <use xlink:href="#DejaVuSans-31" x="517.529297"/>
      </g>
     </g>
    </g>
    <g id="xtick_6">
     <g id="line2d_11">
      <path d="M 278.361985 288.430125 
L 278.361985 22.318125 
" clip-path="url(#p072907ef38)" style="fill: none; stroke: #b0b0b0; stroke-width: 0.8; stroke-linecap: square"/>
     </g>
     <g id="line2d_12">
      <g>
       <use xlink:href="#m3bd51f52e2" x="278.361985" y="288.430125" style="stroke: #000000; stroke-width: 0.8"/>
      </g>
     </g>
     <g id="text_6">
      <!-- 2011-01-15 -->
      <g transform="translate(259.766181 341.896984) rotate(-45) scale(0.1 -0.1)">
       <use xlink:href="#DejaVuSans-32"/>
       <use xlink:href="#DejaVuSans-30" x="63.623047"/>
       <use xlink:href="#DejaVuSans-31" x="127.246094"/>
       <use xlink:href="#DejaVuSans-31" x="190.869141"/>
       <use xlink:href="#DejaVuSans-2d" x="254.492188"/>
       <use xlink:href="#DejaVuSans-30" x="290.576172"/>
       <use xlink:href="#DejaVuSans-31" x="354.199219"/>
       <use xlink:href="#DejaVuSans-2d" x="417.822266"/>
       <use xlink:href="#DejaVuSans-31" x="453.90625"/>
       <use xlink:href="#DejaVuSans-35" x="517.529297"/>
      </g>
     </g>
    </g>
    <g id="xtick_7">
     <g id="line2d_13">
      <path d="M 324.370687 288.430125 
L 324.370687 22.318125 
" clip-path="url(#p072907ef38)" style="fill: none; stroke: #b0b0b0; stroke-width: 0.8; stroke-linecap: square"/>
     </g>
     <g id="line2d_14">
      <g>
       <use xlink:href="#m3bd51f52e2" x="324.370687" y="288.430125" style="stroke: #000000; stroke-width: 0.8"/>
      </g>
     </g>
     <g id="text_7">
      <!-- 2011-02-01 -->
      <g transform="translate(305.774884 341.896984) rotate(-45) scale(0.1 -0.1)">
       <use xlink:href="#DejaVuSans-32"/>
       <use xlink:href="#DejaVuSans-30" x="63.623047"/>
       <use xlink:href="#DejaVuSans-31" x="127.246094"/>
       <use xlink:href="#DejaVuSans-31" x="190.869141"/>
       <use xlink:href="#DejaVuSans-2d" x="254.492188"/>
       <use xlink:href="#DejaVuSans-30" x="290.576172"/>
       <use xlink:href="#DejaVuSans-32" x="354.199219"/>
       <use xlink:href="#DejaVuSans-2d" x="417.822266"/>
       <use xlink:href="#DejaVuSans-30" x="453.90625"/>
       <use xlink:href="#DejaVuSans-31" x="517.529297"/>
      </g>
     </g>
    </g>
    <g id="xtick_8">
     <g id="line2d_15">
      <path d="M 362.260207 288.430125 
L 362.260207 22.318125 
" clip-path="url(#p072907ef38)" style="fill: none; stroke: #b0b0b0; stroke-width: 0.8; stroke-linecap: square"/>
     </g>
     <g id="line2d_16">
      <g>
       <use xlink:href="#m3bd51f52e2" x="362.260207" y="288.430125" style="stroke: #000000; stroke-width: 0.8"/>
      </g>
     </g>
     <g id="text_8">
      <!-- 2011-02-15 -->
      <g transform="translate(343.664403 341.896984) rotate(-45) scale(0.1 -0.1)">
       <use xlink:href="#DejaVuSans-32"/>
       <use xlink:href="#DejaVuSans-30" x="63.623047"/>
       <use xlink:href="#DejaVuSans-31" x="127.246094"/>
       <use xlink:href="#DejaVuSans-31" x="190.869141"/>
       <use xlink:href="#DejaVuSans-2d" x="254.492188"/>
       <use xlink:href="#DejaVuSans-30" x="290.576172"/>
       <use xlink:href="#DejaVuSans-32" x="354.199219"/>
       <use xlink:href="#DejaVuSans-2d" x="417.822266"/>
       <use xlink:href="#DejaVuSans-31" x="453.90625"/>
       <use xlink:href="#DejaVuSans-35" x="517.529297"/>
      </g>
     </g>
    </g>
    <g id="xtick_9">
     <g id="line2d_17">
      <path d="M 400.149727 288.430125 
L 400.149727 22.318125 
" clip-path="url(#p072907ef38)" style="fill: none; stroke: #b0b0b0; stroke-width: 0.8; stroke-linecap: square"/>
     </g>
     <g id="line2d_18">
      <g>
       <use xlink:href="#m3bd51f52e2" x="400.149727" y="288.430125" style="stroke: #000000; stroke-width: 0.8"/>
      </g>
     </g>
     <g id="text_9">
      <!-- 2011-03-01 -->
      <g transform="translate(381.553923 341.896984) rotate(-45) scale(0.1 -0.1)">
       <defs>
        <path id="DejaVuSans-33" d="M 2597 2516 
Q 3050 2419 3304 2112 
Q 3559 1806 3559 1356 
Q 3559 666 3084 287 
Q 2609 -91 1734 -91 
Q 1441 -91 1130 -33 
Q 819 25 488 141 
L 488 750 
Q 750 597 1062 519 
Q 1375 441 1716 441 
Q 2309 441 2620 675 
Q 2931 909 2931 1356 
Q 2931 1769 2642 2001 
Q 2353 2234 1838 2234 
L 1294 2234 
L 1294 2753 
L 1863 2753 
Q 2328 2753 2575 2939 
Q 2822 3125 2822 3475 
Q 2822 3834 2567 4026 
Q 2313 4219 1838 4219 
Q 1578 4219 1281 4162 
Q 984 4106 628 3988 
L 628 4550 
Q 988 4650 1302 4700 
Q 1616 4750 1894 4750 
Q 2613 4750 3031 4423 
Q 3450 4097 3450 3541 
Q 3450 3153 3228 2886 
Q 3006 2619 2597 2516 
z
" transform="scale(0.015625)"/>
       </defs>
       <use xlink:href="#DejaVuSans-32"/>
       <use xlink:href="#DejaVuSans-30" x="63.623047"/>
       <use xlink:href="#DejaVuSans-31" x="127.246094"/>
       <use xlink:href="#DejaVuSans-31" x="190.869141"/>
       <use xlink:href="#DejaVuSans-2d" x="254.492188"/>
       <use xlink:href="#DejaVuSans-30" x="290.576172"/>
       <use xlink:href="#DejaVuSans-33" x="354.199219"/>
       <use xlink:href="#DejaVuSans-2d" x="417.822266"/>
       <use xlink:href="#DejaVuSans-30" x="453.90625"/>
       <use xlink:href="#DejaVuSans-31" x="517.529297"/>
      </g>
     </g>
    </g>
    <g id="text_10">
     <!-- Time [hr] -->
     <g transform="translate(214.76125 354.965983) scale(0.1 -0.1)">
      <defs>
       <path id="DejaVuSans-54" d="M -19 4666 
L 3928 4666 
L 3928 4134 
L 2272 4134 
L 2272 0 
L 1638 0 
L 1638 4134 
L -19 4134 
L -19 4666 
z
" transform="scale(0.015625)"/>
       <path id="DejaVuSans-69" d="M 603 3500 
L 1178 3500 
L 1178 0 
L 603 0 
L 603 3500 
z
M 603 4863 
L 1178 4863 
L 1178 4134 
L 603 4134 
L 603 4863 
z
" transform="scale(0.015625)"/>
       <path id="DejaVuSans-6d" d="M 3328 2828 
Q 3544 3216 3844 3400 
Q 4144 3584 4550 3584 
Q 5097 3584 5394 3201 
Q 5691 2819 5691 2113 
L 5691 0 
L 5113 0 
L 5113 2094 
Q 5113 2597 4934 2840 
Q 4756 3084 4391 3084 
Q 3944 3084 3684 2787 
Q 3425 2491 3425 1978 
L 3425 0 
L 2847 0 
L 2847 2094 
Q 2847 2600 2669 2842 
Q 2491 3084 2119 3084 
Q 1678 3084 1418 2786 
Q 1159 2488 1159 1978 
L 1159 0 
L 581 0 
L 581 3500 
L 1159 3500 
L 1159 2956 
Q 1356 3278 1631 3431 
Q 1906 3584 2284 3584 
Q 2666 3584 2933 3390 
Q 3200 3197 3328 2828 
z
" transform="scale(0.015625)"/>
       <path id="DejaVuSans-65" d="M 3597 1894 
L 3597 1613 
L 953 1613 
Q 991 1019 1311 708 
Q 1631 397 2203 397 
Q 2534 397 2845 478 
Q 3156 559 3463 722 
L 3463 178 
Q 3153 47 2828 -22 
Q 2503 -91 2169 -91 
Q 1331 -91 842 396 
Q 353 884 353 1716 
Q 353 2575 817 3079 
Q 1281 3584 2069 3584 
Q 2775 3584 3186 3129 
Q 3597 2675 3597 1894 
z
M 3022 2063 
Q 3016 2534 2758 2815 
Q 2500 3097 2075 3097 
Q 1594 3097 1305 2825 
Q 1016 2553 972 2059 
L 3022 2063 
z
" transform="scale(0.015625)"/>
       <path id="DejaVuSans-20" transform="scale(0.015625)"/>
       <path id="DejaVuSans-5b" d="M 550 4863 
L 1875 4863 
L 1875 4416 
L 1125 4416 
L 1125 -397 
L 1875 -397 
L 1875 -844 
L 550 -844 
L 550 4863 
z
" transform="scale(0.015625)"/>
       <path id="DejaVuSans-68" d="M 3513 2113 
L 3513 0 
L 2938 0 
L 2938 2094 
Q 2938 2591 2744 2837 
Q 2550 3084 2163 3084 
Q 1697 3084 1428 2787 
Q 1159 2491 1159 1978 
L 1159 0 
L 581 0 
L 581 4863 
L 1159 4863 
L 1159 2956 
Q 1366 3272 1645 3428 
Q 1925 3584 2291 3584 
Q 2894 3584 3203 3211 
Q 3513 2838 3513 2113 
z
" transform="scale(0.015625)"/>
       <path id="DejaVuSans-72" d="M 2631 2963 
Q 2534 3019 2420 3045 
Q 2306 3072 2169 3072 
Q 1681 3072 1420 2755 
Q 1159 2438 1159 1844 
L 1159 0 
L 581 0 
L 581 3500 
L 1159 3500 
L 1159 2956 
Q 1341 3275 1631 3429 
Q 1922 3584 2338 3584 
Q 2397 3584 2469 3576 
Q 2541 3569 2628 3553 
L 2631 2963 
z
" transform="scale(0.015625)"/>
       <path id="DejaVuSans-5d" d="M 1947 4863 
L 1947 -844 
L 622 -844 
L 622 -397 
L 1369 -397 
L 1369 4416 
L 622 4416 
L 622 4863 
L 1947 4863 
z
" transform="scale(0.015625)"/>
      </defs>
      <use xlink:href="#DejaVuSans-54"/>
      <use xlink:href="#DejaVuSans-69" x="57.958984"/>
      <use xlink:href="#DejaVuSans-6d" x="85.742188"/>
      <use xlink:href="#DejaVuSans-65" x="183.154297"/>
      <use xlink:href="#DejaVuSans-20" x="244.677734"/>
      <use xlink:href="#DejaVuSans-5b" x="276.464844"/>
      <use xlink:href="#DejaVuSans-68" x="315.478516"/>
      <use xlink:href="#DejaVuSans-72" x="378.857422"/>
      <use xlink:href="#DejaVuSans-5d" x="419.970703"/>
     </g>
    </g>
   </g>
   <g id="matplotlib.axis_2">
    <g id="ytick_1">
     <g id="line2d_19">
      <path d="M 59.149687 277.13381 
L 416.269688 277.13381 
" clip-path="url(#p072907ef38)" style="fill: none; stroke: #b0b0b0; stroke-width: 0.8; stroke-linecap: square"/>
     </g>
     <g id="line2d_20">
      <defs>
       <path id="mb13aeb20a6" d="M 0 0 
L -3.5 0 
" style="stroke: #000000; stroke-width: 0.8"/>
      </defs>
      <g>
       <use xlink:href="#mb13aeb20a6" x="59.149687" y="277.13381" style="stroke: #000000; stroke-width: 0.8"/>
      </g>
     </g>
     <g id="text_11">
      <!-- 0 -->
      <g transform="translate(45.787188 280.933028) scale(0.1 -0.1)">
       <use xlink:href="#DejaVuSans-30"/>
      </g>
     </g>
    </g>
    <g id="ytick_2">
     <g id="line2d_21">
      <path d="M 59.149687 245.509095 
L 416.269688 245.509095 
" clip-path="url(#p072907ef38)" style="fill: none; stroke: #b0b0b0; stroke-width: 0.8; stroke-linecap: square"/>
     </g>
     <g id="line2d_22">
      <g>
       <use xlink:href="#mb13aeb20a6" x="59.149687" y="245.509095" style="stroke: #000000; stroke-width: 0.8"/>
      </g>
     </g>
     <g id="text_12">
      <!-- 20 -->
      <g transform="translate(39.424687 249.308314) scale(0.1 -0.1)">
       <use xlink:href="#DejaVuSans-32"/>
       <use xlink:href="#DejaVuSans-30" x="63.623047"/>
      </g>
     </g>
    </g>
    <g id="ytick_3">
     <g id="line2d_23">
      <path d="M 59.149687 213.88438 
L 416.269688 213.88438 
" clip-path="url(#p072907ef38)" style="fill: none; stroke: #b0b0b0; stroke-width: 0.8; stroke-linecap: square"/>
     </g>
     <g id="line2d_24">
      <g>
       <use xlink:href="#mb13aeb20a6" x="59.149687" y="213.88438" style="stroke: #000000; stroke-width: 0.8"/>
      </g>
     </g>
     <g id="text_13">
      <!-- 40 -->
      <g transform="translate(39.424687 217.683599) scale(0.1 -0.1)">
       <defs>
        <path id="DejaVuSans-34" d="M 2419 4116 
L 825 1625 
L 2419 1625 
L 2419 4116 
z
M 2253 4666 
L 3047 4666 
L 3047 1625 
L 3713 1625 
L 3713 1100 
L 3047 1100 
L 3047 0 
L 2419 0 
L 2419 1100 
L 313 1100 
L 313 1709 
L 2253 4666 
z
" transform="scale(0.015625)"/>
       </defs>
       <use xlink:href="#DejaVuSans-34"/>
       <use xlink:href="#DejaVuSans-30" x="63.623047"/>
      </g>
     </g>
    </g>
    <g id="ytick_4">
     <g id="line2d_25">
      <path d="M 59.149687 182.259666 
L 416.269688 182.259666 
" clip-path="url(#p072907ef38)" style="fill: none; stroke: #b0b0b0; stroke-width: 0.8; stroke-linecap: square"/>
     </g>
     <g id="line2d_26">
      <g>
       <use xlink:href="#mb13aeb20a6" x="59.149687" y="182.259666" style="stroke: #000000; stroke-width: 0.8"/>
      </g>
     </g>
     <g id="text_14">
      <!-- 60 -->
      <g transform="translate(39.424687 186.058885) scale(0.1 -0.1)">
       <defs>
        <path id="DejaVuSans-36" d="M 2113 2584 
Q 1688 2584 1439 2293 
Q 1191 2003 1191 1497 
Q 1191 994 1439 701 
Q 1688 409 2113 409 
Q 2538 409 2786 701 
Q 3034 994 3034 1497 
Q 3034 2003 2786 2293 
Q 2538 2584 2113 2584 
z
M 3366 4563 
L 3366 3988 
Q 3128 4100 2886 4159 
Q 2644 4219 2406 4219 
Q 1781 4219 1451 3797 
Q 1122 3375 1075 2522 
Q 1259 2794 1537 2939 
Q 1816 3084 2150 3084 
Q 2853 3084 3261 2657 
Q 3669 2231 3669 1497 
Q 3669 778 3244 343 
Q 2819 -91 2113 -91 
Q 1303 -91 875 529 
Q 447 1150 447 2328 
Q 447 3434 972 4092 
Q 1497 4750 2381 4750 
Q 2619 4750 2861 4703 
Q 3103 4656 3366 4563 
z
" transform="scale(0.015625)"/>
       </defs>
       <use xlink:href="#DejaVuSans-36"/>
       <use xlink:href="#DejaVuSans-30" x="63.623047"/>
      </g>
     </g>
    </g>
    <g id="ytick_5">
     <g id="line2d_27">
      <path d="M 59.149687 150.634951 
L 416.269688 150.634951 
" clip-path="url(#p072907ef38)" style="fill: none; stroke: #b0b0b0; stroke-width: 0.8; stroke-linecap: square"/>
     </g>
     <g id="line2d_28">
      <g>
       <use xlink:href="#mb13aeb20a6" x="59.149687" y="150.634951" style="stroke: #000000; stroke-width: 0.8"/>
      </g>
     </g>
     <g id="text_15">
      <!-- 80 -->
      <g transform="translate(39.424687 154.43417) scale(0.1 -0.1)">
       <defs>
        <path id="DejaVuSans-38" d="M 2034 2216 
Q 1584 2216 1326 1975 
Q 1069 1734 1069 1313 
Q 1069 891 1326 650 
Q 1584 409 2034 409 
Q 2484 409 2743 651 
Q 3003 894 3003 1313 
Q 3003 1734 2745 1975 
Q 2488 2216 2034 2216 
z
M 1403 2484 
Q 997 2584 770 2862 
Q 544 3141 544 3541 
Q 544 4100 942 4425 
Q 1341 4750 2034 4750 
Q 2731 4750 3128 4425 
Q 3525 4100 3525 3541 
Q 3525 3141 3298 2862 
Q 3072 2584 2669 2484 
Q 3125 2378 3379 2068 
Q 3634 1759 3634 1313 
Q 3634 634 3220 271 
Q 2806 -91 2034 -91 
Q 1263 -91 848 271 
Q 434 634 434 1313 
Q 434 1759 690 2068 
Q 947 2378 1403 2484 
z
M 1172 3481 
Q 1172 3119 1398 2916 
Q 1625 2713 2034 2713 
Q 2441 2713 2670 2916 
Q 2900 3119 2900 3481 
Q 2900 3844 2670 4047 
Q 2441 4250 2034 4250 
Q 1625 4250 1398 4047 
Q 1172 3844 1172 3481 
z
" transform="scale(0.015625)"/>
       </defs>
       <use xlink:href="#DejaVuSans-38"/>
       <use xlink:href="#DejaVuSans-30" x="63.623047"/>
      </g>
     </g>
    </g>
    <g id="ytick_6">
     <g id="line2d_29">
      <path d="M 59.149687 119.010237 
L 416.269688 119.010237 
" clip-path="url(#p072907ef38)" style="fill: none; stroke: #b0b0b0; stroke-width: 0.8; stroke-linecap: square"/>
     </g>
     <g id="line2d_30">
      <g>
       <use xlink:href="#mb13aeb20a6" x="59.149687" y="119.010237" style="stroke: #000000; stroke-width: 0.8"/>
      </g>
     </g>
     <g id="text_16">
      <!-- 100 -->
      <g transform="translate(33.062187 122.809455) scale(0.1 -0.1)">
       <use xlink:href="#DejaVuSans-31"/>
       <use xlink:href="#DejaVuSans-30" x="63.623047"/>
       <use xlink:href="#DejaVuSans-30" x="127.246094"/>
      </g>
     </g>
    </g>
    <g id="ytick_7">
     <g id="line2d_31">
      <path d="M 59.149687 87.385522 
L 416.269688 87.385522 
" clip-path="url(#p072907ef38)" style="fill: none; stroke: #b0b0b0; stroke-width: 0.8; stroke-linecap: square"/>
     </g>
     <g id="line2d_32">
      <g>
       <use xlink:href="#mb13aeb20a6" x="59.149687" y="87.385522" style="stroke: #000000; stroke-width: 0.8"/>
      </g>
     </g>
     <g id="text_17">
      <!-- 120 -->
      <g transform="translate(33.062187 91.184741) scale(0.1 -0.1)">
       <use xlink:href="#DejaVuSans-31"/>
       <use xlink:href="#DejaVuSans-32" x="63.623047"/>
       <use xlink:href="#DejaVuSans-30" x="127.246094"/>
      </g>
     </g>
    </g>
    <g id="ytick_8">
     <g id="line2d_33">
      <path d="M 59.149687 55.760807 
L 416.269688 55.760807 
" clip-path="url(#p072907ef38)" style="fill: none; stroke: #b0b0b0; stroke-width: 0.8; stroke-linecap: square"/>
     </g>
     <g id="line2d_34">
      <g>
       <use xlink:href="#mb13aeb20a6" x="59.149687" y="55.760807" style="stroke: #000000; stroke-width: 0.8"/>
      </g>
     </g>
     <g id="text_18">
      <!-- 140 -->
      <g transform="translate(33.062187 59.560026) scale(0.1 -0.1)">
       <use xlink:href="#DejaVuSans-31"/>
       <use xlink:href="#DejaVuSans-34" x="63.623047"/>
       <use xlink:href="#DejaVuSans-30" x="127.246094"/>
      </g>
     </g>
    </g>
    <g id="ytick_9">
     <g id="line2d_35">
      <path d="M 59.149687 24.136093 
L 416.269688 24.136093 
" clip-path="url(#p072907ef38)" style="fill: none; stroke: #b0b0b0; stroke-width: 0.8; stroke-linecap: square"/>
     </g>
     <g id="line2d_36">
      <g>
       <use xlink:href="#mb13aeb20a6" x="59.149687" y="24.136093" style="stroke: #000000; stroke-width: 0.8"/>
      </g>
     </g>
     <g id="text_19">
      <!-- 160 -->
      <g transform="translate(33.062187 27.935312) scale(0.1 -0.1)">
       <use xlink:href="#DejaVuSans-31"/>
       <use xlink:href="#DejaVuSans-36" x="63.623047"/>
       <use xlink:href="#DejaVuSans-30" x="127.246094"/>
      </g>
     </g>
    </g>
    <g id="text_20">
     <!-- Discharge -->
     <g transform="translate(14.798437 180.418656) rotate(-90) scale(0.1 -0.1)">
      <defs>
       <path id="DejaVuSans-44" d="M 1259 4147 
L 1259 519 
L 2022 519 
Q 2988 519 3436 956 
Q 3884 1394 3884 2338 
Q 3884 3275 3436 3711 
Q 2988 4147 2022 4147 
L 1259 4147 
z
M 628 4666 
L 1925 4666 
Q 3281 4666 3915 4102 
Q 4550 3538 4550 2338 
Q 4550 1131 3912 565 
Q 3275 0 1925 0 
L 628 0 
L 628 4666 
z
" transform="scale(0.015625)"/>
       <path id="DejaVuSans-73" d="M 2834 3397 
L 2834 2853 
Q 2591 2978 2328 3040 
Q 2066 3103 1784 3103 
Q 1356 3103 1142 2972 
Q 928 2841 928 2578 
Q 928 2378 1081 2264 
Q 1234 2150 1697 2047 
L 1894 2003 
Q 2506 1872 2764 1633 
Q 3022 1394 3022 966 
Q 3022 478 2636 193 
Q 2250 -91 1575 -91 
Q 1294 -91 989 -36 
Q 684 19 347 128 
L 347 722 
Q 666 556 975 473 
Q 1284 391 1588 391 
Q 1994 391 2212 530 
Q 2431 669 2431 922 
Q 2431 1156 2273 1281 
Q 2116 1406 1581 1522 
L 1381 1569 
Q 847 1681 609 1914 
Q 372 2147 372 2553 
Q 372 3047 722 3315 
Q 1072 3584 1716 3584 
Q 2034 3584 2315 3537 
Q 2597 3491 2834 3397 
z
" transform="scale(0.015625)"/>
       <path id="DejaVuSans-63" d="M 3122 3366 
L 3122 2828 
Q 2878 2963 2633 3030 
Q 2388 3097 2138 3097 
Q 1578 3097 1268 2742 
Q 959 2388 959 1747 
Q 959 1106 1268 751 
Q 1578 397 2138 397 
Q 2388 397 2633 464 
Q 2878 531 3122 666 
L 3122 134 
Q 2881 22 2623 -34 
Q 2366 -91 2075 -91 
Q 1284 -91 818 406 
Q 353 903 353 1747 
Q 353 2603 823 3093 
Q 1294 3584 2113 3584 
Q 2378 3584 2631 3529 
Q 2884 3475 3122 3366 
z
" transform="scale(0.015625)"/>
       <path id="DejaVuSans-61" d="M 2194 1759 
Q 1497 1759 1228 1600 
Q 959 1441 959 1056 
Q 959 750 1161 570 
Q 1363 391 1709 391 
Q 2188 391 2477 730 
Q 2766 1069 2766 1631 
L 2766 1759 
L 2194 1759 
z
M 3341 1997 
L 3341 0 
L 2766 0 
L 2766 531 
Q 2569 213 2275 61 
Q 1981 -91 1556 -91 
Q 1019 -91 701 211 
Q 384 513 384 1019 
Q 384 1609 779 1909 
Q 1175 2209 1959 2209 
L 2766 2209 
L 2766 2266 
Q 2766 2663 2505 2880 
Q 2244 3097 1772 3097 
Q 1472 3097 1187 3025 
Q 903 2953 641 2809 
L 641 3341 
Q 956 3463 1253 3523 
Q 1550 3584 1831 3584 
Q 2591 3584 2966 3190 
Q 3341 2797 3341 1997 
z
" transform="scale(0.015625)"/>
       <path id="DejaVuSans-67" d="M 2906 1791 
Q 2906 2416 2648 2759 
Q 2391 3103 1925 3103 
Q 1463 3103 1205 2759 
Q 947 2416 947 1791 
Q 947 1169 1205 825 
Q 1463 481 1925 481 
Q 2391 481 2648 825 
Q 2906 1169 2906 1791 
z
M 3481 434 
Q 3481 -459 3084 -895 
Q 2688 -1331 1869 -1331 
Q 1566 -1331 1297 -1286 
Q 1028 -1241 775 -1147 
L 775 -588 
Q 1028 -725 1275 -790 
Q 1522 -856 1778 -856 
Q 2344 -856 2625 -561 
Q 2906 -266 2906 331 
L 2906 616 
Q 2728 306 2450 153 
Q 2172 0 1784 0 
Q 1141 0 747 490 
Q 353 981 353 1791 
Q 353 2603 747 3093 
Q 1141 3584 1784 3584 
Q 2172 3584 2450 3431 
Q 2728 3278 2906 2969 
L 2906 3500 
L 3481 3500 
L 3481 434 
z
" transform="scale(0.015625)"/>
      </defs>
      <use xlink:href="#DejaVuSans-44"/>
      <use xlink:href="#DejaVuSans-69" x="77.001953"/>
      <use xlink:href="#DejaVuSans-73" x="104.785156"/>
      <use xlink:href="#DejaVuSans-63" x="156.884766"/>
      <use xlink:href="#DejaVuSans-68" x="211.865234"/>
      <use xlink:href="#DejaVuSans-61" x="275.244141"/>
      <use xlink:href="#DejaVuSans-72" x="336.523438"/>
      <use xlink:href="#DejaVuSans-67" x="375.886719"/>
      <use xlink:href="#DejaVuSans-65" x="439.363281"/>
     </g>
     <!-- [$m^3.s^{-1}$] -->
     <g transform="translate(26.9825 177.474125) rotate(-90) scale(0.1 -0.1)">
      <defs>
       <path id="DejaVuSans-Oblique-6d" d="M 5747 2113 
L 5338 0 
L 4763 0 
L 5166 2094 
Q 5191 2228 5203 2325 
Q 5216 2422 5216 2491 
Q 5216 2772 5059 2928 
Q 4903 3084 4622 3084 
Q 4203 3084 3875 2770 
Q 3547 2456 3450 1953 
L 3066 0 
L 2491 0 
L 2900 2094 
Q 2925 2209 2937 2307 
Q 2950 2406 2950 2484 
Q 2950 2769 2794 2926 
Q 2638 3084 2363 3084 
Q 1938 3084 1609 2770 
Q 1281 2456 1184 1953 
L 800 0 
L 225 0 
L 909 3500 
L 1484 3500 
L 1375 2956 
Q 1609 3263 1923 3423 
Q 2238 3584 2597 3584 
Q 2978 3584 3223 3384 
Q 3469 3184 3519 2828 
Q 3781 3197 4126 3390 
Q 4472 3584 4856 3584 
Q 5306 3584 5551 3325 
Q 5797 3066 5797 2591 
Q 5797 2488 5784 2364 
Q 5772 2241 5747 2113 
z
" transform="scale(0.015625)"/>
       <path id="DejaVuSans-2e" d="M 684 794 
L 1344 794 
L 1344 0 
L 684 0 
L 684 794 
z
" transform="scale(0.015625)"/>
       <path id="DejaVuSans-Oblique-73" d="M 3200 3397 
L 3091 2853 
Q 2863 2978 2609 3040 
Q 2356 3103 2088 3103 
Q 1634 3103 1373 2948 
Q 1113 2794 1113 2528 
Q 1113 2219 1719 2053 
Q 1766 2041 1788 2034 
L 1972 1978 
Q 2547 1819 2739 1644 
Q 2931 1469 2931 1166 
Q 2931 609 2489 259 
Q 2047 -91 1331 -91 
Q 1053 -91 747 -37 
Q 441 16 72 128 
L 184 722 
Q 500 559 806 475 
Q 1113 391 1394 391 
Q 1816 391 2080 572 
Q 2344 753 2344 1031 
Q 2344 1331 1650 1516 
L 1591 1531 
L 1394 1581 
Q 956 1697 753 1886 
Q 550 2075 550 2369 
Q 550 2928 970 3256 
Q 1391 3584 2113 3584 
Q 2397 3584 2667 3537 
Q 2938 3491 3200 3397 
z
" transform="scale(0.015625)"/>
       <path id="DejaVuSans-2212" d="M 678 2272 
L 4684 2272 
L 4684 1741 
L 678 1741 
L 678 2272 
z
" transform="scale(0.015625)"/>
      </defs>
      <use xlink:href="#DejaVuSans-5b" transform="translate(0 0.765625)"/>
      <use xlink:href="#DejaVuSans-Oblique-6d" transform="translate(39.013672 0.765625)"/>
      <use xlink:href="#DejaVuSans-33" transform="translate(141.075677 39.046875) scale(0.7)"/>
      <use xlink:href="#DejaVuSans-2e" transform="translate(188.346185 0.765625)"/>
      <use xlink:href="#DejaVuSans-Oblique-73" transform="translate(239.615716 0.765625)"/>
      <use xlink:href="#DejaVuSans-2212" transform="translate(296.365221 39.046875) scale(0.7)"/>
      <use xlink:href="#DejaVuSans-31" transform="translate(355.017565 39.046875) scale(0.7)"/>
      <use xlink:href="#DejaVuSans-5d" transform="translate(402.288073 0.765625)"/>
     </g>
    </g>
   </g>
   <g id="line2d_37">
    <path d="M 75.382415 270.476807 
L 76.735612 270.476807 
L 76.961145 270.634931 
L 77.186678 270.5954 
L 77.41221 270.476807 
L 78.088809 270.516338 
L 78.427108 270.753523 
L 78.539875 270.634931 
L 78.765408 270.793054 
L 78.878174 270.793054 
L 78.99094 270.674462 
L 79.216473 270.951178 
L 79.780305 270.951178 
L 80.005838 270.793054 
L 80.118605 270.793054 
L 80.344138 270.951178 
L 80.56967 270.793054 
L 81.471802 270.793054 
L 81.697335 271.148832 
L 81.810101 271.148832 
L 81.922868 270.872116 
L 82.1484 271.109301 
L 82.261167 271.109301 
L 82.4867 270.832585 
L 82.599466 270.358215 
L 82.712233 270.397745 
L 83.050532 270.753523 
L 83.163298 270.713993 
L 83.501598 270.832585 
L 83.72713 270.951178 
L 84.06543 270.753523 
L 84.403729 271.374949 
L 84.516495 270.990709 
L 84.742028 271.069771 
L 84.967561 270.634931 
L 85.080328 270.634931 
L 85.193094 270.516338 
L 85.418627 270.793054 
L 85.982459 270.793054 
L 86.207992 271.109301 
L 86.433525 270.951178 
L 86.771824 270.911647 
L 86.997357 270.634931 
L 87.22289 270.951178 
L 87.335656 270.793054 
L 87.561189 270.872116 
L 87.673955 270.793054 
L 87.786722 270.872116 
L 88.012255 270.634931 
L 88.350554 271.259519 
L 88.46332 270.990709 
L 88.576087 271.069771 
L 88.914386 270.634931 
L 89.027153 270.5954 
L 89.139919 270.793054 
L 89.365452 270.5954 
L 89.703751 270.990709 
L 89.929284 270.634931 
L 90.154817 270.990709 
L 90.493116 270.674462 
L 90.605883 270.872116 
L 90.718649 270.279153 
L 90.831415 270.358215 
L 91.056948 269.681446 
L 91.169715 268.705823 
L 91.282481 268.750098 
L 91.508014 269.037883 
L 91.62078 269.196006 
L 91.733547 269.116944 
L 91.846313 269.401567 
L 91.95908 269.156475 
L 92.071846 269.235537 
L 92.297379 268.750098 
L 92.748445 266.994926 
L 93.086744 264.483924 
L 93.312277 265.053169 
L 94.214408 265.005732 
L 94.439941 264.86342 
L 94.891007 264.910857 
L 95.342072 266.401963 
L 95.567605 267.092963 
L 95.680372 267.092963 
L 95.793138 266.903214 
L 95.905905 266.950652 
L 96.131437 267.456647 
L 96.920802 267.500922 
L 97.146335 267.630583 
L 97.259102 267.630583 
L 97.484635 267.804519 
L 97.710167 267.851956 
L 97.9357 268.123928 
L 98.048467 267.994267 
L 98.274 268.386414 
L 98.386766 268.081235 
L 98.612299 268.168203 
L 98.725065 268.168203 
L 98.950598 267.855118 
L 99.063365 268.342139 
L 99.288897 271.83667 
L 99.51443 267.630583 
L 99.627197 268.520819 
L 99.739963 268.566674 
L 99.965496 268.073329 
L 100.416562 268.863947 
L 100.642095 268.824416 
L 100.754861 268.610949 
L 100.980394 269.670377 
L 101.09316 269.630846 
L 101.43146 269.037883 
L 101.769759 269.037883 
L 102.333591 266.900052 
L 102.559124 267.760244 
L 102.897423 267.804519 
L 103.686788 267.848793 
L 103.912321 268.516075 
L 104.137854 268.429107 
L 104.363387 268.516075 
L 104.927219 268.516075 
L 105.603817 265.752075 
L 106.054883 256.261498 
L 106.393182 254.680262 
L 106.618715 254.838386 
L 106.957015 253.059496 
L 107.182547 253.415274 
L 107.40808 253.889644 
L 107.633613 253.889644 
L 107.74638 253.375743 
L 109.212343 230.092047 
L 109.437876 229.854861 
L 109.550642 230.012985 
L 110.114475 233.096395 
L 110.791073 240.725857 
L 111.580438 246.497367 
L 111.918737 247.92048 
L 112.257037 249.145937 
L 112.708102 249.145937 
L 113.271934 249.620308 
L 113.497467 249.659839 
L 113.723 249.778431 
L 113.835767 249.817962 
L 114.061299 250.410926 
L 114.286832 250.410926 
L 114.625132 250.727173 
L 115.076197 250.727173 
L 115.414497 249.857493 
L 115.640029 245.27191 
L 115.978329 235.54731 
L 116.654927 213.291417 
L 117.218759 204.59462 
L 118.120891 197.9139 
L 118.45919 201.234495 
L 119.474088 217.40263 
L 120.03792 229.459552 
L 120.376219 234.24279 
L 120.488986 234.440445 
L 121.165584 238.591189 
L 121.729417 242.267562 
L 122.293249 244.323168 
L 122.631548 244.995193 
L 122.857081 246.418306 
L 123.19538 246.457836 
L 123.308147 246.457836 
L 123.420913 246.299713 
L 123.646446 245.825342 
L 123.871979 246.299713 
L 124.210278 247.090331 
L 124.435811 248.355319 
L 124.548577 248.355319 
L 124.999643 249.145937 
L 125.112409 249.343592 
L 125.337942 249.936555 
L 125.676242 250.885296 
L 125.789008 250.885296 
L 125.901774 251.082951 
L 126.240074 254.482608 
L 126.465607 255.352287 
L 126.691139 255.47088 
L 127.593271 255.47088 
L 128.044337 256.103374 
L 128.157103 256.182436 
L 128.495402 257.052116 
L 128.608169 257.052116 
L 128.720935 256.893992 
L 129.059234 258.158981 
L 129.961366 258.158981 
L 130.299665 258.396166 
L 130.750731 260.095995 
L 131.540096 261.005205 
L 132.103928 260.214587 
L 132.442227 260.214587 
L 132.66776 260.372711 
L 132.893293 260.214587 
L 133.344359 260.293649 
L 133.569891 260.056464 
L 133.682658 260.056464 
L 133.795424 259.858809 
L 134.584789 253.019965 
L 134.810322 250.924827 
L 135.148621 250.094679 
L 136.163519 246.774084 
L 136.276286 246.774084 
L 136.501819 247.722825 
L 136.727351 248.355319 
L 136.952884 248.908752 
L 137.178417 250.252802 
L 137.40395 251.992162 
L 137.629483 251.992162 
L 138.531614 253.099027 
L 138.644381 253.019965 
L 138.98268 251.122482 
L 139.208213 251.04342 
L 139.546512 251.04342 
L 139.659279 250.885296 
L 139.772045 250.055148 
L 140.223111 243.927859 
L 140.335877 243.927859 
L 140.674176 244.797539 
L 140.899709 246.457836 
L 141.125242 246.61596 
L 141.238009 246.892676 
L 141.463541 248.513443 
L 141.576308 248.671566 
L 141.801841 249.462184 
L 141.914607 249.580777 
L 142.14014 250.015617 
L 142.365673 250.213271 
L 142.591206 250.727173 
L 143.042271 248.671566 
L 143.267804 248.513443 
L 143.944403 248.513443 
L 144.169936 248.987814 
L 144.282702 248.987814 
L 144.508235 249.145937 
L 144.846534 249.145937 
L 145.2976 249.620308 
L 145.523133 249.778431 
L 145.748666 250.450457 
L 146.312498 252.466532 
L 146.538031 252.82231 
L 146.87633 253.810583 
L 147.101863 254.12683 
L 147.327396 254.443077 
L 147.552929 255.708065 
L 147.778461 256.103374 
L 147.891228 256.261498 
L 148.116761 257.368363 
L 148.567826 257.052116 
L 148.793359 257.131178 
L 149.357191 257.526487 
L 149.582724 258.000857 
L 150.259323 258.791475 
L 150.372089 258.791475 
L 150.484856 258.910068 
L 150.710389 260.372711 
L 150.823155 260.056464 
L 150.935921 259.819278 
L 151.161454 259.977402 
L 151.61252 261.163329 
L 151.838053 261.005205 
L 152.289118 261.463764 
L 153.642316 261.289828 
L 153.867848 261.163329 
L 154.318914 261.223416 
L 154.657213 261.832191 
L 154.882746 262.539004 
L 155.333812 262.583278 
L 155.559345 262.71294 
L 155.672111 262.71294 
L 156.235943 263.498814 
L 156.34871 263.445052 
L 156.461476 262.594347 
L 156.687009 262.681315 
L 157.250841 262.665503 
L 157.92744 263.361246 
L 158.378506 263.392871 
L 159.055104 263.471933 
L 159.280637 263.550995 
L 159.618936 263.550995 
L 159.844469 263.724931 
L 160.182768 264.001647 
L 160.521068 264.831796 
L 165.144491 264.721109 
L 165.482791 264.705297 
L 165.82109 265.068981 
L 165.933856 265.068981 
L 166.159389 265.242917 
L 166.723221 265.230267 
L 167.061521 265.780537 
L 168.414718 265.83588 
L 168.640251 266.112597 
L 168.97855 266.00191 
L 169.204083 265.907036 
L 169.316849 265.907036 
L 169.429616 266.226446 
L 169.880681 265.654038 
L 169.993448 265.005732 
L 170.21898 265.14488 
L 170.895579 265.116418 
L 171.233878 265.301423 
L 171.459411 265.385228 
L 171.684944 265.472196 
L 172.13601 265.369416 
L 172.812608 264.879233 
L 173.263674 264.879233 
L 173.489207 265.053169 
L 173.940273 265.274542 
L 174.165805 265.401041 
L 174.504105 265.306166 
L 174.729638 265.211292 
L 175.29347 265.100606 
L 175.857302 263.297997 
L 175.970068 262.586441 
L 176.195601 259.89834 
L 176.421134 259.740217 
L 176.5339 259.582093 
L 176.984966 258.238043 
L 177.097733 256.182436 
L 177.323265 244.758008 
L 178.225397 189.612412 
L 178.789229 180.717961 
L 179.014762 178.543762 
L 179.240295 178.780947 
L 179.353061 178.622824 
L 179.578594 180.757492 
L 179.804127 183.247938 
L 181.60839 230.882665 
L 182.059455 237.049484 
L 182.284988 237.563385 
L 182.510521 239.065559 
L 182.961587 242.979118 
L 183.299886 242.979118 
L 183.638185 243.927859 
L 183.863718 245.983466 
L 184.653083 246.61596 
L 184.878616 247.090331 
L 185.329682 244.520823 
L 185.893514 231.198912 
L 187.359478 188.426485 
L 187.472244 188.426485 
L 188.148843 183.129345 
L 188.374375 182.89216 
L 188.487142 182.89216 
L 188.599908 182.773567 
L 188.712675 183.010753 
L 188.825441 183.840902 
L 188.938208 183.840902 
L 189.389273 186.529002 
L 189.614806 189.96819 
L 189.840339 197.439529 
L 190.291405 205.068991 
L 190.629704 209.89176 
L 191.08077 218.707149 
L 191.757368 232.503431 
L 192.3212 238.314472 
L 192.885032 242.62334 
L 192.997799 243.05818 
L 193.223332 245.232379 
L 193.561631 245.825342 
L 193.674397 245.825342 
L 194.576529 250.015617 
L 195.027595 250.727173 
L 195.253127 250.964358 
L 195.591427 251.992162 
L 195.81696 252.071223 
L 196.155259 252.624656 
L 196.268025 252.743248 
L 196.380792 253.178088 
L 196.606325 254.680262 
L 197.170157 254.680262 
L 197.39569 254.364015 
L 197.621222 254.364015 
L 197.959522 254.838386 
L 198.185055 254.996509 
L 198.523354 255.075571 
L 198.748887 256.893992 
L 198.861653 256.854461 
L 199.087186 256.538214 
L 199.199952 256.419622 
L 199.312719 256.498683 
L 199.651018 257.052116 
L 200.327617 257.052116 
L 200.55315 256.893992 
L 201.79358 256.893992 
L 202.019113 258.198512 
L 202.13188 258.000857 
L 202.357412 257.368363 
L 202.808478 257.368363 
L 203.146777 257.842734 
L 203.71061 257.842734 
L 204.612741 258.633352 
L 204.725507 258.633352 
L 205.063807 259.265846 
L 205.514872 259.265846 
L 205.853172 259.582093 
L 206.078705 260.056464 
L 206.417004 259.977402 
L 206.642537 260.372711 
L 207.431902 260.372711 
L 207.770201 259.740217 
L 208.785099 259.740217 
L 209.123398 258.040388 
L 209.236164 258.000857 
L 209.461697 257.68461 
L 209.574464 257.68461 
L 209.68723 257.842734 
L 209.799997 257.68461 
L 210.025529 258.158981 
L 210.138296 257.842734 
L 210.589362 258.870537 
L 210.702128 258.791475 
L 211.491493 258.791475 
L 211.717026 259.423969 
L 212.055325 259.423969 
L 212.280858 259.503031 
L 212.506391 259.423969 
L 212.619157 259.423969 
L 212.84469 259.89834 
L 214.085121 259.858809 
L 214.310654 259.582093 
L 214.648953 258.633352 
L 214.761719 258.633352 
L 214.874486 258.791475 
L 214.987252 258.712413 
L 215.325552 256.459152 
L 215.551084 255.629004 
L 215.663851 255.589473 
L 215.889384 253.178088 
L 216.00215 253.099027 
L 216.114917 252.861841 
L 216.227683 252.940903 
L 216.340449 252.664187 
L 216.678749 251.280605 
L 216.791515 251.201544 
L 217.017048 250.648111 
L 217.242581 250.727173 
L 217.355347 250.727173 
L 217.58088 251.04342 
L 217.806413 250.964358 
L 218.031946 250.489988 
L 218.257479 250.569049 
L 218.483012 250.569049 
L 218.934077 249.620308 
L 219.15961 249.620308 
L 219.385143 249.936555 
L 219.610676 249.936555 
L 219.723442 250.055148 
L 219.836209 250.371395 
L 219.948975 251.04342 
L 220.625574 251.04342 
L 220.851107 251.517791 
L 221.866004 251.517791 
L 222.091537 251.9131 
L 222.31707 252.782779 
L 222.429837 252.782779 
L 222.542603 252.940903 
L 222.768136 253.415274 
L 222.993669 253.454805 
L 223.106435 254.12683 
L 223.219202 254.047768 
L 223.557501 254.205892 
L 223.8958 254.047768 
L 224.121333 254.047768 
L 224.346866 254.522139 
L 224.459632 254.522139 
L 224.685165 255.312757 
L 224.797932 255.589473 
L 225.136231 257.210239 
L 225.47453 258.158981 
L 226.602194 259.186784 
L 228.180924 260.214587 
L 228.293691 260.214587 
L 228.519224 260.372711 
L 229.308589 260.847082 
L 229.421355 260.847082 
L 229.646888 261.005205 
L 230.661786 261.582356 
L 231.676684 261.965015 
L 235.172443 263.079786 
L 238.217136 263.740743 
L 239.795866 263.851429 
L 242.051195 264.12024 
L 249.381013 265.053169 
L 255.019334 265.741006 
L 255.357633 265.416853 
L 255.695933 264.689484 
L 256.034232 261.634537 
L 256.372531 253.968706 
L 257.274663 220.920879 
L 257.838495 197.558121 
L 258.176794 193.170192 
L 258.289561 192.379574 
L 258.740626 185.10589 
L 258.966159 178.227515 
L 259.191692 157.750512 
L 259.529991 111.104058 
L 259.868291 98.849481 
L 259.981057 98.454172 
L 260.093823 96.872936 
L 260.883188 63.666986 
L 260.995955 65.248222 
L 261.221488 61.295132 
L 261.334254 63.666986 
L 261.447021 61.295132 
L 261.672553 61.295132 
L 261.78532 63.666986 
L 262.010853 69.991929 
L 262.123619 70.387238 
L 262.236386 73.1544 
L 262.349152 73.1544 
L 262.461918 76.316872 
L 262.574685 74.735636 
L 262.800218 77.898108 
L 262.912984 79.479343 
L 263.025751 79.479343 
L 263.251283 76.316872 
L 263.476816 82.641815 
L 263.589583 84.223051 
L 263.702349 84.223051 
L 263.815116 87.385522 
L 264.040648 81.060579 
L 264.266181 90.547993 
L 264.491714 84.223051 
L 264.717247 88.966758 
L 264.94278 92.129229 
L 265.055546 89.362067 
L 265.168313 90.547993 
L 265.281079 90.547993 
L 265.393846 93.710465 
L 265.506612 91.73392 
L 265.844911 95.291701 
L 265.957678 92.129229 
L 266.183211 101.616644 
L 266.408743 104.779115 
L 266.52151 109.522822 
L 266.634276 107.941586 
L 266.972575 129.3278 
L 267.536408 148.776999 
L 268.438539 173.444277 
L 268.889605 182.89216 
L 269.002371 183.603716 
L 269.453437 189.217103 
L 269.791736 192.972538 
L 270.693868 200.009037 
L 271.934298 207.717561 
L 272.047065 207.717561 
L 272.159831 207.836154 
L 272.272598 208.191932 
L 272.385364 208.073339 
L 272.610897 207.164129 
L 272.949196 204.55509 
L 273.513028 196.490787 
L 274.189627 178.148453 
L 274.527926 159.252686 
L 274.753459 131.264813 
L 275.204525 66.434149 
L 275.542824 45.087466 
L 275.99389 35.600052 
L 276.106656 39.157832 
L 276.219423 34.414125 
L 276.332189 37.971905 
L 276.444955 36.785979 
L 276.557722 36.785979 
L 276.670488 39.157832 
L 276.783255 37.971905 
L 276.896021 41.529686 
L 277.008788 40.343759 
L 277.23432 47.45932 
L 277.347087 47.45932 
L 277.685386 58.52797 
L 277.798153 59.713897 
L 277.910919 70.782547 
L 278.023685 69.59662 
L 278.587518 90.547993 
L 278.81305 96.872936 
L 278.925817 96.872936 
L 279.15135 103.197879 
L 279.489649 103.197879 
L 279.940715 115.847765 
L 280.166248 115.847765 
L 280.39178 122.647079 
L 280.504547 122.647079 
L 280.617313 128.972022 
L 280.842846 128.972022 
L 280.955613 134.980717 
L 281.068379 134.980717 
L 281.293912 140.475512 
L 281.406678 140.356919 
L 281.632211 145.416873 
L 281.744978 146.6028 
L 281.857744 150.16058 
L 281.97051 150.16058 
L 282.083277 154.429917 
L 282.196043 154.429917 
L 282.30881 158.224883 
L 282.421576 158.224883 
L 282.534343 161.861725 
L 282.647109 161.861725 
L 282.872642 165.775283 
L 283.436474 175.144105 
L 283.774773 179.33438 
L 284.564138 187.003373 
L 284.676905 187.240558 
L 286.030102 195.621108 
L 286.142868 195.7397 
L 287.383299 201.866989 
L 287.496065 202.025112 
L 287.947131 203.448225 
L 288.510963 204.871337 
L 288.62373 204.871337 
L 288.962029 205.978202 
L 289.187562 205.978202 
L 289.413095 206.610696 
L 289.751394 207.085067 
L 289.86416 207.203659 
L 290.20246 208.231463 
L 290.315226 209.970822 
L 290.427992 209.140673 
L 290.540759 209.259266 
L 290.879058 210.089415 
L 291.44289 210.089415 
L 293.02162 215.386554 
L 293.134387 216.256234 
L 293.923752 216.256234 
L 294.93865 217.83747 
L 296.404613 220.841818 
L 296.51738 220.841818 
L 297.419511 223.529918 
L 297.645044 224.953031 
L 298.547175 232.4639 
L 298.659942 232.622024 
L 299.900372 236.575113 
L 300.125905 237.444793 
L 300.351438 238.591189 
L 301.140803 241.081635 
L 301.591869 241.714129 
L 301.817402 242.1885 
L 302.042935 242.109438 
L 302.155701 241.911784 
L 302.494 240.291017 
L 302.719533 240.132894 
L 303.170599 240.053832 
L 303.396132 239.97477 
L 303.508898 240.053832 
L 303.734431 240.291017 
L 303.847197 240.370079 
L 304.07273 240.607264 
L 304.41103 240.607264 
L 304.523796 240.449141 
L 304.749329 240.765388 
L 306.553592 240.765388 
L 307.117424 241.397882 
L 307.681256 240.132894 
L 308.583387 240.211955 
L 308.921687 240.963042 
L 309.034453 241.714129 
L 309.259986 241.714129 
L 309.372752 241.872253 
L 309.598285 242.662871 
L 311.064249 242.741932 
L 311.402548 243.05818 
L 311.515314 243.295365 
L 311.740847 244.085983 
L 311.853614 244.165045 
L 312.079147 244.40223 
L 312.191913 244.441761 
L 312.417446 245.034724 
L 312.868512 246.299713 
L 313.094044 247.327516 
L 313.319577 248.157665 
L 313.54511 248.869221 
L 313.770643 249.462184 
L 313.883409 249.69937 
L 314.221709 251.359667 
L 314.447242 251.359667 
L 314.560008 251.675914 
L 314.672774 253.533866 
L 314.785541 253.454805 
L 315.011074 252.110754 
L 315.12384 251.992162 
L 315.349373 252.308409 
L 315.462139 252.427001 
L 315.687672 253.731521 
L 316.025972 253.810583 
L 316.364271 254.324484 
L 316.928103 254.996509 
L 317.379169 255.787127 
L 317.717468 256.103374 
L 317.943001 256.577745 
L 318.2813 256.577745 
L 318.506833 256.103374 
L 319.634497 256.182436 
L 319.747264 256.380091 
L 319.86003 256.34056 
L 320.311096 257.052116 
L 320.423862 257.052116 
L 320.649395 257.210239 
L 320.987694 257.210239 
L 321.213227 257.368363 
L 322.228125 257.447425 
L 322.453658 257.842734 
L 322.679191 258.000857 
L 322.791957 258.000857 
L 323.01749 258.949599 
L 323.581322 258.949599 
L 323.694089 259.107722 
L 323.919622 259.582093 
L 324.145154 259.107722 
L 324.59622 259.107722 
L 324.821753 259.423969 
L 325.047286 259.265846 
L 325.498351 259.265846 
L 325.611118 259.4635 
L 325.723884 260.214587 
L 325.836651 259.858809 
L 325.949417 258.949599 
L 326.062184 259.107722 
L 326.287716 259.621624 
L 326.513249 259.89834 
L 326.964315 259.858809 
L 327.189848 259.740217 
L 327.528147 259.779747 
L 328.317512 260.530834 
L 328.655811 260.530834 
L 329.106877 261.005205 
L 329.33241 261.005205 
L 329.557943 260.688958 
L 331.023906 260.609896 
L 331.249439 260.530834 
L 333.392001 260.609896 
L 333.730301 260.847082 
L 334.745199 260.847082 
L 334.970731 260.688958 
L 335.083498 260.688958 
L 335.309031 259.226315 
L 335.985629 254.364015 
L 336.098396 254.364015 
L 336.323929 253.69199 
L 336.549461 252.308409 
L 336.887761 251.438729 
L 337.113294 251.359667 
L 337.451593 249.857493 
L 338.015425 248.434381 
L 338.240958 248.236727 
L 338.466491 247.406578 
L 338.917556 247.446109 
L 339.143089 247.564701 
L 339.368622 247.564701 
L 339.594155 247.880949 
L 339.706921 247.880949 
L 339.932454 248.355319 
L 340.157987 248.355319 
L 340.496286 248.987814 
L 340.609053 248.987814 
L 340.947352 249.304061 
L 341.172885 249.462184 
L 341.285651 249.541246 
L 341.511184 249.936555 
L 341.849484 250.727173 
L 342.300549 250.727173 
L 342.413316 250.845766 
L 342.638849 251.359667 
L 342.751615 251.754976 
L 342.977148 252.782779 
L 343.766513 252.82231 
L 343.992046 252.940903 
L 344.217578 253.731521 
L 344.443111 253.771052 
L 344.555878 252.624656 
L 344.894177 254.047768 
L 345.006943 254.205892 
L 345.232476 254.047768 
L 346.021841 254.12683 
L 346.247374 254.364015 
L 346.360141 254.364015 
L 346.472907 254.482608 
L 346.69844 254.996509 
L 347.262272 254.996509 
L 347.487805 255.629004 
L 347.600571 255.629004 
L 347.713338 255.787127 
L 348.164403 257.210239 
L 349.292068 257.210239 
L 349.8559 257.842734 
L 350.306966 257.842734 
L 350.532498 258.158981 
L 350.758031 258.158981 
L 350.983564 259.265846 
L 351.660163 259.265846 
L 351.885696 259.028661 
L 352.111228 258.475228 
L 352.223995 258.356635 
L 352.449528 257.091647 
L 352.675061 254.719793 
L 353.01336 254.324484 
L 353.238893 252.268878 
L 353.577192 248.869221 
L 353.915491 244.718477 
L 354.704856 241.081635 
L 354.930389 240.923511 
L 355.155922 240.923511 
L 355.268688 241.160697 
L 355.494221 242.030376 
L 355.606988 242.109438 
L 355.832521 242.662871 
L 356.058053 242.662871 
L 356.621886 244.244106 
L 356.960185 244.718477 
L 357.298484 245.627688 
L 357.411251 245.667219 
L 357.636783 245.983466 
L 357.74955 245.904404 
L 357.975083 242.939587 
L 358.313382 238.19588 
L 358.538915 236.140273 
L 359.215513 227.957378 
L 359.441046 226.336612 
L 359.666579 226.218019 
L 359.779346 226.218019 
L 359.892112 226.494735 
L 360.343178 229.617676 
L 361.132543 235.428717 
L 361.470842 237.168077 
L 362.147441 238.591189 
L 362.598506 239.223683 
L 362.824039 239.856177 
L 363.049572 240.646795 
L 363.387871 241.556006 
L 363.500638 241.556006 
L 363.613404 241.714129 
L 363.951703 242.820994 
L 364.177236 242.820994 
L 364.402769 243.255834 
L 364.741068 245.430033 
L 364.966601 245.509095 
L 365.079368 245.509095 
L 365.3049 245.192848 
L 365.868733 246.457836 
L 366.319798 248.197196 
L 366.658098 248.711097 
L 366.88363 249.145937 
L 367.672995 249.185468 
L 368.011295 251.517791 
L 369.364492 251.517791 
L 369.477258 252.82231 
L 369.590025 251.675914 
L 369.702791 251.873569 
L 369.928324 252.624656 
L 370.37939 252.703718 
L 370.604923 254.12683 
L 370.830455 254.482608 
L 371.168755 254.522139 
L 371.61982 254.443077 
L 371.845353 254.364015 
L 371.95812 254.364015 
L 372.183653 254.798855 
L 372.296419 255.233695 
L 372.521952 256.893992 
L 372.634718 255.945251 
L 372.747485 255.945251 
L 373.085784 255.352287 
L 373.875149 256.103374 
L 374.213448 256.103374 
L 374.551748 256.419622 
L 375.453879 256.419622 
L 375.566645 256.617276 
L 375.792178 258.158981 
L 375.904945 258.158981 
L 376.243244 257.68461 
L 376.468777 257.842734 
L 377.93474 257.842734 
L 378.498573 258.475228 
L 379.287938 258.514759 
L 379.51347 259.226315 
L 379.739003 259.582093 
L 380.302835 259.582093 
L 380.528368 259.740217 
L 381.656033 259.819278 
L 381.881565 260.056464 
L 382.332631 260.688958 
L 382.558164 260.688958 
L 382.783697 261.005205 
L 383.00923 260.847082 
L 384.24966 260.926143 
L 384.475193 261.321452 
L 385.490091 262.333443 
L 387.40712 262.333443 
L 387.632653 262.539004 
L 390.790113 262.539004 
L 391.128412 262.950125 
L 393.496507 263.000725 
L 393.72204 263.155686 
L 394.06034 263.052905 
L 394.285872 262.950125 
L 394.398639 262.950125 
L 394.736938 263.550995 
L 396.428435 263.448214 
L 396.653967 263.345434 
L 396.766734 263.358084 
L 396.8795 263.258466 
L 397.105033 262.744564 
L 397.781632 262.644947 
L 398.007165 261.716761 
L 398.119931 261.716761 
L 398.345464 262.135789 
L 398.570997 265.574976 
L 398.79653 264.38905 
L 399.022062 264.136052 
L 399.360362 264.088615 
L 399.473128 263.753393 
L 399.585895 262.705034 
L 399.698661 262.705034 
L 399.924194 263.155686 
L 400.03696 263.155686 
L 400.03696 263.155686 
" clip-path="url(#p072907ef38)" style="fill: none; stroke: #1f77b4; stroke-opacity: 0.75; stroke-width: 1.5; stroke-linecap: square"/>
   </g>
   <g id="line2d_38">
    <path d="M 75.382415 276.334125 
L 75.720714 275.489027 
L 76.17178 275.015803 
L 76.735612 274.853081 
L 77.75051 274.892313 
L 82.035634 275.228879 
L 82.712233 275.188689 
L 83.501598 275.119777 
L 84.290963 275.046395 
L 85.418627 274.526354 
L 86.320758 274.544684 
L 89.139919 274.753308 
L 90.267583 274.610451 
L 90.38035 274.255911 
L 90.718649 270.773613 
L 91.169715 266.559106 
L 91.508014 265.142233 
L 91.733547 264.475712 
L 92.071846 262.305596 
L 92.410145 258.912979 
L 93.19951 250.074695 
L 93.53781 248.8626 
L 93.876109 248.527826 
L 94.77824 248.310721 
L 95.11654 248.469358 
L 96.35697 249.553137 
L 97.822934 251.657317 
L 99.739963 254.198874 
L 100.416562 254.945943 
L 100.867627 255.26266 
L 101.43146 255.666778 
L 101.656992 255.097696 
L 102.897423 252.280601 
L 103.122956 252.195063 
L 103.574022 252.37106 
L 104.137854 252.895004 
L 104.701686 253.416896 
L 104.814452 252.870472 
L 105.491051 245.097104 
L 105.82935 239.783703 
L 106.16765 237.476955 
L 106.505949 236.718756 
L 106.844248 236.629172 
L 107.295314 236.716692 
L 107.40808 236.746282 
L 107.520847 236.582602 
L 107.633613 235.891551 
L 107.859146 231.387872 
L 108.310212 222.813563 
L 108.761277 217.326468 
L 109.099577 215.86589 
L 109.437876 215.492655 
L 109.663409 215.547734 
L 110.001708 216.062185 
L 110.452774 217.12204 
L 111.580438 220.607431 
L 113.835767 227.466966 
L 114.286832 228.4136 
L 114.512365 228.587052 
L 114.625132 228.495664 
L 115.188964 225.734076 
L 115.414497 223.182959 
L 116.316628 207.928297 
L 116.88046 203.971487 
L 117.669825 200.089519 
L 117.895358 199.271841 
L 118.120891 199.11334 
L 118.346424 199.375282 
L 118.684723 200.242669 
L 119.474088 203.164105 
L 122.293249 214.096914 
L 122.857081 215.694168 
L 123.420913 215.071308 
L 123.646446 215.310023 
L 124.097512 216.323225 
L 125.112409 219.458559 
L 127.254972 226.02616 
L 129.5103 232.239317 
L 131.540096 237.203197 
L 133.118826 240.661434 
L 133.231592 240.775127 
L 133.344359 240.580521 
L 133.682658 238.170295 
L 134.020957 235.613184 
L 134.359256 234.660474 
L 134.584789 234.55729 
L 134.810322 234.696694 
L 135.486921 235.427438 
L 135.82522 235.517746 
L 136.276286 236.057473 
L 137.291184 237.289889 
L 137.516716 237.383855 
L 137.629483 237.236984 
L 137.855016 236.422204 
L 138.757147 232.308895 
L 139.208213 231.729802 
L 139.997578 228.501983 
L 140.223111 228.47085 
L 140.56141 228.851611 
L 141.125242 230.0166 
L 142.929505 234.033965 
L 146.086965 241.150718 
L 148.229527 245.337082 
L 150.372089 249.036484 
L 152.514651 252.305482 
L 154.76998 255.336507 
L 157.025308 257.997505 
L 159.393403 260.442666 
L 161.761498 262.575393 
L 164.24236 264.518004 
L 166.835988 266.27234 
L 169.655148 267.903681 
L 172.587075 269.340902 
L 175.744535 270.639442 
L 176.759433 270.958941 
L 176.8722 270.675712 
L 176.984966 269.443541 
L 177.210499 261.740995 
L 177.661565 242.97896 
L 177.999864 236.82235 
L 178.338163 234.193603 
L 178.676463 233.318927 
L 178.901995 233.251819 
L 179.127528 233.419896 
L 179.578594 234.136136 
L 180.706258 236.611143 
L 183.074353 241.764849 
L 184.653083 244.79733 
L 184.76585 244.828024 
L 184.991383 244.524782 
L 185.329682 242.793909 
L 185.780748 239.36392 
L 186.908412 227.45708 
L 187.246711 224.709868 
L 187.58501 223.673362 
L 187.810543 223.3939 
L 188.036076 223.398552 
L 188.374375 223.739258 
L 188.825441 224.67478 
L 190.065872 228.043293 
L 192.3212 234.015516 
L 194.350996 238.783083 
L 196.493558 243.245014 
L 198.63612 247.187819 
L 200.778682 250.671898 
L 202.921245 253.750624 
L 205.176573 256.605229 
L 207.431902 259.111342 
L 207.995734 259.645274 
L 208.1085 259.586834 
L 208.221267 259.31386 
L 208.4468 257.0357 
L 208.785099 254.108785 
L 209.123398 252.884722 
L 209.461697 252.51963 
L 209.799997 252.57889 
L 210.251062 252.959846 
L 211.378727 254.339533 
L 213.521289 256.937693 
L 213.634055 256.903548 
L 215.212785 254.024253 
L 215.551084 253.97104 
L 216.00215 254.200142 
L 216.904282 254.901626 
L 218.144712 256.021495 
L 219.046844 256.552243 
L 220.512807 258.113165 
L 222.993669 260.645857 
L 225.361764 262.752591 
L 227.842625 264.671556 
L 230.436253 266.40454 
L 233.255414 268.016027 
L 236.187341 269.435752 
L 239.344801 270.718488 
L 242.84056 271.890881 
L 246.674619 272.931888 
L 250.846976 273.831329 
L 255.357633 274.580942 
L 255.4704 274.503868 
L 255.583166 274.124464 
L 255.808699 271.991608 
L 256.034232 266.333563 
L 257.04913 226.801584 
L 257.951261 210.8865 
L 258.515093 201.984487 
L 258.740626 184.209073 
L 259.417225 124.683742 
L 259.755524 114.37301 
L 261.221488 86.253784 
L 261.334254 85.989196 
L 261.447021 86.031534 
L 261.672553 86.793997 
L 262.123619 89.923146 
L 263.815116 103.760119 
L 264.153415 104.126893 
L 264.378948 104.957162 
L 264.830013 107.916113 
L 265.957678 117.71915 
L 268.213006 137.088347 
L 270.017269 150.767901 
L 270.693868 154.175164 
L 271.595999 159.24731 
L 272.272598 163.013813 
L 272.385364 162.968432 
L 272.723663 162.028561 
L 273.061963 159.334831 
L 273.400262 153.842409 
L 273.851328 147.300441 
L 274.302393 141.291287 
L 275.091758 129.34347 
L 275.317291 128.090309 
L 275.542824 127.76527 
L 275.768357 127.960173 
L 276.106656 128.790069 
L 276.670488 130.585774 
L 277.23432 134.11673 
L 278.81305 145.218887 
L 279.264116 146.507246 
L 279.827948 149.123685 
L 280.842846 155.732792 
L 283.323708 171.826356 
L 285.353503 183.464457 
L 287.270532 193.200384 
L 288.849262 200.293217 
L 289.751394 203.315875 
L 291.217357 208.102307 
L 291.893956 210.283322 
L 295.502482 222.7216 
L 297.532277 228.738106 
L 299.562073 234.089417 
L 301.591869 238.849006 
L 303.734431 243.303273 
L 305.876993 247.23219 
L 308.019555 250.710776 
L 310.162117 253.784979 
L 312.417446 256.635389 
L 314.672774 259.137827 
L 317.040869 261.437281 
L 319.521731 263.531761 
L 322.115359 265.423244 
L 324.821753 267.117119 
L 327.640914 268.621582 
L 330.685607 269.993651 
L 333.730301 271.139603 
L 334.0686 271.083571 
L 334.406899 270.810246 
L 334.519666 270.626885 
L 334.632432 270.231074 
L 335.421797 263.816415 
L 335.985629 261.443949 
L 336.662228 259.834025 
L 337.902659 257.092712 
L 340.270754 253.166892 
L 340.609053 253.069276 
L 341.172885 253.293515 
L 342.300549 253.946879 
L 343.202681 253.681876 
L 343.766513 254.1285 
L 344.217578 254.44719 
L 344.443111 254.093002 
L 345.458009 252.587152 
L 345.683542 252.484195 
L 346.021841 252.604558 
L 346.585673 253.14822 
L 347.713338 254.366292 
L 348.389936 254.534041 
L 349.066535 255.187953 
L 351.43463 257.788714 
L 351.660163 256.782708 
L 351.998462 253.141306 
L 352.675061 246.102803 
L 353.126126 243.196191 
L 353.577192 240.159308 
L 354.028258 238.943056 
L 354.366557 238.374329 
L 355.043156 238.080895 
L 355.381455 238.418706 
L 356.058053 239.592433 
L 358.538915 244.306266 
L 359.666579 245.723011 
L 361.470842 248.478412 
L 362.372973 249.434446 
L 364.06447 251.888153 
L 366.319798 254.961771 
L 366.658098 255.231674 
L 367.672995 255.472325 
L 368.575127 256.403286 
L 371.281521 259.304156 
L 373.649616 261.580985 
L 376.130478 263.65628 
L 378.724105 265.530447 
L 381.4305 267.208816 
L 384.24966 268.699506 
L 387.294354 270.059014 
L 388.422018 270.450652 
L 389.211383 270.506625 
L 390.90288 270.874755 
L 391.805011 270.244508 
L 392.368843 270.305162 
L 393.72204 270.55583 
L 394.398639 270.069705 
L 394.962471 270.095772 
L 396.202902 270.500186 
L 396.8795 270.648942 
L 397.781632 270.870925 
L 399.022062 271.189824 
L 399.247595 270.973431 
L 400.03696 269.887881 
L 400.03696 269.887881 
" clip-path="url(#p072907ef38)" style="fill: none; stroke: #ff7f0e; stroke-opacity: 0.75; stroke-width: 1.5; stroke-linecap: square"/>
   </g>
   <g id="patch_3">
    <path d="M 59.149687 288.430125 
L 59.149687 22.318125 
" style="fill: none; stroke: #000000; stroke-width: 0.8; stroke-linejoin: miter; stroke-linecap: square"/>
   </g>
   <g id="patch_4">
    <path d="M 416.269688 288.430125 
L 416.269688 22.318125 
" style="fill: none; stroke: #000000; stroke-width: 0.8; stroke-linejoin: miter; stroke-linecap: square"/>
   </g>
   <g id="patch_5">
    <path d="M 59.149687 288.430125 
L 416.269687 288.430125 
" style="fill: none; stroke: #000000; stroke-width: 0.8; stroke-linejoin: miter; stroke-linecap: square"/>
   </g>
   <g id="patch_6">
    <path d="M 59.149687 22.318125 
L 416.269687 22.318125 
" style="fill: none; stroke: #000000; stroke-width: 0.8; stroke-linejoin: miter; stroke-linecap: square"/>
   </g>
   <g id="text_21">
    <!-- Observed vs. Simulated River Flow -->
    <g transform="translate(133.06875 16.318125) scale(0.12 -0.12)">
     <defs>
      <path id="DejaVuSans-4f" d="M 2522 4238 
Q 1834 4238 1429 3725 
Q 1025 3213 1025 2328 
Q 1025 1447 1429 934 
Q 1834 422 2522 422 
Q 3209 422 3611 934 
Q 4013 1447 4013 2328 
Q 4013 3213 3611 3725 
Q 3209 4238 2522 4238 
z
M 2522 4750 
Q 3503 4750 4090 4092 
Q 4678 3434 4678 2328 
Q 4678 1225 4090 567 
Q 3503 -91 2522 -91 
Q 1538 -91 948 565 
Q 359 1222 359 2328 
Q 359 3434 948 4092 
Q 1538 4750 2522 4750 
z
" transform="scale(0.015625)"/>
      <path id="DejaVuSans-62" d="M 3116 1747 
Q 3116 2381 2855 2742 
Q 2594 3103 2138 3103 
Q 1681 3103 1420 2742 
Q 1159 2381 1159 1747 
Q 1159 1113 1420 752 
Q 1681 391 2138 391 
Q 2594 391 2855 752 
Q 3116 1113 3116 1747 
z
M 1159 2969 
Q 1341 3281 1617 3432 
Q 1894 3584 2278 3584 
Q 2916 3584 3314 3078 
Q 3713 2572 3713 1747 
Q 3713 922 3314 415 
Q 2916 -91 2278 -91 
Q 1894 -91 1617 61 
Q 1341 213 1159 525 
L 1159 0 
L 581 0 
L 581 4863 
L 1159 4863 
L 1159 2969 
z
" transform="scale(0.015625)"/>
      <path id="DejaVuSans-76" d="M 191 3500 
L 800 3500 
L 1894 563 
L 2988 3500 
L 3597 3500 
L 2284 0 
L 1503 0 
L 191 3500 
z
" transform="scale(0.015625)"/>
      <path id="DejaVuSans-64" d="M 2906 2969 
L 2906 4863 
L 3481 4863 
L 3481 0 
L 2906 0 
L 2906 525 
Q 2725 213 2448 61 
Q 2172 -91 1784 -91 
Q 1150 -91 751 415 
Q 353 922 353 1747 
Q 353 2572 751 3078 
Q 1150 3584 1784 3584 
Q 2172 3584 2448 3432 
Q 2725 3281 2906 2969 
z
M 947 1747 
Q 947 1113 1208 752 
Q 1469 391 1925 391 
Q 2381 391 2643 752 
Q 2906 1113 2906 1747 
Q 2906 2381 2643 2742 
Q 2381 3103 1925 3103 
Q 1469 3103 1208 2742 
Q 947 2381 947 1747 
z
" transform="scale(0.015625)"/>
      <path id="DejaVuSans-53" d="M 3425 4513 
L 3425 3897 
Q 3066 4069 2747 4153 
Q 2428 4238 2131 4238 
Q 1616 4238 1336 4038 
Q 1056 3838 1056 3469 
Q 1056 3159 1242 3001 
Q 1428 2844 1947 2747 
L 2328 2669 
Q 3034 2534 3370 2195 
Q 3706 1856 3706 1288 
Q 3706 609 3251 259 
Q 2797 -91 1919 -91 
Q 1588 -91 1214 -16 
Q 841 59 441 206 
L 441 856 
Q 825 641 1194 531 
Q 1563 422 1919 422 
Q 2459 422 2753 634 
Q 3047 847 3047 1241 
Q 3047 1584 2836 1778 
Q 2625 1972 2144 2069 
L 1759 2144 
Q 1053 2284 737 2584 
Q 422 2884 422 3419 
Q 422 4038 858 4394 
Q 1294 4750 2059 4750 
Q 2388 4750 2728 4690 
Q 3069 4631 3425 4513 
z
" transform="scale(0.015625)"/>
      <path id="DejaVuSans-75" d="M 544 1381 
L 544 3500 
L 1119 3500 
L 1119 1403 
Q 1119 906 1312 657 
Q 1506 409 1894 409 
Q 2359 409 2629 706 
Q 2900 1003 2900 1516 
L 2900 3500 
L 3475 3500 
L 3475 0 
L 2900 0 
L 2900 538 
Q 2691 219 2414 64 
Q 2138 -91 1772 -91 
Q 1169 -91 856 284 
Q 544 659 544 1381 
z
M 1991 3584 
L 1991 3584 
z
" transform="scale(0.015625)"/>
      <path id="DejaVuSans-6c" d="M 603 4863 
L 1178 4863 
L 1178 0 
L 603 0 
L 603 4863 
z
" transform="scale(0.015625)"/>
      <path id="DejaVuSans-74" d="M 1172 4494 
L 1172 3500 
L 2356 3500 
L 2356 3053 
L 1172 3053 
L 1172 1153 
Q 1172 725 1289 603 
Q 1406 481 1766 481 
L 2356 481 
L 2356 0 
L 1766 0 
Q 1100 0 847 248 
Q 594 497 594 1153 
L 594 3053 
L 172 3053 
L 172 3500 
L 594 3500 
L 594 4494 
L 1172 4494 
z
" transform="scale(0.015625)"/>
      <path id="DejaVuSans-52" d="M 2841 2188 
Q 3044 2119 3236 1894 
Q 3428 1669 3622 1275 
L 4263 0 
L 3584 0 
L 2988 1197 
Q 2756 1666 2539 1819 
Q 2322 1972 1947 1972 
L 1259 1972 
L 1259 0 
L 628 0 
L 628 4666 
L 2053 4666 
Q 2853 4666 3247 4331 
Q 3641 3997 3641 3322 
Q 3641 2881 3436 2590 
Q 3231 2300 2841 2188 
z
M 1259 4147 
L 1259 2491 
L 2053 2491 
Q 2509 2491 2742 2702 
Q 2975 2913 2975 3322 
Q 2975 3731 2742 3939 
Q 2509 4147 2053 4147 
L 1259 4147 
z
" transform="scale(0.015625)"/>
      <path id="DejaVuSans-46" d="M 628 4666 
L 3309 4666 
L 3309 4134 
L 1259 4134 
L 1259 2759 
L 3109 2759 
L 3109 2228 
L 1259 2228 
L 1259 0 
L 628 0 
L 628 4666 
z
" transform="scale(0.015625)"/>
      <path id="DejaVuSans-6f" d="M 1959 3097 
Q 1497 3097 1228 2736 
Q 959 2375 959 1747 
Q 959 1119 1226 758 
Q 1494 397 1959 397 
Q 2419 397 2687 759 
Q 2956 1122 2956 1747 
Q 2956 2369 2687 2733 
Q 2419 3097 1959 3097 
z
M 1959 3584 
Q 2709 3584 3137 3096 
Q 3566 2609 3566 1747 
Q 3566 888 3137 398 
Q 2709 -91 1959 -91 
Q 1206 -91 779 398 
Q 353 888 353 1747 
Q 353 2609 779 3096 
Q 1206 3584 1959 3584 
z
" transform="scale(0.015625)"/>
      <path id="DejaVuSans-77" d="M 269 3500 
L 844 3500 
L 1563 769 
L 2278 3500 
L 2956 3500 
L 3675 769 
L 4391 3500 
L 4966 3500 
L 4050 0 
L 3372 0 
L 2619 2869 
L 1863 0 
L 1184 0 
L 269 3500 
z
" transform="scale(0.015625)"/>
     </defs>
     <use xlink:href="#DejaVuSans-4f"/>
     <use xlink:href="#DejaVuSans-62" x="78.710938"/>
     <use xlink:href="#DejaVuSans-73" x="142.1875"/>
     <use xlink:href="#DejaVuSans-65" x="194.287109"/>
     <use xlink:href="#DejaVuSans-72" x="255.810547"/>
     <use xlink:href="#DejaVuSans-76" x="296.923828"/>
     <use xlink:href="#DejaVuSans-65" x="356.103516"/>
     <use xlink:href="#DejaVuSans-64" x="417.626953"/>
     <use xlink:href="#DejaVuSans-20" x="481.103516"/>
     <use xlink:href="#DejaVuSans-76" x="512.890625"/>
     <use xlink:href="#DejaVuSans-73" x="572.070312"/>
     <use xlink:href="#DejaVuSans-2e" x="624.169922"/>
     <use xlink:href="#DejaVuSans-20" x="655.957031"/>
     <use xlink:href="#DejaVuSans-53" x="687.744141"/>
     <use xlink:href="#DejaVuSans-69" x="751.220703"/>
     <use xlink:href="#DejaVuSans-6d" x="779.003906"/>
     <use xlink:href="#DejaVuSans-75" x="876.416016"/>
     <use xlink:href="#DejaVuSans-6c" x="939.794922"/>
     <use xlink:href="#DejaVuSans-61" x="967.578125"/>
     <use xlink:href="#DejaVuSans-74" x="1028.857422"/>
     <use xlink:href="#DejaVuSans-65" x="1068.066406"/>
     <use xlink:href="#DejaVuSans-64" x="1129.589844"/>
     <use xlink:href="#DejaVuSans-20" x="1193.066406"/>
     <use xlink:href="#DejaVuSans-52" x="1224.853516"/>
     <use xlink:href="#DejaVuSans-69" x="1294.335938"/>
     <use xlink:href="#DejaVuSans-76" x="1322.119141"/>
     <use xlink:href="#DejaVuSans-65" x="1381.298828"/>
     <use xlink:href="#DejaVuSans-72" x="1442.822266"/>
     <use xlink:href="#DejaVuSans-20" x="1483.935547"/>
     <use xlink:href="#DejaVuSans-46" x="1515.722656"/>
     <use xlink:href="#DejaVuSans-6c" x="1573.242188"/>
     <use xlink:href="#DejaVuSans-6f" x="1601.025391"/>
     <use xlink:href="#DejaVuSans-77" x="1662.207031"/>
    </g>
   </g>
   <g id="legend_1">
    <g id="patch_7">
     <path d="M 358.250937 59.674375 
L 409.269687 59.674375 
Q 411.269687 59.674375 411.269687 57.674375 
L 411.269687 29.318125 
Q 411.269687 27.318125 409.269687 27.318125 
L 358.250937 27.318125 
Q 356.250937 27.318125 356.250937 29.318125 
L 356.250937 57.674375 
Q 356.250937 59.674375 358.250937 59.674375 
z
" style="fill: #ffffff; opacity: 0.8; stroke: #cccccc; stroke-linejoin: miter"/>
    </g>
    <g id="line2d_39">
     <path d="M 360.250937 35.416562 
L 370.250937 35.416562 
L 380.250937 35.416562 
" style="fill: none; stroke: #1f77b4; stroke-opacity: 0.75; stroke-width: 1.5; stroke-linecap: square"/>
    </g>
    <g id="text_22">
     <!-- REF -->
     <g transform="translate(388.250937 38.916562) scale(0.1 -0.1)">
      <defs>
       <path id="DejaVuSans-45" d="M 628 4666 
L 3578 4666 
L 3578 4134 
L 1259 4134 
L 1259 2753 
L 3481 2753 
L 3481 2222 
L 1259 2222 
L 1259 531 
L 3634 531 
L 3634 0 
L 628 0 
L 628 4666 
z
" transform="scale(0.015625)"/>
      </defs>
      <use xlink:href="#DejaVuSans-52"/>
      <use xlink:href="#DejaVuSans-45" x="69.482422"/>
      <use xlink:href="#DejaVuSans-46" x="132.666016"/>
     </g>
    </g>
    <g id="line2d_40">
     <path d="M 360.250937 50.094687 
L 370.250937 50.094687 
L 380.250937 50.094687 
" style="fill: none; stroke: #ff7f0e; stroke-opacity: 0.75; stroke-width: 1.5; stroke-linecap: square"/>
    </g>
    <g id="text_23">
     <!-- SIM -->
     <g transform="translate(388.250937 53.594687) scale(0.1 -0.1)">
      <defs>
       <path id="DejaVuSans-49" d="M 628 4666 
L 1259 4666 
L 1259 0 
L 628 0 
L 628 4666 
z
" transform="scale(0.015625)"/>
       <path id="DejaVuSans-4d" d="M 628 4666 
L 1569 4666 
L 2759 1491 
L 3956 4666 
L 4897 4666 
L 4897 0 
L 4281 0 
L 4281 4097 
L 3078 897 
L 2444 897 
L 1241 4097 
L 1241 0 
L 628 0 
L 628 4666 
z
" transform="scale(0.015625)"/>
      </defs>
      <use xlink:href="#DejaVuSans-53"/>
      <use xlink:href="#DejaVuSans-49" x="63.476562"/>
      <use xlink:href="#DejaVuSans-4d" x="92.96875"/>
     </g>
    </g>
   </g>
  </g>
 </g>
 <defs>
  <clipPath id="p072907ef38">
   <rect x="59.149687" y="22.318125" width="357.12" height="266.112"/>
  </clipPath>
 </defs>
</svg>
