<?xml version="1.0" encoding="utf-8" standalone="no"?>
<!DOCTYPE svg PUBLIC "-//W3C//DTD SVG 1.1//EN"
  "http://www.w3.org/Graphics/SVG/1.1/DTD/svg11.dtd">
<svg xmlns:xlink="http://www.w3.org/1999/xlink" width="431.318437pt" height="364.24567pt" viewBox="0 0 431.318437 364.24567" xmlns="http://www.w3.org/2000/svg" version="1.1">
 <metadata>
  <rdf:RDF xmlns:dc="http://purl.org/dc/elements/1.1/" xmlns:cc="http://creativecommons.org/ns#" xmlns:rdf="http://www.w3.org/1999/02/22-rdf-syntax-ns#">
   <cc:Work>
    <dc:type rdf:resource="http://purl.org/dc/dcmitype/StillImage"/>
    <dc:date>2025-02-01T17:05:36.470466</dc:date>
    <dc:format>image/svg+xml</dc:format>
    <dc:creator>
     <cc:Agent>
      <dc:title>Matplotlib v3.8.4, https://matplotlib.org/</dc:title>
     </cc:Agent>
    </dc:creator>
   </cc:Work>
  </rdf:RDF>
 </metadata>
 <defs>
  <style type="text/css">*{stroke-linejoin: round; stroke-linecap: butt}</style>
 </defs>
 <g id="figure_1">
  <g id="patch_1">
   <path d="M 0 364.24567 
L 431.318437 364.24567 
L 431.318437 0 
L 0 0 
z
" style="fill: #ffffff"/>
  </g>
  <g id="axes_1">
   <g id="patch_2">
    <path d="M 59.149687 288.430125 
L 416.269688 288.430125 
L 416.269688 22.318125 
L 59.149687 22.318125 
z
" style="fill: #ffffff"/>
   </g>
   <g id="matplotlib.axis_1">
    <g id="xtick_1">
     <g id="line2d_1">
      <path d="M 75.382415 288.430125 
L 75.382415 22.318125 
" clip-path="url(#p3772206c5a)" style="fill: none; stroke: #b0b0b0; stroke-width: 0.8; stroke-linecap: square"/>
     </g>
     <g id="line2d_2">
      <defs>
       <path id="m4f98ccc89e" d="M 0 0 
L 0 3.5 
" style="stroke: #000000; stroke-width: 0.8"/>
      </defs>
      <g>
       <use xlink:href="#m4f98ccc89e" x="75.382415" y="288.430125" style="stroke: #000000; stroke-width: 0.8"/>
      </g>
     </g>
     <g id="text_1">
      <!-- 2010-11-01 -->
      <g transform="translate(56.786611 341.896984) rotate(-45) scale(0.1 -0.1)">
       <defs>
        <path id="DejaVuSans-32" d="M 1228 531 
L 3431 531 
L 3431 0 
L 469 0 
L 469 531 
Q 828 903 1448 1529 
Q 2069 2156 2228 2338 
Q 2531 2678 2651 2914 
Q 2772 3150 2772 3378 
Q 2772 3750 2511 3984 
Q 2250 4219 1831 4219 
Q 1534 4219 1204 4116 
Q 875 4013 500 3803 
L 500 4441 
Q 881 4594 1212 4672 
Q 1544 4750 1819 4750 
Q 2544 4750 2975 4387 
Q 3406 4025 3406 3419 
Q 3406 3131 3298 2873 
Q 3191 2616 2906 2266 
Q 2828 2175 2409 1742 
Q 1991 1309 1228 531 
z
" transform="scale(0.015625)"/>
        <path id="DejaVuSans-30" d="M 2034 4250 
Q 1547 4250 1301 3770 
Q 1056 3291 1056 2328 
Q 1056 1369 1301 889 
Q 1547 409 2034 409 
Q 2525 409 2770 889 
Q 3016 1369 3016 2328 
Q 3016 3291 2770 3770 
Q 2525 4250 2034 4250 
z
M 2034 4750 
Q 2819 4750 3233 4129 
Q 3647 3509 3647 2328 
Q 3647 1150 3233 529 
Q 2819 -91 2034 -91 
Q 1250 -91 836 529 
Q 422 1150 422 2328 
Q 422 3509 836 4129 
Q 1250 4750 2034 4750 
z
" transform="scale(0.015625)"/>
        <path id="DejaVuSans-31" d="M 794 531 
L 1825 531 
L 1825 4091 
L 703 3866 
L 703 4441 
L 1819 4666 
L 2450 4666 
L 2450 531 
L 3481 531 
L 3481 0 
L 794 0 
L 794 531 
z
" transform="scale(0.015625)"/>
        <path id="DejaVuSans-2d" d="M 313 2009 
L 1997 2009 
L 1997 1497 
L 313 1497 
L 313 2009 
z
" transform="scale(0.015625)"/>
       </defs>
       <use xlink:href="#DejaVuSans-32"/>
       <use xlink:href="#DejaVuSans-30" x="63.623047"/>
       <use xlink:href="#DejaVuSans-31" x="127.246094"/>
       <use xlink:href="#DejaVuSans-30" x="190.869141"/>
       <use xlink:href="#DejaVuSans-2d" x="254.492188"/>
       <use xlink:href="#DejaVuSans-31" x="290.576172"/>
       <use xlink:href="#DejaVuSans-31" x="354.199219"/>
       <use xlink:href="#DejaVuSans-2d" x="417.822266"/>
       <use xlink:href="#DejaVuSans-30" x="453.90625"/>
       <use xlink:href="#DejaVuSans-31" x="517.529297"/>
      </g>
     </g>
    </g>
    <g id="xtick_2">
     <g id="line2d_3">
      <path d="M 113.271934 288.430125 
L 113.271934 22.318125 
" clip-path="url(#p3772206c5a)" style="fill: none; stroke: #b0b0b0; stroke-width: 0.8; stroke-linecap: square"/>
     </g>
     <g id="line2d_4">
      <g>
       <use xlink:href="#m4f98ccc89e" x="113.271934" y="288.430125" style="stroke: #000000; stroke-width: 0.8"/>
      </g>
     </g>
     <g id="text_2">
      <!-- 2010-11-15 -->
      <g transform="translate(94.676131 341.896984) rotate(-45) scale(0.1 -0.1)">
       <defs>
        <path id="DejaVuSans-35" d="M 691 4666 
L 3169 4666 
L 3169 4134 
L 1269 4134 
L 1269 2991 
Q 1406 3038 1543 3061 
Q 1681 3084 1819 3084 
Q 2600 3084 3056 2656 
Q 3513 2228 3513 1497 
Q 3513 744 3044 326 
Q 2575 -91 1722 -91 
Q 1428 -91 1123 -41 
Q 819 9 494 109 
L 494 744 
Q 775 591 1075 516 
Q 1375 441 1709 441 
Q 2250 441 2565 725 
Q 2881 1009 2881 1497 
Q 2881 1984 2565 2268 
Q 2250 2553 1709 2553 
Q 1456 2553 1204 2497 
Q 953 2441 691 2322 
L 691 4666 
z
" transform="scale(0.015625)"/>
       </defs>
       <use xlink:href="#DejaVuSans-32"/>
       <use xlink:href="#DejaVuSans-30" x="63.623047"/>
       <use xlink:href="#DejaVuSans-31" x="127.246094"/>
       <use xlink:href="#DejaVuSans-30" x="190.869141"/>
       <use xlink:href="#DejaVuSans-2d" x="254.492188"/>
       <use xlink:href="#DejaVuSans-31" x="290.576172"/>
       <use xlink:href="#DejaVuSans-31" x="354.199219"/>
       <use xlink:href="#DejaVuSans-2d" x="417.822266"/>
       <use xlink:href="#DejaVuSans-31" x="453.90625"/>
       <use xlink:href="#DejaVuSans-35" x="517.529297"/>
      </g>
     </g>
    </g>
    <g id="xtick_3">
     <g id="line2d_5">
      <path d="M 156.574243 288.430125 
L 156.574243 22.318125 
" clip-path="url(#p3772206c5a)" style="fill: none; stroke: #b0b0b0; stroke-width: 0.8; stroke-linecap: square"/>
     </g>
     <g id="line2d_6">
      <g>
       <use xlink:href="#m4f98ccc89e" x="156.574243" y="288.430125" style="stroke: #000000; stroke-width: 0.8"/>
      </g>
     </g>
     <g id="text_3">
      <!-- 2010-12-01 -->
      <g transform="translate(137.978439 341.896984) rotate(-45) scale(0.1 -0.1)">
       <use xlink:href="#DejaVuSans-32"/>
       <use xlink:href="#DejaVuSans-30" x="63.623047"/>
       <use xlink:href="#DejaVuSans-31" x="127.246094"/>
       <use xlink:href="#DejaVuSans-30" x="190.869141"/>
       <use xlink:href="#DejaVuSans-2d" x="254.492188"/>
       <use xlink:href="#DejaVuSans-31" x="290.576172"/>
       <use xlink:href="#DejaVuSans-32" x="354.199219"/>
       <use xlink:href="#DejaVuSans-2d" x="417.822266"/>
       <use xlink:href="#DejaVuSans-30" x="453.90625"/>
       <use xlink:href="#DejaVuSans-31" x="517.529297"/>
      </g>
     </g>
    </g>
    <g id="xtick_4">
     <g id="line2d_7">
      <path d="M 194.463762 288.430125 
L 194.463762 22.318125 
" clip-path="url(#p3772206c5a)" style="fill: none; stroke: #b0b0b0; stroke-width: 0.8; stroke-linecap: square"/>
     </g>
     <g id="line2d_8">
      <g>
       <use xlink:href="#m4f98ccc89e" x="194.463762" y="288.430125" style="stroke: #000000; stroke-width: 0.8"/>
      </g>
     </g>
     <g id="text_4">
      <!-- 2010-12-15 -->
      <g transform="translate(175.867959 341.896984) rotate(-45) scale(0.1 -0.1)">
       <use xlink:href="#DejaVuSans-32"/>
       <use xlink:href="#DejaVuSans-30" x="63.623047"/>
       <use xlink:href="#DejaVuSans-31" x="127.246094"/>
       <use xlink:href="#DejaVuSans-30" x="190.869141"/>
       <use xlink:href="#DejaVuSans-2d" x="254.492188"/>
       <use xlink:href="#DejaVuSans-31" x="290.576172"/>
       <use xlink:href="#DejaVuSans-32" x="354.199219"/>
       <use xlink:href="#DejaVuSans-2d" x="417.822266"/>
       <use xlink:href="#DejaVuSans-31" x="453.90625"/>
       <use xlink:href="#DejaVuSans-35" x="517.529297"/>
      </g>
     </g>
    </g>
    <g id="xtick_5">
     <g id="line2d_9">
      <path d="M 240.472465 288.430125 
L 240.472465 22.318125 
" clip-path="url(#p3772206c5a)" style="fill: none; stroke: #b0b0b0; stroke-width: 0.8; stroke-linecap: square"/>
     </g>
     <g id="line2d_10">
      <g>
       <use xlink:href="#m4f98ccc89e" x="240.472465" y="288.430125" style="stroke: #000000; stroke-width: 0.8"/>
      </g>
     </g>
     <g id="text_5">
      <!-- 2011-01-01 -->
      <g transform="translate(221.876661 341.896984) rotate(-45) scale(0.1 -0.1)">
       <use xlink:href="#DejaVuSans-32"/>
       <use xlink:href="#DejaVuSans-30" x="63.623047"/>
       <use xlink:href="#DejaVuSans-31" x="127.246094"/>
       <use xlink:href="#DejaVuSans-31" x="190.869141"/>
       <use xlink:href="#DejaVuSans-2d" x="254.492188"/>
       <use xlink:href="#DejaVuSans-30" x="290.576172"/>
       <use xlink:href="#DejaVuSans-31" x="354.199219"/>
       <use xlink:href="#DejaVuSans-2d" x="417.822266"/>
       <use xlink:href="#DejaVuSans-30" x="453.90625"/>
       <use xlink:href="#DejaVuSans-31" x="517.529297"/>
      </g>
     </g>
    </g>
    <g id="xtick_6">
     <g id="line2d_11">
      <path d="M 278.361985 288.430125 
L 278.361985 22.318125 
" clip-path="url(#p3772206c5a)" style="fill: none; stroke: #b0b0b0; stroke-width: 0.8; stroke-linecap: square"/>
     </g>
     <g id="line2d_12">
      <g>
       <use xlink:href="#m4f98ccc89e" x="278.361985" y="288.430125" style="stroke: #000000; stroke-width: 0.8"/>
      </g>
     </g>
     <g id="text_6">
      <!-- 2011-01-15 -->
      <g transform="translate(259.766181 341.896984) rotate(-45) scale(0.1 -0.1)">
       <use xlink:href="#DejaVuSans-32"/>
       <use xlink:href="#DejaVuSans-30" x="63.623047"/>
       <use xlink:href="#DejaVuSans-31" x="127.246094"/>
       <use xlink:href="#DejaVuSans-31" x="190.869141"/>
       <use xlink:href="#DejaVuSans-2d" x="254.492188"/>
       <use xlink:href="#DejaVuSans-30" x="290.576172"/>
       <use xlink:href="#DejaVuSans-31" x="354.199219"/>
       <use xlink:href="#DejaVuSans-2d" x="417.822266"/>
       <use xlink:href="#DejaVuSans-31" x="453.90625"/>
       <use xlink:href="#DejaVuSans-35" x="517.529297"/>
      </g>
     </g>
    </g>
    <g id="xtick_7">
     <g id="line2d_13">
      <path d="M 324.370687 288.430125 
L 324.370687 22.318125 
" clip-path="url(#p3772206c5a)" style="fill: none; stroke: #b0b0b0; stroke-width: 0.8; stroke-linecap: square"/>
     </g>
     <g id="line2d_14">
      <g>
       <use xlink:href="#m4f98ccc89e" x="324.370687" y="288.430125" style="stroke: #000000; stroke-width: 0.8"/>
      </g>
     </g>
     <g id="text_7">
      <!-- 2011-02-01 -->
      <g transform="translate(305.774884 341.896984) rotate(-45) scale(0.1 -0.1)">
       <use xlink:href="#DejaVuSans-32"/>
       <use xlink:href="#DejaVuSans-30" x="63.623047"/>
       <use xlink:href="#DejaVuSans-31" x="127.246094"/>
       <use xlink:href="#DejaVuSans-31" x="190.869141"/>
       <use xlink:href="#DejaVuSans-2d" x="254.492188"/>
       <use xlink:href="#DejaVuSans-30" x="290.576172"/>
       <use xlink:href="#DejaVuSans-32" x="354.199219"/>
       <use xlink:href="#DejaVuSans-2d" x="417.822266"/>
       <use xlink:href="#DejaVuSans-30" x="453.90625"/>
       <use xlink:href="#DejaVuSans-31" x="517.529297"/>
      </g>
     </g>
    </g>
    <g id="xtick_8">
     <g id="line2d_15">
      <path d="M 362.260207 288.430125 
L 362.260207 22.318125 
" clip-path="url(#p3772206c5a)" style="fill: none; stroke: #b0b0b0; stroke-width: 0.8; stroke-linecap: square"/>
     </g>
     <g id="line2d_16">
      <g>
       <use xlink:href="#m4f98ccc89e" x="362.260207" y="288.430125" style="stroke: #000000; stroke-width: 0.8"/>
      </g>
     </g>
     <g id="text_8">
      <!-- 2011-02-15 -->
      <g transform="translate(343.664403 341.896984) rotate(-45) scale(0.1 -0.1)">
       <use xlink:href="#DejaVuSans-32"/>
       <use xlink:href="#DejaVuSans-30" x="63.623047"/>
       <use xlink:href="#DejaVuSans-31" x="127.246094"/>
       <use xlink:href="#DejaVuSans-31" x="190.869141"/>
       <use xlink:href="#DejaVuSans-2d" x="254.492188"/>
       <use xlink:href="#DejaVuSans-30" x="290.576172"/>
       <use xlink:href="#DejaVuSans-32" x="354.199219"/>
       <use xlink:href="#DejaVuSans-2d" x="417.822266"/>
       <use xlink:href="#DejaVuSans-31" x="453.90625"/>
       <use xlink:href="#DejaVuSans-35" x="517.529297"/>
      </g>
     </g>
    </g>
    <g id="xtick_9">
     <g id="line2d_17">
      <path d="M 400.149727 288.430125 
L 400.149727 22.318125 
" clip-path="url(#p3772206c5a)" style="fill: none; stroke: #b0b0b0; stroke-width: 0.8; stroke-linecap: square"/>
     </g>
     <g id="line2d_18">
      <g>
       <use xlink:href="#m4f98ccc89e" x="400.149727" y="288.430125" style="stroke: #000000; stroke-width: 0.8"/>
      </g>
     </g>
     <g id="text_9">
      <!-- 2011-03-01 -->
      <g transform="translate(381.553923 341.896984) rotate(-45) scale(0.1 -0.1)">
       <defs>
        <path id="DejaVuSans-33" d="M 2597 2516 
Q 3050 2419 3304 2112 
Q 3559 1806 3559 1356 
Q 3559 666 3084 287 
Q 2609 -91 1734 -91 
Q 1441 -91 1130 -33 
Q 819 25 488 141 
L 488 750 
Q 750 597 1062 519 
Q 1375 441 1716 441 
Q 2309 441 2620 675 
Q 2931 909 2931 1356 
Q 2931 1769 2642 2001 
Q 2353 2234 1838 2234 
L 1294 2234 
L 1294 2753 
L 1863 2753 
Q 2328 2753 2575 2939 
Q 2822 3125 2822 3475 
Q 2822 3834 2567 4026 
Q 2313 4219 1838 4219 
Q 1578 4219 1281 4162 
Q 984 4106 628 3988 
L 628 4550 
Q 988 4650 1302 4700 
Q 1616 4750 1894 4750 
Q 2613 4750 3031 4423 
Q 3450 4097 3450 3541 
Q 3450 3153 3228 2886 
Q 3006 2619 2597 2516 
z
" transform="scale(0.015625)"/>
       </defs>
       <use xlink:href="#DejaVuSans-32"/>
       <use xlink:href="#DejaVuSans-30" x="63.623047"/>
       <use xlink:href="#DejaVuSans-31" x="127.246094"/>
       <use xlink:href="#DejaVuSans-31" x="190.869141"/>
       <use xlink:href="#DejaVuSans-2d" x="254.492188"/>
       <use xlink:href="#DejaVuSans-30" x="290.576172"/>
       <use xlink:href="#DejaVuSans-33" x="354.199219"/>
       <use xlink:href="#DejaVuSans-2d" x="417.822266"/>
       <use xlink:href="#DejaVuSans-30" x="453.90625"/>
       <use xlink:href="#DejaVuSans-31" x="517.529297"/>
      </g>
     </g>
    </g>
    <g id="text_10">
     <!-- Time [hr] -->
     <g transform="translate(214.76125 354.965983) scale(0.1 -0.1)">
      <defs>
       <path id="DejaVuSans-54" d="M -19 4666 
L 3928 4666 
L 3928 4134 
L 2272 4134 
L 2272 0 
L 1638 0 
L 1638 4134 
L -19 4134 
L -19 4666 
z
" transform="scale(0.015625)"/>
       <path id="DejaVuSans-69" d="M 603 3500 
L 1178 3500 
L 1178 0 
L 603 0 
L 603 3500 
z
M 603 4863 
L 1178 4863 
L 1178 4134 
L 603 4134 
L 603 4863 
z
" transform="scale(0.015625)"/>
       <path id="DejaVuSans-6d" d="M 3328 2828 
Q 3544 3216 3844 3400 
Q 4144 3584 4550 3584 
Q 5097 3584 5394 3201 
Q 5691 2819 5691 2113 
L 5691 0 
L 5113 0 
L 5113 2094 
Q 5113 2597 4934 2840 
Q 4756 3084 4391 3084 
Q 3944 3084 3684 2787 
Q 3425 2491 3425 1978 
L 3425 0 
L 2847 0 
L 2847 2094 
Q 2847 2600 2669 2842 
Q 2491 3084 2119 3084 
Q 1678 3084 1418 2786 
Q 1159 2488 1159 1978 
L 1159 0 
L 581 0 
L 581 3500 
L 1159 3500 
L 1159 2956 
Q 1356 3278 1631 3431 
Q 1906 3584 2284 3584 
Q 2666 3584 2933 3390 
Q 3200 3197 3328 2828 
z
" transform="scale(0.015625)"/>
       <path id="DejaVuSans-65" d="M 3597 1894 
L 3597 1613 
L 953 1613 
Q 991 1019 1311 708 
Q 1631 397 2203 397 
Q 2534 397 2845 478 
Q 3156 559 3463 722 
L 3463 178 
Q 3153 47 2828 -22 
Q 2503 -91 2169 -91 
Q 1331 -91 842 396 
Q 353 884 353 1716 
Q 353 2575 817 3079 
Q 1281 3584 2069 3584 
Q 2775 3584 3186 3129 
Q 3597 2675 3597 1894 
z
M 3022 2063 
Q 3016 2534 2758 2815 
Q 2500 3097 2075 3097 
Q 1594 3097 1305 2825 
Q 1016 2553 972 2059 
L 3022 2063 
z
" transform="scale(0.015625)"/>
       <path id="DejaVuSans-20" transform="scale(0.015625)"/>
       <path id="DejaVuSans-5b" d="M 550 4863 
L 1875 4863 
L 1875 4416 
L 1125 4416 
L 1125 -397 
L 1875 -397 
L 1875 -844 
L 550 -844 
L 550 4863 
z
" transform="scale(0.015625)"/>
       <path id="DejaVuSans-68" d="M 3513 2113 
L 3513 0 
L 2938 0 
L 2938 2094 
Q 2938 2591 2744 2837 
Q 2550 3084 2163 3084 
Q 1697 3084 1428 2787 
Q 1159 2491 1159 1978 
L 1159 0 
L 581 0 
L 581 4863 
L 1159 4863 
L 1159 2956 
Q 1366 3272 1645 3428 
Q 1925 3584 2291 3584 
Q 2894 3584 3203 3211 
Q 3513 2838 3513 2113 
z
" transform="scale(0.015625)"/>
       <path id="DejaVuSans-72" d="M 2631 2963 
Q 2534 3019 2420 3045 
Q 2306 3072 2169 3072 
Q 1681 3072 1420 2755 
Q 1159 2438 1159 1844 
L 1159 0 
L 581 0 
L 581 3500 
L 1159 3500 
L 1159 2956 
Q 1341 3275 1631 3429 
Q 1922 3584 2338 3584 
Q 2397 3584 2469 3576 
Q 2541 3569 2628 3553 
L 2631 2963 
z
" transform="scale(0.015625)"/>
       <path id="DejaVuSans-5d" d="M 1947 4863 
L 1947 -844 
L 622 -844 
L 622 -397 
L 1369 -397 
L 1369 4416 
L 622 4416 
L 622 4863 
L 1947 4863 
z
" transform="scale(0.015625)"/>
      </defs>
      <use xlink:href="#DejaVuSans-54"/>
      <use xlink:href="#DejaVuSans-69" x="57.958984"/>
      <use xlink:href="#DejaVuSans-6d" x="85.742188"/>
      <use xlink:href="#DejaVuSans-65" x="183.154297"/>
      <use xlink:href="#DejaVuSans-20" x="244.677734"/>
      <use xlink:href="#DejaVuSans-5b" x="276.464844"/>
      <use xlink:href="#DejaVuSans-68" x="315.478516"/>
      <use xlink:href="#DejaVuSans-72" x="378.857422"/>
      <use xlink:href="#DejaVuSans-5d" x="419.970703"/>
     </g>
    </g>
   </g>
   <g id="matplotlib.axis_2">
    <g id="ytick_1">
     <g id="line2d_19">
      <path d="M 59.149687 276.476136 
L 416.269688 276.476136 
" clip-path="url(#p3772206c5a)" style="fill: none; stroke: #b0b0b0; stroke-width: 0.8; stroke-linecap: square"/>
     </g>
     <g id="line2d_20">
      <defs>
       <path id="m9d96c1b882" d="M 0 0 
L -3.5 0 
" style="stroke: #000000; stroke-width: 0.8"/>
      </defs>
      <g>
       <use xlink:href="#m9d96c1b882" x="59.149687" y="276.476136" style="stroke: #000000; stroke-width: 0.8"/>
      </g>
     </g>
     <g id="text_11">
      <!-- 0 -->
      <g transform="translate(45.787188 280.275355) scale(0.1 -0.1)">
       <use xlink:href="#DejaVuSans-30"/>
      </g>
     </g>
    </g>
    <g id="ytick_2">
     <g id="line2d_21">
      <path d="M 59.149687 244.937112 
L 416.269688 244.937112 
" clip-path="url(#p3772206c5a)" style="fill: none; stroke: #b0b0b0; stroke-width: 0.8; stroke-linecap: square"/>
     </g>
     <g id="line2d_22">
      <g>
       <use xlink:href="#m9d96c1b882" x="59.149687" y="244.937112" style="stroke: #000000; stroke-width: 0.8"/>
      </g>
     </g>
     <g id="text_12">
      <!-- 20 -->
      <g transform="translate(39.424687 248.736331) scale(0.1 -0.1)">
       <use xlink:href="#DejaVuSans-32"/>
       <use xlink:href="#DejaVuSans-30" x="63.623047"/>
      </g>
     </g>
    </g>
    <g id="ytick_3">
     <g id="line2d_23">
      <path d="M 59.149687 213.398088 
L 416.269688 213.398088 
" clip-path="url(#p3772206c5a)" style="fill: none; stroke: #b0b0b0; stroke-width: 0.8; stroke-linecap: square"/>
     </g>
     <g id="line2d_24">
      <g>
       <use xlink:href="#m9d96c1b882" x="59.149687" y="213.398088" style="stroke: #000000; stroke-width: 0.8"/>
      </g>
     </g>
     <g id="text_13">
      <!-- 40 -->
      <g transform="translate(39.424687 217.197306) scale(0.1 -0.1)">
       <defs>
        <path id="DejaVuSans-34" d="M 2419 4116 
L 825 1625 
L 2419 1625 
L 2419 4116 
z
M 2253 4666 
L 3047 4666 
L 3047 1625 
L 3713 1625 
L 3713 1100 
L 3047 1100 
L 3047 0 
L 2419 0 
L 2419 1100 
L 313 1100 
L 313 1709 
L 2253 4666 
z
" transform="scale(0.015625)"/>
       </defs>
       <use xlink:href="#DejaVuSans-34"/>
       <use xlink:href="#DejaVuSans-30" x="63.623047"/>
      </g>
     </g>
    </g>
    <g id="ytick_4">
     <g id="line2d_25">
      <path d="M 59.149687 181.859063 
L 416.269688 181.859063 
" clip-path="url(#p3772206c5a)" style="fill: none; stroke: #b0b0b0; stroke-width: 0.8; stroke-linecap: square"/>
     </g>
     <g id="line2d_26">
      <g>
       <use xlink:href="#m9d96c1b882" x="59.149687" y="181.859063" style="stroke: #000000; stroke-width: 0.8"/>
      </g>
     </g>
     <g id="text_14">
      <!-- 60 -->
      <g transform="translate(39.424687 185.658282) scale(0.1 -0.1)">
       <defs>
        <path id="DejaVuSans-36" d="M 2113 2584 
Q 1688 2584 1439 2293 
Q 1191 2003 1191 1497 
Q 1191 994 1439 701 
Q 1688 409 2113 409 
Q 2538 409 2786 701 
Q 3034 994 3034 1497 
Q 3034 2003 2786 2293 
Q 2538 2584 2113 2584 
z
M 3366 4563 
L 3366 3988 
Q 3128 4100 2886 4159 
Q 2644 4219 2406 4219 
Q 1781 4219 1451 3797 
Q 1122 3375 1075 2522 
Q 1259 2794 1537 2939 
Q 1816 3084 2150 3084 
Q 2853 3084 3261 2657 
Q 3669 2231 3669 1497 
Q 3669 778 3244 343 
Q 2819 -91 2113 -91 
Q 1303 -91 875 529 
Q 447 1150 447 2328 
Q 447 3434 972 4092 
Q 1497 4750 2381 4750 
Q 2619 4750 2861 4703 
Q 3103 4656 3366 4563 
z
" transform="scale(0.015625)"/>
       </defs>
       <use xlink:href="#DejaVuSans-36"/>
       <use xlink:href="#DejaVuSans-30" x="63.623047"/>
      </g>
     </g>
    </g>
    <g id="ytick_5">
     <g id="line2d_27">
      <path d="M 59.149687 150.320039 
L 416.269688 150.320039 
" clip-path="url(#p3772206c5a)" style="fill: none; stroke: #b0b0b0; stroke-width: 0.8; stroke-linecap: square"/>
     </g>
     <g id="line2d_28">
      <g>
       <use xlink:href="#m9d96c1b882" x="59.149687" y="150.320039" style="stroke: #000000; stroke-width: 0.8"/>
      </g>
     </g>
     <g id="text_15">
      <!-- 80 -->
      <g transform="translate(39.424687 154.119258) scale(0.1 -0.1)">
       <defs>
        <path id="DejaVuSans-38" d="M 2034 2216 
Q 1584 2216 1326 1975 
Q 1069 1734 1069 1313 
Q 1069 891 1326 650 
Q 1584 409 2034 409 
Q 2484 409 2743 651 
Q 3003 894 3003 1313 
Q 3003 1734 2745 1975 
Q 2488 2216 2034 2216 
z
M 1403 2484 
Q 997 2584 770 2862 
Q 544 3141 544 3541 
Q 544 4100 942 4425 
Q 1341 4750 2034 4750 
Q 2731 4750 3128 4425 
Q 3525 4100 3525 3541 
Q 3525 3141 3298 2862 
Q 3072 2584 2669 2484 
Q 3125 2378 3379 2068 
Q 3634 1759 3634 1313 
Q 3634 634 3220 271 
Q 2806 -91 2034 -91 
Q 1263 -91 848 271 
Q 434 634 434 1313 
Q 434 1759 690 2068 
Q 947 2378 1403 2484 
z
M 1172 3481 
Q 1172 3119 1398 2916 
Q 1625 2713 2034 2713 
Q 2441 2713 2670 2916 
Q 2900 3119 2900 3481 
Q 2900 3844 2670 4047 
Q 2441 4250 2034 4250 
Q 1625 4250 1398 4047 
Q 1172 3844 1172 3481 
z
" transform="scale(0.015625)"/>
       </defs>
       <use xlink:href="#DejaVuSans-38"/>
       <use xlink:href="#DejaVuSans-30" x="63.623047"/>
      </g>
     </g>
    </g>
    <g id="ytick_6">
     <g id="line2d_29">
      <path d="M 59.149687 118.781015 
L 416.269688 118.781015 
" clip-path="url(#p3772206c5a)" style="fill: none; stroke: #b0b0b0; stroke-width: 0.8; stroke-linecap: square"/>
     </g>
     <g id="line2d_30">
      <g>
       <use xlink:href="#m9d96c1b882" x="59.149687" y="118.781015" style="stroke: #000000; stroke-width: 0.8"/>
      </g>
     </g>
     <g id="text_16">
      <!-- 100 -->
      <g transform="translate(33.062187 122.580234) scale(0.1 -0.1)">
       <use xlink:href="#DejaVuSans-31"/>
       <use xlink:href="#DejaVuSans-30" x="63.623047"/>
       <use xlink:href="#DejaVuSans-30" x="127.246094"/>
      </g>
     </g>
    </g>
    <g id="ytick_7">
     <g id="line2d_31">
      <path d="M 59.149687 87.241991 
L 416.269688 87.241991 
" clip-path="url(#p3772206c5a)" style="fill: none; stroke: #b0b0b0; stroke-width: 0.8; stroke-linecap: square"/>
     </g>
     <g id="line2d_32">
      <g>
       <use xlink:href="#m9d96c1b882" x="59.149687" y="87.241991" style="stroke: #000000; stroke-width: 0.8"/>
      </g>
     </g>
     <g id="text_17">
      <!-- 120 -->
      <g transform="translate(33.062187 91.041209) scale(0.1 -0.1)">
       <use xlink:href="#DejaVuSans-31"/>
       <use xlink:href="#DejaVuSans-32" x="63.623047"/>
       <use xlink:href="#DejaVuSans-30" x="127.246094"/>
      </g>
     </g>
    </g>
    <g id="ytick_8">
     <g id="line2d_33">
      <path d="M 59.149687 55.702966 
L 416.269688 55.702966 
" clip-path="url(#p3772206c5a)" style="fill: none; stroke: #b0b0b0; stroke-width: 0.8; stroke-linecap: square"/>
     </g>
     <g id="line2d_34">
      <g>
       <use xlink:href="#m9d96c1b882" x="59.149687" y="55.702966" style="stroke: #000000; stroke-width: 0.8"/>
      </g>
     </g>
     <g id="text_18">
      <!-- 140 -->
      <g transform="translate(33.062187 59.502185) scale(0.1 -0.1)">
       <use xlink:href="#DejaVuSans-31"/>
       <use xlink:href="#DejaVuSans-34" x="63.623047"/>
       <use xlink:href="#DejaVuSans-30" x="127.246094"/>
      </g>
     </g>
    </g>
    <g id="ytick_9">
     <g id="line2d_35">
      <path d="M 59.149687 24.163942 
L 416.269688 24.163942 
" clip-path="url(#p3772206c5a)" style="fill: none; stroke: #b0b0b0; stroke-width: 0.8; stroke-linecap: square"/>
     </g>
     <g id="line2d_36">
      <g>
       <use xlink:href="#m9d96c1b882" x="59.149687" y="24.163942" style="stroke: #000000; stroke-width: 0.8"/>
      </g>
     </g>
     <g id="text_19">
      <!-- 160 -->
      <g transform="translate(33.062187 27.963161) scale(0.1 -0.1)">
       <use xlink:href="#DejaVuSans-31"/>
       <use xlink:href="#DejaVuSans-36" x="63.623047"/>
       <use xlink:href="#DejaVuSans-30" x="127.246094"/>
      </g>
     </g>
    </g>
    <g id="text_20">
     <!-- Discharge -->
     <g transform="translate(14.798437 180.418656) rotate(-90) scale(0.1 -0.1)">
      <defs>
       <path id="DejaVuSans-44" d="M 1259 4147 
L 1259 519 
L 2022 519 
Q 2988 519 3436 956 
Q 3884 1394 3884 2338 
Q 3884 3275 3436 3711 
Q 2988 4147 2022 4147 
L 1259 4147 
z
M 628 4666 
L 1925 4666 
Q 3281 4666 3915 4102 
Q 4550 3538 4550 2338 
Q 4550 1131 3912 565 
Q 3275 0 1925 0 
L 628 0 
L 628 4666 
z
" transform="scale(0.015625)"/>
       <path id="DejaVuSans-73" d="M 2834 3397 
L 2834 2853 
Q 2591 2978 2328 3040 
Q 2066 3103 1784 3103 
Q 1356 3103 1142 2972 
Q 928 2841 928 2578 
Q 928 2378 1081 2264 
Q 1234 2150 1697 2047 
L 1894 2003 
Q 2506 1872 2764 1633 
Q 3022 1394 3022 966 
Q 3022 478 2636 193 
Q 2250 -91 1575 -91 
Q 1294 -91 989 -36 
Q 684 19 347 128 
L 347 722 
Q 666 556 975 473 
Q 1284 391 1588 391 
Q 1994 391 2212 530 
Q 2431 669 2431 922 
Q 2431 1156 2273 1281 
Q 2116 1406 1581 1522 
L 1381 1569 
Q 847 1681 609 1914 
Q 372 2147 372 2553 
Q 372 3047 722 3315 
Q 1072 3584 1716 3584 
Q 2034 3584 2315 3537 
Q 2597 3491 2834 3397 
z
" transform="scale(0.015625)"/>
       <path id="DejaVuSans-63" d="M 3122 3366 
L 3122 2828 
Q 2878 2963 2633 3030 
Q 2388 3097 2138 3097 
Q 1578 3097 1268 2742 
Q 959 2388 959 1747 
Q 959 1106 1268 751 
Q 1578 397 2138 397 
Q 2388 397 2633 464 
Q 2878 531 3122 666 
L 3122 134 
Q 2881 22 2623 -34 
Q 2366 -91 2075 -91 
Q 1284 -91 818 406 
Q 353 903 353 1747 
Q 353 2603 823 3093 
Q 1294 3584 2113 3584 
Q 2378 3584 2631 3529 
Q 2884 3475 3122 3366 
z
" transform="scale(0.015625)"/>
       <path id="DejaVuSans-61" d="M 2194 1759 
Q 1497 1759 1228 1600 
Q 959 1441 959 1056 
Q 959 750 1161 570 
Q 1363 391 1709 391 
Q 2188 391 2477 730 
Q 2766 1069 2766 1631 
L 2766 1759 
L 2194 1759 
z
M 3341 1997 
L 3341 0 
L 2766 0 
L 2766 531 
Q 2569 213 2275 61 
Q 1981 -91 1556 -91 
Q 1019 -91 701 211 
Q 384 513 384 1019 
Q 384 1609 779 1909 
Q 1175 2209 1959 2209 
L 2766 2209 
L 2766 2266 
Q 2766 2663 2505 2880 
Q 2244 3097 1772 3097 
Q 1472 3097 1187 3025 
Q 903 2953 641 2809 
L 641 3341 
Q 956 3463 1253 3523 
Q 1550 3584 1831 3584 
Q 2591 3584 2966 3190 
Q 3341 2797 3341 1997 
z
" transform="scale(0.015625)"/>
       <path id="DejaVuSans-67" d="M 2906 1791 
Q 2906 2416 2648 2759 
Q 2391 3103 1925 3103 
Q 1463 3103 1205 2759 
Q 947 2416 947 1791 
Q 947 1169 1205 825 
Q 1463 481 1925 481 
Q 2391 481 2648 825 
Q 2906 1169 2906 1791 
z
M 3481 434 
Q 3481 -459 3084 -895 
Q 2688 -1331 1869 -1331 
Q 1566 -1331 1297 -1286 
Q 1028 -1241 775 -1147 
L 775 -588 
Q 1028 -725 1275 -790 
Q 1522 -856 1778 -856 
Q 2344 -856 2625 -561 
Q 2906 -266 2906 331 
L 2906 616 
Q 2728 306 2450 153 
Q 2172 0 1784 0 
Q 1141 0 747 490 
Q 353 981 353 1791 
Q 353 2603 747 3093 
Q 1141 3584 1784 3584 
Q 2172 3584 2450 3431 
Q 2728 3278 2906 2969 
L 2906 3500 
L 3481 3500 
L 3481 434 
z
" transform="scale(0.015625)"/>
      </defs>
      <use xlink:href="#DejaVuSans-44"/>
      <use xlink:href="#DejaVuSans-69" x="77.001953"/>
      <use xlink:href="#DejaVuSans-73" x="104.785156"/>
      <use xlink:href="#DejaVuSans-63" x="156.884766"/>
      <use xlink:href="#DejaVuSans-68" x="211.865234"/>
      <use xlink:href="#DejaVuSans-61" x="275.244141"/>
      <use xlink:href="#DejaVuSans-72" x="336.523438"/>
      <use xlink:href="#DejaVuSans-67" x="375.886719"/>
      <use xlink:href="#DejaVuSans-65" x="439.363281"/>
     </g>
     <!-- [$m^3.s^{-1}$] -->
     <g transform="translate(26.9825 177.474125) rotate(-90) scale(0.1 -0.1)">
      <defs>
       <path id="DejaVuSans-Oblique-6d" d="M 5747 2113 
L 5338 0 
L 4763 0 
L 5166 2094 
Q 5191 2228 5203 2325 
Q 5216 2422 5216 2491 
Q 5216 2772 5059 2928 
Q 4903 3084 4622 3084 
Q 4203 3084 3875 2770 
Q 3547 2456 3450 1953 
L 3066 0 
L 2491 0 
L 2900 2094 
Q 2925 2209 2937 2307 
Q 2950 2406 2950 2484 
Q 2950 2769 2794 2926 
Q 2638 3084 2363 3084 
Q 1938 3084 1609 2770 
Q 1281 2456 1184 1953 
L 800 0 
L 225 0 
L 909 3500 
L 1484 3500 
L 1375 2956 
Q 1609 3263 1923 3423 
Q 2238 3584 2597 3584 
Q 2978 3584 3223 3384 
Q 3469 3184 3519 2828 
Q 3781 3197 4126 3390 
Q 4472 3584 4856 3584 
Q 5306 3584 5551 3325 
Q 5797 3066 5797 2591 
Q 5797 2488 5784 2364 
Q 5772 2241 5747 2113 
z
" transform="scale(0.015625)"/>
       <path id="DejaVuSans-2e" d="M 684 794 
L 1344 794 
L 1344 0 
L 684 0 
L 684 794 
z
" transform="scale(0.015625)"/>
       <path id="DejaVuSans-Oblique-73" d="M 3200 3397 
L 3091 2853 
Q 2863 2978 2609 3040 
Q 2356 3103 2088 3103 
Q 1634 3103 1373 2948 
Q 1113 2794 1113 2528 
Q 1113 2219 1719 2053 
Q 1766 2041 1788 2034 
L 1972 1978 
Q 2547 1819 2739 1644 
Q 2931 1469 2931 1166 
Q 2931 609 2489 259 
Q 2047 -91 1331 -91 
Q 1053 -91 747 -37 
Q 441 16 72 128 
L 184 722 
Q 500 559 806 475 
Q 1113 391 1394 391 
Q 1816 391 2080 572 
Q 2344 753 2344 1031 
Q 2344 1331 1650 1516 
L 1591 1531 
L 1394 1581 
Q 956 1697 753 1886 
Q 550 2075 550 2369 
Q 550 2928 970 3256 
Q 1391 3584 2113 3584 
Q 2397 3584 2667 3537 
Q 2938 3491 3200 3397 
z
" transform="scale(0.015625)"/>
       <path id="DejaVuSans-2212" d="M 678 2272 
L 4684 2272 
L 4684 1741 
L 678 1741 
L 678 2272 
z
" transform="scale(0.015625)"/>
      </defs>
      <use xlink:href="#DejaVuSans-5b" transform="translate(0 0.765625)"/>
      <use xlink:href="#DejaVuSans-Oblique-6d" transform="translate(39.013672 0.765625)"/>
      <use xlink:href="#DejaVuSans-33" transform="translate(141.075677 39.046875) scale(0.7)"/>
      <use xlink:href="#DejaVuSans-2e" transform="translate(188.346185 0.765625)"/>
      <use xlink:href="#DejaVuSans-Oblique-73" transform="translate(239.615716 0.765625)"/>
      <use xlink:href="#DejaVuSans-2212" transform="translate(296.365221 39.046875) scale(0.7)"/>
      <use xlink:href="#DejaVuSans-31" transform="translate(355.017565 39.046875) scale(0.7)"/>
      <use xlink:href="#DejaVuSans-5d" transform="translate(402.288073 0.765625)"/>
     </g>
    </g>
   </g>
   <g id="line2d_37">
    <path d="M 75.382415 269.837172 
L 76.735612 269.837172 
L 76.961145 269.994867 
L 77.186678 269.955443 
L 77.41221 269.837172 
L 78.088809 269.876595 
L 78.427108 270.113138 
L 78.539875 269.994867 
L 78.765408 270.152562 
L 78.878174 270.152562 
L 78.99094 270.03429 
L 79.216473 270.310257 
L 79.780305 270.310257 
L 80.005838 270.152562 
L 80.118605 270.152562 
L 80.344138 270.310257 
L 80.56967 270.152562 
L 81.471802 270.152562 
L 81.697335 270.507376 
L 81.810101 270.507376 
L 81.922868 270.231409 
L 82.1484 270.467952 
L 82.261167 270.467952 
L 82.4867 270.191986 
L 82.599466 269.7189 
L 82.712233 269.758324 
L 83.050532 270.113138 
L 83.163298 270.073714 
L 83.501598 270.191986 
L 83.72713 270.310257 
L 84.06543 270.113138 
L 84.403729 270.73288 
L 84.516495 270.349681 
L 84.742028 270.428528 
L 84.967561 269.994867 
L 85.080328 269.994867 
L 85.193094 269.876595 
L 85.418627 270.152562 
L 85.982459 270.152562 
L 86.207992 270.467952 
L 86.433525 270.310257 
L 86.771824 270.270833 
L 86.997357 269.994867 
L 87.22289 270.310257 
L 87.335656 270.152562 
L 87.561189 270.231409 
L 87.673955 270.152562 
L 87.786722 270.231409 
L 88.012255 269.994867 
L 88.350554 270.617762 
L 88.46332 270.349681 
L 88.576087 270.428528 
L 88.914386 269.994867 
L 89.027153 269.955443 
L 89.139919 270.152562 
L 89.365452 269.955443 
L 89.703751 270.349681 
L 89.929284 269.994867 
L 90.154817 270.349681 
L 90.493116 270.03429 
L 90.605883 270.231409 
L 90.718649 269.640053 
L 90.831415 269.7189 
L 91.056948 269.043965 
L 91.169715 268.070986 
L 91.282481 268.115141 
L 91.508014 268.402146 
L 91.62078 268.559841 
L 91.733547 268.480993 
L 91.846313 268.764845 
L 91.95908 268.520417 
L 92.071846 268.599265 
L 92.297379 268.115141 
L 92.748445 266.364725 
L 93.086744 263.860526 
L 93.312277 264.428229 
L 94.214408 264.38092 
L 94.439941 264.238995 
L 94.891007 264.286303 
L 95.342072 265.773368 
L 95.567605 266.462496 
L 95.680372 266.462496 
L 95.793138 266.273262 
L 95.905905 266.32057 
L 96.131437 266.825195 
L 96.920802 266.869349 
L 97.146335 266.998659 
L 97.259102 266.998659 
L 97.484635 267.172124 
L 97.710167 267.219432 
L 97.9357 267.490668 
L 98.048467 267.361358 
L 98.274 267.752442 
L 98.386766 267.44809 
L 98.612299 267.534823 
L 98.725065 267.534823 
L 98.950598 267.222586 
L 99.063365 267.708287 
L 99.288897 271.19335 
L 99.51443 266.998659 
L 99.627197 267.886483 
L 99.739963 267.932214 
L 99.965496 267.440206 
L 100.416562 268.228681 
L 100.642095 268.189257 
L 100.754861 267.976369 
L 100.980394 269.032926 
L 101.09316 268.993503 
L 101.43146 268.402146 
L 101.769759 268.402146 
L 102.333591 266.270108 
L 102.559124 267.127969 
L 102.897423 267.172124 
L 103.686788 267.216279 
L 103.912321 267.881752 
L 104.137854 267.79502 
L 104.363387 267.881752 
L 104.927219 267.881752 
L 105.603817 265.125241 
L 106.054883 255.66038 
L 106.393182 254.083429 
L 106.618715 254.241124 
L 106.957015 252.467054 
L 107.182547 252.821868 
L 107.40808 253.294953 
L 107.633613 253.294953 
L 107.74638 252.782444 
L 109.212343 229.561838 
L 109.437876 229.325295 
L 109.550642 229.48299 
L 110.114475 232.558045 
L 110.791073 240.166834 
L 111.580438 245.922706 
L 111.918737 247.341962 
L 112.257037 248.5641 
L 112.708102 248.5641 
L 113.271934 249.037185 
L 113.497467 249.076609 
L 113.723 249.19488 
L 113.835767 249.234304 
L 114.061299 249.825661 
L 114.286832 249.825661 
L 114.625132 250.141051 
L 115.076197 250.141051 
L 115.414497 249.273728 
L 115.640029 244.700569 
L 115.978329 235.002319 
L 116.654927 212.806731 
L 117.218759 204.133499 
L 118.120891 197.47088 
L 118.45919 200.782478 
L 119.474088 216.906804 
L 120.03792 228.931057 
L 120.376219 233.701334 
L 120.488986 233.898453 
L 121.165584 238.03795 
L 121.729417 241.704362 
L 122.293249 243.754398 
L 122.631548 244.424603 
L 122.857081 245.843859 
L 123.19538 245.883283 
L 123.308147 245.883283 
L 123.420913 245.725587 
L 123.646446 245.252502 
L 123.871979 245.725587 
L 124.210278 246.514063 
L 124.435811 247.775624 
L 124.548577 247.775624 
L 124.999643 248.5641 
L 125.112409 248.761219 
L 125.337942 249.352575 
L 125.676242 250.298746 
L 125.789008 250.298746 
L 125.901774 250.495865 
L 126.240074 253.88631 
L 126.465607 254.753633 
L 126.691139 254.871905 
L 127.593271 254.871905 
L 128.044337 255.502685 
L 128.157103 255.581533 
L 128.495402 256.448856 
L 128.608169 256.448856 
L 128.720935 256.291161 
L 129.059234 257.552722 
L 129.961366 257.552722 
L 130.299665 257.789264 
L 130.750731 259.484487 
L 131.540096 260.391234 
L 132.103928 259.602758 
L 132.442227 259.602758 
L 132.66776 259.760453 
L 132.893293 259.602758 
L 133.344359 259.681606 
L 133.569891 259.445063 
L 133.682658 259.445063 
L 133.795424 259.247944 
L 134.584789 252.42763 
L 134.810322 250.33817 
L 135.148621 249.51027 
L 136.163519 246.198673 
L 136.276286 246.198673 
L 136.501819 247.144844 
L 136.727351 247.775624 
L 136.952884 248.327557 
L 137.178417 249.667965 
L 137.40395 251.402612 
L 137.629483 251.402612 
L 138.531614 252.506478 
L 138.644381 252.42763 
L 138.98268 250.535289 
L 139.208213 250.456441 
L 139.546512 250.456441 
L 139.659279 250.298746 
L 139.772045 249.470847 
L 140.223111 243.360161 
L 140.335877 243.360161 
L 140.674176 244.227484 
L 140.899709 245.883283 
L 141.125242 246.040978 
L 141.238009 246.316944 
L 141.463541 247.933319 
L 141.576308 248.091014 
L 141.801841 248.87949 
L 141.914607 248.997761 
L 142.14014 249.431423 
L 142.365673 249.628542 
L 142.591206 250.141051 
L 143.042271 248.091014 
L 143.267804 247.933319 
L 143.944403 247.933319 
L 144.169936 248.406405 
L 144.282702 248.406405 
L 144.508235 248.5641 
L 144.846534 248.5641 
L 145.2976 249.037185 
L 145.523133 249.19488 
L 145.748666 249.865084 
L 146.312498 251.875697 
L 146.538031 252.230511 
L 146.87633 253.216106 
L 147.101863 253.531496 
L 147.327396 253.846886 
L 147.552929 255.108447 
L 147.778461 255.502685 
L 147.891228 255.66038 
L 148.116761 256.764246 
L 148.567826 256.448856 
L 148.793359 256.527703 
L 149.357191 256.921941 
L 149.582724 257.395026 
L 150.259323 258.183502 
L 150.372089 258.183502 
L 150.484856 258.301773 
L 150.710389 259.760453 
L 150.823155 259.445063 
L 150.935921 259.20852 
L 151.161454 259.366215 
L 151.61252 260.548929 
L 151.838053 260.391234 
L 152.289118 260.84855 
L 153.642316 260.675085 
L 153.867848 260.548929 
L 154.318914 260.608853 
L 154.657213 261.215979 
L 154.882746 261.920876 
L 155.333812 261.965031 
L 155.559345 262.094341 
L 155.672111 262.094341 
L 156.235943 262.878086 
L 156.34871 262.824469 
L 156.461476 261.97607 
L 156.687009 262.062802 
L 157.250841 262.047033 
L 157.92744 262.740891 
L 158.378506 262.77243 
L 159.055104 262.851278 
L 159.280637 262.930125 
L 159.618936 262.930125 
L 159.844469 263.10359 
L 160.182768 263.379556 
L 160.521068 264.207456 
L 165.144491 264.097069 
L 165.482791 264.0813 
L 165.82109 264.443998 
L 165.933856 264.443998 
L 166.159389 264.617463 
L 166.723221 264.604847 
L 167.061521 265.153626 
L 168.414718 265.20882 
L 168.640251 265.484786 
L 168.97855 265.3744 
L 169.204083 265.279783 
L 169.316849 265.279783 
L 169.429616 265.598327 
L 169.880681 265.02747 
L 169.993448 264.38092 
L 170.21898 264.519692 
L 170.895579 264.491307 
L 171.233878 264.67581 
L 171.459411 264.759389 
L 171.684944 264.846121 
L 172.13601 264.743619 
L 172.812608 264.254764 
L 173.263674 264.254764 
L 173.489207 264.428229 
L 173.940273 264.649002 
L 174.165805 264.775158 
L 174.504105 264.680541 
L 174.729638 264.585924 
L 175.29347 264.475537 
L 175.857302 262.677813 
L 175.970068 261.968185 
L 176.195601 259.287368 
L 176.421134 259.129673 
L 176.5339 258.971978 
L 176.984966 257.631569 
L 177.097733 255.581533 
L 177.323265 244.18806 
L 178.225397 189.191887 
L 178.789229 180.321536 
L 179.014762 178.153228 
L 179.240295 178.389771 
L 179.353061 178.232076 
L 179.578594 180.36096 
L 179.804127 182.844658 
L 181.60839 230.350313 
L 182.059455 236.500423 
L 182.284988 237.012932 
L 182.510521 238.511036 
L 182.961587 242.41399 
L 183.299886 242.41399 
L 183.638185 243.360161 
L 183.863718 245.410197 
L 184.653083 246.040978 
L 184.878616 246.514063 
L 185.329682 243.951517 
L 185.893514 230.665703 
L 187.359478 188.009173 
L 187.472244 188.009173 
L 188.148843 182.726387 
L 188.374375 182.489844 
L 188.487142 182.489844 
L 188.599908 182.371573 
L 188.712675 182.608115 
L 188.825441 183.436015 
L 188.938208 183.436015 
L 189.389273 186.116832 
L 189.614806 189.546701 
L 189.840339 196.997795 
L 190.291405 204.606585 
L 190.629704 209.416286 
L 191.08077 218.207789 
L 191.757368 231.966688 
L 192.3212 237.761984 
L 192.885032 242.059176 
L 192.997799 242.492837 
L 193.223332 244.661145 
L 193.561631 245.252502 
L 193.674397 245.252502 
L 194.576529 249.431423 
L 195.027595 250.141051 
L 195.253127 250.377594 
L 195.591427 251.402612 
L 195.81696 251.481459 
L 196.155259 252.033392 
L 196.268025 252.151664 
L 196.380792 252.585325 
L 196.606325 254.083429 
L 197.170157 254.083429 
L 197.39569 253.768039 
L 197.621222 253.768039 
L 197.959522 254.241124 
L 198.185055 254.398819 
L 198.523354 254.477667 
L 198.748887 256.291161 
L 198.861653 256.251737 
L 199.087186 255.936347 
L 199.199952 255.818075 
L 199.312719 255.896923 
L 199.651018 256.448856 
L 200.327617 256.448856 
L 200.55315 256.291161 
L 201.79358 256.291161 
L 202.019113 257.592145 
L 202.13188 257.395026 
L 202.357412 256.764246 
L 202.808478 256.764246 
L 203.146777 257.237331 
L 203.71061 257.237331 
L 204.612741 258.025807 
L 204.725507 258.025807 
L 205.063807 258.656587 
L 205.514872 258.656587 
L 205.853172 258.971978 
L 206.078705 259.445063 
L 206.417004 259.366215 
L 206.642537 259.760453 
L 207.431902 259.760453 
L 207.770201 259.129673 
L 208.785099 259.129673 
L 209.123398 257.43445 
L 209.236164 257.395026 
L 209.461697 257.079636 
L 209.574464 257.079636 
L 209.68723 257.237331 
L 209.799997 257.079636 
L 210.025529 257.552722 
L 210.138296 257.237331 
L 210.589362 258.26235 
L 210.702128 258.183502 
L 211.491493 258.183502 
L 211.717026 258.814283 
L 212.055325 258.814283 
L 212.280858 258.89313 
L 212.506391 258.814283 
L 212.619157 258.814283 
L 212.84469 259.287368 
L 214.085121 259.247944 
L 214.310654 258.971978 
L 214.648953 258.025807 
L 214.761719 258.025807 
L 214.874486 258.183502 
L 214.987252 258.104654 
L 215.325552 255.857499 
L 215.551084 255.0296 
L 215.663851 254.990176 
L 215.889384 252.585325 
L 216.00215 252.506478 
L 216.114917 252.269935 
L 216.227683 252.348783 
L 216.340449 252.072816 
L 216.678749 250.692984 
L 216.791515 250.614136 
L 217.017048 250.062203 
L 217.242581 250.141051 
L 217.355347 250.141051 
L 217.58088 250.456441 
L 217.806413 250.377594 
L 218.031946 249.904508 
L 218.257479 249.983356 
L 218.483012 249.983356 
L 218.934077 249.037185 
L 219.15961 249.037185 
L 219.385143 249.352575 
L 219.610676 249.352575 
L 219.723442 249.470847 
L 219.836209 249.786237 
L 219.948975 250.456441 
L 220.625574 250.456441 
L 220.851107 250.929526 
L 221.866004 250.929526 
L 222.091537 251.323764 
L 222.31707 252.191087 
L 222.429837 252.191087 
L 222.542603 252.348783 
L 222.768136 252.821868 
L 222.993669 252.861292 
L 223.106435 253.531496 
L 223.219202 253.452648 
L 223.557501 253.610344 
L 223.8958 253.452648 
L 224.121333 253.452648 
L 224.346866 253.925734 
L 224.459632 253.925734 
L 224.685165 254.714209 
L 224.797932 254.990176 
L 225.136231 256.606551 
L 225.47453 257.552722 
L 226.602194 258.57774 
L 228.180924 259.602758 
L 228.293691 259.602758 
L 228.519224 259.760453 
L 229.308589 260.233539 
L 229.421355 260.233539 
L 229.646888 260.391234 
L 230.661786 260.966821 
L 231.676684 261.348443 
L 235.172443 262.460194 
L 238.217136 263.119359 
L 239.795866 263.229746 
L 242.051195 263.497828 
L 249.381013 264.428229 
L 255.019334 265.114203 
L 255.357633 264.790928 
L 255.695933 264.06553 
L 256.034232 261.01886 
L 256.372531 253.373801 
L 257.274663 220.415521 
L 257.838495 197.116066 
L 258.176794 192.740027 
L 258.289561 191.951551 
L 258.740626 184.697576 
L 258.966159 177.837838 
L 259.191692 157.41632 
L 259.529991 110.896259 
L 259.868291 98.674887 
L 259.981057 98.280649 
L 260.093823 96.703698 
L 260.883188 63.587722 
L 260.995955 65.164674 
L 261.221488 61.222296 
L 261.334254 63.587722 
L 261.447021 61.222296 
L 261.672553 61.222296 
L 261.78532 63.587722 
L 262.010853 69.895527 
L 262.123619 70.289765 
L 262.236386 73.04943 
L 262.349152 73.04943 
L 262.461918 76.203332 
L 262.574685 74.626381 
L 262.800218 77.780283 
L 262.912984 79.357235 
L 263.025751 79.357235 
L 263.251283 76.203332 
L 263.476816 82.511137 
L 263.589583 84.088088 
L 263.702349 84.088088 
L 263.815116 87.241991 
L 264.040648 80.934186 
L 264.266181 90.395893 
L 264.491714 84.088088 
L 264.717247 88.818942 
L 264.94278 91.972844 
L 265.055546 89.21318 
L 265.168313 90.395893 
L 265.281079 90.395893 
L 265.393846 93.549795 
L 265.506612 91.578606 
L 265.844911 95.126747 
L 265.957678 91.972844 
L 266.183211 101.434552 
L 266.408743 104.588454 
L 266.52151 109.319308 
L 266.634276 107.742356 
L 266.972575 129.070622 
L 267.536408 148.467121 
L 268.438539 173.06756 
L 268.889605 182.489844 
L 269.002371 183.199472 
L 269.453437 188.797649 
L 269.791736 192.542908 
L 270.693868 199.560341 
L 271.934298 207.247978 
L 272.047065 207.247978 
L 272.159831 207.366249 
L 272.272598 207.721063 
L 272.385364 207.602792 
L 272.610897 206.696045 
L 272.949196 204.094075 
L 273.513028 196.051624 
L 274.189627 177.75899 
L 274.527926 158.914423 
L 274.753459 131.002387 
L 275.204525 66.347387 
L 275.542824 45.058546 
L 275.99389 35.596838 
L 276.106656 39.144979 
L 276.219423 34.414125 
L 276.332189 37.962265 
L 276.444955 36.779552 
L 276.557722 36.779552 
L 276.670488 39.144979 
L 276.783255 37.962265 
L 276.896021 41.510405 
L 277.008788 40.327692 
L 277.23432 47.423973 
L 277.347087 47.423973 
L 277.685386 58.462631 
L 277.798153 59.645344 
L 277.910919 70.684003 
L 278.023685 69.501289 
L 278.587518 90.395893 
L 278.81305 96.703698 
L 278.925817 96.703698 
L 279.15135 103.011503 
L 279.489649 103.011503 
L 279.940715 115.627112 
L 280.166248 115.627112 
L 280.39178 122.408003 
L 280.504547 122.408003 
L 280.617313 128.715808 
L 280.842846 128.715808 
L 280.955613 134.708222 
L 281.068379 134.708222 
L 281.293912 140.188128 
L 281.406678 140.069856 
L 281.632211 145.1161 
L 281.744978 146.298814 
L 281.857744 149.846954 
L 281.97051 149.846954 
L 282.083277 154.104722 
L 282.196043 154.104722 
L 282.30881 157.889405 
L 282.421576 157.889405 
L 282.534343 161.516393 
L 282.647109 161.516393 
L 282.872642 165.419347 
L 283.436474 174.762783 
L 283.774773 178.941704 
L 284.564138 186.589917 
L 284.676905 186.82646 
L 286.030102 195.184301 
L 286.142868 195.302572 
L 287.383299 201.413258 
L 287.496065 201.570954 
L 287.947131 202.99021 
L 288.510963 204.409466 
L 288.62373 204.409466 
L 288.962029 205.513332 
L 289.187562 205.513332 
L 289.413095 206.144112 
L 289.751394 206.617197 
L 289.86416 206.735469 
L 290.20246 207.760487 
L 290.315226 209.495133 
L 290.427992 208.667234 
L 290.540759 208.785505 
L 290.879058 209.613405 
L 291.44289 209.613405 
L 293.02162 214.896191 
L 293.134387 215.763514 
L 293.923752 215.763514 
L 294.93865 217.340466 
L 296.404613 220.336673 
L 296.51738 220.336673 
L 297.419511 223.01749 
L 297.645044 224.436746 
L 298.547175 231.927264 
L 298.659942 232.084959 
L 299.900372 236.027338 
L 300.125905 236.894661 
L 300.351438 238.03795 
L 301.140803 240.521648 
L 301.591869 241.152429 
L 301.817402 241.625514 
L 302.042935 241.546667 
L 302.155701 241.349548 
L 302.494 239.733173 
L 302.719533 239.575478 
L 303.170599 239.49663 
L 303.396132 239.417783 
L 303.508898 239.49663 
L 303.734431 239.733173 
L 303.847197 239.81202 
L 304.07273 240.048563 
L 304.41103 240.048563 
L 304.523796 239.890868 
L 304.749329 240.206258 
L 306.553592 240.206258 
L 307.117424 240.837039 
L 307.681256 239.575478 
L 308.583387 239.654325 
L 308.921687 240.403377 
L 309.034453 241.152429 
L 309.259986 241.152429 
L 309.372752 241.310124 
L 309.598285 242.0986 
L 311.064249 242.177447 
L 311.402548 242.492837 
L 311.515314 242.72938 
L 311.740847 243.517856 
L 311.853614 243.596703 
L 312.079147 243.833246 
L 312.191913 243.87267 
L 312.417446 244.464026 
L 312.868512 245.725587 
L 313.094044 246.750606 
L 313.319577 247.578505 
L 313.54511 248.288133 
L 313.770643 248.87949 
L 313.883409 249.116033 
L 314.221709 250.771831 
L 314.447242 250.771831 
L 314.560008 251.087222 
L 314.672774 252.940139 
L 314.785541 252.861292 
L 315.011074 251.520883 
L 315.12384 251.402612 
L 315.349373 251.718002 
L 315.462139 251.836273 
L 315.687672 253.137258 
L 316.025972 253.216106 
L 316.364271 253.728615 
L 316.928103 254.398819 
L 317.379169 255.187295 
L 317.717468 255.502685 
L 317.943001 255.97577 
L 318.2813 255.97577 
L 318.506833 255.502685 
L 319.634497 255.581533 
L 319.747264 255.778651 
L 319.86003 255.739228 
L 320.311096 256.448856 
L 320.423862 256.448856 
L 320.649395 256.606551 
L 320.987694 256.606551 
L 321.213227 256.764246 
L 322.228125 256.843094 
L 322.453658 257.237331 
L 322.679191 257.395026 
L 322.791957 257.395026 
L 323.01749 258.341197 
L 323.581322 258.341197 
L 323.694089 258.498892 
L 323.919622 258.971978 
L 324.145154 258.498892 
L 324.59622 258.498892 
L 324.821753 258.814283 
L 325.047286 258.656587 
L 325.498351 258.656587 
L 325.611118 258.853706 
L 325.723884 259.602758 
L 325.836651 259.247944 
L 325.949417 258.341197 
L 326.062184 258.498892 
L 326.287716 259.011401 
L 326.513249 259.287368 
L 326.964315 259.247944 
L 327.189848 259.129673 
L 327.528147 259.169097 
L 328.317512 259.918148 
L 328.655811 259.918148 
L 329.106877 260.391234 
L 329.33241 260.391234 
L 329.557943 260.075844 
L 331.023906 259.996996 
L 331.249439 259.918148 
L 333.392001 259.996996 
L 333.730301 260.233539 
L 334.745199 260.233539 
L 334.970731 260.075844 
L 335.083498 260.075844 
L 335.309031 258.617164 
L 335.985629 253.768039 
L 336.098396 253.768039 
L 336.323929 253.097834 
L 336.549461 251.718002 
L 336.887761 250.850679 
L 337.113294 250.771831 
L 337.451593 249.273728 
L 338.015425 247.854472 
L 338.240958 247.657353 
L 338.466491 246.829453 
L 338.917556 246.868877 
L 339.143089 246.987148 
L 339.368622 246.987148 
L 339.594155 247.302539 
L 339.706921 247.302539 
L 339.932454 247.775624 
L 340.157987 247.775624 
L 340.496286 248.406405 
L 340.609053 248.406405 
L 340.947352 248.721795 
L 341.172885 248.87949 
L 341.285651 248.958337 
L 341.511184 249.352575 
L 341.849484 250.141051 
L 342.300549 250.141051 
L 342.413316 250.259322 
L 342.638849 250.771831 
L 342.751615 251.166069 
L 342.977148 252.191087 
L 343.766513 252.230511 
L 343.992046 252.348783 
L 344.217578 253.137258 
L 344.443111 253.176682 
L 344.555878 252.033392 
L 344.894177 253.452648 
L 345.006943 253.610344 
L 345.232476 253.452648 
L 346.021841 253.531496 
L 346.247374 253.768039 
L 346.360141 253.768039 
L 346.472907 253.88631 
L 346.69844 254.398819 
L 347.262272 254.398819 
L 347.487805 255.0296 
L 347.600571 255.0296 
L 347.713338 255.187295 
L 348.164403 256.606551 
L 349.292068 256.606551 
L 349.8559 257.237331 
L 350.306966 257.237331 
L 350.532498 257.552722 
L 350.758031 257.552722 
L 350.983564 258.656587 
L 351.660163 258.656587 
L 351.885696 258.420045 
L 352.111228 257.868112 
L 352.223995 257.74984 
L 352.449528 256.488279 
L 352.675061 254.122853 
L 353.01336 253.728615 
L 353.238893 251.678578 
L 353.577192 248.288133 
L 353.915491 244.148636 
L 354.704856 240.521648 
L 354.930389 240.363953 
L 355.155922 240.363953 
L 355.268688 240.600496 
L 355.494221 241.467819 
L 355.606988 241.546667 
L 355.832521 242.0986 
L 356.058053 242.0986 
L 356.621886 243.675551 
L 356.960185 244.148636 
L 357.298484 245.055383 
L 357.411251 245.094807 
L 357.636783 245.410197 
L 357.74955 245.33135 
L 357.975083 242.374566 
L 358.313382 237.643713 
L 358.538915 235.593676 
L 359.215513 227.432953 
L 359.441046 225.816578 
L 359.666579 225.698307 
L 359.779346 225.698307 
L 359.892112 225.974274 
L 360.343178 229.088752 
L 361.132543 234.884048 
L 361.470842 236.618694 
L 362.147441 238.03795 
L 362.598506 238.668731 
L 362.824039 239.299511 
L 363.049572 240.087987 
L 363.387871 240.994734 
L 363.500638 240.994734 
L 363.613404 241.152429 
L 363.951703 242.256295 
L 364.177236 242.256295 
L 364.402769 242.689956 
L 364.741068 244.858264 
L 364.966601 244.937112 
L 365.079368 244.937112 
L 365.3049 244.621722 
L 365.868733 245.883283 
L 366.319798 247.617929 
L 366.658098 248.130438 
L 366.88363 248.5641 
L 367.672995 248.603523 
L 368.011295 250.929526 
L 369.364492 250.929526 
L 369.477258 252.230511 
L 369.590025 251.087222 
L 369.702791 251.28434 
L 369.928324 252.033392 
L 370.37939 252.11224 
L 370.604923 253.531496 
L 370.830455 253.88631 
L 371.168755 253.925734 
L 371.61982 253.846886 
L 371.845353 253.768039 
L 371.95812 253.768039 
L 372.183653 254.2017 
L 372.296419 254.635362 
L 372.521952 256.291161 
L 372.634718 255.34499 
L 372.747485 255.34499 
L 373.085784 254.753633 
L 373.875149 255.502685 
L 374.213448 255.502685 
L 374.551748 255.818075 
L 375.453879 255.818075 
L 375.566645 256.015194 
L 375.792178 257.552722 
L 375.904945 257.552722 
L 376.243244 257.079636 
L 376.468777 257.237331 
L 377.93474 257.237331 
L 378.498573 257.868112 
L 379.287938 257.907536 
L 379.51347 258.617164 
L 379.739003 258.971978 
L 380.302835 258.971978 
L 380.528368 259.129673 
L 381.656033 259.20852 
L 381.881565 259.445063 
L 382.332631 260.075844 
L 382.558164 260.075844 
L 382.783697 260.391234 
L 383.00923 260.233539 
L 384.24966 260.312386 
L 384.475193 260.706624 
L 385.490091 261.715873 
L 387.40712 261.715873 
L 387.632653 261.920876 
L 390.790113 261.920876 
L 391.128412 262.330884 
L 393.496507 262.381346 
L 393.72204 262.535887 
L 394.06034 262.433386 
L 394.285872 262.330884 
L 394.398639 262.330884 
L 394.736938 262.930125 
L 396.428435 262.827623 
L 396.653967 262.725122 
L 396.766734 262.737737 
L 396.8795 262.638389 
L 397.105033 262.12588 
L 397.781632 262.026532 
L 398.007165 261.100862 
L 398.119931 261.100862 
L 398.345464 261.518754 
L 398.570997 264.948623 
L 398.79653 263.765909 
L 399.022062 263.513597 
L 399.360362 263.466289 
L 399.473128 263.131975 
L 399.585895 262.086456 
L 399.698661 262.086456 
L 399.924194 262.535887 
L 400.03696 262.535887 
L 400.03696 262.535887 
" clip-path="url(#p3772206c5a)" style="fill: none; stroke: #1f77b4; stroke-opacity: 0.75; stroke-width: 1.5; stroke-linecap: square"/>
   </g>
   <g id="line2d_38">
    <path d="M 75.382415 271.86497 
L 75.946247 271.476253 
L 76.510079 271.389002 
L 77.186678 271.531432 
L 78.201575 272.007977 
L 82.261167 274.160074 
L 83.72713 274.646596 
L 84.742028 274.857327 
L 86.546291 275.131488 
L 89.816518 275.638811 
L 90.38035 275.627297 
L 90.605883 275.273806 
L 91.62078 273.260319 
L 91.95908 272.666739 
L 92.410145 271.419957 
L 93.650576 267.146402 
L 94.214408 266.42683 
L 94.665474 266.171616 
L 95.11654 266.122157 
L 95.793138 266.370503 
L 96.469737 266.891181 
L 97.597401 268.128639 
L 99.965496 270.775573 
L 100.867627 271.524717 
L 101.544226 271.909755 
L 102.333591 271.477939 
L 103.235722 270.882048 
L 103.912321 270.850213 
L 104.814452 270.980501 
L 105.265518 269.683566 
L 105.491051 268.483758 
L 106.054883 265.029399 
L 106.505949 263.452929 
L 106.957015 262.571415 
L 107.40808 262.080191 
L 107.633613 261.674014 
L 107.859146 259.990664 
L 108.761277 251.68525 
L 109.212343 249.215696 
L 109.663409 247.877132 
L 110.001708 247.501077 
L 110.227241 247.47998 
L 110.56554 247.757074 
L 111.016606 248.561684 
L 111.693205 250.362529 
L 113.046402 254.81293 
L 114.286832 258.709822 
L 114.625132 259.335131 
L 114.737898 259.314304 
L 115.30173 258.197852 
L 115.527263 256.411685 
L 117.331526 237.891985 
L 118.120891 233.078347 
L 118.45919 232.393436 
L 118.684723 232.343408 
L 118.910256 232.555897 
L 119.248555 233.269029 
L 119.812387 235.211756 
L 120.714519 239.398725 
L 122.857081 249.843898 
L 123.082614 250.143158 
L 123.533679 250.637201 
L 124.097512 251.755174 
L 124.999643 254.223502 
L 127.818804 262.323133 
L 129.172001 265.433585 
L 130.412432 267.758969 
L 131.652862 269.628121 
L 132.893293 271.111807 
L 133.231592 271.395609 
L 133.344359 271.273789 
L 133.569891 270.2788 
L 134.020957 266.8107 
L 134.923089 259.097482 
L 135.712454 254.481123 
L 136.163519 253.091445 
L 136.501819 252.613907 
L 136.840118 252.521224 
L 137.178417 252.637432 
L 137.629483 252.943921 
L 137.855016 252.70342 
L 138.193315 251.598944 
L 138.869914 249.138485 
L 139.546512 247.655074 
L 140.223111 245.743875 
L 140.56141 245.432396 
L 140.786943 245.487818 
L 141.125242 245.878088 
L 142.14014 247.369275 
L 142.252906 247.400933 
L 142.478439 247.072728 
L 142.929505 245.311527 
L 143.944403 241.298448 
L 144.282702 240.968049 
L 144.508235 241.007589 
L 144.846534 241.332018 
L 145.2976 242.215121 
L 145.861432 243.907191 
L 146.989096 248.181664 
L 149.131659 256.410654 
L 151.386987 262.589116 
L 151.725286 263.297481 
L 151.838053 263.283009 
L 152.063586 262.766569 
L 153.416783 258.348795 
L 154.206148 254.638017 
L 154.657213 253.478258 
L 154.995513 253.120387 
L 155.333812 253.135249 
L 155.672111 253.435669 
L 156.235943 254.371145 
L 157.025308 256.215385 
L 158.604038 260.191756 
L 158.716805 260.100392 
L 158.942338 259.36837 
L 159.618936 256.14736 
L 160.070002 255.171856 
L 160.408301 254.944189 
L 160.746601 255.017422 
L 161.0849 255.338528 
L 161.648732 256.257171 
L 162.550863 258.279821 
L 165.482791 265.203424 
L 166.723221 267.50065 
L 167.738119 269.014031 
L 168.753017 269.800161 
L 169.542382 270.469005 
L 169.655148 270.38596 
L 169.880681 269.67542 
L 170.782813 264.895458 
L 171.233878 263.761803 
L 171.684944 263.205748 
L 172.812608 262.210578 
L 173.263674 262.204337 
L 173.37644 262.049675 
L 174.391338 259.134866 
L 174.729638 258.893613 
L 175.180703 258.753338 
L 175.406236 256.956464 
L 175.970068 251.375823 
L 176.421134 248.879178 
L 176.984966 246.848049 
L 177.210499 242.902392 
L 177.999864 220.326623 
L 178.676463 193.684589 
L 179.127528 184.039017 
L 179.578594 179.096204 
L 180.02966 176.947297 
L 180.255193 176.769327 
L 180.593492 177.245604 
L 180.819025 177.804217 
L 181.27009 180.053694 
L 181.833923 184.29692 
L 182.736054 193.346033 
L 183.638185 202.328221 
L 183.863718 203.339922 
L 183.976485 203.402286 
L 184.089251 202.917189 
L 184.653083 197.030186 
L 185.216915 192.59382 
L 185.780748 189.778457 
L 187.246711 182.422134 
L 187.472244 181.95327 
L 187.697777 181.917734 
L 187.92331 182.281773 
L 188.261609 183.564484 
L 188.825441 186.917939 
L 189.614806 193.421774 
L 190.968003 207.468188 
L 192.095667 218.14857 
L 193.561631 230.702412 
L 195.140361 241.417699 
L 195.704193 244.259654 
L 199.199952 257.442892 
L 199.425485 258.054649 
L 199.538252 258.073295 
L 199.651018 257.779475 
L 199.876551 255.824519 
L 201.455281 231.645723 
L 201.906347 228.862453 
L 202.244646 228.006921 
L 202.470179 227.896713 
L 202.695712 228.02609 
L 203.034011 228.599341 
L 203.485077 230.035191 
L 205.402106 238.039038 
L 205.965938 240.294323 
L 206.417004 239.548841 
L 206.642537 239.466695 
L 206.86807 239.591763 
L 207.206369 239.956728 
L 207.319135 239.785606 
L 207.544668 238.745292 
L 207.770201 236.503851 
L 208.785099 221.977812 
L 209.236164 218.847006 
L 209.574464 217.953329 
L 209.799997 217.613184 
L 210.251062 216.26776 
L 210.476595 216.156238 
L 210.702128 216.410664 
L 211.040427 217.34261 
L 211.491493 218.8477 
L 211.604259 218.64233 
L 212.280858 215.569975 
L 212.731924 214.558314 
L 212.957457 214.522571 
L 213.295756 214.866781 
L 213.746822 215.610187 
L 213.972354 215.448815 
L 214.197887 215.622787 
L 214.648953 216.079652 
L 214.987252 216.586959 
L 215.325552 217.596417 
L 215.889384 220.279551 
L 216.791515 225.999374 
L 219.272377 242.319622 
L 220.174508 247.047429 
L 220.625574 248.860177 
L 220.73834 248.866644 
L 220.851107 248.350234 
L 221.076639 245.281896 
L 221.527705 231.730615 
L 222.204304 212.49756 
L 222.768136 201.946982 
L 223.219202 197.024666 
L 223.557501 195.437875 
L 223.783034 195.172569 
L 224.008567 195.419669 
L 224.346866 196.562252 
L 224.797932 199.154733 
L 227.391559 216.548038 
L 228.068158 218.115906 
L 228.519224 219.925395 
L 229.195822 223.521173 
L 233.36818 248.043206 
L 234.495844 253.112232 
L 235.849041 258.14129 
L 236.751173 260.830046 
L 237.878837 263.306947 
L 239.457567 266.359531 
L 240.134166 267.331425 
L 240.585231 267.607265 
L 241.26183 267.912353 
L 241.938429 268.297192 
L 242.163961 268.242473 
L 242.502261 267.62552 
L 243.517159 265.261625 
L 243.968224 264.939374 
L 244.41929 264.933131 
L 244.983122 265.113391 
L 245.321421 265.202809 
L 245.885254 264.690022 
L 246.561852 263.508308 
L 247.689516 262.489151 
L 248.140582 262.294844 
L 248.478881 262.383467 
L 249.042713 262.833537 
L 250.283144 264.349316 
L 251.410808 265.934028 
L 253.89167 269.473383 
L 254.681035 270.37531 
L 254.793801 270.287926 
L 255.019334 268.254742 
L 255.583166 259.197064 
L 256.034232 250.127024 
L 257.04913 225.064057 
L 257.612962 217.551955 
L 258.064028 214.00287 
L 258.515093 211.78923 
L 258.740626 207.882729 
L 259.642758 187.491476 
L 260.20659 182.168078 
L 260.657656 179.828266 
L 261.108721 178.313167 
L 261.334254 178.231713 
L 261.559787 178.728826 
L 261.898086 180.343471 
L 262.687451 186.130783 
L 263.815116 194.935994 
L 264.040648 194.234598 
L 264.378948 193.467638 
L 264.491714 193.462318 
L 264.717247 193.815545 
L 265.055546 195.101275 
L 265.506612 197.862636 
L 266.295977 204.29672 
L 269.453437 231.798281 
L 270.242802 236.812935 
L 271.032167 239.736153 
L 271.821532 242.69558 
L 272.159831 243.97739 
L 272.272598 243.980901 
L 272.49813 242.519103 
L 272.83643 238.2439 
L 273.174729 229.924524 
L 273.964094 197.517842 
L 274.640693 164.656962 
L 275.317291 134.204229 
L 275.768357 122.60983 
L 276.219423 116.126888 
L 276.557722 113.303081 
L 276.783255 112.845024 
L 276.896021 113.003791 
L 277.121554 113.992666 
L 277.459853 116.865382 
L 278.023685 124.30107 
L 279.15135 140.380634 
L 279.940715 149.879675 
L 281.068379 167.27165 
L 283.210941 200.089881 
L 284.451372 215.738441 
L 285.579036 227.490634 
L 286.7067 237.101147 
L 287.834365 244.752672 
L 288.736496 249.762501 
L 289.300328 251.501067 
L 290.540759 254.444155 
L 290.879058 255.04966 
L 291.217357 255.262113 
L 291.555657 255.258327 
L 291.893956 255.375739 
L 292.006722 254.948704 
L 292.232255 251.283785 
L 292.796087 239.285303 
L 293.247153 233.593086 
L 293.698219 230.185501 
L 294.036518 228.6788 
L 294.374817 228.10787 
L 294.60035 228.148694 
L 294.825883 228.459486 
L 295.164182 229.318992 
L 295.728015 231.516995 
L 296.630146 236.1503 
L 299.111007 249.341587 
L 300.464205 255.253557 
L 301.704635 259.689068 
L 302.494 261.839909 
L 303.847197 264.719405 
L 305.313161 267.222366 
L 305.764227 267.621219 
L 306.553592 268.074799 
L 306.666358 267.79895 
L 306.891891 266.099293 
L 308.132322 251.060872 
L 309.034453 245.181997 
L 309.485519 243.848104 
L 309.823818 243.533015 
L 310.049351 243.599867 
L 310.38765 244.023947 
L 310.838716 245.0402 
L 312.079147 248.822354 
L 316.251504 262.61977 
L 317.491935 265.542785 
L 318.732366 267.889463 
L 319.972797 269.750912 
L 321.213227 271.207421 
L 322.566424 272.446028 
L 323.919622 273.379537 
L 325.498351 274.20061 
L 327.302614 274.876391 
L 327.528147 274.913764 
L 327.75368 274.546115 
L 328.543045 272.850523 
L 329.106877 272.082047 
L 329.670709 271.722708 
L 330.234541 271.646191 
L 330.685607 271.661595 
L 330.798374 271.510034 
L 331.023906 270.54545 
L 332.264337 262.016221 
L 332.715403 260.68684 
L 333.053702 260.188736 
L 333.392001 260.009396 
L 333.730301 260.065898 
L 334.294133 260.4027 
L 334.632432 260.664409 
L 334.970731 260.191587 
L 335.421797 259.78318 
L 335.760096 259.715289 
L 336.098396 259.852084 
L 336.549461 260.294291 
L 337.338826 261.447044 
L 338.692024 263.963202 
L 340.609053 267.422017 
L 341.96225 269.427525 
L 343.315447 271.030158 
L 344.217578 271.886904 
L 344.443111 271.815769 
L 345.006943 271.620999 
L 345.683542 271.676418 
L 346.585673 272.021218 
L 348.841002 273.249483 
L 350.870798 274.22579 
L 351.321863 274.294397 
L 351.43463 273.923724 
L 351.772929 270.982171 
L 352.223995 264.930439 
L 353.464426 242.257593 
L 354.028258 234.077023 
L 354.479323 229.46189 
L 355.155922 225.033475 
L 355.494221 224.147131 
L 355.719754 223.895686 
L 355.945287 223.00396 
L 356.509119 219.890648 
L 356.734652 219.418745 
L 356.960185 219.354901 
L 357.185718 219.61851 
L 357.524017 220.010949 
L 357.636783 219.167558 
L 357.975083 212.721024 
L 358.426148 205.333196 
L 358.877214 201.204533 
L 359.215513 199.847672 
L 359.441046 199.667258 
L 359.666579 199.959123 
L 360.004878 201.10759 
L 360.455944 203.624444 
L 361.245309 209.660048 
L 364.853835 239.520124 
L 366.094265 247.186932 
L 367.22193 252.88497 
L 368.349594 257.538384 
L 369.477258 261.291769 
L 370.604923 264.256826 
L 371.61982 266.356686 
L 372.860251 268.434288 
L 374.438981 270.41034 
L 375.792178 271.752204 
L 377.370908 272.966998 
L 378.949638 273.893339 
L 380.641135 274.62576 
L 382.558164 275.210207 
L 384.926259 275.682724 
L 387.74542 276.013417 
L 391.917777 276.268516 
L 394.849705 276.302986 
L 395.075237 275.970687 
L 395.30077 274.882498 
L 395.751836 270.865785 
L 396.315668 266.368418 
L 396.8795 263.747647 
L 397.330566 262.635414 
L 397.668865 262.228746 
L 398.007165 262.096265 
L 398.345464 262.17408 
L 398.79653 262.515482 
L 399.473128 263.353661 
L 400.03696 264.215339 
L 400.03696 264.215339 
" clip-path="url(#p3772206c5a)" style="fill: none; stroke: #ff7f0e; stroke-opacity: 0.75; stroke-width: 1.5; stroke-linecap: square"/>
   </g>
   <g id="patch_3">
    <path d="M 59.149687 288.430125 
L 59.149687 22.318125 
" style="fill: none; stroke: #000000; stroke-width: 0.8; stroke-linejoin: miter; stroke-linecap: square"/>
   </g>
   <g id="patch_4">
    <path d="M 416.269688 288.430125 
L 416.269688 22.318125 
" style="fill: none; stroke: #000000; stroke-width: 0.8; stroke-linejoin: miter; stroke-linecap: square"/>
   </g>
   <g id="patch_5">
    <path d="M 59.149687 288.430125 
L 416.269687 288.430125 
" style="fill: none; stroke: #000000; stroke-width: 0.8; stroke-linejoin: miter; stroke-linecap: square"/>
   </g>
   <g id="patch_6">
    <path d="M 59.149687 22.318125 
L 416.269687 22.318125 
" style="fill: none; stroke: #000000; stroke-width: 0.8; stroke-linejoin: miter; stroke-linecap: square"/>
   </g>
   <g id="text_21">
    <!-- Observed vs. Simulated River Flow -->
    <g transform="translate(133.06875 16.318125) scale(0.12 -0.12)">
     <defs>
      <path id="DejaVuSans-4f" d="M 2522 4238 
Q 1834 4238 1429 3725 
Q 1025 3213 1025 2328 
Q 1025 1447 1429 934 
Q 1834 422 2522 422 
Q 3209 422 3611 934 
Q 4013 1447 4013 2328 
Q 4013 3213 3611 3725 
Q 3209 4238 2522 4238 
z
M 2522 4750 
Q 3503 4750 4090 4092 
Q 4678 3434 4678 2328 
Q 4678 1225 4090 567 
Q 3503 -91 2522 -91 
Q 1538 -91 948 565 
Q 359 1222 359 2328 
Q 359 3434 948 4092 
Q 1538 4750 2522 4750 
z
" transform="scale(0.015625)"/>
      <path id="DejaVuSans-62" d="M 3116 1747 
Q 3116 2381 2855 2742 
Q 2594 3103 2138 3103 
Q 1681 3103 1420 2742 
Q 1159 2381 1159 1747 
Q 1159 1113 1420 752 
Q 1681 391 2138 391 
Q 2594 391 2855 752 
Q 3116 1113 3116 1747 
z
M 1159 2969 
Q 1341 3281 1617 3432 
Q 1894 3584 2278 3584 
Q 2916 3584 3314 3078 
Q 3713 2572 3713 1747 
Q 3713 922 3314 415 
Q 2916 -91 2278 -91 
Q 1894 -91 1617 61 
Q 1341 213 1159 525 
L 1159 0 
L 581 0 
L 581 4863 
L 1159 4863 
L 1159 2969 
z
" transform="scale(0.015625)"/>
      <path id="DejaVuSans-76" d="M 191 3500 
L 800 3500 
L 1894 563 
L 2988 3500 
L 3597 3500 
L 2284 0 
L 1503 0 
L 191 3500 
z
" transform="scale(0.015625)"/>
      <path id="DejaVuSans-64" d="M 2906 2969 
L 2906 4863 
L 3481 4863 
L 3481 0 
L 2906 0 
L 2906 525 
Q 2725 213 2448 61 
Q 2172 -91 1784 -91 
Q 1150 -91 751 415 
Q 353 922 353 1747 
Q 353 2572 751 3078 
Q 1150 3584 1784 3584 
Q 2172 3584 2448 3432 
Q 2725 3281 2906 2969 
z
M 947 1747 
Q 947 1113 1208 752 
Q 1469 391 1925 391 
Q 2381 391 2643 752 
Q 2906 1113 2906 1747 
Q 2906 2381 2643 2742 
Q 2381 3103 1925 3103 
Q 1469 3103 1208 2742 
Q 947 2381 947 1747 
z
" transform="scale(0.015625)"/>
      <path id="DejaVuSans-53" d="M 3425 4513 
L 3425 3897 
Q 3066 4069 2747 4153 
Q 2428 4238 2131 4238 
Q 1616 4238 1336 4038 
Q 1056 3838 1056 3469 
Q 1056 3159 1242 3001 
Q 1428 2844 1947 2747 
L 2328 2669 
Q 3034 2534 3370 2195 
Q 3706 1856 3706 1288 
Q 3706 609 3251 259 
Q 2797 -91 1919 -91 
Q 1588 -91 1214 -16 
Q 841 59 441 206 
L 441 856 
Q 825 641 1194 531 
Q 1563 422 1919 422 
Q 2459 422 2753 634 
Q 3047 847 3047 1241 
Q 3047 1584 2836 1778 
Q 2625 1972 2144 2069 
L 1759 2144 
Q 1053 2284 737 2584 
Q 422 2884 422 3419 
Q 422 4038 858 4394 
Q 1294 4750 2059 4750 
Q 2388 4750 2728 4690 
Q 3069 4631 3425 4513 
z
" transform="scale(0.015625)"/>
      <path id="DejaVuSans-75" d="M 544 1381 
L 544 3500 
L 1119 3500 
L 1119 1403 
Q 1119 906 1312 657 
Q 1506 409 1894 409 
Q 2359 409 2629 706 
Q 2900 1003 2900 1516 
L 2900 3500 
L 3475 3500 
L 3475 0 
L 2900 0 
L 2900 538 
Q 2691 219 2414 64 
Q 2138 -91 1772 -91 
Q 1169 -91 856 284 
Q 544 659 544 1381 
z
M 1991 3584 
L 1991 3584 
z
" transform="scale(0.015625)"/>
      <path id="DejaVuSans-6c" d="M 603 4863 
L 1178 4863 
L 1178 0 
L 603 0 
L 603 4863 
z
" transform="scale(0.015625)"/>
      <path id="DejaVuSans-74" d="M 1172 4494 
L 1172 3500 
L 2356 3500 
L 2356 3053 
L 1172 3053 
L 1172 1153 
Q 1172 725 1289 603 
Q 1406 481 1766 481 
L 2356 481 
L 2356 0 
L 1766 0 
Q 1100 0 847 248 
Q 594 497 594 1153 
L 594 3053 
L 172 3053 
L 172 3500 
L 594 3500 
L 594 4494 
L 1172 4494 
z
" transform="scale(0.015625)"/>
      <path id="DejaVuSans-52" d="M 2841 2188 
Q 3044 2119 3236 1894 
Q 3428 1669 3622 1275 
L 4263 0 
L 3584 0 
L 2988 1197 
Q 2756 1666 2539 1819 
Q 2322 1972 1947 1972 
L 1259 1972 
L 1259 0 
L 628 0 
L 628 4666 
L 2053 4666 
Q 2853 4666 3247 4331 
Q 3641 3997 3641 3322 
Q 3641 2881 3436 2590 
Q 3231 2300 2841 2188 
z
M 1259 4147 
L 1259 2491 
L 2053 2491 
Q 2509 2491 2742 2702 
Q 2975 2913 2975 3322 
Q 2975 3731 2742 3939 
Q 2509 4147 2053 4147 
L 1259 4147 
z
" transform="scale(0.015625)"/>
      <path id="DejaVuSans-46" d="M 628 4666 
L 3309 4666 
L 3309 4134 
L 1259 4134 
L 1259 2759 
L 3109 2759 
L 3109 2228 
L 1259 2228 
L 1259 0 
L 628 0 
L 628 4666 
z
" transform="scale(0.015625)"/>
      <path id="DejaVuSans-6f" d="M 1959 3097 
Q 1497 3097 1228 2736 
Q 959 2375 959 1747 
Q 959 1119 1226 758 
Q 1494 397 1959 397 
Q 2419 397 2687 759 
Q 2956 1122 2956 1747 
Q 2956 2369 2687 2733 
Q 2419 3097 1959 3097 
z
M 1959 3584 
Q 2709 3584 3137 3096 
Q 3566 2609 3566 1747 
Q 3566 888 3137 398 
Q 2709 -91 1959 -91 
Q 1206 -91 779 398 
Q 353 888 353 1747 
Q 353 2609 779 3096 
Q 1206 3584 1959 3584 
z
" transform="scale(0.015625)"/>
      <path id="DejaVuSans-77" d="M 269 3500 
L 844 3500 
L 1563 769 
L 2278 3500 
L 2956 3500 
L 3675 769 
L 4391 3500 
L 4966 3500 
L 4050 0 
L 3372 0 
L 2619 2869 
L 1863 0 
L 1184 0 
L 269 3500 
z
" transform="scale(0.015625)"/>
     </defs>
     <use xlink:href="#DejaVuSans-4f"/>
     <use xlink:href="#DejaVuSans-62" x="78.710938"/>
     <use xlink:href="#DejaVuSans-73" x="142.1875"/>
     <use xlink:href="#DejaVuSans-65" x="194.287109"/>
     <use xlink:href="#DejaVuSans-72" x="255.810547"/>
     <use xlink:href="#DejaVuSans-76" x="296.923828"/>
     <use xlink:href="#DejaVuSans-65" x="356.103516"/>
     <use xlink:href="#DejaVuSans-64" x="417.626953"/>
     <use xlink:href="#DejaVuSans-20" x="481.103516"/>
     <use xlink:href="#DejaVuSans-76" x="512.890625"/>
     <use xlink:href="#DejaVuSans-73" x="572.070312"/>
     <use xlink:href="#DejaVuSans-2e" x="624.169922"/>
     <use xlink:href="#DejaVuSans-20" x="655.957031"/>
     <use xlink:href="#DejaVuSans-53" x="687.744141"/>
     <use xlink:href="#DejaVuSans-69" x="751.220703"/>
     <use xlink:href="#DejaVuSans-6d" x="779.003906"/>
     <use xlink:href="#DejaVuSans-75" x="876.416016"/>
     <use xlink:href="#DejaVuSans-6c" x="939.794922"/>
     <use xlink:href="#DejaVuSans-61" x="967.578125"/>
     <use xlink:href="#DejaVuSans-74" x="1028.857422"/>
     <use xlink:href="#DejaVuSans-65" x="1068.066406"/>
     <use xlink:href="#DejaVuSans-64" x="1129.589844"/>
     <use xlink:href="#DejaVuSans-20" x="1193.066406"/>
     <use xlink:href="#DejaVuSans-52" x="1224.853516"/>
     <use xlink:href="#DejaVuSans-69" x="1294.335938"/>
     <use xlink:href="#DejaVuSans-76" x="1322.119141"/>
     <use xlink:href="#DejaVuSans-65" x="1381.298828"/>
     <use xlink:href="#DejaVuSans-72" x="1442.822266"/>
     <use xlink:href="#DejaVuSans-20" x="1483.935547"/>
     <use xlink:href="#DejaVuSans-46" x="1515.722656"/>
     <use xlink:href="#DejaVuSans-6c" x="1573.242188"/>
     <use xlink:href="#DejaVuSans-6f" x="1601.025391"/>
     <use xlink:href="#DejaVuSans-77" x="1662.207031"/>
    </g>
   </g>
   <g id="legend_1">
    <g id="patch_7">
     <path d="M 358.250937 59.674375 
L 409.269687 59.674375 
Q 411.269687 59.674375 411.269687 57.674375 
L 411.269687 29.318125 
Q 411.269687 27.318125 409.269687 27.318125 
L 358.250937 27.318125 
Q 356.250937 27.318125 356.250937 29.318125 
L 356.250937 57.674375 
Q 356.250937 59.674375 358.250937 59.674375 
z
" style="fill: #ffffff; opacity: 0.8; stroke: #cccccc; stroke-linejoin: miter"/>
    </g>
    <g id="line2d_39">
     <path d="M 360.250937 35.416562 
L 370.250937 35.416562 
L 380.250937 35.416562 
" style="fill: none; stroke: #1f77b4; stroke-opacity: 0.75; stroke-width: 1.5; stroke-linecap: square"/>
    </g>
    <g id="text_22">
     <!-- REF -->
     <g transform="translate(388.250937 38.916562) scale(0.1 -0.1)">
      <defs>
       <path id="DejaVuSans-45" d="M 628 4666 
L 3578 4666 
L 3578 4134 
L 1259 4134 
L 1259 2753 
L 3481 2753 
L 3481 2222 
L 1259 2222 
L 1259 531 
L 3634 531 
L 3634 0 
L 628 0 
L 628 4666 
z
" transform="scale(0.015625)"/>
      </defs>
      <use xlink:href="#DejaVuSans-52"/>
      <use xlink:href="#DejaVuSans-45" x="69.482422"/>
      <use xlink:href="#DejaVuSans-46" x="132.666016"/>
     </g>
    </g>
    <g id="line2d_40">
     <path d="M 360.250937 50.094687 
L 370.250937 50.094687 
L 380.250937 50.094687 
" style="fill: none; stroke: #ff7f0e; stroke-opacity: 0.75; stroke-width: 1.5; stroke-linecap: square"/>
    </g>
    <g id="text_23">
     <!-- SIM -->
     <g transform="translate(388.250937 53.594687) scale(0.1 -0.1)">
      <defs>
       <path id="DejaVuSans-49" d="M 628 4666 
L 1259 4666 
L 1259 0 
L 628 0 
L 628 4666 
z
" transform="scale(0.015625)"/>
       <path id="DejaVuSans-4d" d="M 628 4666 
L 1569 4666 
L 2759 1491 
L 3956 4666 
L 4897 4666 
L 4897 0 
L 4281 0 
L 4281 4097 
L 3078 897 
L 2444 897 
L 1241 4097 
L 1241 0 
L 628 0 
L 628 4666 
z
" transform="scale(0.015625)"/>
      </defs>
      <use xlink:href="#DejaVuSans-53"/>
      <use xlink:href="#DejaVuSans-49" x="63.476562"/>
      <use xlink:href="#DejaVuSans-4d" x="92.96875"/>
     </g>
    </g>
   </g>
  </g>
 </g>
 <defs>
  <clipPath id="p3772206c5a">
   <rect x="59.149687" y="22.318125" width="357.12" height="266.112"/>
  </clipPath>
 </defs>
</svg>
