<?xml version="1.0" encoding="utf-8" standalone="no"?>
<!DOCTYPE svg PUBLIC "-//W3C//DTD SVG 1.1//EN"
  "http://www.w3.org/Graphics/SVG/1.1/DTD/svg11.dtd">
<svg xmlns:xlink="http://www.w3.org/1999/xlink" width="431.318437pt" height="364.24567pt" viewBox="0 0 431.318437 364.24567" xmlns="http://www.w3.org/2000/svg" version="1.1">
 <metadata>
  <rdf:RDF xmlns:dc="http://purl.org/dc/elements/1.1/" xmlns:cc="http://creativecommons.org/ns#" xmlns:rdf="http://www.w3.org/1999/02/22-rdf-syntax-ns#">
   <cc:Work>
    <dc:type rdf:resource="http://purl.org/dc/dcmitype/StillImage"/>
    <dc:date>2025-02-01T17:18:31.464943</dc:date>
    <dc:format>image/svg+xml</dc:format>
    <dc:creator>
     <cc:Agent>
      <dc:title>Matplotlib v3.8.4, https://matplotlib.org/</dc:title>
     </cc:Agent>
    </dc:creator>
   </cc:Work>
  </rdf:RDF>
 </metadata>
 <defs>
  <style type="text/css">*{stroke-linejoin: round; stroke-linecap: butt}</style>
 </defs>
 <g id="figure_1">
  <g id="patch_1">
   <path d="M 0 364.24567 
L 431.318437 364.24567 
L 431.318437 0 
L 0 0 
z
" style="fill: #ffffff"/>
  </g>
  <g id="axes_1">
   <g id="patch_2">
    <path d="M 59.149687 288.430125 
L 416.269688 288.430125 
L 416.269688 22.318125 
L 59.149687 22.318125 
z
" style="fill: #ffffff"/>
   </g>
   <g id="matplotlib.axis_1">
    <g id="xtick_1">
     <g id="line2d_1">
      <path d="M 75.382415 288.430125 
L 75.382415 22.318125 
" clip-path="url(#p91ab636ea5)" style="fill: none; stroke: #b0b0b0; stroke-width: 0.8; stroke-linecap: square"/>
     </g>
     <g id="line2d_2">
      <defs>
       <path id="m7a5373eaf5" d="M 0 0 
L 0 3.5 
" style="stroke: #000000; stroke-width: 0.8"/>
      </defs>
      <g>
       <use xlink:href="#m7a5373eaf5" x="75.382415" y="288.430125" style="stroke: #000000; stroke-width: 0.8"/>
      </g>
     </g>
     <g id="text_1">
      <!-- 2010-11-01 -->
      <g transform="translate(56.786611 341.896984) rotate(-45) scale(0.1 -0.1)">
       <defs>
        <path id="DejaVuSans-32" d="M 1228 531 
L 3431 531 
L 3431 0 
L 469 0 
L 469 531 
Q 828 903 1448 1529 
Q 2069 2156 2228 2338 
Q 2531 2678 2651 2914 
Q 2772 3150 2772 3378 
Q 2772 3750 2511 3984 
Q 2250 4219 1831 4219 
Q 1534 4219 1204 4116 
Q 875 4013 500 3803 
L 500 4441 
Q 881 4594 1212 4672 
Q 1544 4750 1819 4750 
Q 2544 4750 2975 4387 
Q 3406 4025 3406 3419 
Q 3406 3131 3298 2873 
Q 3191 2616 2906 2266 
Q 2828 2175 2409 1742 
Q 1991 1309 1228 531 
z
" transform="scale(0.015625)"/>
        <path id="DejaVuSans-30" d="M 2034 4250 
Q 1547 4250 1301 3770 
Q 1056 3291 1056 2328 
Q 1056 1369 1301 889 
Q 1547 409 2034 409 
Q 2525 409 2770 889 
Q 3016 1369 3016 2328 
Q 3016 3291 2770 3770 
Q 2525 4250 2034 4250 
z
M 2034 4750 
Q 2819 4750 3233 4129 
Q 3647 3509 3647 2328 
Q 3647 1150 3233 529 
Q 2819 -91 2034 -91 
Q 1250 -91 836 529 
Q 422 1150 422 2328 
Q 422 3509 836 4129 
Q 1250 4750 2034 4750 
z
" transform="scale(0.015625)"/>
        <path id="DejaVuSans-31" d="M 794 531 
L 1825 531 
L 1825 4091 
L 703 3866 
L 703 4441 
L 1819 4666 
L 2450 4666 
L 2450 531 
L 3481 531 
L 3481 0 
L 794 0 
L 794 531 
z
" transform="scale(0.015625)"/>
        <path id="DejaVuSans-2d" d="M 313 2009 
L 1997 2009 
L 1997 1497 
L 313 1497 
L 313 2009 
z
" transform="scale(0.015625)"/>
       </defs>
       <use xlink:href="#DejaVuSans-32"/>
       <use xlink:href="#DejaVuSans-30" x="63.623047"/>
       <use xlink:href="#DejaVuSans-31" x="127.246094"/>
       <use xlink:href="#DejaVuSans-30" x="190.869141"/>
       <use xlink:href="#DejaVuSans-2d" x="254.492188"/>
       <use xlink:href="#DejaVuSans-31" x="290.576172"/>
       <use xlink:href="#DejaVuSans-31" x="354.199219"/>
       <use xlink:href="#DejaVuSans-2d" x="417.822266"/>
       <use xlink:href="#DejaVuSans-30" x="453.90625"/>
       <use xlink:href="#DejaVuSans-31" x="517.529297"/>
      </g>
     </g>
    </g>
    <g id="xtick_2">
     <g id="line2d_3">
      <path d="M 113.271934 288.430125 
L 113.271934 22.318125 
" clip-path="url(#p91ab636ea5)" style="fill: none; stroke: #b0b0b0; stroke-width: 0.8; stroke-linecap: square"/>
     </g>
     <g id="line2d_4">
      <g>
       <use xlink:href="#m7a5373eaf5" x="113.271934" y="288.430125" style="stroke: #000000; stroke-width: 0.8"/>
      </g>
     </g>
     <g id="text_2">
      <!-- 2010-11-15 -->
      <g transform="translate(94.676131 341.896984) rotate(-45) scale(0.1 -0.1)">
       <defs>
        <path id="DejaVuSans-35" d="M 691 4666 
L 3169 4666 
L 3169 4134 
L 1269 4134 
L 1269 2991 
Q 1406 3038 1543 3061 
Q 1681 3084 1819 3084 
Q 2600 3084 3056 2656 
Q 3513 2228 3513 1497 
Q 3513 744 3044 326 
Q 2575 -91 1722 -91 
Q 1428 -91 1123 -41 
Q 819 9 494 109 
L 494 744 
Q 775 591 1075 516 
Q 1375 441 1709 441 
Q 2250 441 2565 725 
Q 2881 1009 2881 1497 
Q 2881 1984 2565 2268 
Q 2250 2553 1709 2553 
Q 1456 2553 1204 2497 
Q 953 2441 691 2322 
L 691 4666 
z
" transform="scale(0.015625)"/>
       </defs>
       <use xlink:href="#DejaVuSans-32"/>
       <use xlink:href="#DejaVuSans-30" x="63.623047"/>
       <use xlink:href="#DejaVuSans-31" x="127.246094"/>
       <use xlink:href="#DejaVuSans-30" x="190.869141"/>
       <use xlink:href="#DejaVuSans-2d" x="254.492188"/>
       <use xlink:href="#DejaVuSans-31" x="290.576172"/>
       <use xlink:href="#DejaVuSans-31" x="354.199219"/>
       <use xlink:href="#DejaVuSans-2d" x="417.822266"/>
       <use xlink:href="#DejaVuSans-31" x="453.90625"/>
       <use xlink:href="#DejaVuSans-35" x="517.529297"/>
      </g>
     </g>
    </g>
    <g id="xtick_3">
     <g id="line2d_5">
      <path d="M 156.574243 288.430125 
L 156.574243 22.318125 
" clip-path="url(#p91ab636ea5)" style="fill: none; stroke: #b0b0b0; stroke-width: 0.8; stroke-linecap: square"/>
     </g>
     <g id="line2d_6">
      <g>
       <use xlink:href="#m7a5373eaf5" x="156.574243" y="288.430125" style="stroke: #000000; stroke-width: 0.8"/>
      </g>
     </g>
     <g id="text_3">
      <!-- 2010-12-01 -->
      <g transform="translate(137.978439 341.896984) rotate(-45) scale(0.1 -0.1)">
       <use xlink:href="#DejaVuSans-32"/>
       <use xlink:href="#DejaVuSans-30" x="63.623047"/>
       <use xlink:href="#DejaVuSans-31" x="127.246094"/>
       <use xlink:href="#DejaVuSans-30" x="190.869141"/>
       <use xlink:href="#DejaVuSans-2d" x="254.492188"/>
       <use xlink:href="#DejaVuSans-31" x="290.576172"/>
       <use xlink:href="#DejaVuSans-32" x="354.199219"/>
       <use xlink:href="#DejaVuSans-2d" x="417.822266"/>
       <use xlink:href="#DejaVuSans-30" x="453.90625"/>
       <use xlink:href="#DejaVuSans-31" x="517.529297"/>
      </g>
     </g>
    </g>
    <g id="xtick_4">
     <g id="line2d_7">
      <path d="M 194.463762 288.430125 
L 194.463762 22.318125 
" clip-path="url(#p91ab636ea5)" style="fill: none; stroke: #b0b0b0; stroke-width: 0.8; stroke-linecap: square"/>
     </g>
     <g id="line2d_8">
      <g>
       <use xlink:href="#m7a5373eaf5" x="194.463762" y="288.430125" style="stroke: #000000; stroke-width: 0.8"/>
      </g>
     </g>
     <g id="text_4">
      <!-- 2010-12-15 -->
      <g transform="translate(175.867959 341.896984) rotate(-45) scale(0.1 -0.1)">
       <use xlink:href="#DejaVuSans-32"/>
       <use xlink:href="#DejaVuSans-30" x="63.623047"/>
       <use xlink:href="#DejaVuSans-31" x="127.246094"/>
       <use xlink:href="#DejaVuSans-30" x="190.869141"/>
       <use xlink:href="#DejaVuSans-2d" x="254.492188"/>
       <use xlink:href="#DejaVuSans-31" x="290.576172"/>
       <use xlink:href="#DejaVuSans-32" x="354.199219"/>
       <use xlink:href="#DejaVuSans-2d" x="417.822266"/>
       <use xlink:href="#DejaVuSans-31" x="453.90625"/>
       <use xlink:href="#DejaVuSans-35" x="517.529297"/>
      </g>
     </g>
    </g>
    <g id="xtick_5">
     <g id="line2d_9">
      <path d="M 240.472465 288.430125 
L 240.472465 22.318125 
" clip-path="url(#p91ab636ea5)" style="fill: none; stroke: #b0b0b0; stroke-width: 0.8; stroke-linecap: square"/>
     </g>
     <g id="line2d_10">
      <g>
       <use xlink:href="#m7a5373eaf5" x="240.472465" y="288.430125" style="stroke: #000000; stroke-width: 0.8"/>
      </g>
     </g>
     <g id="text_5">
      <!-- 2011-01-01 -->
      <g transform="translate(221.876661 341.896984) rotate(-45) scale(0.1 -0.1)">
       <use xlink:href="#DejaVuSans-32"/>
       <use xlink:href="#DejaVuSans-30" x="63.623047"/>
       <use xlink:href="#DejaVuSans-31" x="127.246094"/>
       <use xlink:href="#DejaVuSans-31" x="190.869141"/>
       <use xlink:href="#DejaVuSans-2d" x="254.492188"/>
       <use xlink:href="#DejaVuSans-30" x="290.576172"/>
       <use xlink:href="#DejaVuSans-31" x="354.199219"/>
       <use xlink:href="#DejaVuSans-2d" x="417.822266"/>
       <use xlink:href="#DejaVuSans-30" x="453.90625"/>
       <use xlink:href="#DejaVuSans-31" x="517.529297"/>
      </g>
     </g>
    </g>
    <g id="xtick_6">
     <g id="line2d_11">
      <path d="M 278.361985 288.430125 
L 278.361985 22.318125 
" clip-path="url(#p91ab636ea5)" style="fill: none; stroke: #b0b0b0; stroke-width: 0.8; stroke-linecap: square"/>
     </g>
     <g id="line2d_12">
      <g>
       <use xlink:href="#m7a5373eaf5" x="278.361985" y="288.430125" style="stroke: #000000; stroke-width: 0.8"/>
      </g>
     </g>
     <g id="text_6">
      <!-- 2011-01-15 -->
      <g transform="translate(259.766181 341.896984) rotate(-45) scale(0.1 -0.1)">
       <use xlink:href="#DejaVuSans-32"/>
       <use xlink:href="#DejaVuSans-30" x="63.623047"/>
       <use xlink:href="#DejaVuSans-31" x="127.246094"/>
       <use xlink:href="#DejaVuSans-31" x="190.869141"/>
       <use xlink:href="#DejaVuSans-2d" x="254.492188"/>
       <use xlink:href="#DejaVuSans-30" x="290.576172"/>
       <use xlink:href="#DejaVuSans-31" x="354.199219"/>
       <use xlink:href="#DejaVuSans-2d" x="417.822266"/>
       <use xlink:href="#DejaVuSans-31" x="453.90625"/>
       <use xlink:href="#DejaVuSans-35" x="517.529297"/>
      </g>
     </g>
    </g>
    <g id="xtick_7">
     <g id="line2d_13">
      <path d="M 324.370687 288.430125 
L 324.370687 22.318125 
" clip-path="url(#p91ab636ea5)" style="fill: none; stroke: #b0b0b0; stroke-width: 0.8; stroke-linecap: square"/>
     </g>
     <g id="line2d_14">
      <g>
       <use xlink:href="#m7a5373eaf5" x="324.370687" y="288.430125" style="stroke: #000000; stroke-width: 0.8"/>
      </g>
     </g>
     <g id="text_7">
      <!-- 2011-02-01 -->
      <g transform="translate(305.774884 341.896984) rotate(-45) scale(0.1 -0.1)">
       <use xlink:href="#DejaVuSans-32"/>
       <use xlink:href="#DejaVuSans-30" x="63.623047"/>
       <use xlink:href="#DejaVuSans-31" x="127.246094"/>
       <use xlink:href="#DejaVuSans-31" x="190.869141"/>
       <use xlink:href="#DejaVuSans-2d" x="254.492188"/>
       <use xlink:href="#DejaVuSans-30" x="290.576172"/>
       <use xlink:href="#DejaVuSans-32" x="354.199219"/>
       <use xlink:href="#DejaVuSans-2d" x="417.822266"/>
       <use xlink:href="#DejaVuSans-30" x="453.90625"/>
       <use xlink:href="#DejaVuSans-31" x="517.529297"/>
      </g>
     </g>
    </g>
    <g id="xtick_8">
     <g id="line2d_15">
      <path d="M 362.260207 288.430125 
L 362.260207 22.318125 
" clip-path="url(#p91ab636ea5)" style="fill: none; stroke: #b0b0b0; stroke-width: 0.8; stroke-linecap: square"/>
     </g>
     <g id="line2d_16">
      <g>
       <use xlink:href="#m7a5373eaf5" x="362.260207" y="288.430125" style="stroke: #000000; stroke-width: 0.8"/>
      </g>
     </g>
     <g id="text_8">
      <!-- 2011-02-15 -->
      <g transform="translate(343.664403 341.896984) rotate(-45) scale(0.1 -0.1)">
       <use xlink:href="#DejaVuSans-32"/>
       <use xlink:href="#DejaVuSans-30" x="63.623047"/>
       <use xlink:href="#DejaVuSans-31" x="127.246094"/>
       <use xlink:href="#DejaVuSans-31" x="190.869141"/>
       <use xlink:href="#DejaVuSans-2d" x="254.492188"/>
       <use xlink:href="#DejaVuSans-30" x="290.576172"/>
       <use xlink:href="#DejaVuSans-32" x="354.199219"/>
       <use xlink:href="#DejaVuSans-2d" x="417.822266"/>
       <use xlink:href="#DejaVuSans-31" x="453.90625"/>
       <use xlink:href="#DejaVuSans-35" x="517.529297"/>
      </g>
     </g>
    </g>
    <g id="xtick_9">
     <g id="line2d_17">
      <path d="M 400.149727 288.430125 
L 400.149727 22.318125 
" clip-path="url(#p91ab636ea5)" style="fill: none; stroke: #b0b0b0; stroke-width: 0.8; stroke-linecap: square"/>
     </g>
     <g id="line2d_18">
      <g>
       <use xlink:href="#m7a5373eaf5" x="400.149727" y="288.430125" style="stroke: #000000; stroke-width: 0.8"/>
      </g>
     </g>
     <g id="text_9">
      <!-- 2011-03-01 -->
      <g transform="translate(381.553923 341.896984) rotate(-45) scale(0.1 -0.1)">
       <defs>
        <path id="DejaVuSans-33" d="M 2597 2516 
Q 3050 2419 3304 2112 
Q 3559 1806 3559 1356 
Q 3559 666 3084 287 
Q 2609 -91 1734 -91 
Q 1441 -91 1130 -33 
Q 819 25 488 141 
L 488 750 
Q 750 597 1062 519 
Q 1375 441 1716 441 
Q 2309 441 2620 675 
Q 2931 909 2931 1356 
Q 2931 1769 2642 2001 
Q 2353 2234 1838 2234 
L 1294 2234 
L 1294 2753 
L 1863 2753 
Q 2328 2753 2575 2939 
Q 2822 3125 2822 3475 
Q 2822 3834 2567 4026 
Q 2313 4219 1838 4219 
Q 1578 4219 1281 4162 
Q 984 4106 628 3988 
L 628 4550 
Q 988 4650 1302 4700 
Q 1616 4750 1894 4750 
Q 2613 4750 3031 4423 
Q 3450 4097 3450 3541 
Q 3450 3153 3228 2886 
Q 3006 2619 2597 2516 
z
" transform="scale(0.015625)"/>
       </defs>
       <use xlink:href="#DejaVuSans-32"/>
       <use xlink:href="#DejaVuSans-30" x="63.623047"/>
       <use xlink:href="#DejaVuSans-31" x="127.246094"/>
       <use xlink:href="#DejaVuSans-31" x="190.869141"/>
       <use xlink:href="#DejaVuSans-2d" x="254.492188"/>
       <use xlink:href="#DejaVuSans-30" x="290.576172"/>
       <use xlink:href="#DejaVuSans-33" x="354.199219"/>
       <use xlink:href="#DejaVuSans-2d" x="417.822266"/>
       <use xlink:href="#DejaVuSans-30" x="453.90625"/>
       <use xlink:href="#DejaVuSans-31" x="517.529297"/>
      </g>
     </g>
    </g>
    <g id="text_10">
     <!-- Time [hr] -->
     <g transform="translate(214.76125 354.965983) scale(0.1 -0.1)">
      <defs>
       <path id="DejaVuSans-54" d="M -19 4666 
L 3928 4666 
L 3928 4134 
L 2272 4134 
L 2272 0 
L 1638 0 
L 1638 4134 
L -19 4134 
L -19 4666 
z
" transform="scale(0.015625)"/>
       <path id="DejaVuSans-69" d="M 603 3500 
L 1178 3500 
L 1178 0 
L 603 0 
L 603 3500 
z
M 603 4863 
L 1178 4863 
L 1178 4134 
L 603 4134 
L 603 4863 
z
" transform="scale(0.015625)"/>
       <path id="DejaVuSans-6d" d="M 3328 2828 
Q 3544 3216 3844 3400 
Q 4144 3584 4550 3584 
Q 5097 3584 5394 3201 
Q 5691 2819 5691 2113 
L 5691 0 
L 5113 0 
L 5113 2094 
Q 5113 2597 4934 2840 
Q 4756 3084 4391 3084 
Q 3944 3084 3684 2787 
Q 3425 2491 3425 1978 
L 3425 0 
L 2847 0 
L 2847 2094 
Q 2847 2600 2669 2842 
Q 2491 3084 2119 3084 
Q 1678 3084 1418 2786 
Q 1159 2488 1159 1978 
L 1159 0 
L 581 0 
L 581 3500 
L 1159 3500 
L 1159 2956 
Q 1356 3278 1631 3431 
Q 1906 3584 2284 3584 
Q 2666 3584 2933 3390 
Q 3200 3197 3328 2828 
z
" transform="scale(0.015625)"/>
       <path id="DejaVuSans-65" d="M 3597 1894 
L 3597 1613 
L 953 1613 
Q 991 1019 1311 708 
Q 1631 397 2203 397 
Q 2534 397 2845 478 
Q 3156 559 3463 722 
L 3463 178 
Q 3153 47 2828 -22 
Q 2503 -91 2169 -91 
Q 1331 -91 842 396 
Q 353 884 353 1716 
Q 353 2575 817 3079 
Q 1281 3584 2069 3584 
Q 2775 3584 3186 3129 
Q 3597 2675 3597 1894 
z
M 3022 2063 
Q 3016 2534 2758 2815 
Q 2500 3097 2075 3097 
Q 1594 3097 1305 2825 
Q 1016 2553 972 2059 
L 3022 2063 
z
" transform="scale(0.015625)"/>
       <path id="DejaVuSans-20" transform="scale(0.015625)"/>
       <path id="DejaVuSans-5b" d="M 550 4863 
L 1875 4863 
L 1875 4416 
L 1125 4416 
L 1125 -397 
L 1875 -397 
L 1875 -844 
L 550 -844 
L 550 4863 
z
" transform="scale(0.015625)"/>
       <path id="DejaVuSans-68" d="M 3513 2113 
L 3513 0 
L 2938 0 
L 2938 2094 
Q 2938 2591 2744 2837 
Q 2550 3084 2163 3084 
Q 1697 3084 1428 2787 
Q 1159 2491 1159 1978 
L 1159 0 
L 581 0 
L 581 4863 
L 1159 4863 
L 1159 2956 
Q 1366 3272 1645 3428 
Q 1925 3584 2291 3584 
Q 2894 3584 3203 3211 
Q 3513 2838 3513 2113 
z
" transform="scale(0.015625)"/>
       <path id="DejaVuSans-72" d="M 2631 2963 
Q 2534 3019 2420 3045 
Q 2306 3072 2169 3072 
Q 1681 3072 1420 2755 
Q 1159 2438 1159 1844 
L 1159 0 
L 581 0 
L 581 3500 
L 1159 3500 
L 1159 2956 
Q 1341 3275 1631 3429 
Q 1922 3584 2338 3584 
Q 2397 3584 2469 3576 
Q 2541 3569 2628 3553 
L 2631 2963 
z
" transform="scale(0.015625)"/>
       <path id="DejaVuSans-5d" d="M 1947 4863 
L 1947 -844 
L 622 -844 
L 622 -397 
L 1369 -397 
L 1369 4416 
L 622 4416 
L 622 4863 
L 1947 4863 
z
" transform="scale(0.015625)"/>
      </defs>
      <use xlink:href="#DejaVuSans-54"/>
      <use xlink:href="#DejaVuSans-69" x="57.958984"/>
      <use xlink:href="#DejaVuSans-6d" x="85.742188"/>
      <use xlink:href="#DejaVuSans-65" x="183.154297"/>
      <use xlink:href="#DejaVuSans-20" x="244.677734"/>
      <use xlink:href="#DejaVuSans-5b" x="276.464844"/>
      <use xlink:href="#DejaVuSans-68" x="315.478516"/>
      <use xlink:href="#DejaVuSans-72" x="378.857422"/>
      <use xlink:href="#DejaVuSans-5d" x="419.970703"/>
     </g>
    </g>
   </g>
   <g id="matplotlib.axis_2">
    <g id="ytick_1">
     <g id="line2d_19">
      <path d="M 59.149687 278.06433 
L 416.269688 278.06433 
" clip-path="url(#p91ab636ea5)" style="fill: none; stroke: #b0b0b0; stroke-width: 0.8; stroke-linecap: square"/>
     </g>
     <g id="line2d_20">
      <defs>
       <path id="m23ce74ebcb" d="M 0 0 
L -3.5 0 
" style="stroke: #000000; stroke-width: 0.8"/>
      </defs>
      <g>
       <use xlink:href="#m23ce74ebcb" x="59.149687" y="278.06433" style="stroke: #000000; stroke-width: 0.8"/>
      </g>
     </g>
     <g id="text_11">
      <!-- 0 -->
      <g transform="translate(45.787188 281.863548) scale(0.1 -0.1)">
       <use xlink:href="#DejaVuSans-30"/>
      </g>
     </g>
    </g>
    <g id="ytick_2">
     <g id="line2d_21">
      <path d="M 59.149687 246.318375 
L 416.269688 246.318375 
" clip-path="url(#p91ab636ea5)" style="fill: none; stroke: #b0b0b0; stroke-width: 0.8; stroke-linecap: square"/>
     </g>
     <g id="line2d_22">
      <g>
       <use xlink:href="#m23ce74ebcb" x="59.149687" y="246.318375" style="stroke: #000000; stroke-width: 0.8"/>
      </g>
     </g>
     <g id="text_12">
      <!-- 20 -->
      <g transform="translate(39.424687 250.117593) scale(0.1 -0.1)">
       <use xlink:href="#DejaVuSans-32"/>
       <use xlink:href="#DejaVuSans-30" x="63.623047"/>
      </g>
     </g>
    </g>
    <g id="ytick_3">
     <g id="line2d_23">
      <path d="M 59.149687 214.57242 
L 416.269688 214.57242 
" clip-path="url(#p91ab636ea5)" style="fill: none; stroke: #b0b0b0; stroke-width: 0.8; stroke-linecap: square"/>
     </g>
     <g id="line2d_24">
      <g>
       <use xlink:href="#m23ce74ebcb" x="59.149687" y="214.57242" style="stroke: #000000; stroke-width: 0.8"/>
      </g>
     </g>
     <g id="text_13">
      <!-- 40 -->
      <g transform="translate(39.424687 218.371638) scale(0.1 -0.1)">
       <defs>
        <path id="DejaVuSans-34" d="M 2419 4116 
L 825 1625 
L 2419 1625 
L 2419 4116 
z
M 2253 4666 
L 3047 4666 
L 3047 1625 
L 3713 1625 
L 3713 1100 
L 3047 1100 
L 3047 0 
L 2419 0 
L 2419 1100 
L 313 1100 
L 313 1709 
L 2253 4666 
z
" transform="scale(0.015625)"/>
       </defs>
       <use xlink:href="#DejaVuSans-34"/>
       <use xlink:href="#DejaVuSans-30" x="63.623047"/>
      </g>
     </g>
    </g>
    <g id="ytick_4">
     <g id="line2d_25">
      <path d="M 59.149687 182.826465 
L 416.269688 182.826465 
" clip-path="url(#p91ab636ea5)" style="fill: none; stroke: #b0b0b0; stroke-width: 0.8; stroke-linecap: square"/>
     </g>
     <g id="line2d_26">
      <g>
       <use xlink:href="#m23ce74ebcb" x="59.149687" y="182.826465" style="stroke: #000000; stroke-width: 0.8"/>
      </g>
     </g>
     <g id="text_14">
      <!-- 60 -->
      <g transform="translate(39.424687 186.625683) scale(0.1 -0.1)">
       <defs>
        <path id="DejaVuSans-36" d="M 2113 2584 
Q 1688 2584 1439 2293 
Q 1191 2003 1191 1497 
Q 1191 994 1439 701 
Q 1688 409 2113 409 
Q 2538 409 2786 701 
Q 3034 994 3034 1497 
Q 3034 2003 2786 2293 
Q 2538 2584 2113 2584 
z
M 3366 4563 
L 3366 3988 
Q 3128 4100 2886 4159 
Q 2644 4219 2406 4219 
Q 1781 4219 1451 3797 
Q 1122 3375 1075 2522 
Q 1259 2794 1537 2939 
Q 1816 3084 2150 3084 
Q 2853 3084 3261 2657 
Q 3669 2231 3669 1497 
Q 3669 778 3244 343 
Q 2819 -91 2113 -91 
Q 1303 -91 875 529 
Q 447 1150 447 2328 
Q 447 3434 972 4092 
Q 1497 4750 2381 4750 
Q 2619 4750 2861 4703 
Q 3103 4656 3366 4563 
z
" transform="scale(0.015625)"/>
       </defs>
       <use xlink:href="#DejaVuSans-36"/>
       <use xlink:href="#DejaVuSans-30" x="63.623047"/>
      </g>
     </g>
    </g>
    <g id="ytick_5">
     <g id="line2d_27">
      <path d="M 59.149687 151.08051 
L 416.269688 151.08051 
" clip-path="url(#p91ab636ea5)" style="fill: none; stroke: #b0b0b0; stroke-width: 0.8; stroke-linecap: square"/>
     </g>
     <g id="line2d_28">
      <g>
       <use xlink:href="#m23ce74ebcb" x="59.149687" y="151.08051" style="stroke: #000000; stroke-width: 0.8"/>
      </g>
     </g>
     <g id="text_15">
      <!-- 80 -->
      <g transform="translate(39.424687 154.879728) scale(0.1 -0.1)">
       <defs>
        <path id="DejaVuSans-38" d="M 2034 2216 
Q 1584 2216 1326 1975 
Q 1069 1734 1069 1313 
Q 1069 891 1326 650 
Q 1584 409 2034 409 
Q 2484 409 2743 651 
Q 3003 894 3003 1313 
Q 3003 1734 2745 1975 
Q 2488 2216 2034 2216 
z
M 1403 2484 
Q 997 2584 770 2862 
Q 544 3141 544 3541 
Q 544 4100 942 4425 
Q 1341 4750 2034 4750 
Q 2731 4750 3128 4425 
Q 3525 4100 3525 3541 
Q 3525 3141 3298 2862 
Q 3072 2584 2669 2484 
Q 3125 2378 3379 2068 
Q 3634 1759 3634 1313 
Q 3634 634 3220 271 
Q 2806 -91 2034 -91 
Q 1263 -91 848 271 
Q 434 634 434 1313 
Q 434 1759 690 2068 
Q 947 2378 1403 2484 
z
M 1172 3481 
Q 1172 3119 1398 2916 
Q 1625 2713 2034 2713 
Q 2441 2713 2670 2916 
Q 2900 3119 2900 3481 
Q 2900 3844 2670 4047 
Q 2441 4250 2034 4250 
Q 1625 4250 1398 4047 
Q 1172 3844 1172 3481 
z
" transform="scale(0.015625)"/>
       </defs>
       <use xlink:href="#DejaVuSans-38"/>
       <use xlink:href="#DejaVuSans-30" x="63.623047"/>
      </g>
     </g>
    </g>
    <g id="ytick_6">
     <g id="line2d_29">
      <path d="M 59.149687 119.334555 
L 416.269688 119.334555 
" clip-path="url(#p91ab636ea5)" style="fill: none; stroke: #b0b0b0; stroke-width: 0.8; stroke-linecap: square"/>
     </g>
     <g id="line2d_30">
      <g>
       <use xlink:href="#m23ce74ebcb" x="59.149687" y="119.334555" style="stroke: #000000; stroke-width: 0.8"/>
      </g>
     </g>
     <g id="text_16">
      <!-- 100 -->
      <g transform="translate(33.062187 123.133773) scale(0.1 -0.1)">
       <use xlink:href="#DejaVuSans-31"/>
       <use xlink:href="#DejaVuSans-30" x="63.623047"/>
       <use xlink:href="#DejaVuSans-30" x="127.246094"/>
      </g>
     </g>
    </g>
    <g id="ytick_7">
     <g id="line2d_31">
      <path d="M 59.149687 87.5886 
L 416.269688 87.5886 
" clip-path="url(#p91ab636ea5)" style="fill: none; stroke: #b0b0b0; stroke-width: 0.8; stroke-linecap: square"/>
     </g>
     <g id="line2d_32">
      <g>
       <use xlink:href="#m23ce74ebcb" x="59.149687" y="87.5886" style="stroke: #000000; stroke-width: 0.8"/>
      </g>
     </g>
     <g id="text_17">
      <!-- 120 -->
      <g transform="translate(33.062187 91.387818) scale(0.1 -0.1)">
       <use xlink:href="#DejaVuSans-31"/>
       <use xlink:href="#DejaVuSans-32" x="63.623047"/>
       <use xlink:href="#DejaVuSans-30" x="127.246094"/>
      </g>
     </g>
    </g>
    <g id="ytick_8">
     <g id="line2d_33">
      <path d="M 59.149687 55.842645 
L 416.269688 55.842645 
" clip-path="url(#p91ab636ea5)" style="fill: none; stroke: #b0b0b0; stroke-width: 0.8; stroke-linecap: square"/>
     </g>
     <g id="line2d_34">
      <g>
       <use xlink:href="#m23ce74ebcb" x="59.149687" y="55.842645" style="stroke: #000000; stroke-width: 0.8"/>
      </g>
     </g>
     <g id="text_18">
      <!-- 140 -->
      <g transform="translate(33.062187 59.641863) scale(0.1 -0.1)">
       <use xlink:href="#DejaVuSans-31"/>
       <use xlink:href="#DejaVuSans-34" x="63.623047"/>
       <use xlink:href="#DejaVuSans-30" x="127.246094"/>
      </g>
     </g>
    </g>
    <g id="ytick_9">
     <g id="line2d_35">
      <path d="M 59.149687 24.09669 
L 416.269688 24.09669 
" clip-path="url(#p91ab636ea5)" style="fill: none; stroke: #b0b0b0; stroke-width: 0.8; stroke-linecap: square"/>
     </g>
     <g id="line2d_36">
      <g>
       <use xlink:href="#m23ce74ebcb" x="59.149687" y="24.09669" style="stroke: #000000; stroke-width: 0.8"/>
      </g>
     </g>
     <g id="text_19">
      <!-- 160 -->
      <g transform="translate(33.062187 27.895908) scale(0.1 -0.1)">
       <use xlink:href="#DejaVuSans-31"/>
       <use xlink:href="#DejaVuSans-36" x="63.623047"/>
       <use xlink:href="#DejaVuSans-30" x="127.246094"/>
      </g>
     </g>
    </g>
    <g id="text_20">
     <!-- Discharge -->
     <g transform="translate(14.798437 180.418656) rotate(-90) scale(0.1 -0.1)">
      <defs>
       <path id="DejaVuSans-44" d="M 1259 4147 
L 1259 519 
L 2022 519 
Q 2988 519 3436 956 
Q 3884 1394 3884 2338 
Q 3884 3275 3436 3711 
Q 2988 4147 2022 4147 
L 1259 4147 
z
M 628 4666 
L 1925 4666 
Q 3281 4666 3915 4102 
Q 4550 3538 4550 2338 
Q 4550 1131 3912 565 
Q 3275 0 1925 0 
L 628 0 
L 628 4666 
z
" transform="scale(0.015625)"/>
       <path id="DejaVuSans-73" d="M 2834 3397 
L 2834 2853 
Q 2591 2978 2328 3040 
Q 2066 3103 1784 3103 
Q 1356 3103 1142 2972 
Q 928 2841 928 2578 
Q 928 2378 1081 2264 
Q 1234 2150 1697 2047 
L 1894 2003 
Q 2506 1872 2764 1633 
Q 3022 1394 3022 966 
Q 3022 478 2636 193 
Q 2250 -91 1575 -91 
Q 1294 -91 989 -36 
Q 684 19 347 128 
L 347 722 
Q 666 556 975 473 
Q 1284 391 1588 391 
Q 1994 391 2212 530 
Q 2431 669 2431 922 
Q 2431 1156 2273 1281 
Q 2116 1406 1581 1522 
L 1381 1569 
Q 847 1681 609 1914 
Q 372 2147 372 2553 
Q 372 3047 722 3315 
Q 1072 3584 1716 3584 
Q 2034 3584 2315 3537 
Q 2597 3491 2834 3397 
z
" transform="scale(0.015625)"/>
       <path id="DejaVuSans-63" d="M 3122 3366 
L 3122 2828 
Q 2878 2963 2633 3030 
Q 2388 3097 2138 3097 
Q 1578 3097 1268 2742 
Q 959 2388 959 1747 
Q 959 1106 1268 751 
Q 1578 397 2138 397 
Q 2388 397 2633 464 
Q 2878 531 3122 666 
L 3122 134 
Q 2881 22 2623 -34 
Q 2366 -91 2075 -91 
Q 1284 -91 818 406 
Q 353 903 353 1747 
Q 353 2603 823 3093 
Q 1294 3584 2113 3584 
Q 2378 3584 2631 3529 
Q 2884 3475 3122 3366 
z
" transform="scale(0.015625)"/>
       <path id="DejaVuSans-61" d="M 2194 1759 
Q 1497 1759 1228 1600 
Q 959 1441 959 1056 
Q 959 750 1161 570 
Q 1363 391 1709 391 
Q 2188 391 2477 730 
Q 2766 1069 2766 1631 
L 2766 1759 
L 2194 1759 
z
M 3341 1997 
L 3341 0 
L 2766 0 
L 2766 531 
Q 2569 213 2275 61 
Q 1981 -91 1556 -91 
Q 1019 -91 701 211 
Q 384 513 384 1019 
Q 384 1609 779 1909 
Q 1175 2209 1959 2209 
L 2766 2209 
L 2766 2266 
Q 2766 2663 2505 2880 
Q 2244 3097 1772 3097 
Q 1472 3097 1187 3025 
Q 903 2953 641 2809 
L 641 3341 
Q 956 3463 1253 3523 
Q 1550 3584 1831 3584 
Q 2591 3584 2966 3190 
Q 3341 2797 3341 1997 
z
" transform="scale(0.015625)"/>
       <path id="DejaVuSans-67" d="M 2906 1791 
Q 2906 2416 2648 2759 
Q 2391 3103 1925 3103 
Q 1463 3103 1205 2759 
Q 947 2416 947 1791 
Q 947 1169 1205 825 
Q 1463 481 1925 481 
Q 2391 481 2648 825 
Q 2906 1169 2906 1791 
z
M 3481 434 
Q 3481 -459 3084 -895 
Q 2688 -1331 1869 -1331 
Q 1566 -1331 1297 -1286 
Q 1028 -1241 775 -1147 
L 775 -588 
Q 1028 -725 1275 -790 
Q 1522 -856 1778 -856 
Q 2344 -856 2625 -561 
Q 2906 -266 2906 331 
L 2906 616 
Q 2728 306 2450 153 
Q 2172 0 1784 0 
Q 1141 0 747 490 
Q 353 981 353 1791 
Q 353 2603 747 3093 
Q 1141 3584 1784 3584 
Q 2172 3584 2450 3431 
Q 2728 3278 2906 2969 
L 2906 3500 
L 3481 3500 
L 3481 434 
z
" transform="scale(0.015625)"/>
      </defs>
      <use xlink:href="#DejaVuSans-44"/>
      <use xlink:href="#DejaVuSans-69" x="77.001953"/>
      <use xlink:href="#DejaVuSans-73" x="104.785156"/>
      <use xlink:href="#DejaVuSans-63" x="156.884766"/>
      <use xlink:href="#DejaVuSans-68" x="211.865234"/>
      <use xlink:href="#DejaVuSans-61" x="275.244141"/>
      <use xlink:href="#DejaVuSans-72" x="336.523438"/>
      <use xlink:href="#DejaVuSans-67" x="375.886719"/>
      <use xlink:href="#DejaVuSans-65" x="439.363281"/>
     </g>
     <!-- [$m^3.s^{-1}$] -->
     <g transform="translate(26.9825 177.474125) rotate(-90) scale(0.1 -0.1)">
      <defs>
       <path id="DejaVuSans-Oblique-6d" d="M 5747 2113 
L 5338 0 
L 4763 0 
L 5166 2094 
Q 5191 2228 5203 2325 
Q 5216 2422 5216 2491 
Q 5216 2772 5059 2928 
Q 4903 3084 4622 3084 
Q 4203 3084 3875 2770 
Q 3547 2456 3450 1953 
L 3066 0 
L 2491 0 
L 2900 2094 
Q 2925 2209 2937 2307 
Q 2950 2406 2950 2484 
Q 2950 2769 2794 2926 
Q 2638 3084 2363 3084 
Q 1938 3084 1609 2770 
Q 1281 2456 1184 1953 
L 800 0 
L 225 0 
L 909 3500 
L 1484 3500 
L 1375 2956 
Q 1609 3263 1923 3423 
Q 2238 3584 2597 3584 
Q 2978 3584 3223 3384 
Q 3469 3184 3519 2828 
Q 3781 3197 4126 3390 
Q 4472 3584 4856 3584 
Q 5306 3584 5551 3325 
Q 5797 3066 5797 2591 
Q 5797 2488 5784 2364 
Q 5772 2241 5747 2113 
z
" transform="scale(0.015625)"/>
       <path id="DejaVuSans-2e" d="M 684 794 
L 1344 794 
L 1344 0 
L 684 0 
L 684 794 
z
" transform="scale(0.015625)"/>
       <path id="DejaVuSans-Oblique-73" d="M 3200 3397 
L 3091 2853 
Q 2863 2978 2609 3040 
Q 2356 3103 2088 3103 
Q 1634 3103 1373 2948 
Q 1113 2794 1113 2528 
Q 1113 2219 1719 2053 
Q 1766 2041 1788 2034 
L 1972 1978 
Q 2547 1819 2739 1644 
Q 2931 1469 2931 1166 
Q 2931 609 2489 259 
Q 2047 -91 1331 -91 
Q 1053 -91 747 -37 
Q 441 16 72 128 
L 184 722 
Q 500 559 806 475 
Q 1113 391 1394 391 
Q 1816 391 2080 572 
Q 2344 753 2344 1031 
Q 2344 1331 1650 1516 
L 1591 1531 
L 1394 1581 
Q 956 1697 753 1886 
Q 550 2075 550 2369 
Q 550 2928 970 3256 
Q 1391 3584 2113 3584 
Q 2397 3584 2667 3537 
Q 2938 3491 3200 3397 
z
" transform="scale(0.015625)"/>
       <path id="DejaVuSans-2212" d="M 678 2272 
L 4684 2272 
L 4684 1741 
L 678 1741 
L 678 2272 
z
" transform="scale(0.015625)"/>
      </defs>
      <use xlink:href="#DejaVuSans-5b" transform="translate(0 0.765625)"/>
      <use xlink:href="#DejaVuSans-Oblique-6d" transform="translate(39.013672 0.765625)"/>
      <use xlink:href="#DejaVuSans-33" transform="translate(141.075677 39.046875) scale(0.7)"/>
      <use xlink:href="#DejaVuSans-2e" transform="translate(188.346185 0.765625)"/>
      <use xlink:href="#DejaVuSans-Oblique-73" transform="translate(239.615716 0.765625)"/>
      <use xlink:href="#DejaVuSans-2212" transform="translate(296.365221 39.046875) scale(0.7)"/>
      <use xlink:href="#DejaVuSans-31" transform="translate(355.017565 39.046875) scale(0.7)"/>
      <use xlink:href="#DejaVuSans-5d" transform="translate(402.288073 0.765625)"/>
     </g>
    </g>
   </g>
   <g id="line2d_37">
    <path d="M 75.382415 271.381806 
L 76.735612 271.381806 
L 76.961145 271.540536 
L 77.186678 271.500854 
L 77.41221 271.381806 
L 78.088809 271.421489 
L 78.427108 271.659583 
L 78.539875 271.540536 
L 78.765408 271.699266 
L 78.878174 271.699266 
L 78.99094 271.580218 
L 79.216473 271.857996 
L 79.780305 271.857996 
L 80.005838 271.699266 
L 80.118605 271.699266 
L 80.344138 271.857996 
L 80.56967 271.699266 
L 81.471802 271.699266 
L 81.697335 272.056408 
L 81.810101 272.056408 
L 81.922868 271.778631 
L 82.1484 272.016725 
L 82.261167 272.016725 
L 82.4867 271.738948 
L 82.599466 271.262759 
L 82.712233 271.302441 
L 83.050532 271.659583 
L 83.163298 271.619901 
L 83.501598 271.738948 
L 83.72713 271.857996 
L 84.06543 271.659583 
L 84.403729 272.283391 
L 84.516495 271.897678 
L 84.742028 271.977043 
L 84.967561 271.540536 
L 85.080328 271.540536 
L 85.193094 271.421489 
L 85.418627 271.699266 
L 85.982459 271.699266 
L 86.207992 272.016725 
L 86.433525 271.857996 
L 86.771824 271.818313 
L 86.997357 271.540536 
L 87.22289 271.857996 
L 87.335656 271.699266 
L 87.561189 271.778631 
L 87.673955 271.699266 
L 87.786722 271.778631 
L 88.012255 271.540536 
L 88.350554 272.167519 
L 88.46332 271.897678 
L 88.576087 271.977043 
L 88.914386 271.540536 
L 89.027153 271.500854 
L 89.139919 271.699266 
L 89.365452 271.500854 
L 89.703751 271.897678 
L 89.929284 271.540536 
L 90.154817 271.897678 
L 90.493116 271.580218 
L 90.605883 271.778631 
L 90.718649 271.183394 
L 90.831415 271.262759 
L 91.056948 270.583395 
L 91.169715 269.604033 
L 91.282481 269.648477 
L 91.508014 269.937365 
L 91.62078 270.096095 
L 91.733547 270.01673 
L 91.846313 270.302444 
L 91.95908 270.056413 
L 92.071846 270.135777 
L 92.297379 269.648477 
L 92.748445 267.886577 
L 93.086744 265.365948 
L 93.312277 265.937375 
L 94.214408 265.889756 
L 94.439941 265.746899 
L 94.891007 265.794518 
L 95.342072 267.29134 
L 95.567605 267.984989 
L 95.680372 267.984989 
L 95.793138 267.794513 
L 95.905905 267.842132 
L 96.131437 268.350067 
L 96.920802 268.394512 
L 97.146335 268.52467 
L 97.259102 268.52467 
L 97.484635 268.699273 
L 97.710167 268.746892 
L 97.9357 269.019907 
L 98.048467 268.889749 
L 98.274 269.283399 
L 98.386766 268.97705 
L 98.612299 269.064351 
L 98.725065 269.064351 
L 98.950598 268.750067 
L 99.063365 269.238954 
L 99.288897 272.746882 
L 99.51443 268.52467 
L 99.627197 269.418319 
L 99.739963 269.46435 
L 99.965496 268.969114 
L 100.416562 269.762762 
L 100.642095 269.72308 
L 100.754861 269.508795 
L 100.980394 270.572284 
L 101.09316 270.532602 
L 101.43146 269.937365 
L 101.769759 269.937365 
L 102.333591 267.791339 
L 102.559124 268.654829 
L 102.897423 268.699273 
L 103.686788 268.743717 
L 103.912321 269.413557 
L 104.137854 269.326256 
L 104.363387 269.413557 
L 104.927219 269.413557 
L 105.603817 266.63896 
L 106.054883 257.111999 
L 106.393182 255.524702 
L 106.618715 255.683431 
L 106.957015 253.897721 
L 107.182547 254.254863 
L 107.40808 254.731053 
L 107.633613 254.731053 
L 107.74638 254.215181 
L 109.212343 230.842222 
L 109.437876 230.604127 
L 109.550642 230.762857 
L 110.114475 233.858087 
L 110.791073 241.516799 
L 111.580438 247.310436 
L 111.918737 248.739004 
L 112.257037 249.96916 
L 112.708102 249.96916 
L 113.271934 250.445349 
L 113.497467 250.485031 
L 113.723 250.604079 
L 113.835767 250.643761 
L 114.061299 251.238998 
L 114.286832 251.238998 
L 114.625132 251.556457 
L 115.076197 251.556457 
L 115.414497 250.683444 
L 115.640029 246.08028 
L 115.978329 236.318399 
L 116.654927 213.977183 
L 117.218759 205.247045 
L 118.120891 198.540712 
L 118.45919 201.874038 
L 119.474088 218.104157 
L 120.03792 230.207303 
L 120.376219 235.008878 
L 120.488986 235.20729 
L 121.165584 239.373947 
L 121.729417 243.064414 
L 122.293249 245.127901 
L 122.631548 245.802503 
L 122.857081 247.231071 
L 123.19538 247.270753 
L 123.308147 247.270753 
L 123.420913 247.112024 
L 123.646446 246.635834 
L 123.871979 247.112024 
L 124.210278 247.905672 
L 124.435811 249.175511 
L 124.548577 249.175511 
L 124.999643 249.96916 
L 125.112409 250.167572 
L 125.337942 250.762808 
L 125.676242 251.715187 
L 125.789008 251.715187 
L 125.901774 251.913599 
L 126.240074 255.326289 
L 126.465607 256.199303 
L 126.691139 256.318351 
L 127.593271 256.318351 
L 128.044337 256.95327 
L 128.157103 257.032635 
L 128.495402 257.905648 
L 128.608169 257.905648 
L 128.720935 257.746918 
L 129.059234 259.016757 
L 129.961366 259.016757 
L 130.299665 259.254851 
L 130.750731 260.961196 
L 131.540096 261.873893 
L 132.103928 261.080244 
L 132.442227 261.080244 
L 132.66776 261.238974 
L 132.893293 261.080244 
L 133.344359 261.159609 
L 133.569891 260.921514 
L 133.682658 260.921514 
L 133.795424 260.723102 
L 134.584789 253.858039 
L 134.810322 251.754869 
L 135.148621 250.921538 
L 136.163519 247.588213 
L 136.276286 247.588213 
L 136.501819 248.540592 
L 136.727351 249.175511 
L 136.952884 249.731065 
L 137.178417 251.080268 
L 137.40395 252.826295 
L 137.629483 252.826295 
L 138.531614 253.937404 
L 138.644381 253.858039 
L 138.98268 251.953282 
L 139.208213 251.873917 
L 139.546512 251.873917 
L 139.659279 251.715187 
L 139.772045 250.881856 
L 140.223111 244.731077 
L 140.335877 244.731077 
L 140.674176 245.604091 
L 140.899709 247.270753 
L 141.125242 247.429483 
L 141.238009 247.70726 
L 141.463541 249.33424 
L 141.576308 249.49297 
L 141.801841 250.286619 
L 141.914607 250.405666 
L 142.14014 250.842173 
L 142.365673 251.040586 
L 142.591206 251.556457 
L 143.042271 249.49297 
L 143.267804 249.33424 
L 143.944403 249.33424 
L 144.169936 249.81043 
L 144.282702 249.81043 
L 144.508235 249.96916 
L 144.846534 249.96916 
L 145.2976 250.445349 
L 145.523133 250.604079 
L 145.748666 251.27868 
L 146.312498 253.302485 
L 146.538031 253.659627 
L 146.87633 254.651688 
L 147.101863 254.969147 
L 147.327396 255.286607 
L 147.552929 256.556445 
L 147.778461 256.95327 
L 147.891228 257.111999 
L 148.116761 258.223108 
L 148.567826 257.905648 
L 148.793359 257.985013 
L 149.357191 258.381838 
L 149.582724 258.858027 
L 150.259323 259.651676 
L 150.372089 259.651676 
L 150.484856 259.770723 
L 150.710389 261.238974 
L 150.823155 260.921514 
L 150.935921 260.683419 
L 151.161454 260.842149 
L 151.61252 262.032622 
L 151.838053 261.873893 
L 152.289118 262.334209 
L 153.642316 262.159606 
L 153.867848 262.032622 
L 154.318914 262.09294 
L 154.657213 262.704049 
L 154.882746 263.413571 
L 155.333812 263.458016 
L 155.559345 263.588174 
L 155.672111 263.588174 
L 156.235943 264.377061 
L 156.34871 264.323093 
L 156.461476 263.469127 
L 156.687009 263.556428 
L 157.250841 263.540555 
L 157.92744 264.238966 
L 158.378506 264.270712 
L 159.055104 264.350077 
L 159.280637 264.429442 
L 159.618936 264.429442 
L 159.844469 264.604045 
L 160.182768 264.881822 
L 160.521068 265.715153 
L 165.144491 265.604042 
L 165.482791 265.588169 
L 165.82109 265.953248 
L 165.933856 265.953248 
L 166.159389 266.127851 
L 166.723221 266.115152 
L 167.061521 266.667532 
L 168.414718 266.723087 
L 168.640251 267.000864 
L 168.97855 266.889754 
L 169.204083 266.794516 
L 169.316849 266.794516 
L 169.429616 267.11515 
L 169.880681 266.540548 
L 169.993448 265.889756 
L 170.21898 266.029438 
L 170.895579 266.000867 
L 171.233878 266.186581 
L 171.459411 266.270707 
L 171.684944 266.358009 
L 172.13601 266.254834 
L 172.812608 265.762772 
L 173.263674 265.762772 
L 173.489207 265.937375 
L 173.940273 266.159597 
L 174.165805 266.28658 
L 174.504105 266.191343 
L 174.729638 266.096105 
L 175.29347 265.984994 
L 175.857302 264.175474 
L 175.970068 263.46119 
L 176.195601 260.762784 
L 176.421134 260.604054 
L 176.5339 260.445325 
L 176.984966 259.096122 
L 177.097733 257.032635 
L 177.323265 245.564408 
L 178.225397 190.207399 
L 178.789229 181.278849 
L 179.014762 179.096315 
L 179.240295 179.33441 
L 179.353061 179.17568 
L 179.578594 181.318532 
L 179.804127 183.818526 
L 181.60839 231.635871 
L 182.059455 237.826332 
L 182.284988 238.342203 
L 182.510521 239.850136 
L 182.961587 243.778698 
L 183.299886 243.778698 
L 183.638185 244.731077 
L 183.863718 246.794564 
L 184.653083 247.429483 
L 184.878616 247.905672 
L 185.329682 245.326314 
L 185.893514 231.95333 
L 187.359478 189.016926 
L 187.472244 189.016926 
L 188.148843 183.699478 
L 188.374375 183.461384 
L 188.487142 183.461384 
L 188.599908 183.342336 
L 188.712675 183.580431 
L 188.825441 184.413762 
L 188.938208 184.413762 
L 189.389273 187.112169 
L 189.614806 190.564541 
L 189.840339 198.064523 
L 190.291405 205.723235 
L 190.629704 210.564493 
L 191.08077 219.413678 
L 191.757368 233.262851 
L 192.3212 239.09617 
L 192.885032 243.421556 
L 192.997799 243.858063 
L 193.223332 246.040598 
L 193.561631 246.635834 
L 193.674397 246.635834 
L 194.576529 250.842173 
L 195.027595 251.556457 
L 195.253127 251.794552 
L 195.591427 252.826295 
L 195.81696 252.90566 
L 196.155259 253.461215 
L 196.268025 253.580262 
L 196.380792 254.016769 
L 196.606325 255.524702 
L 197.170157 255.524702 
L 197.39569 255.207242 
L 197.621222 255.207242 
L 197.959522 255.683431 
L 198.185055 255.842161 
L 198.523354 255.921526 
L 198.748887 257.746918 
L 198.861653 257.707236 
L 199.087186 257.389777 
L 199.199952 257.270729 
L 199.312719 257.350094 
L 199.651018 257.905648 
L 200.327617 257.905648 
L 200.55315 257.746918 
L 201.79358 257.746918 
L 202.019113 259.056439 
L 202.13188 258.858027 
L 202.357412 258.223108 
L 202.808478 258.223108 
L 203.146777 258.699297 
L 203.71061 258.699297 
L 204.612741 259.492946 
L 204.725507 259.492946 
L 205.063807 260.127865 
L 205.514872 260.127865 
L 205.853172 260.445325 
L 206.078705 260.921514 
L 206.417004 260.842149 
L 206.642537 261.238974 
L 207.431902 261.238974 
L 207.770201 260.604054 
L 208.785099 260.604054 
L 209.123398 258.897709 
L 209.236164 258.858027 
L 209.461697 258.540567 
L 209.574464 258.540567 
L 209.68723 258.699297 
L 209.799997 258.540567 
L 210.025529 259.016757 
L 210.138296 258.699297 
L 210.589362 259.731041 
L 210.702128 259.651676 
L 211.491493 259.651676 
L 211.717026 260.286595 
L 212.055325 260.286595 
L 212.280858 260.36596 
L 212.506391 260.286595 
L 212.619157 260.286595 
L 212.84469 260.762784 
L 214.085121 260.723102 
L 214.310654 260.445325 
L 214.648953 259.492946 
L 214.761719 259.492946 
L 214.874486 259.651676 
L 214.987252 259.572311 
L 215.325552 257.310412 
L 215.551084 256.47708 
L 215.663851 256.437398 
L 215.889384 254.016769 
L 216.00215 253.937404 
L 216.114917 253.699309 
L 216.227683 253.778674 
L 216.340449 253.500897 
L 216.678749 252.112011 
L 216.791515 252.032647 
L 217.017048 251.477092 
L 217.242581 251.556457 
L 217.355347 251.556457 
L 217.58088 251.873917 
L 217.806413 251.794552 
L 218.031946 251.318363 
L 218.257479 251.397727 
L 218.483012 251.397727 
L 218.934077 250.445349 
L 219.15961 250.445349 
L 219.385143 250.762808 
L 219.610676 250.762808 
L 219.723442 250.881856 
L 219.836209 251.199315 
L 219.948975 251.873917 
L 220.625574 251.873917 
L 220.851107 252.350106 
L 221.866004 252.350106 
L 222.091537 252.746931 
L 222.31707 253.619944 
L 222.429837 253.619944 
L 222.542603 253.778674 
L 222.768136 254.254863 
L 222.993669 254.294546 
L 223.106435 254.969147 
L 223.219202 254.889783 
L 223.557501 255.048512 
L 223.8958 254.889783 
L 224.121333 254.889783 
L 224.346866 255.365972 
L 224.459632 255.365972 
L 224.685165 256.159621 
L 224.797932 256.437398 
L 225.136231 258.064378 
L 225.47453 259.016757 
L 226.602194 260.0485 
L 228.180924 261.080244 
L 228.293691 261.080244 
L 228.519224 261.238974 
L 229.308589 261.715163 
L 229.421355 261.715163 
L 229.646888 261.873893 
L 230.661786 262.453256 
L 231.676684 262.837382 
L 235.172443 263.956427 
L 238.217136 264.619918 
L 239.795866 264.731029 
L 242.051195 265.000869 
L 249.381013 265.937375 
L 255.019334 266.627849 
L 255.357633 266.302453 
L 255.695933 265.572296 
L 256.034232 262.505637 
L 256.372531 254.810418 
L 257.274663 221.635895 
L 257.838495 198.18357 
L 258.176794 193.778819 
L 258.289561 192.98517 
L 258.740626 185.683601 
L 258.966159 178.778855 
L 259.191692 158.22335 
L 259.529991 111.398066 
L 259.868291 99.096508 
L 259.981057 98.699684 
L 260.093823 97.112386 
L 260.883188 63.779133 
L 260.995955 65.366431 
L 261.221488 61.398187 
L 261.334254 63.779133 
L 261.447021 61.398187 
L 261.672553 61.398187 
L 261.78532 63.779133 
L 262.010853 70.128324 
L 262.123619 70.525149 
L 262.236386 73.30292 
L 262.349152 73.30292 
L 262.461918 76.477515 
L 262.574685 74.890218 
L 262.800218 78.064813 
L 262.912984 79.652111 
L 263.025751 79.652111 
L 263.251283 76.477515 
L 263.476816 82.826706 
L 263.589583 84.414004 
L 263.702349 84.414004 
L 263.815116 87.5886 
L 264.040648 81.239409 
L 264.266181 90.763195 
L 264.491714 84.414004 
L 264.717247 89.175897 
L 264.94278 92.350493 
L 265.055546 89.572722 
L 265.168313 90.763195 
L 265.281079 90.763195 
L 265.393846 93.937791 
L 265.506612 91.953668 
L 265.844911 95.525088 
L 265.957678 92.350493 
L 266.183211 101.874279 
L 266.408743 105.048875 
L 266.52151 109.810768 
L 266.634276 108.22347 
L 266.972575 129.691672 
L 267.536408 149.215435 
L 268.438539 173.97728 
L 268.889605 183.461384 
L 269.002371 184.175668 
L 269.453437 189.810575 
L 269.791736 193.580407 
L 270.693868 200.643882 
L 271.934298 208.381958 
L 272.047065 208.381958 
L 272.159831 208.501006 
L 272.272598 208.858148 
L 272.385364 208.7391 
L 272.610897 207.826404 
L 272.949196 205.207363 
L 273.513028 197.112144 
L 274.189627 178.699491 
L 274.527926 159.731282 
L 274.753459 131.636112 
L 275.204525 66.556904 
L 275.542824 45.128385 
L 275.99389 35.604598 
L 276.106656 39.176018 
L 276.219423 34.414125 
L 276.332189 37.985545 
L 276.444955 36.795072 
L 276.557722 36.795072 
L 276.670488 39.176018 
L 276.783255 37.985545 
L 276.896021 41.556965 
L 277.008788 40.366492 
L 277.23432 47.509331 
L 277.347087 47.509331 
L 277.685386 58.620416 
L 277.798153 59.810889 
L 277.910919 70.921973 
L 278.023685 69.7315 
L 278.587518 90.763195 
L 278.81305 97.112386 
L 278.925817 97.112386 
L 279.15135 103.461577 
L 279.489649 103.461577 
L 279.940715 116.159959 
L 280.166248 116.159959 
L 280.39178 122.985339 
L 280.504547 122.985339 
L 280.617313 129.33453 
L 280.842846 129.33453 
L 280.955613 135.366262 
L 281.068379 135.366262 
L 281.293912 140.882122 
L 281.406678 140.763074 
L 281.632211 145.842427 
L 281.744978 147.0329 
L 281.857744 150.60432 
L 281.97051 150.60432 
L 282.083277 154.890024 
L 282.196043 154.890024 
L 282.30881 158.699539 
L 282.421576 158.699539 
L 282.534343 162.350324 
L 282.647109 162.350324 
L 282.872642 166.278886 
L 283.436474 175.683625 
L 283.774773 179.889964 
L 284.564138 187.588358 
L 284.676905 187.826453 
L 286.030102 196.239131 
L 286.142868 196.358178 
L 287.383299 202.508957 
L 287.496065 202.667687 
L 287.947131 204.096255 
L 288.510963 205.524823 
L 288.62373 205.524823 
L 288.962029 206.635931 
L 289.187562 206.635931 
L 289.413095 207.27085 
L 289.751394 207.747039 
L 289.86416 207.866087 
L 290.20246 208.89783 
L 290.315226 210.643858 
L 290.427992 209.810526 
L 290.540759 209.929574 
L 290.879058 210.762905 
L 291.44289 210.762905 
L 293.02162 216.080353 
L 293.134387 216.953366 
L 293.923752 216.953366 
L 294.93865 218.540664 
L 296.404613 221.55653 
L 296.51738 221.55653 
L 297.419511 224.254936 
L 297.645044 225.683504 
L 298.547175 233.223168 
L 298.659942 233.381898 
L 299.900372 237.350142 
L 300.125905 238.223156 
L 300.351438 239.373947 
L 301.140803 241.873941 
L 301.591869 242.50886 
L 301.817402 242.985049 
L 302.042935 242.905685 
L 302.155701 242.707272 
L 302.494 241.080292 
L 302.719533 240.921562 
L 303.170599 240.842197 
L 303.396132 240.762833 
L 303.508898 240.842197 
L 303.734431 241.080292 
L 303.847197 241.159657 
L 304.07273 241.397752 
L 304.41103 241.397752 
L 304.523796 241.239022 
L 304.749329 241.556481 
L 306.553592 241.556481 
L 307.117424 242.191401 
L 307.681256 240.921562 
L 308.583387 241.000927 
L 308.921687 241.754894 
L 309.034453 242.50886 
L 309.259986 242.50886 
L 309.372752 242.66759 
L 309.598285 243.461239 
L 311.064249 243.540604 
L 311.402548 243.858063 
L 311.515314 244.096158 
L 311.740847 244.889807 
L 311.853614 244.969172 
L 312.079147 245.207266 
L 312.191913 245.246949 
L 312.417446 245.842185 
L 312.868512 247.112024 
L 313.094044 248.143767 
L 313.319577 248.977098 
L 313.54511 249.691382 
L 313.770643 250.286619 
L 313.883409 250.524714 
L 314.221709 252.191376 
L 314.447242 252.191376 
L 314.560008 252.508836 
L 314.672774 254.373911 
L 314.785541 254.294546 
L 315.011074 252.945343 
L 315.12384 252.826295 
L 315.349373 253.143755 
L 315.462139 253.262802 
L 315.687672 254.572323 
L 316.025972 254.651688 
L 316.364271 255.16756 
L 316.928103 255.842161 
L 317.379169 256.63581 
L 317.717468 256.95327 
L 317.943001 257.429459 
L 318.2813 257.429459 
L 318.506833 256.95327 
L 319.634497 257.032635 
L 319.747264 257.231047 
L 319.86003 257.191364 
L 320.311096 257.905648 
L 320.423862 257.905648 
L 320.649395 258.064378 
L 320.987694 258.064378 
L 321.213227 258.223108 
L 322.228125 258.302473 
L 322.453658 258.699297 
L 322.679191 258.858027 
L 322.791957 258.858027 
L 323.01749 259.810406 
L 323.581322 259.810406 
L 323.694089 259.969135 
L 323.919622 260.445325 
L 324.145154 259.969135 
L 324.59622 259.969135 
L 324.821753 260.286595 
L 325.047286 260.127865 
L 325.498351 260.127865 
L 325.611118 260.326277 
L 325.723884 261.080244 
L 325.836651 260.723102 
L 325.949417 259.810406 
L 326.062184 259.969135 
L 326.287716 260.485007 
L 326.513249 260.762784 
L 326.964315 260.723102 
L 327.189848 260.604054 
L 327.528147 260.643737 
L 328.317512 261.397703 
L 328.655811 261.397703 
L 329.106877 261.873893 
L 329.33241 261.873893 
L 329.557943 261.556433 
L 331.023906 261.477068 
L 331.249439 261.397703 
L 333.392001 261.477068 
L 333.730301 261.715163 
L 334.745199 261.715163 
L 334.970731 261.556433 
L 335.083498 261.556433 
L 335.309031 260.088183 
L 335.985629 255.207242 
L 336.098396 255.207242 
L 336.323929 254.532641 
L 336.549461 253.143755 
L 336.887761 252.270741 
L 337.113294 252.191376 
L 337.451593 250.683444 
L 338.015425 249.254876 
L 338.240958 249.056463 
L 338.466491 248.223132 
L 338.917556 248.262814 
L 339.143089 248.381862 
L 339.368622 248.381862 
L 339.594155 248.699321 
L 339.706921 248.699321 
L 339.932454 249.175511 
L 340.157987 249.175511 
L 340.496286 249.81043 
L 340.609053 249.81043 
L 340.947352 250.127889 
L 341.172885 250.286619 
L 341.285651 250.365984 
L 341.511184 250.762808 
L 341.849484 251.556457 
L 342.300549 251.556457 
L 342.413316 251.675505 
L 342.638849 252.191376 
L 342.751615 252.588201 
L 342.977148 253.619944 
L 343.766513 253.659627 
L 343.992046 253.778674 
L 344.217578 254.572323 
L 344.443111 254.612005 
L 344.555878 253.461215 
L 344.894177 254.889783 
L 345.006943 255.048512 
L 345.232476 254.889783 
L 346.021841 254.969147 
L 346.247374 255.207242 
L 346.360141 255.207242 
L 346.472907 255.326289 
L 346.69844 255.842161 
L 347.262272 255.842161 
L 347.487805 256.47708 
L 347.600571 256.47708 
L 347.713338 256.63581 
L 348.164403 258.064378 
L 349.292068 258.064378 
L 349.8559 258.699297 
L 350.306966 258.699297 
L 350.532498 259.016757 
L 350.758031 259.016757 
L 350.983564 260.127865 
L 351.660163 260.127865 
L 351.885696 259.88977 
L 352.111228 259.334216 
L 352.223995 259.215169 
L 352.449528 257.945331 
L 352.675061 255.564384 
L 353.01336 255.16756 
L 353.238893 253.104073 
L 353.577192 249.691382 
L 353.915491 245.524726 
L 354.704856 241.873941 
L 354.930389 241.715211 
L 355.155922 241.715211 
L 355.268688 241.953306 
L 355.494221 242.82632 
L 355.606988 242.905685 
L 355.832521 243.461239 
L 356.058053 243.461239 
L 356.621886 245.048536 
L 356.960185 245.524726 
L 357.298484 246.437422 
L 357.411251 246.477104 
L 357.636783 246.794564 
L 357.74955 246.715199 
L 357.975083 243.739016 
L 358.313382 238.977123 
L 358.538915 236.913636 
L 359.215513 228.69937 
L 359.441046 227.072389 
L 359.666579 226.953342 
L 359.779346 226.953342 
L 359.892112 227.231119 
L 360.343178 230.366032 
L 361.132543 236.199352 
L 361.470842 237.945379 
L 362.147441 239.373947 
L 362.598506 240.008866 
L 362.824039 240.643785 
L 363.049572 241.437434 
L 363.387871 242.35013 
L 363.500638 242.35013 
L 363.613404 242.50886 
L 363.951703 243.619969 
L 364.177236 243.619969 
L 364.402769 244.056475 
L 364.741068 246.23901 
L 364.966601 246.318375 
L 365.079368 246.318375 
L 365.3049 246.000915 
L 365.868733 247.270753 
L 366.319798 249.016781 
L 366.658098 249.532653 
L 366.88363 249.96916 
L 367.672995 250.008842 
L 368.011295 252.350106 
L 369.364492 252.350106 
L 369.477258 253.659627 
L 369.590025 252.508836 
L 369.702791 252.707248 
L 369.928324 253.461215 
L 370.37939 253.540579 
L 370.604923 254.969147 
L 370.830455 255.326289 
L 371.168755 255.365972 
L 371.61982 255.286607 
L 371.845353 255.207242 
L 371.95812 255.207242 
L 372.183653 255.643749 
L 372.296419 256.080256 
L 372.521952 257.746918 
L 372.634718 256.79454 
L 372.747485 256.79454 
L 373.085784 256.199303 
L 373.875149 256.95327 
L 374.213448 256.95327 
L 374.551748 257.270729 
L 375.453879 257.270729 
L 375.566645 257.469141 
L 375.792178 259.016757 
L 375.904945 259.016757 
L 376.243244 258.540567 
L 376.468777 258.699297 
L 377.93474 258.699297 
L 378.498573 259.334216 
L 379.287938 259.373899 
L 379.51347 260.088183 
L 379.739003 260.445325 
L 380.302835 260.445325 
L 380.528368 260.604054 
L 381.656033 260.683419 
L 381.881565 260.921514 
L 382.332631 261.556433 
L 382.558164 261.556433 
L 382.783697 261.873893 
L 383.00923 261.715163 
L 384.24966 261.794528 
L 384.475193 262.191352 
L 385.490091 263.207223 
L 387.40712 263.207223 
L 387.632653 263.413571 
L 390.790113 263.413571 
L 391.128412 263.826269 
L 393.496507 263.877062 
L 393.72204 264.032618 
L 394.06034 263.929443 
L 394.285872 263.826269 
L 394.398639 263.826269 
L 394.736938 264.429442 
L 396.428435 264.326268 
L 396.653967 264.223093 
L 396.766734 264.235792 
L 396.8795 264.135792 
L 397.105033 263.61992 
L 397.781632 263.51992 
L 398.007165 262.588177 
L 398.119931 262.588177 
L 398.345464 263.008811 
L 398.570997 266.461183 
L 398.79653 265.27071 
L 399.022062 265.016742 
L 399.360362 264.969123 
L 399.473128 264.632616 
L 399.585895 263.580238 
L 399.698661 263.580238 
L 399.924194 264.032618 
L 400.03696 264.032618 
L 400.03696 264.032618 
" clip-path="url(#p91ab636ea5)" style="fill: none; stroke: #1f77b4; stroke-opacity: 0.75; stroke-width: 1.5; stroke-linecap: square"/>
   </g>
   <g id="line2d_38">
    <path d="M 75.382415 276.334125 
L 75.720714 274.766454 
L 76.059013 273.952064 
L 76.397313 273.559203 
L 76.848378 273.38145 
L 77.41221 273.418236 
L 78.652641 273.793044 
L 81.471802 274.657133 
L 83.952663 275.170708 
L 84.629262 275.192156 
L 85.531393 275.196539 
L 87.335656 275.546104 
L 89.365452 275.862614 
L 90.38035 275.87439 
L 90.605883 275.056179 
L 91.282481 272.283045 
L 92.184613 270.183895 
L 92.635678 267.63071 
L 93.19951 264.394972 
L 93.53781 263.62506 
L 93.876109 263.381252 
L 94.77824 263.34527 
L 95.229306 263.559217 
L 96.244204 264.257665 
L 97.710167 265.753577 
L 99.401664 267.348236 
L 100.529328 268.230212 
L 101.544226 268.677352 
L 102.220825 267.706541 
L 103.01019 266.821104 
L 103.348489 266.810286 
L 103.912321 267.022828 
L 104.701686 267.578753 
L 104.814452 267.389662 
L 105.378285 264.282498 
L 105.942117 258.678315 
L 106.280416 257.313486 
L 106.618715 256.828746 
L 107.182547 256.696272 
L 107.520847 256.739376 
L 107.633613 256.421761 
L 107.74638 255.653208 
L 108.422978 246.020556 
L 108.761277 242.840875 
L 109.099577 241.375609 
L 109.437876 240.860431 
L 109.663409 240.792996 
L 109.888942 240.958916 
L 110.340007 241.668797 
L 111.016606 243.299725 
L 114.061299 251.120038 
L 114.399599 251.568799 
L 114.625132 251.659743 
L 114.737898 251.409078 
L 115.076197 249.907763 
L 115.30173 248.906249 
L 115.640029 244.230619 
L 116.429394 232.84162 
L 117.105993 228.242033 
L 118.008124 224.062111 
L 118.233657 223.939786 
L 118.45919 224.184174 
L 118.797489 224.99076 
L 119.474088 227.35937 
L 122.518782 238.752228 
L 122.857081 239.629277 
L 122.969847 239.558139 
L 123.308147 238.972561 
L 123.533679 238.957183 
L 123.759212 239.177678 
L 124.210278 240.058306 
L 125.112409 242.505582 
L 127.142205 248.030094 
L 128.946468 252.323073 
L 130.637964 255.819056 
L 132.442227 259.02825 
L 133.231592 260.226887 
L 133.344359 260.114892 
L 133.569891 258.727849 
L 134.24649 252.16723 
L 134.697556 248.981502 
L 135.148621 247.021597 
L 135.712454 245.429101 
L 135.937986 245.260774 
L 136.163519 245.329234 
L 136.501819 245.677295 
L 137.629483 247.426277 
L 137.742249 247.338634 
L 137.967782 246.69914 
L 138.869914 243.020553 
L 139.320979 242.521622 
L 139.659279 241.732048 
L 139.997578 240.675909 
L 140.335877 240.346024 
L 140.56141 240.432492 
L 140.899709 240.919169 
L 141.689074 242.264442 
L 142.027374 242.701363 
L 142.14014 242.796697 
L 142.252906 242.737058 
L 142.478439 242.078734 
L 143.71887 236.315148 
L 143.944403 236.231732 
L 144.169936 236.432732 
L 144.621001 237.3009 
L 145.2976 238.959097 
L 149.357191 250.283292 
L 151.048688 254.058361 
L 152.740184 257.320666 
L 154.544447 260.313342 
L 156.34871 262.87427 
L 158.152973 265.065734 
L 160.070002 267.048822 
L 162.099798 268.819828 
L 164.24236 270.381279 
L 166.497688 271.740868 
L 168.865783 272.910298 
L 169.880681 273.316261 
L 170.106214 272.438903 
L 170.55728 270.8962 
L 170.895579 270.421124 
L 171.233878 270.257996 
L 171.910477 270.141341 
L 172.474309 269.631172 
L 172.925375 269.50356 
L 173.263674 269.437735 
L 173.37644 269.241208 
L 173.71474 268.174423 
L 174.053039 267.715715 
L 174.391338 267.570769 
L 174.842404 267.668502 
L 175.067937 267.776733 
L 175.180703 267.694777 
L 175.406236 265.54439 
L 175.857302 260.53685 
L 176.195601 258.779332 
L 176.5339 258.06088 
L 176.8722 257.772368 
L 176.984966 257.181144 
L 177.210499 252.45143 
L 178.11263 225.755821 
L 178.45093 219.290305 
L 178.789229 216.494393 
L 179.014762 215.831364 
L 179.240295 215.769566 
L 179.465828 216.110248 
L 179.916893 217.500805 
L 180.819025 221.391665 
L 183.074353 231.261976 
L 183.863718 234.102479 
L 183.976485 233.871162 
L 184.202018 231.508403 
L 184.76585 224.177931 
L 187.359478 201.890561 
L 187.58501 201.515299 
L 187.810543 201.436032 
L 188.036076 201.759022 
L 188.487142 203.043136 
L 189.050974 205.292471 
L 190.178638 211.326343 
L 192.208434 221.943329 
L 193.89993 229.566349 
L 195.591427 236.156842 
L 197.282923 241.851901 
L 198.97442 246.773037 
L 200.665916 251.025403 
L 202.357412 254.699893 
L 204.048909 257.875026 
L 205.853172 260.78773 
L 207.657435 263.279524 
L 207.770201 263.366589 
L 208.221267 260.262538 
L 208.559566 255.982512 
L 208.897865 252.97177 
L 209.236164 251.642949 
L 209.461697 251.307474 
L 209.68723 251.247602 
L 210.025529 251.483629 
L 210.589362 252.326738 
L 212.280858 255.22702 
L 212.619157 255.10912 
L 212.84469 254.973579 
L 213.634055 254.935228 
L 213.859588 254.139702 
L 214.197887 253.223642 
L 214.536187 252.541756 
L 215.551084 249.757331 
L 216.114917 248.843997 
L 217.017048 246.4059 
L 217.58088 246.253707 
L 217.806413 245.558943 
L 218.595778 242.265332 
L 218.821311 242.084893 
L 219.046844 242.185162 
L 219.385143 242.665476 
L 220.061742 244.197262 
L 223.557501 252.843951 
L 225.248997 256.270789 
L 227.05326 259.414904 
L 228.857523 262.105446 
L 230.661786 264.407828 
L 232.578815 266.491288 
L 234.495844 268.256892 
L 236.52564 269.833669 
L 238.668202 271.223877 
L 241.036297 272.488916 
L 242.163961 272.996348 
L 242.389494 272.732725 
L 242.727794 272.093654 
L 243.178859 271.17468 
L 243.517159 270.90491 
L 243.968224 270.858038 
L 244.644823 271.079656 
L 247.012918 272.296051 
L 249.606546 273.452163 
L 252.31294 274.413325 
L 255.019334 275.173926 
L 255.132101 275.17987 
L 255.357633 274.267932 
L 255.695933 271.375503 
L 256.034232 265.328327 
L 256.598064 245.60917 
L 258.740626 164.525271 
L 259.755524 107.66617 
L 261.108721 61.925947 
L 261.334254 60.16465 
L 261.447021 60.044015 
L 261.559787 60.310316 
L 261.78532 61.734313 
L 262.236386 66.829872 
L 263.927882 88.097217 
L 264.040648 88.174344 
L 264.266181 88.950638 
L 264.604481 91.517257 
L 265.168313 98.110296 
L 268.889605 145.892205 
L 270.242802 159.346521 
L 271.934298 172.403331 
L 272.272598 174.745333 
L 272.385364 174.644294 
L 272.723663 172.841314 
L 273.061963 168.29542 
L 273.400262 159.28129 
L 273.851328 147.087599 
L 274.41516 132.764643 
L 275.091758 114.015631 
L 275.430058 110.098291 
L 275.65559 109.263389 
L 275.768357 109.18323 
L 275.881123 109.242944 
L 276.106656 109.77761 
L 276.670488 111.917977 
L 277.121554 115.90842 
L 278.136452 127.85828 
L 278.81305 135.06812 
L 279.376883 137.682558 
L 279.827948 140.817328 
L 280.73008 149.598482 
L 282.985408 171.933586 
L 284.676905 186.34735 
L 286.368401 198.786093 
L 287.834365 208.069078 
L 288.849262 213.693982 
L 289.525861 216.164048 
L 290.991825 221.667212 
L 291.44289 222.657154 
L 292.006722 223.892623 
L 292.119489 222.880669 
L 292.457788 218.12407 
L 292.796087 216.276822 
L 293.02162 215.995213 
L 293.247153 216.183865 
L 293.698219 217.057271 
L 294.036518 217.976719 
L 294.713117 220.663399 
L 297.870577 234.084277 
L 299.562073 240.05961 
L 301.25357 245.224231 
L 302.945066 249.687068 
L 304.298263 252.698943 
L 305.538694 255.061614 
L 306.215292 255.90895 
L 306.553592 256.298409 
L 306.666358 256.102839 
L 306.779124 255.672468 
L 307.117424 251.874714 
L 307.681256 246.308227 
L 308.019555 244.912457 
L 308.921687 243.125268 
L 309.147219 243.040259 
L 309.485519 243.285768 
L 309.936584 244.029995 
L 310.838716 246.193108 
L 313.206811 251.993177 
L 314.898307 255.534443 
L 316.589804 258.596072 
L 318.394067 261.404749 
L 320.198329 263.808221 
L 322.115359 265.983159 
L 324.032388 267.826282 
L 326.062184 269.472293 
L 328.204746 270.923539 
L 330.460074 272.187168 
L 331.926038 272.82226 
L 332.940936 273.13749 
L 333.843067 273.389381 
L 334.0686 272.758762 
L 334.294133 271.002755 
L 334.632432 266.062091 
L 335.196264 256.476712 
L 335.534564 254.049042 
L 335.872863 252.958802 
L 336.098396 252.703085 
L 336.323929 252.687958 
L 336.662228 252.944948 
L 337.22606 253.723918 
L 338.466491 255.957334 
L 340.496286 259.472967 
L 342.300549 262.151263 
L 344.104812 264.440398 
L 344.330345 264.610426 
L 344.668644 264.507447 
L 345.11971 264.689697 
L 345.909075 265.360208 
L 349.292068 268.509793 
L 351.209097 269.959874 
L 351.321863 269.974032 
L 351.43463 269.676268 
L 351.885696 265.641844 
L 352.336761 259.71399 
L 352.787827 254.204781 
L 353.126126 250.429912 
L 353.689958 243.825198 
L 354.366557 240.367083 
L 355.268688 238.590031 
L 355.494221 238.696722 
L 355.719754 238.892055 
L 355.832521 238.722679 
L 356.17082 237.707359 
L 356.396353 237.600289 
L 356.621886 237.771776 
L 356.960185 238.363857 
L 357.524017 239.399709 
L 357.636783 238.481854 
L 358.538915 223.998222 
L 358.877214 222.552899 
L 359.102747 222.260338 
L 359.32828 222.395534 
L 359.666579 223.121716 
L 360.230411 225.04504 
L 361.019776 227.86454 
L 361.470842 227.76752 
L 361.809141 228.369469 
L 362.372973 230.066335 
L 366.545331 244.204235 
L 368.236828 248.791718 
L 369.815558 252.478826 
L 371.845353 256.55479 
L 373.53685 259.467911 
L 375.341113 262.141779 
L 377.258142 264.565262 
L 379.175171 266.624486 
L 381.0922 268.369763 
L 383.121996 269.928394 
L 385.264558 271.302602 
L 387.632653 272.553082 
L 388.422018 272.81763 
L 389.211383 273.017966 
L 394.849705 274.89282 
L 396.653967 275.061486 
L 397.330566 274.327123 
L 397.781632 274.214237 
L 398.570997 274.306235 
L 398.79653 274.341316 
L 398.909296 274.087895 
L 399.134829 271.739118 
L 399.473128 268.82422 
L 399.811427 267.346471 
L 400.03696 266.834762 
L 400.03696 266.834762 
" clip-path="url(#p91ab636ea5)" style="fill: none; stroke: #ff7f0e; stroke-opacity: 0.75; stroke-width: 1.5; stroke-linecap: square"/>
   </g>
   <g id="patch_3">
    <path d="M 59.149687 288.430125 
L 59.149687 22.318125 
" style="fill: none; stroke: #000000; stroke-width: 0.8; stroke-linejoin: miter; stroke-linecap: square"/>
   </g>
   <g id="patch_4">
    <path d="M 416.269688 288.430125 
L 416.269688 22.318125 
" style="fill: none; stroke: #000000; stroke-width: 0.8; stroke-linejoin: miter; stroke-linecap: square"/>
   </g>
   <g id="patch_5">
    <path d="M 59.149687 288.430125 
L 416.269687 288.430125 
" style="fill: none; stroke: #000000; stroke-width: 0.8; stroke-linejoin: miter; stroke-linecap: square"/>
   </g>
   <g id="patch_6">
    <path d="M 59.149687 22.318125 
L 416.269687 22.318125 
" style="fill: none; stroke: #000000; stroke-width: 0.8; stroke-linejoin: miter; stroke-linecap: square"/>
   </g>
   <g id="text_21">
    <!-- Observed vs. Simulated River Flow -->
    <g transform="translate(133.06875 16.318125) scale(0.12 -0.12)">
     <defs>
      <path id="DejaVuSans-4f" d="M 2522 4238 
Q 1834 4238 1429 3725 
Q 1025 3213 1025 2328 
Q 1025 1447 1429 934 
Q 1834 422 2522 422 
Q 3209 422 3611 934 
Q 4013 1447 4013 2328 
Q 4013 3213 3611 3725 
Q 3209 4238 2522 4238 
z
M 2522 4750 
Q 3503 4750 4090 4092 
Q 4678 3434 4678 2328 
Q 4678 1225 4090 567 
Q 3503 -91 2522 -91 
Q 1538 -91 948 565 
Q 359 1222 359 2328 
Q 359 3434 948 4092 
Q 1538 4750 2522 4750 
z
" transform="scale(0.015625)"/>
      <path id="DejaVuSans-62" d="M 3116 1747 
Q 3116 2381 2855 2742 
Q 2594 3103 2138 3103 
Q 1681 3103 1420 2742 
Q 1159 2381 1159 1747 
Q 1159 1113 1420 752 
Q 1681 391 2138 391 
Q 2594 391 2855 752 
Q 3116 1113 3116 1747 
z
M 1159 2969 
Q 1341 3281 1617 3432 
Q 1894 3584 2278 3584 
Q 2916 3584 3314 3078 
Q 3713 2572 3713 1747 
Q 3713 922 3314 415 
Q 2916 -91 2278 -91 
Q 1894 -91 1617 61 
Q 1341 213 1159 525 
L 1159 0 
L 581 0 
L 581 4863 
L 1159 4863 
L 1159 2969 
z
" transform="scale(0.015625)"/>
      <path id="DejaVuSans-76" d="M 191 3500 
L 800 3500 
L 1894 563 
L 2988 3500 
L 3597 3500 
L 2284 0 
L 1503 0 
L 191 3500 
z
" transform="scale(0.015625)"/>
      <path id="DejaVuSans-64" d="M 2906 2969 
L 2906 4863 
L 3481 4863 
L 3481 0 
L 2906 0 
L 2906 525 
Q 2725 213 2448 61 
Q 2172 -91 1784 -91 
Q 1150 -91 751 415 
Q 353 922 353 1747 
Q 353 2572 751 3078 
Q 1150 3584 1784 3584 
Q 2172 3584 2448 3432 
Q 2725 3281 2906 2969 
z
M 947 1747 
Q 947 1113 1208 752 
Q 1469 391 1925 391 
Q 2381 391 2643 752 
Q 2906 1113 2906 1747 
Q 2906 2381 2643 2742 
Q 2381 3103 1925 3103 
Q 1469 3103 1208 2742 
Q 947 2381 947 1747 
z
" transform="scale(0.015625)"/>
      <path id="DejaVuSans-53" d="M 3425 4513 
L 3425 3897 
Q 3066 4069 2747 4153 
Q 2428 4238 2131 4238 
Q 1616 4238 1336 4038 
Q 1056 3838 1056 3469 
Q 1056 3159 1242 3001 
Q 1428 2844 1947 2747 
L 2328 2669 
Q 3034 2534 3370 2195 
Q 3706 1856 3706 1288 
Q 3706 609 3251 259 
Q 2797 -91 1919 -91 
Q 1588 -91 1214 -16 
Q 841 59 441 206 
L 441 856 
Q 825 641 1194 531 
Q 1563 422 1919 422 
Q 2459 422 2753 634 
Q 3047 847 3047 1241 
Q 3047 1584 2836 1778 
Q 2625 1972 2144 2069 
L 1759 2144 
Q 1053 2284 737 2584 
Q 422 2884 422 3419 
Q 422 4038 858 4394 
Q 1294 4750 2059 4750 
Q 2388 4750 2728 4690 
Q 3069 4631 3425 4513 
z
" transform="scale(0.015625)"/>
      <path id="DejaVuSans-75" d="M 544 1381 
L 544 3500 
L 1119 3500 
L 1119 1403 
Q 1119 906 1312 657 
Q 1506 409 1894 409 
Q 2359 409 2629 706 
Q 2900 1003 2900 1516 
L 2900 3500 
L 3475 3500 
L 3475 0 
L 2900 0 
L 2900 538 
Q 2691 219 2414 64 
Q 2138 -91 1772 -91 
Q 1169 -91 856 284 
Q 544 659 544 1381 
z
M 1991 3584 
L 1991 3584 
z
" transform="scale(0.015625)"/>
      <path id="DejaVuSans-6c" d="M 603 4863 
L 1178 4863 
L 1178 0 
L 603 0 
L 603 4863 
z
" transform="scale(0.015625)"/>
      <path id="DejaVuSans-74" d="M 1172 4494 
L 1172 3500 
L 2356 3500 
L 2356 3053 
L 1172 3053 
L 1172 1153 
Q 1172 725 1289 603 
Q 1406 481 1766 481 
L 2356 481 
L 2356 0 
L 1766 0 
Q 1100 0 847 248 
Q 594 497 594 1153 
L 594 3053 
L 172 3053 
L 172 3500 
L 594 3500 
L 594 4494 
L 1172 4494 
z
" transform="scale(0.015625)"/>
      <path id="DejaVuSans-52" d="M 2841 2188 
Q 3044 2119 3236 1894 
Q 3428 1669 3622 1275 
L 4263 0 
L 3584 0 
L 2988 1197 
Q 2756 1666 2539 1819 
Q 2322 1972 1947 1972 
L 1259 1972 
L 1259 0 
L 628 0 
L 628 4666 
L 2053 4666 
Q 2853 4666 3247 4331 
Q 3641 3997 3641 3322 
Q 3641 2881 3436 2590 
Q 3231 2300 2841 2188 
z
M 1259 4147 
L 1259 2491 
L 2053 2491 
Q 2509 2491 2742 2702 
Q 2975 2913 2975 3322 
Q 2975 3731 2742 3939 
Q 2509 4147 2053 4147 
L 1259 4147 
z
" transform="scale(0.015625)"/>
      <path id="DejaVuSans-46" d="M 628 4666 
L 3309 4666 
L 3309 4134 
L 1259 4134 
L 1259 2759 
L 3109 2759 
L 3109 2228 
L 1259 2228 
L 1259 0 
L 628 0 
L 628 4666 
z
" transform="scale(0.015625)"/>
      <path id="DejaVuSans-6f" d="M 1959 3097 
Q 1497 3097 1228 2736 
Q 959 2375 959 1747 
Q 959 1119 1226 758 
Q 1494 397 1959 397 
Q 2419 397 2687 759 
Q 2956 1122 2956 1747 
Q 2956 2369 2687 2733 
Q 2419 3097 1959 3097 
z
M 1959 3584 
Q 2709 3584 3137 3096 
Q 3566 2609 3566 1747 
Q 3566 888 3137 398 
Q 2709 -91 1959 -91 
Q 1206 -91 779 398 
Q 353 888 353 1747 
Q 353 2609 779 3096 
Q 1206 3584 1959 3584 
z
" transform="scale(0.015625)"/>
      <path id="DejaVuSans-77" d="M 269 3500 
L 844 3500 
L 1563 769 
L 2278 3500 
L 2956 3500 
L 3675 769 
L 4391 3500 
L 4966 3500 
L 4050 0 
L 3372 0 
L 2619 2869 
L 1863 0 
L 1184 0 
L 269 3500 
z
" transform="scale(0.015625)"/>
     </defs>
     <use xlink:href="#DejaVuSans-4f"/>
     <use xlink:href="#DejaVuSans-62" x="78.710938"/>
     <use xlink:href="#DejaVuSans-73" x="142.1875"/>
     <use xlink:href="#DejaVuSans-65" x="194.287109"/>
     <use xlink:href="#DejaVuSans-72" x="255.810547"/>
     <use xlink:href="#DejaVuSans-76" x="296.923828"/>
     <use xlink:href="#DejaVuSans-65" x="356.103516"/>
     <use xlink:href="#DejaVuSans-64" x="417.626953"/>
     <use xlink:href="#DejaVuSans-20" x="481.103516"/>
     <use xlink:href="#DejaVuSans-76" x="512.890625"/>
     <use xlink:href="#DejaVuSans-73" x="572.070312"/>
     <use xlink:href="#DejaVuSans-2e" x="624.169922"/>
     <use xlink:href="#DejaVuSans-20" x="655.957031"/>
     <use xlink:href="#DejaVuSans-53" x="687.744141"/>
     <use xlink:href="#DejaVuSans-69" x="751.220703"/>
     <use xlink:href="#DejaVuSans-6d" x="779.003906"/>
     <use xlink:href="#DejaVuSans-75" x="876.416016"/>
     <use xlink:href="#DejaVuSans-6c" x="939.794922"/>
     <use xlink:href="#DejaVuSans-61" x="967.578125"/>
     <use xlink:href="#DejaVuSans-74" x="1028.857422"/>
     <use xlink:href="#DejaVuSans-65" x="1068.066406"/>
     <use xlink:href="#DejaVuSans-64" x="1129.589844"/>
     <use xlink:href="#DejaVuSans-20" x="1193.066406"/>
     <use xlink:href="#DejaVuSans-52" x="1224.853516"/>
     <use xlink:href="#DejaVuSans-69" x="1294.335938"/>
     <use xlink:href="#DejaVuSans-76" x="1322.119141"/>
     <use xlink:href="#DejaVuSans-65" x="1381.298828"/>
     <use xlink:href="#DejaVuSans-72" x="1442.822266"/>
     <use xlink:href="#DejaVuSans-20" x="1483.935547"/>
     <use xlink:href="#DejaVuSans-46" x="1515.722656"/>
     <use xlink:href="#DejaVuSans-6c" x="1573.242188"/>
     <use xlink:href="#DejaVuSans-6f" x="1601.025391"/>
     <use xlink:href="#DejaVuSans-77" x="1662.207031"/>
    </g>
   </g>
   <g id="legend_1">
    <g id="patch_7">
     <path d="M 358.250937 59.674375 
L 409.269687 59.674375 
Q 411.269687 59.674375 411.269687 57.674375 
L 411.269687 29.318125 
Q 411.269687 27.318125 409.269687 27.318125 
L 358.250937 27.318125 
Q 356.250937 27.318125 356.250937 29.318125 
L 356.250937 57.674375 
Q 356.250937 59.674375 358.250937 59.674375 
z
" style="fill: #ffffff; opacity: 0.8; stroke: #cccccc; stroke-linejoin: miter"/>
    </g>
    <g id="line2d_39">
     <path d="M 360.250937 35.416562 
L 370.250937 35.416562 
L 380.250937 35.416562 
" style="fill: none; stroke: #1f77b4; stroke-opacity: 0.75; stroke-width: 1.5; stroke-linecap: square"/>
    </g>
    <g id="text_22">
     <!-- REF -->
     <g transform="translate(388.250937 38.916562) scale(0.1 -0.1)">
      <defs>
       <path id="DejaVuSans-45" d="M 628 4666 
L 3578 4666 
L 3578 4134 
L 1259 4134 
L 1259 2753 
L 3481 2753 
L 3481 2222 
L 1259 2222 
L 1259 531 
L 3634 531 
L 3634 0 
L 628 0 
L 628 4666 
z
" transform="scale(0.015625)"/>
      </defs>
      <use xlink:href="#DejaVuSans-52"/>
      <use xlink:href="#DejaVuSans-45" x="69.482422"/>
      <use xlink:href="#DejaVuSans-46" x="132.666016"/>
     </g>
    </g>
    <g id="line2d_40">
     <path d="M 360.250937 50.094687 
L 370.250937 50.094687 
L 380.250937 50.094687 
" style="fill: none; stroke: #ff7f0e; stroke-opacity: 0.75; stroke-width: 1.5; stroke-linecap: square"/>
    </g>
    <g id="text_23">
     <!-- SIM -->
     <g transform="translate(388.250937 53.594687) scale(0.1 -0.1)">
      <defs>
       <path id="DejaVuSans-49" d="M 628 4666 
L 1259 4666 
L 1259 0 
L 628 0 
L 628 4666 
z
" transform="scale(0.015625)"/>
       <path id="DejaVuSans-4d" d="M 628 4666 
L 1569 4666 
L 2759 1491 
L 3956 4666 
L 4897 4666 
L 4897 0 
L 4281 0 
L 4281 4097 
L 3078 897 
L 2444 897 
L 1241 4097 
L 1241 0 
L 628 0 
L 628 4666 
z
" transform="scale(0.015625)"/>
      </defs>
      <use xlink:href="#DejaVuSans-53"/>
      <use xlink:href="#DejaVuSans-49" x="63.476562"/>
      <use xlink:href="#DejaVuSans-4d" x="92.96875"/>
     </g>
    </g>
   </g>
  </g>
 </g>
 <defs>
  <clipPath id="p91ab636ea5">
   <rect x="59.149687" y="22.318125" width="357.12" height="266.112"/>
  </clipPath>
 </defs>
</svg>
