<?xml version="1.0" encoding="utf-8" standalone="no"?>
<!DOCTYPE svg PUBLIC "-//W3C//DTD SVG 1.1//EN"
  "http://www.w3.org/Graphics/SVG/1.1/DTD/svg11.dtd">
<svg xmlns:xlink="http://www.w3.org/1999/xlink" width="431.318437pt" height="364.24567pt" viewBox="0 0 431.318437 364.24567" xmlns="http://www.w3.org/2000/svg" version="1.1">
 <metadata>
  <rdf:RDF xmlns:dc="http://purl.org/dc/elements/1.1/" xmlns:cc="http://creativecommons.org/ns#" xmlns:rdf="http://www.w3.org/1999/02/22-rdf-syntax-ns#">
   <cc:Work>
    <dc:type rdf:resource="http://purl.org/dc/dcmitype/StillImage"/>
    <dc:date>2025-02-01T17:16:05.219116</dc:date>
    <dc:format>image/svg+xml</dc:format>
    <dc:creator>
     <cc:Agent>
      <dc:title>Matplotlib v3.8.4, https://matplotlib.org/</dc:title>
     </cc:Agent>
    </dc:creator>
   </cc:Work>
  </rdf:RDF>
 </metadata>
 <defs>
  <style type="text/css">*{stroke-linejoin: round; stroke-linecap: butt}</style>
 </defs>
 <g id="figure_1">
  <g id="patch_1">
   <path d="M 0 364.24567 
L 431.318437 364.24567 
L 431.318437 0 
L 0 0 
z
" style="fill: #ffffff"/>
  </g>
  <g id="axes_1">
   <g id="patch_2">
    <path d="M 59.149687 288.430125 
L 416.269688 288.430125 
L 416.269688 22.318125 
L 59.149687 22.318125 
z
" style="fill: #ffffff"/>
   </g>
   <g id="matplotlib.axis_1">
    <g id="xtick_1">
     <g id="line2d_1">
      <path d="M 75.382415 288.430125 
L 75.382415 22.318125 
" clip-path="url(#p989ce55d59)" style="fill: none; stroke: #b0b0b0; stroke-width: 0.8; stroke-linecap: square"/>
     </g>
     <g id="line2d_2">
      <defs>
       <path id="mfa76b2e0d5" d="M 0 0 
L 0 3.5 
" style="stroke: #000000; stroke-width: 0.8"/>
      </defs>
      <g>
       <use xlink:href="#mfa76b2e0d5" x="75.382415" y="288.430125" style="stroke: #000000; stroke-width: 0.8"/>
      </g>
     </g>
     <g id="text_1">
      <!-- 2010-11-01 -->
      <g transform="translate(56.786611 341.896984) rotate(-45) scale(0.1 -0.1)">
       <defs>
        <path id="DejaVuSans-32" d="M 1228 531 
L 3431 531 
L 3431 0 
L 469 0 
L 469 531 
Q 828 903 1448 1529 
Q 2069 2156 2228 2338 
Q 2531 2678 2651 2914 
Q 2772 3150 2772 3378 
Q 2772 3750 2511 3984 
Q 2250 4219 1831 4219 
Q 1534 4219 1204 4116 
Q 875 4013 500 3803 
L 500 4441 
Q 881 4594 1212 4672 
Q 1544 4750 1819 4750 
Q 2544 4750 2975 4387 
Q 3406 4025 3406 3419 
Q 3406 3131 3298 2873 
Q 3191 2616 2906 2266 
Q 2828 2175 2409 1742 
Q 1991 1309 1228 531 
z
" transform="scale(0.015625)"/>
        <path id="DejaVuSans-30" d="M 2034 4250 
Q 1547 4250 1301 3770 
Q 1056 3291 1056 2328 
Q 1056 1369 1301 889 
Q 1547 409 2034 409 
Q 2525 409 2770 889 
Q 3016 1369 3016 2328 
Q 3016 3291 2770 3770 
Q 2525 4250 2034 4250 
z
M 2034 4750 
Q 2819 4750 3233 4129 
Q 3647 3509 3647 2328 
Q 3647 1150 3233 529 
Q 2819 -91 2034 -91 
Q 1250 -91 836 529 
Q 422 1150 422 2328 
Q 422 3509 836 4129 
Q 1250 4750 2034 4750 
z
" transform="scale(0.015625)"/>
        <path id="DejaVuSans-31" d="M 794 531 
L 1825 531 
L 1825 4091 
L 703 3866 
L 703 4441 
L 1819 4666 
L 2450 4666 
L 2450 531 
L 3481 531 
L 3481 0 
L 794 0 
L 794 531 
z
" transform="scale(0.015625)"/>
        <path id="DejaVuSans-2d" d="M 313 2009 
L 1997 2009 
L 1997 1497 
L 313 1497 
L 313 2009 
z
" transform="scale(0.015625)"/>
       </defs>
       <use xlink:href="#DejaVuSans-32"/>
       <use xlink:href="#DejaVuSans-30" x="63.623047"/>
       <use xlink:href="#DejaVuSans-31" x="127.246094"/>
       <use xlink:href="#DejaVuSans-30" x="190.869141"/>
       <use xlink:href="#DejaVuSans-2d" x="254.492188"/>
       <use xlink:href="#DejaVuSans-31" x="290.576172"/>
       <use xlink:href="#DejaVuSans-31" x="354.199219"/>
       <use xlink:href="#DejaVuSans-2d" x="417.822266"/>
       <use xlink:href="#DejaVuSans-30" x="453.90625"/>
       <use xlink:href="#DejaVuSans-31" x="517.529297"/>
      </g>
     </g>
    </g>
    <g id="xtick_2">
     <g id="line2d_3">
      <path d="M 113.271934 288.430125 
L 113.271934 22.318125 
" clip-path="url(#p989ce55d59)" style="fill: none; stroke: #b0b0b0; stroke-width: 0.8; stroke-linecap: square"/>
     </g>
     <g id="line2d_4">
      <g>
       <use xlink:href="#mfa76b2e0d5" x="113.271934" y="288.430125" style="stroke: #000000; stroke-width: 0.8"/>
      </g>
     </g>
     <g id="text_2">
      <!-- 2010-11-15 -->
      <g transform="translate(94.676131 341.896984) rotate(-45) scale(0.1 -0.1)">
       <defs>
        <path id="DejaVuSans-35" d="M 691 4666 
L 3169 4666 
L 3169 4134 
L 1269 4134 
L 1269 2991 
Q 1406 3038 1543 3061 
Q 1681 3084 1819 3084 
Q 2600 3084 3056 2656 
Q 3513 2228 3513 1497 
Q 3513 744 3044 326 
Q 2575 -91 1722 -91 
Q 1428 -91 1123 -41 
Q 819 9 494 109 
L 494 744 
Q 775 591 1075 516 
Q 1375 441 1709 441 
Q 2250 441 2565 725 
Q 2881 1009 2881 1497 
Q 2881 1984 2565 2268 
Q 2250 2553 1709 2553 
Q 1456 2553 1204 2497 
Q 953 2441 691 2322 
L 691 4666 
z
" transform="scale(0.015625)"/>
       </defs>
       <use xlink:href="#DejaVuSans-32"/>
       <use xlink:href="#DejaVuSans-30" x="63.623047"/>
       <use xlink:href="#DejaVuSans-31" x="127.246094"/>
       <use xlink:href="#DejaVuSans-30" x="190.869141"/>
       <use xlink:href="#DejaVuSans-2d" x="254.492188"/>
       <use xlink:href="#DejaVuSans-31" x="290.576172"/>
       <use xlink:href="#DejaVuSans-31" x="354.199219"/>
       <use xlink:href="#DejaVuSans-2d" x="417.822266"/>
       <use xlink:href="#DejaVuSans-31" x="453.90625"/>
       <use xlink:href="#DejaVuSans-35" x="517.529297"/>
      </g>
     </g>
    </g>
    <g id="xtick_3">
     <g id="line2d_5">
      <path d="M 156.574243 288.430125 
L 156.574243 22.318125 
" clip-path="url(#p989ce55d59)" style="fill: none; stroke: #b0b0b0; stroke-width: 0.8; stroke-linecap: square"/>
     </g>
     <g id="line2d_6">
      <g>
       <use xlink:href="#mfa76b2e0d5" x="156.574243" y="288.430125" style="stroke: #000000; stroke-width: 0.8"/>
      </g>
     </g>
     <g id="text_3">
      <!-- 2010-12-01 -->
      <g transform="translate(137.978439 341.896984) rotate(-45) scale(0.1 -0.1)">
       <use xlink:href="#DejaVuSans-32"/>
       <use xlink:href="#DejaVuSans-30" x="63.623047"/>
       <use xlink:href="#DejaVuSans-31" x="127.246094"/>
       <use xlink:href="#DejaVuSans-30" x="190.869141"/>
       <use xlink:href="#DejaVuSans-2d" x="254.492188"/>
       <use xlink:href="#DejaVuSans-31" x="290.576172"/>
       <use xlink:href="#DejaVuSans-32" x="354.199219"/>
       <use xlink:href="#DejaVuSans-2d" x="417.822266"/>
       <use xlink:href="#DejaVuSans-30" x="453.90625"/>
       <use xlink:href="#DejaVuSans-31" x="517.529297"/>
      </g>
     </g>
    </g>
    <g id="xtick_4">
     <g id="line2d_7">
      <path d="M 194.463762 288.430125 
L 194.463762 22.318125 
" clip-path="url(#p989ce55d59)" style="fill: none; stroke: #b0b0b0; stroke-width: 0.8; stroke-linecap: square"/>
     </g>
     <g id="line2d_8">
      <g>
       <use xlink:href="#mfa76b2e0d5" x="194.463762" y="288.430125" style="stroke: #000000; stroke-width: 0.8"/>
      </g>
     </g>
     <g id="text_4">
      <!-- 2010-12-15 -->
      <g transform="translate(175.867959 341.896984) rotate(-45) scale(0.1 -0.1)">
       <use xlink:href="#DejaVuSans-32"/>
       <use xlink:href="#DejaVuSans-30" x="63.623047"/>
       <use xlink:href="#DejaVuSans-31" x="127.246094"/>
       <use xlink:href="#DejaVuSans-30" x="190.869141"/>
       <use xlink:href="#DejaVuSans-2d" x="254.492188"/>
       <use xlink:href="#DejaVuSans-31" x="290.576172"/>
       <use xlink:href="#DejaVuSans-32" x="354.199219"/>
       <use xlink:href="#DejaVuSans-2d" x="417.822266"/>
       <use xlink:href="#DejaVuSans-31" x="453.90625"/>
       <use xlink:href="#DejaVuSans-35" x="517.529297"/>
      </g>
     </g>
    </g>
    <g id="xtick_5">
     <g id="line2d_9">
      <path d="M 240.472465 288.430125 
L 240.472465 22.318125 
" clip-path="url(#p989ce55d59)" style="fill: none; stroke: #b0b0b0; stroke-width: 0.8; stroke-linecap: square"/>
     </g>
     <g id="line2d_10">
      <g>
       <use xlink:href="#mfa76b2e0d5" x="240.472465" y="288.430125" style="stroke: #000000; stroke-width: 0.8"/>
      </g>
     </g>
     <g id="text_5">
      <!-- 2011-01-01 -->
      <g transform="translate(221.876661 341.896984) rotate(-45) scale(0.1 -0.1)">
       <use xlink:href="#DejaVuSans-32"/>
       <use xlink:href="#DejaVuSans-30" x="63.623047"/>
       <use xlink:href="#DejaVuSans-31" x="127.246094"/>
       <use xlink:href="#DejaVuSans-31" x="190.869141"/>
       <use xlink:href="#DejaVuSans-2d" x="254.492188"/>
       <use xlink:href="#DejaVuSans-30" x="290.576172"/>
       <use xlink:href="#DejaVuSans-31" x="354.199219"/>
       <use xlink:href="#DejaVuSans-2d" x="417.822266"/>
       <use xlink:href="#DejaVuSans-30" x="453.90625"/>
       <use xlink:href="#DejaVuSans-31" x="517.529297"/>
      </g>
     </g>
    </g>
    <g id="xtick_6">
     <g id="line2d_11">
      <path d="M 278.361985 288.430125 
L 278.361985 22.318125 
" clip-path="url(#p989ce55d59)" style="fill: none; stroke: #b0b0b0; stroke-width: 0.8; stroke-linecap: square"/>
     </g>
     <g id="line2d_12">
      <g>
       <use xlink:href="#mfa76b2e0d5" x="278.361985" y="288.430125" style="stroke: #000000; stroke-width: 0.8"/>
      </g>
     </g>
     <g id="text_6">
      <!-- 2011-01-15 -->
      <g transform="translate(259.766181 341.896984) rotate(-45) scale(0.1 -0.1)">
       <use xlink:href="#DejaVuSans-32"/>
       <use xlink:href="#DejaVuSans-30" x="63.623047"/>
       <use xlink:href="#DejaVuSans-31" x="127.246094"/>
       <use xlink:href="#DejaVuSans-31" x="190.869141"/>
       <use xlink:href="#DejaVuSans-2d" x="254.492188"/>
       <use xlink:href="#DejaVuSans-30" x="290.576172"/>
       <use xlink:href="#DejaVuSans-31" x="354.199219"/>
       <use xlink:href="#DejaVuSans-2d" x="417.822266"/>
       <use xlink:href="#DejaVuSans-31" x="453.90625"/>
       <use xlink:href="#DejaVuSans-35" x="517.529297"/>
      </g>
     </g>
    </g>
    <g id="xtick_7">
     <g id="line2d_13">
      <path d="M 324.370687 288.430125 
L 324.370687 22.318125 
" clip-path="url(#p989ce55d59)" style="fill: none; stroke: #b0b0b0; stroke-width: 0.8; stroke-linecap: square"/>
     </g>
     <g id="line2d_14">
      <g>
       <use xlink:href="#mfa76b2e0d5" x="324.370687" y="288.430125" style="stroke: #000000; stroke-width: 0.8"/>
      </g>
     </g>
     <g id="text_7">
      <!-- 2011-02-01 -->
      <g transform="translate(305.774884 341.896984) rotate(-45) scale(0.1 -0.1)">
       <use xlink:href="#DejaVuSans-32"/>
       <use xlink:href="#DejaVuSans-30" x="63.623047"/>
       <use xlink:href="#DejaVuSans-31" x="127.246094"/>
       <use xlink:href="#DejaVuSans-31" x="190.869141"/>
       <use xlink:href="#DejaVuSans-2d" x="254.492188"/>
       <use xlink:href="#DejaVuSans-30" x="290.576172"/>
       <use xlink:href="#DejaVuSans-32" x="354.199219"/>
       <use xlink:href="#DejaVuSans-2d" x="417.822266"/>
       <use xlink:href="#DejaVuSans-30" x="453.90625"/>
       <use xlink:href="#DejaVuSans-31" x="517.529297"/>
      </g>
     </g>
    </g>
    <g id="xtick_8">
     <g id="line2d_15">
      <path d="M 362.260207 288.430125 
L 362.260207 22.318125 
" clip-path="url(#p989ce55d59)" style="fill: none; stroke: #b0b0b0; stroke-width: 0.8; stroke-linecap: square"/>
     </g>
     <g id="line2d_16">
      <g>
       <use xlink:href="#mfa76b2e0d5" x="362.260207" y="288.430125" style="stroke: #000000; stroke-width: 0.8"/>
      </g>
     </g>
     <g id="text_8">
      <!-- 2011-02-15 -->
      <g transform="translate(343.664403 341.896984) rotate(-45) scale(0.1 -0.1)">
       <use xlink:href="#DejaVuSans-32"/>
       <use xlink:href="#DejaVuSans-30" x="63.623047"/>
       <use xlink:href="#DejaVuSans-31" x="127.246094"/>
       <use xlink:href="#DejaVuSans-31" x="190.869141"/>
       <use xlink:href="#DejaVuSans-2d" x="254.492188"/>
       <use xlink:href="#DejaVuSans-30" x="290.576172"/>
       <use xlink:href="#DejaVuSans-32" x="354.199219"/>
       <use xlink:href="#DejaVuSans-2d" x="417.822266"/>
       <use xlink:href="#DejaVuSans-31" x="453.90625"/>
       <use xlink:href="#DejaVuSans-35" x="517.529297"/>
      </g>
     </g>
    </g>
    <g id="xtick_9">
     <g id="line2d_17">
      <path d="M 400.149727 288.430125 
L 400.149727 22.318125 
" clip-path="url(#p989ce55d59)" style="fill: none; stroke: #b0b0b0; stroke-width: 0.8; stroke-linecap: square"/>
     </g>
     <g id="line2d_18">
      <g>
       <use xlink:href="#mfa76b2e0d5" x="400.149727" y="288.430125" style="stroke: #000000; stroke-width: 0.8"/>
      </g>
     </g>
     <g id="text_9">
      <!-- 2011-03-01 -->
      <g transform="translate(381.553923 341.896984) rotate(-45) scale(0.1 -0.1)">
       <defs>
        <path id="DejaVuSans-33" d="M 2597 2516 
Q 3050 2419 3304 2112 
Q 3559 1806 3559 1356 
Q 3559 666 3084 287 
Q 2609 -91 1734 -91 
Q 1441 -91 1130 -33 
Q 819 25 488 141 
L 488 750 
Q 750 597 1062 519 
Q 1375 441 1716 441 
Q 2309 441 2620 675 
Q 2931 909 2931 1356 
Q 2931 1769 2642 2001 
Q 2353 2234 1838 2234 
L 1294 2234 
L 1294 2753 
L 1863 2753 
Q 2328 2753 2575 2939 
Q 2822 3125 2822 3475 
Q 2822 3834 2567 4026 
Q 2313 4219 1838 4219 
Q 1578 4219 1281 4162 
Q 984 4106 628 3988 
L 628 4550 
Q 988 4650 1302 4700 
Q 1616 4750 1894 4750 
Q 2613 4750 3031 4423 
Q 3450 4097 3450 3541 
Q 3450 3153 3228 2886 
Q 3006 2619 2597 2516 
z
" transform="scale(0.015625)"/>
       </defs>
       <use xlink:href="#DejaVuSans-32"/>
       <use xlink:href="#DejaVuSans-30" x="63.623047"/>
       <use xlink:href="#DejaVuSans-31" x="127.246094"/>
       <use xlink:href="#DejaVuSans-31" x="190.869141"/>
       <use xlink:href="#DejaVuSans-2d" x="254.492188"/>
       <use xlink:href="#DejaVuSans-30" x="290.576172"/>
       <use xlink:href="#DejaVuSans-33" x="354.199219"/>
       <use xlink:href="#DejaVuSans-2d" x="417.822266"/>
       <use xlink:href="#DejaVuSans-30" x="453.90625"/>
       <use xlink:href="#DejaVuSans-31" x="517.529297"/>
      </g>
     </g>
    </g>
    <g id="text_10">
     <!-- Time [hr] -->
     <g transform="translate(214.76125 354.965983) scale(0.1 -0.1)">
      <defs>
       <path id="DejaVuSans-54" d="M -19 4666 
L 3928 4666 
L 3928 4134 
L 2272 4134 
L 2272 0 
L 1638 0 
L 1638 4134 
L -19 4134 
L -19 4666 
z
" transform="scale(0.015625)"/>
       <path id="DejaVuSans-69" d="M 603 3500 
L 1178 3500 
L 1178 0 
L 603 0 
L 603 3500 
z
M 603 4863 
L 1178 4863 
L 1178 4134 
L 603 4134 
L 603 4863 
z
" transform="scale(0.015625)"/>
       <path id="DejaVuSans-6d" d="M 3328 2828 
Q 3544 3216 3844 3400 
Q 4144 3584 4550 3584 
Q 5097 3584 5394 3201 
Q 5691 2819 5691 2113 
L 5691 0 
L 5113 0 
L 5113 2094 
Q 5113 2597 4934 2840 
Q 4756 3084 4391 3084 
Q 3944 3084 3684 2787 
Q 3425 2491 3425 1978 
L 3425 0 
L 2847 0 
L 2847 2094 
Q 2847 2600 2669 2842 
Q 2491 3084 2119 3084 
Q 1678 3084 1418 2786 
Q 1159 2488 1159 1978 
L 1159 0 
L 581 0 
L 581 3500 
L 1159 3500 
L 1159 2956 
Q 1356 3278 1631 3431 
Q 1906 3584 2284 3584 
Q 2666 3584 2933 3390 
Q 3200 3197 3328 2828 
z
" transform="scale(0.015625)"/>
       <path id="DejaVuSans-65" d="M 3597 1894 
L 3597 1613 
L 953 1613 
Q 991 1019 1311 708 
Q 1631 397 2203 397 
Q 2534 397 2845 478 
Q 3156 559 3463 722 
L 3463 178 
Q 3153 47 2828 -22 
Q 2503 -91 2169 -91 
Q 1331 -91 842 396 
Q 353 884 353 1716 
Q 353 2575 817 3079 
Q 1281 3584 2069 3584 
Q 2775 3584 3186 3129 
Q 3597 2675 3597 1894 
z
M 3022 2063 
Q 3016 2534 2758 2815 
Q 2500 3097 2075 3097 
Q 1594 3097 1305 2825 
Q 1016 2553 972 2059 
L 3022 2063 
z
" transform="scale(0.015625)"/>
       <path id="DejaVuSans-20" transform="scale(0.015625)"/>
       <path id="DejaVuSans-5b" d="M 550 4863 
L 1875 4863 
L 1875 4416 
L 1125 4416 
L 1125 -397 
L 1875 -397 
L 1875 -844 
L 550 -844 
L 550 4863 
z
" transform="scale(0.015625)"/>
       <path id="DejaVuSans-68" d="M 3513 2113 
L 3513 0 
L 2938 0 
L 2938 2094 
Q 2938 2591 2744 2837 
Q 2550 3084 2163 3084 
Q 1697 3084 1428 2787 
Q 1159 2491 1159 1978 
L 1159 0 
L 581 0 
L 581 4863 
L 1159 4863 
L 1159 2956 
Q 1366 3272 1645 3428 
Q 1925 3584 2291 3584 
Q 2894 3584 3203 3211 
Q 3513 2838 3513 2113 
z
" transform="scale(0.015625)"/>
       <path id="DejaVuSans-72" d="M 2631 2963 
Q 2534 3019 2420 3045 
Q 2306 3072 2169 3072 
Q 1681 3072 1420 2755 
Q 1159 2438 1159 1844 
L 1159 0 
L 581 0 
L 581 3500 
L 1159 3500 
L 1159 2956 
Q 1341 3275 1631 3429 
Q 1922 3584 2338 3584 
Q 2397 3584 2469 3576 
Q 2541 3569 2628 3553 
L 2631 2963 
z
" transform="scale(0.015625)"/>
       <path id="DejaVuSans-5d" d="M 1947 4863 
L 1947 -844 
L 622 -844 
L 622 -397 
L 1369 -397 
L 1369 4416 
L 622 4416 
L 622 4863 
L 1947 4863 
z
" transform="scale(0.015625)"/>
      </defs>
      <use xlink:href="#DejaVuSans-54"/>
      <use xlink:href="#DejaVuSans-69" x="57.958984"/>
      <use xlink:href="#DejaVuSans-6d" x="85.742188"/>
      <use xlink:href="#DejaVuSans-65" x="183.154297"/>
      <use xlink:href="#DejaVuSans-20" x="244.677734"/>
      <use xlink:href="#DejaVuSans-5b" x="276.464844"/>
      <use xlink:href="#DejaVuSans-68" x="315.478516"/>
      <use xlink:href="#DejaVuSans-72" x="378.857422"/>
      <use xlink:href="#DejaVuSans-5d" x="419.970703"/>
     </g>
    </g>
   </g>
   <g id="matplotlib.axis_2">
    <g id="ytick_1">
     <g id="line2d_19">
      <path d="M 59.149687 278.29787 
L 416.269688 278.29787 
" clip-path="url(#p989ce55d59)" style="fill: none; stroke: #b0b0b0; stroke-width: 0.8; stroke-linecap: square"/>
     </g>
     <g id="line2d_20">
      <defs>
       <path id="m923226318f" d="M 0 0 
L -3.5 0 
" style="stroke: #000000; stroke-width: 0.8"/>
      </defs>
      <g>
       <use xlink:href="#m923226318f" x="59.149687" y="278.29787" style="stroke: #000000; stroke-width: 0.8"/>
      </g>
     </g>
     <g id="text_11">
      <!-- 0 -->
      <g transform="translate(45.787188 282.097088) scale(0.1 -0.1)">
       <use xlink:href="#DejaVuSans-30"/>
      </g>
     </g>
    </g>
    <g id="ytick_2">
     <g id="line2d_21">
      <path d="M 59.149687 246.521486 
L 416.269688 246.521486 
" clip-path="url(#p989ce55d59)" style="fill: none; stroke: #b0b0b0; stroke-width: 0.8; stroke-linecap: square"/>
     </g>
     <g id="line2d_22">
      <g>
       <use xlink:href="#m923226318f" x="59.149687" y="246.521486" style="stroke: #000000; stroke-width: 0.8"/>
      </g>
     </g>
     <g id="text_12">
      <!-- 20 -->
      <g transform="translate(39.424687 250.320705) scale(0.1 -0.1)">
       <use xlink:href="#DejaVuSans-32"/>
       <use xlink:href="#DejaVuSans-30" x="63.623047"/>
      </g>
     </g>
    </g>
    <g id="ytick_3">
     <g id="line2d_23">
      <path d="M 59.149687 214.745102 
L 416.269688 214.745102 
" clip-path="url(#p989ce55d59)" style="fill: none; stroke: #b0b0b0; stroke-width: 0.8; stroke-linecap: square"/>
     </g>
     <g id="line2d_24">
      <g>
       <use xlink:href="#m923226318f" x="59.149687" y="214.745102" style="stroke: #000000; stroke-width: 0.8"/>
      </g>
     </g>
     <g id="text_13">
      <!-- 40 -->
      <g transform="translate(39.424687 218.544321) scale(0.1 -0.1)">
       <defs>
        <path id="DejaVuSans-34" d="M 2419 4116 
L 825 1625 
L 2419 1625 
L 2419 4116 
z
M 2253 4666 
L 3047 4666 
L 3047 1625 
L 3713 1625 
L 3713 1100 
L 3047 1100 
L 3047 0 
L 2419 0 
L 2419 1100 
L 313 1100 
L 313 1709 
L 2253 4666 
z
" transform="scale(0.015625)"/>
       </defs>
       <use xlink:href="#DejaVuSans-34"/>
       <use xlink:href="#DejaVuSans-30" x="63.623047"/>
      </g>
     </g>
    </g>
    <g id="ytick_4">
     <g id="line2d_25">
      <path d="M 59.149687 182.968719 
L 416.269688 182.968719 
" clip-path="url(#p989ce55d59)" style="fill: none; stroke: #b0b0b0; stroke-width: 0.8; stroke-linecap: square"/>
     </g>
     <g id="line2d_26">
      <g>
       <use xlink:href="#m923226318f" x="59.149687" y="182.968719" style="stroke: #000000; stroke-width: 0.8"/>
      </g>
     </g>
     <g id="text_14">
      <!-- 60 -->
      <g transform="translate(39.424687 186.767937) scale(0.1 -0.1)">
       <defs>
        <path id="DejaVuSans-36" d="M 2113 2584 
Q 1688 2584 1439 2293 
Q 1191 2003 1191 1497 
Q 1191 994 1439 701 
Q 1688 409 2113 409 
Q 2538 409 2786 701 
Q 3034 994 3034 1497 
Q 3034 2003 2786 2293 
Q 2538 2584 2113 2584 
z
M 3366 4563 
L 3366 3988 
Q 3128 4100 2886 4159 
Q 2644 4219 2406 4219 
Q 1781 4219 1451 3797 
Q 1122 3375 1075 2522 
Q 1259 2794 1537 2939 
Q 1816 3084 2150 3084 
Q 2853 3084 3261 2657 
Q 3669 2231 3669 1497 
Q 3669 778 3244 343 
Q 2819 -91 2113 -91 
Q 1303 -91 875 529 
Q 447 1150 447 2328 
Q 447 3434 972 4092 
Q 1497 4750 2381 4750 
Q 2619 4750 2861 4703 
Q 3103 4656 3366 4563 
z
" transform="scale(0.015625)"/>
       </defs>
       <use xlink:href="#DejaVuSans-36"/>
       <use xlink:href="#DejaVuSans-30" x="63.623047"/>
      </g>
     </g>
    </g>
    <g id="ytick_5">
     <g id="line2d_27">
      <path d="M 59.149687 151.192335 
L 416.269688 151.192335 
" clip-path="url(#p989ce55d59)" style="fill: none; stroke: #b0b0b0; stroke-width: 0.8; stroke-linecap: square"/>
     </g>
     <g id="line2d_28">
      <g>
       <use xlink:href="#m923226318f" x="59.149687" y="151.192335" style="stroke: #000000; stroke-width: 0.8"/>
      </g>
     </g>
     <g id="text_15">
      <!-- 80 -->
      <g transform="translate(39.424687 154.991554) scale(0.1 -0.1)">
       <defs>
        <path id="DejaVuSans-38" d="M 2034 2216 
Q 1584 2216 1326 1975 
Q 1069 1734 1069 1313 
Q 1069 891 1326 650 
Q 1584 409 2034 409 
Q 2484 409 2743 651 
Q 3003 894 3003 1313 
Q 3003 1734 2745 1975 
Q 2488 2216 2034 2216 
z
M 1403 2484 
Q 997 2584 770 2862 
Q 544 3141 544 3541 
Q 544 4100 942 4425 
Q 1341 4750 2034 4750 
Q 2731 4750 3128 4425 
Q 3525 4100 3525 3541 
Q 3525 3141 3298 2862 
Q 3072 2584 2669 2484 
Q 3125 2378 3379 2068 
Q 3634 1759 3634 1313 
Q 3634 634 3220 271 
Q 2806 -91 2034 -91 
Q 1263 -91 848 271 
Q 434 634 434 1313 
Q 434 1759 690 2068 
Q 947 2378 1403 2484 
z
M 1172 3481 
Q 1172 3119 1398 2916 
Q 1625 2713 2034 2713 
Q 2441 2713 2670 2916 
Q 2900 3119 2900 3481 
Q 2900 3844 2670 4047 
Q 2441 4250 2034 4250 
Q 1625 4250 1398 4047 
Q 1172 3844 1172 3481 
z
" transform="scale(0.015625)"/>
       </defs>
       <use xlink:href="#DejaVuSans-38"/>
       <use xlink:href="#DejaVuSans-30" x="63.623047"/>
      </g>
     </g>
    </g>
    <g id="ytick_6">
     <g id="line2d_29">
      <path d="M 59.149687 119.415951 
L 416.269688 119.415951 
" clip-path="url(#p989ce55d59)" style="fill: none; stroke: #b0b0b0; stroke-width: 0.8; stroke-linecap: square"/>
     </g>
     <g id="line2d_30">
      <g>
       <use xlink:href="#m923226318f" x="59.149687" y="119.415951" style="stroke: #000000; stroke-width: 0.8"/>
      </g>
     </g>
     <g id="text_16">
      <!-- 100 -->
      <g transform="translate(33.062187 123.21517) scale(0.1 -0.1)">
       <use xlink:href="#DejaVuSans-31"/>
       <use xlink:href="#DejaVuSans-30" x="63.623047"/>
       <use xlink:href="#DejaVuSans-30" x="127.246094"/>
      </g>
     </g>
    </g>
    <g id="ytick_7">
     <g id="line2d_31">
      <path d="M 59.149687 87.639568 
L 416.269688 87.639568 
" clip-path="url(#p989ce55d59)" style="fill: none; stroke: #b0b0b0; stroke-width: 0.8; stroke-linecap: square"/>
     </g>
     <g id="line2d_32">
      <g>
       <use xlink:href="#m923226318f" x="59.149687" y="87.639568" style="stroke: #000000; stroke-width: 0.8"/>
      </g>
     </g>
     <g id="text_17">
      <!-- 120 -->
      <g transform="translate(33.062187 91.438786) scale(0.1 -0.1)">
       <use xlink:href="#DejaVuSans-31"/>
       <use xlink:href="#DejaVuSans-32" x="63.623047"/>
       <use xlink:href="#DejaVuSans-30" x="127.246094"/>
      </g>
     </g>
    </g>
    <g id="ytick_8">
     <g id="line2d_33">
      <path d="M 59.149687 55.863184 
L 416.269688 55.863184 
" clip-path="url(#p989ce55d59)" style="fill: none; stroke: #b0b0b0; stroke-width: 0.8; stroke-linecap: square"/>
     </g>
     <g id="line2d_34">
      <g>
       <use xlink:href="#m923226318f" x="59.149687" y="55.863184" style="stroke: #000000; stroke-width: 0.8"/>
      </g>
     </g>
     <g id="text_18">
      <!-- 140 -->
      <g transform="translate(33.062187 59.662403) scale(0.1 -0.1)">
       <use xlink:href="#DejaVuSans-31"/>
       <use xlink:href="#DejaVuSans-34" x="63.623047"/>
       <use xlink:href="#DejaVuSans-30" x="127.246094"/>
      </g>
     </g>
    </g>
    <g id="ytick_9">
     <g id="line2d_35">
      <path d="M 59.149687 24.0868 
L 416.269688 24.0868 
" clip-path="url(#p989ce55d59)" style="fill: none; stroke: #b0b0b0; stroke-width: 0.8; stroke-linecap: square"/>
     </g>
     <g id="line2d_36">
      <g>
       <use xlink:href="#m923226318f" x="59.149687" y="24.0868" style="stroke: #000000; stroke-width: 0.8"/>
      </g>
     </g>
     <g id="text_19">
      <!-- 160 -->
      <g transform="translate(33.062187 27.886019) scale(0.1 -0.1)">
       <use xlink:href="#DejaVuSans-31"/>
       <use xlink:href="#DejaVuSans-36" x="63.623047"/>
       <use xlink:href="#DejaVuSans-30" x="127.246094"/>
      </g>
     </g>
    </g>
    <g id="text_20">
     <!-- Discharge -->
     <g transform="translate(14.798437 180.418656) rotate(-90) scale(0.1 -0.1)">
      <defs>
       <path id="DejaVuSans-44" d="M 1259 4147 
L 1259 519 
L 2022 519 
Q 2988 519 3436 956 
Q 3884 1394 3884 2338 
Q 3884 3275 3436 3711 
Q 2988 4147 2022 4147 
L 1259 4147 
z
M 628 4666 
L 1925 4666 
Q 3281 4666 3915 4102 
Q 4550 3538 4550 2338 
Q 4550 1131 3912 565 
Q 3275 0 1925 0 
L 628 0 
L 628 4666 
z
" transform="scale(0.015625)"/>
       <path id="DejaVuSans-73" d="M 2834 3397 
L 2834 2853 
Q 2591 2978 2328 3040 
Q 2066 3103 1784 3103 
Q 1356 3103 1142 2972 
Q 928 2841 928 2578 
Q 928 2378 1081 2264 
Q 1234 2150 1697 2047 
L 1894 2003 
Q 2506 1872 2764 1633 
Q 3022 1394 3022 966 
Q 3022 478 2636 193 
Q 2250 -91 1575 -91 
Q 1294 -91 989 -36 
Q 684 19 347 128 
L 347 722 
Q 666 556 975 473 
Q 1284 391 1588 391 
Q 1994 391 2212 530 
Q 2431 669 2431 922 
Q 2431 1156 2273 1281 
Q 2116 1406 1581 1522 
L 1381 1569 
Q 847 1681 609 1914 
Q 372 2147 372 2553 
Q 372 3047 722 3315 
Q 1072 3584 1716 3584 
Q 2034 3584 2315 3537 
Q 2597 3491 2834 3397 
z
" transform="scale(0.015625)"/>
       <path id="DejaVuSans-63" d="M 3122 3366 
L 3122 2828 
Q 2878 2963 2633 3030 
Q 2388 3097 2138 3097 
Q 1578 3097 1268 2742 
Q 959 2388 959 1747 
Q 959 1106 1268 751 
Q 1578 397 2138 397 
Q 2388 397 2633 464 
Q 2878 531 3122 666 
L 3122 134 
Q 2881 22 2623 -34 
Q 2366 -91 2075 -91 
Q 1284 -91 818 406 
Q 353 903 353 1747 
Q 353 2603 823 3093 
Q 1294 3584 2113 3584 
Q 2378 3584 2631 3529 
Q 2884 3475 3122 3366 
z
" transform="scale(0.015625)"/>
       <path id="DejaVuSans-61" d="M 2194 1759 
Q 1497 1759 1228 1600 
Q 959 1441 959 1056 
Q 959 750 1161 570 
Q 1363 391 1709 391 
Q 2188 391 2477 730 
Q 2766 1069 2766 1631 
L 2766 1759 
L 2194 1759 
z
M 3341 1997 
L 3341 0 
L 2766 0 
L 2766 531 
Q 2569 213 2275 61 
Q 1981 -91 1556 -91 
Q 1019 -91 701 211 
Q 384 513 384 1019 
Q 384 1609 779 1909 
Q 1175 2209 1959 2209 
L 2766 2209 
L 2766 2266 
Q 2766 2663 2505 2880 
Q 2244 3097 1772 3097 
Q 1472 3097 1187 3025 
Q 903 2953 641 2809 
L 641 3341 
Q 956 3463 1253 3523 
Q 1550 3584 1831 3584 
Q 2591 3584 2966 3190 
Q 3341 2797 3341 1997 
z
" transform="scale(0.015625)"/>
       <path id="DejaVuSans-67" d="M 2906 1791 
Q 2906 2416 2648 2759 
Q 2391 3103 1925 3103 
Q 1463 3103 1205 2759 
Q 947 2416 947 1791 
Q 947 1169 1205 825 
Q 1463 481 1925 481 
Q 2391 481 2648 825 
Q 2906 1169 2906 1791 
z
M 3481 434 
Q 3481 -459 3084 -895 
Q 2688 -1331 1869 -1331 
Q 1566 -1331 1297 -1286 
Q 1028 -1241 775 -1147 
L 775 -588 
Q 1028 -725 1275 -790 
Q 1522 -856 1778 -856 
Q 2344 -856 2625 -561 
Q 2906 -266 2906 331 
L 2906 616 
Q 2728 306 2450 153 
Q 2172 0 1784 0 
Q 1141 0 747 490 
Q 353 981 353 1791 
Q 353 2603 747 3093 
Q 1141 3584 1784 3584 
Q 2172 3584 2450 3431 
Q 2728 3278 2906 2969 
L 2906 3500 
L 3481 3500 
L 3481 434 
z
" transform="scale(0.015625)"/>
      </defs>
      <use xlink:href="#DejaVuSans-44"/>
      <use xlink:href="#DejaVuSans-69" x="77.001953"/>
      <use xlink:href="#DejaVuSans-73" x="104.785156"/>
      <use xlink:href="#DejaVuSans-63" x="156.884766"/>
      <use xlink:href="#DejaVuSans-68" x="211.865234"/>
      <use xlink:href="#DejaVuSans-61" x="275.244141"/>
      <use xlink:href="#DejaVuSans-72" x="336.523438"/>
      <use xlink:href="#DejaVuSans-67" x="375.886719"/>
      <use xlink:href="#DejaVuSans-65" x="439.363281"/>
     </g>
     <!-- [$m^3.s^{-1}$] -->
     <g transform="translate(26.9825 177.474125) rotate(-90) scale(0.1 -0.1)">
      <defs>
       <path id="DejaVuSans-Oblique-6d" d="M 5747 2113 
L 5338 0 
L 4763 0 
L 5166 2094 
Q 5191 2228 5203 2325 
Q 5216 2422 5216 2491 
Q 5216 2772 5059 2928 
Q 4903 3084 4622 3084 
Q 4203 3084 3875 2770 
Q 3547 2456 3450 1953 
L 3066 0 
L 2491 0 
L 2900 2094 
Q 2925 2209 2937 2307 
Q 2950 2406 2950 2484 
Q 2950 2769 2794 2926 
Q 2638 3084 2363 3084 
Q 1938 3084 1609 2770 
Q 1281 2456 1184 1953 
L 800 0 
L 225 0 
L 909 3500 
L 1484 3500 
L 1375 2956 
Q 1609 3263 1923 3423 
Q 2238 3584 2597 3584 
Q 2978 3584 3223 3384 
Q 3469 3184 3519 2828 
Q 3781 3197 4126 3390 
Q 4472 3584 4856 3584 
Q 5306 3584 5551 3325 
Q 5797 3066 5797 2591 
Q 5797 2488 5784 2364 
Q 5772 2241 5747 2113 
z
" transform="scale(0.015625)"/>
       <path id="DejaVuSans-2e" d="M 684 794 
L 1344 794 
L 1344 0 
L 684 0 
L 684 794 
z
" transform="scale(0.015625)"/>
       <path id="DejaVuSans-Oblique-73" d="M 3200 3397 
L 3091 2853 
Q 2863 2978 2609 3040 
Q 2356 3103 2088 3103 
Q 1634 3103 1373 2948 
Q 1113 2794 1113 2528 
Q 1113 2219 1719 2053 
Q 1766 2041 1788 2034 
L 1972 1978 
Q 2547 1819 2739 1644 
Q 2931 1469 2931 1166 
Q 2931 609 2489 259 
Q 2047 -91 1331 -91 
Q 1053 -91 747 -37 
Q 441 16 72 128 
L 184 722 
Q 500 559 806 475 
Q 1113 391 1394 391 
Q 1816 391 2080 572 
Q 2344 753 2344 1031 
Q 2344 1331 1650 1516 
L 1591 1531 
L 1394 1581 
Q 956 1697 753 1886 
Q 550 2075 550 2369 
Q 550 2928 970 3256 
Q 1391 3584 2113 3584 
Q 2397 3584 2667 3537 
Q 2938 3491 3200 3397 
z
" transform="scale(0.015625)"/>
       <path id="DejaVuSans-2212" d="M 678 2272 
L 4684 2272 
L 4684 1741 
L 678 1741 
L 678 2272 
z
" transform="scale(0.015625)"/>
      </defs>
      <use xlink:href="#DejaVuSans-5b" transform="translate(0 0.765625)"/>
      <use xlink:href="#DejaVuSans-Oblique-6d" transform="translate(39.013672 0.765625)"/>
      <use xlink:href="#DejaVuSans-33" transform="translate(141.075677 39.046875) scale(0.7)"/>
      <use xlink:href="#DejaVuSans-2e" transform="translate(188.346185 0.765625)"/>
      <use xlink:href="#DejaVuSans-Oblique-73" transform="translate(239.615716 0.765625)"/>
      <use xlink:href="#DejaVuSans-2212" transform="translate(296.365221 39.046875) scale(0.7)"/>
      <use xlink:href="#DejaVuSans-31" transform="translate(355.017565 39.046875) scale(0.7)"/>
      <use xlink:href="#DejaVuSans-5d" transform="translate(402.288073 0.765625)"/>
     </g>
    </g>
   </g>
   <g id="line2d_37">
    <path d="M 75.382415 271.608941 
L 76.735612 271.608941 
L 76.961145 271.767823 
L 77.186678 271.728102 
L 77.41221 271.608941 
L 78.088809 271.648661 
L 78.427108 271.886984 
L 78.539875 271.767823 
L 78.765408 271.926705 
L 78.878174 271.926705 
L 78.99094 271.807543 
L 79.216473 272.085587 
L 79.780305 272.085587 
L 80.005838 271.926705 
L 80.118605 271.926705 
L 80.344138 272.085587 
L 80.56967 271.926705 
L 81.471802 271.926705 
L 81.697335 272.284189 
L 81.810101 272.284189 
L 81.922868 272.006146 
L 82.1484 272.244469 
L 82.261167 272.244469 
L 82.4867 271.966425 
L 82.599466 271.489779 
L 82.712233 271.5295 
L 83.050532 271.886984 
L 83.163298 271.847264 
L 83.501598 271.966425 
L 83.72713 272.085587 
L 84.06543 271.886984 
L 84.403729 272.51139 
L 84.516495 272.125307 
L 84.742028 272.204748 
L 84.967561 271.767823 
L 85.080328 271.767823 
L 85.193094 271.648661 
L 85.418627 271.926705 
L 85.982459 271.926705 
L 86.207992 272.244469 
L 86.433525 272.085587 
L 86.771824 272.045866 
L 86.997357 271.767823 
L 87.22289 272.085587 
L 87.335656 271.926705 
L 87.561189 272.006146 
L 87.673955 271.926705 
L 87.786722 272.006146 
L 88.012255 271.767823 
L 88.350554 272.395406 
L 88.46332 272.125307 
L 88.576087 272.204748 
L 88.914386 271.767823 
L 89.027153 271.728102 
L 89.139919 271.926705 
L 89.365452 271.728102 
L 89.703751 272.125307 
L 89.929284 271.767823 
L 90.154817 272.125307 
L 90.493116 271.807543 
L 90.605883 272.006146 
L 90.718649 271.410338 
L 90.831415 271.489779 
L 91.056948 270.809765 
L 91.169715 269.829463 
L 91.282481 269.87395 
L 91.508014 270.163115 
L 91.62078 270.321997 
L 91.733547 270.242556 
L 91.846313 270.528544 
L 91.95908 270.282277 
L 92.071846 270.361718 
L 92.297379 269.87395 
L 92.748445 268.110361 
L 93.086744 265.587316 
L 93.312277 266.159291 
L 94.214408 266.111626 
L 94.439941 265.968633 
L 94.891007 266.016297 
L 95.342072 267.514554 
L 95.567605 268.208868 
L 95.680372 268.208868 
L 95.793138 268.018209 
L 95.905905 268.065874 
L 96.131437 268.574296 
L 96.920802 268.618783 
L 97.146335 268.749066 
L 97.259102 268.749066 
L 97.484635 268.923836 
L 97.710167 268.971501 
L 97.9357 269.244778 
L 98.048467 269.114495 
L 98.274 269.508522 
L 98.386766 269.20188 
L 98.612299 269.289265 
L 98.725065 269.289265 
L 98.950598 268.974679 
L 99.063365 269.464035 
L 99.288897 272.975325 
L 99.51443 268.749066 
L 99.627197 269.643572 
L 99.739963 269.689647 
L 99.965496 269.193936 
L 100.416562 269.988345 
L 100.642095 269.948625 
L 100.754861 269.734134 
L 100.980394 270.798643 
L 101.09316 270.758923 
L 101.43146 270.163115 
L 101.769759 270.163115 
L 102.333591 268.015032 
L 102.559124 268.879349 
L 102.897423 268.923836 
L 103.686788 268.968323 
L 103.912321 269.638805 
L 104.137854 269.55142 
L 104.363387 269.638805 
L 104.927219 269.638805 
L 105.603817 266.861549 
L 106.054883 257.325456 
L 106.393182 255.736637 
L 106.618715 255.895519 
L 106.957015 254.108098 
L 107.182547 254.465582 
L 107.40808 254.942228 
L 107.633613 254.942228 
L 107.74638 254.425861 
L 109.212343 231.030499 
L 109.437876 230.792176 
L 109.550642 230.951058 
L 110.114475 234.049255 
L 110.791073 241.715308 
L 111.580438 247.514498 
L 111.918737 248.944435 
L 112.257037 250.17577 
L 112.708102 250.17577 
L 113.271934 250.652416 
L 113.497467 250.692136 
L 113.723 250.811298 
L 113.835767 250.851018 
L 114.061299 251.446825 
L 114.286832 251.446825 
L 114.625132 251.764589 
L 115.076197 251.764589 
L 115.414497 250.890739 
L 115.640029 246.283163 
L 115.978329 236.511925 
L 116.654927 214.149295 
L 117.218759 205.41079 
L 118.120891 198.698029 
L 118.45919 202.034549 
L 119.474088 218.280225 
L 120.03792 230.394971 
L 120.376219 235.201149 
L 120.488986 235.399752 
L 121.165584 239.570402 
L 121.729417 243.264407 
L 122.293249 245.329872 
L 122.631548 246.00512 
L 122.857081 247.435057 
L 123.19538 247.474777 
L 123.308147 247.474777 
L 123.420913 247.315896 
L 123.646446 246.83925 
L 123.871979 247.315896 
L 124.210278 248.110305 
L 124.435811 249.38136 
L 124.548577 249.38136 
L 124.999643 250.17577 
L 125.112409 250.374372 
L 125.337942 250.97018 
L 125.676242 251.923471 
L 125.789008 251.923471 
L 125.901774 252.122074 
L 126.240074 255.538035 
L 126.465607 256.411885 
L 126.691139 256.531047 
L 127.593271 256.531047 
L 128.044337 257.166574 
L 128.157103 257.246015 
L 128.495402 258.119866 
L 128.608169 258.119866 
L 128.720935 257.960984 
L 129.059234 259.232039 
L 129.961366 259.232039 
L 130.299665 259.470362 
L 130.750731 261.178343 
L 131.540096 262.091914 
L 132.103928 261.297504 
L 132.442227 261.297504 
L 132.66776 261.456386 
L 132.893293 261.297504 
L 133.344359 261.376945 
L 133.569891 261.138622 
L 133.682658 261.138622 
L 133.795424 260.94002 
L 134.584789 254.068377 
L 134.810322 251.963192 
L 135.148621 251.129062 
L 136.163519 247.792541 
L 136.276286 247.792541 
L 136.501819 248.745833 
L 136.727351 249.38136 
L 136.952884 249.937447 
L 137.178417 251.287943 
L 137.40395 253.035645 
L 137.629483 253.035645 
L 138.531614 254.147818 
L 138.644381 254.068377 
L 138.98268 252.161794 
L 139.208213 252.082353 
L 139.546512 252.082353 
L 139.659279 251.923471 
L 139.772045 251.089341 
L 140.223111 244.932667 
L 140.335877 244.932667 
L 140.674176 245.806517 
L 140.899709 247.474777 
L 141.125242 247.633659 
L 141.238009 247.911703 
L 141.463541 249.540242 
L 141.576308 249.699124 
L 141.801841 250.493534 
L 141.914607 250.612695 
L 142.14014 251.049621 
L 142.365673 251.248223 
L 142.591206 251.764589 
L 143.042271 249.699124 
L 143.267804 249.540242 
L 143.944403 249.540242 
L 144.169936 250.016888 
L 144.282702 250.016888 
L 144.508235 250.17577 
L 144.846534 250.17577 
L 145.2976 250.652416 
L 145.523133 250.811298 
L 145.748666 251.486546 
L 146.312498 253.51229 
L 146.538031 253.869775 
L 146.87633 254.862787 
L 147.101863 255.18055 
L 147.327396 255.498314 
L 147.552929 256.76937 
L 147.778461 257.166574 
L 147.891228 257.325456 
L 148.116761 258.43763 
L 148.567826 258.119866 
L 148.793359 258.199307 
L 149.357191 258.596512 
L 149.582724 259.073157 
L 150.259323 259.867567 
L 150.372089 259.867567 
L 150.484856 259.986729 
L 150.710389 261.456386 
L 150.823155 261.138622 
L 150.935921 260.9003 
L 151.161454 261.059181 
L 151.61252 262.250796 
L 151.838053 262.091914 
L 152.289118 262.552671 
L 153.642316 262.377901 
L 153.867848 262.250796 
L 154.318914 262.311171 
L 154.657213 262.922866 
L 154.882746 263.633069 
L 155.333812 263.677555 
L 155.559345 263.807839 
L 155.672111 263.807839 
L 156.235943 264.597482 
L 156.34871 264.543462 
L 156.461476 263.688677 
L 156.687009 263.776062 
L 157.250841 263.760174 
L 157.92744 264.459255 
L 158.378506 264.491031 
L 159.055104 264.570472 
L 159.280637 264.649913 
L 159.618936 264.649913 
L 159.844469 264.824683 
L 160.182768 265.102726 
L 160.521068 265.936856 
L 164.580659 265.836761 
L 165.482791 265.809751 
L 165.82109 266.175179 
L 165.933856 266.175179 
L 166.159389 266.349949 
L 166.723221 266.337239 
L 167.061521 266.890148 
L 168.414718 266.945757 
L 168.640251 267.2238 
L 168.97855 267.112583 
L 169.204083 267.017253 
L 169.316849 267.017253 
L 169.429616 267.338195 
L 169.880681 266.763042 
L 169.993448 266.111626 
L 170.21898 266.251443 
L 170.895579 266.222844 
L 171.233878 266.408736 
L 171.459411 266.492943 
L 171.684944 266.580328 
L 172.13601 266.477055 
L 172.812608 265.984521 
L 173.263674 265.984521 
L 173.489207 266.159291 
L 173.940273 266.381726 
L 174.165805 266.508831 
L 174.504105 266.413502 
L 174.729638 266.318173 
L 175.29347 266.206956 
L 175.857302 264.395702 
L 175.970068 263.680733 
L 176.195601 260.979741 
L 176.421134 260.820859 
L 176.5339 260.661977 
L 176.984966 259.31148 
L 177.097733 257.246015 
L 177.323265 245.766797 
L 178.225397 190.356728 
L 178.789229 181.41962 
L 179.014762 179.234994 
L 179.240295 179.473316 
L 179.353061 179.314434 
L 179.578594 181.45934 
L 179.804127 183.961731 
L 181.60839 231.824908 
L 182.059455 238.021303 
L 182.284988 238.53767 
L 182.510521 240.047048 
L 182.961587 243.979375 
L 183.299886 243.979375 
L 183.638185 244.932667 
L 183.863718 246.998132 
L 184.653083 247.633659 
L 184.878616 248.110305 
L 185.329682 245.528474 
L 185.893514 232.142672 
L 187.359478 189.165113 
L 187.472244 189.165113 
L 188.148843 183.842569 
L 188.374375 183.604246 
L 188.487142 183.604246 
L 188.599908 183.485085 
L 188.712675 183.723408 
L 188.825441 184.557538 
L 188.938208 184.557538 
L 189.389273 187.25853 
L 189.614806 190.714212 
L 189.840339 198.221383 
L 190.291405 205.887435 
L 190.629704 210.733334 
L 191.08077 219.591001 
L 191.757368 233.453448 
L 192.3212 239.292359 
L 192.885032 243.621891 
L 192.997799 244.058816 
L 193.223332 246.243443 
L 193.561631 246.83925 
L 193.674397 246.83925 
L 194.576529 251.049621 
L 195.027595 251.764589 
L 195.253127 252.002912 
L 195.591427 253.035645 
L 195.81696 253.115086 
L 196.155259 253.671172 
L 196.268025 253.790334 
L 196.380792 254.227259 
L 196.606325 255.736637 
L 197.170157 255.736637 
L 197.39569 255.418873 
L 197.621222 255.418873 
L 197.959522 255.895519 
L 198.185055 256.054401 
L 198.523354 256.133842 
L 198.748887 257.960984 
L 198.861653 257.921264 
L 199.087186 257.6035 
L 199.199952 257.484338 
L 199.312719 257.563779 
L 199.651018 258.119866 
L 200.327617 258.119866 
L 200.55315 257.960984 
L 201.79358 257.960984 
L 202.019113 259.27176 
L 202.13188 259.073157 
L 202.357412 258.43763 
L 202.808478 258.43763 
L 203.146777 258.914276 
L 203.71061 258.914276 
L 204.612741 259.708685 
L 204.725507 259.708685 
L 205.063807 260.344213 
L 205.514872 260.344213 
L 205.853172 260.661977 
L 206.078705 261.138622 
L 206.417004 261.059181 
L 206.642537 261.456386 
L 207.431902 261.456386 
L 207.770201 260.820859 
L 208.785099 260.820859 
L 209.123398 259.112878 
L 209.236164 259.073157 
L 209.461697 258.755394 
L 209.574464 258.755394 
L 209.68723 258.914276 
L 209.799997 258.755394 
L 210.025529 259.232039 
L 210.138296 258.914276 
L 210.589362 259.947008 
L 210.702128 259.867567 
L 211.491493 259.867567 
L 211.717026 260.503095 
L 212.055325 260.503095 
L 212.280858 260.582536 
L 212.506391 260.503095 
L 212.619157 260.503095 
L 212.84469 260.979741 
L 214.085121 260.94002 
L 214.310654 260.661977 
L 214.648953 259.708685 
L 214.761719 259.708685 
L 214.874486 259.867567 
L 214.987252 259.788126 
L 215.325552 257.524059 
L 215.551084 256.689929 
L 215.663851 256.650208 
L 215.889384 254.227259 
L 216.00215 254.147818 
L 216.114917 253.909495 
L 216.227683 253.988936 
L 216.340449 253.710893 
L 216.678749 252.320676 
L 216.791515 252.241235 
L 217.017048 251.685148 
L 217.242581 251.764589 
L 217.355347 251.764589 
L 217.58088 252.082353 
L 217.806413 252.002912 
L 218.031946 251.526266 
L 218.257479 251.605707 
L 218.483012 251.605707 
L 218.934077 250.652416 
L 219.15961 250.652416 
L 219.385143 250.97018 
L 219.610676 250.97018 
L 219.723442 251.089341 
L 219.836209 251.407105 
L 219.948975 252.082353 
L 220.625574 252.082353 
L 220.851107 252.558999 
L 221.866004 252.558999 
L 222.091537 252.956204 
L 222.31707 253.830054 
L 222.429837 253.830054 
L 222.542603 253.988936 
L 222.768136 254.465582 
L 222.993669 254.505302 
L 223.106435 255.18055 
L 223.219202 255.10111 
L 223.557501 255.259991 
L 223.8958 255.10111 
L 224.121333 255.10111 
L 224.346866 255.577755 
L 224.459632 255.577755 
L 224.685165 256.372165 
L 224.797932 256.650208 
L 225.136231 258.278748 
L 225.47453 259.232039 
L 226.602194 260.264772 
L 228.180924 261.297504 
L 228.293691 261.297504 
L 228.519224 261.456386 
L 229.308589 261.933032 
L 229.421355 261.933032 
L 229.646888 262.091914 
L 230.661786 262.671833 
L 231.676684 263.056327 
L 235.172443 264.176445 
L 238.217136 264.840571 
L 239.795866 264.951788 
L 242.051195 265.221888 
L 249.381013 266.159291 
L 255.019334 266.850427 
L 255.357633 266.524719 
L 255.695933 265.793863 
L 256.034232 262.724264 
L 256.372531 255.021669 
L 257.274663 221.815348 
L 257.838495 198.340544 
L 258.176794 193.931571 
L 258.289561 193.137161 
L 258.740626 185.828593 
L 258.966159 178.91723 
L 259.191692 158.342021 
L 259.529991 111.471855 
L 259.868291 99.158507 
L 259.981057 98.761302 
L 260.093823 97.172483 
L 260.883188 63.80728 
L 260.995955 65.396099 
L 261.221488 61.424051 
L 261.334254 63.80728 
L 261.447021 61.424051 
L 261.672553 61.424051 
L 261.78532 63.80728 
L 262.010853 70.162557 
L 262.123619 70.559761 
L 262.236386 73.340195 
L 262.349152 73.340195 
L 262.461918 76.517833 
L 262.574685 74.929014 
L 262.800218 78.106653 
L 262.912984 79.695472 
L 263.025751 79.695472 
L 263.251283 76.517833 
L 263.476816 82.87311 
L 263.589583 84.461929 
L 263.702349 84.461929 
L 263.815116 87.639568 
L 264.040648 81.284291 
L 264.266181 90.817206 
L 264.491714 84.461929 
L 264.717247 89.228387 
L 264.94278 92.406025 
L 265.055546 89.625592 
L 265.168313 90.817206 
L 265.281079 90.817206 
L 265.393846 93.994844 
L 265.506612 92.00882 
L 265.844911 95.583664 
L 265.957678 92.406025 
L 266.183211 101.93894 
L 266.408743 105.116579 
L 266.52151 109.883036 
L 266.634276 108.294217 
L 266.972575 129.782996 
L 267.536408 149.325472 
L 268.438539 174.111052 
L 268.889605 183.604246 
L 269.002371 184.319215 
L 269.453437 189.959523 
L 269.791736 193.732969 
L 270.693868 200.803214 
L 271.934298 208.548707 
L 272.047065 208.548707 
L 272.159831 208.667869 
L 272.272598 209.025353 
L 272.385364 208.906192 
L 272.610897 207.992621 
L 272.949196 205.371069 
L 273.513028 197.268091 
L 274.189627 178.837789 
L 274.527926 159.8514 
L 274.753459 131.7293 
L 275.204525 66.587713 
L 275.542824 45.138654 
L 275.99389 35.605739 
L 276.106656 39.180583 
L 276.219423 34.414125 
L 276.332189 37.988968 
L 276.444955 36.797354 
L 276.557722 36.797354 
L 276.670488 39.180583 
L 276.783255 37.988968 
L 276.896021 41.563811 
L 277.008788 40.372197 
L 277.23432 47.521883 
L 277.347087 47.521883 
L 277.685386 58.643618 
L 277.798153 59.835232 
L 277.910919 70.956966 
L 278.023685 69.765352 
L 278.587518 90.817206 
L 278.81305 97.172483 
L 278.925817 97.172483 
L 279.15135 103.527759 
L 279.489649 103.527759 
L 279.940715 116.238313 
L 280.166248 116.238313 
L 280.39178 123.070235 
L 280.504547 123.070235 
L 280.617313 129.425512 
L 280.842846 129.425512 
L 280.955613 135.463025 
L 281.068379 135.463025 
L 281.293912 140.984172 
L 281.406678 140.86501 
L 281.632211 145.949232 
L 281.744978 147.140846 
L 281.857744 150.715689 
L 281.97051 150.715689 
L 282.083277 155.005501 
L 282.196043 155.005501 
L 282.30881 158.818667 
L 282.421576 158.818667 
L 282.534343 162.472951 
L 282.647109 162.472951 
L 282.872642 166.405279 
L 283.436474 175.819032 
L 283.774773 180.029403 
L 284.564138 187.735176 
L 284.676905 187.973499 
L 286.030102 196.394241 
L 286.142868 196.513402 
L 287.383299 202.670076 
L 287.496065 202.828958 
L 287.947131 204.258896 
L 288.510963 205.688833 
L 288.62373 205.688833 
L 288.962029 206.801006 
L 289.187562 206.801006 
L 289.413095 207.436534 
L 289.751394 207.91318 
L 289.86416 208.032341 
L 290.20246 209.065074 
L 290.315226 210.812775 
L 290.427992 209.978645 
L 290.540759 210.097806 
L 290.879058 210.931936 
L 291.44289 210.931936 
L 293.02162 216.254481 
L 293.134387 217.128331 
L 293.923752 217.128331 
L 294.93865 218.71715 
L 296.404613 221.735907 
L 296.51738 221.735907 
L 297.419511 224.436899 
L 297.645044 225.866837 
L 298.547175 233.413728 
L 298.659942 233.57261 
L 299.900372 237.544658 
L 300.125905 238.418508 
L 300.351438 239.570402 
L 301.140803 242.072792 
L 301.591869 242.70832 
L 301.817402 243.184966 
L 302.042935 243.105525 
L 302.155701 242.906922 
L 302.494 241.278383 
L 302.719533 241.119501 
L 303.170599 241.04006 
L 303.396132 240.960619 
L 303.508898 241.04006 
L 303.734431 241.278383 
L 303.847197 241.357824 
L 304.07273 241.596146 
L 304.41103 241.596146 
L 304.523796 241.437265 
L 304.749329 241.755028 
L 306.553592 241.755028 
L 307.117424 242.390556 
L 307.681256 241.119501 
L 308.583387 241.198942 
L 308.921687 241.953631 
L 309.034453 242.70832 
L 309.259986 242.70832 
L 309.372752 242.867202 
L 309.598285 243.661611 
L 311.064249 243.741052 
L 311.402548 244.058816 
L 311.515314 244.297139 
L 311.740847 245.091549 
L 311.853614 245.17099 
L 312.079147 245.409313 
L 312.191913 245.449033 
L 312.417446 246.04484 
L 312.868512 247.315896 
L 313.094044 248.348628 
L 313.319577 249.182758 
L 313.54511 249.897727 
L 313.770643 250.493534 
L 313.883409 250.731857 
L 314.221709 252.400117 
L 314.447242 252.400117 
L 314.560008 252.717881 
L 314.672774 254.584743 
L 314.785541 254.505302 
L 315.011074 253.154806 
L 315.12384 253.035645 
L 315.349373 253.353408 
L 315.462139 253.47257 
L 315.687672 254.783346 
L 316.025972 254.862787 
L 316.364271 255.379153 
L 316.928103 256.054401 
L 317.379169 256.848811 
L 317.717468 257.166574 
L 317.943001 257.64322 
L 318.2813 257.64322 
L 318.506833 257.166574 
L 319.634497 257.246015 
L 319.747264 257.444618 
L 319.86003 257.404897 
L 320.311096 258.119866 
L 320.423862 258.119866 
L 320.649395 258.278748 
L 320.987694 258.278748 
L 321.213227 258.43763 
L 322.228125 258.517071 
L 322.453658 258.914276 
L 322.679191 259.073157 
L 322.791957 259.073157 
L 323.01749 260.026449 
L 323.581322 260.026449 
L 323.694089 260.185331 
L 323.919622 260.661977 
L 324.145154 260.185331 
L 324.59622 260.185331 
L 324.821753 260.503095 
L 325.047286 260.344213 
L 325.498351 260.344213 
L 325.611118 260.542815 
L 325.723884 261.297504 
L 325.836651 260.94002 
L 325.949417 260.026449 
L 326.062184 260.185331 
L 326.287716 260.701697 
L 326.513249 260.979741 
L 326.964315 260.94002 
L 327.189848 260.820859 
L 327.528147 260.860579 
L 328.317512 261.615268 
L 328.655811 261.615268 
L 329.106877 262.091914 
L 329.33241 262.091914 
L 329.557943 261.77415 
L 331.023906 261.694709 
L 331.249439 261.615268 
L 333.392001 261.694709 
L 333.730301 261.933032 
L 334.745199 261.933032 
L 334.970731 261.77415 
L 335.083498 261.77415 
L 335.309031 260.304492 
L 335.985629 255.418873 
L 336.098396 255.418873 
L 336.323929 254.743625 
L 336.549461 253.353408 
L 336.887761 252.479558 
L 337.113294 252.400117 
L 337.451593 250.890739 
L 338.015425 249.460801 
L 338.240958 249.262199 
L 338.466491 248.428069 
L 338.917556 248.467789 
L 339.143089 248.586951 
L 339.368622 248.586951 
L 339.594155 248.904715 
L 339.706921 248.904715 
L 339.932454 249.38136 
L 340.157987 249.38136 
L 340.496286 250.016888 
L 340.609053 250.016888 
L 340.947352 250.334652 
L 341.172885 250.493534 
L 341.285651 250.572975 
L 341.511184 250.97018 
L 341.849484 251.764589 
L 342.300549 251.764589 
L 342.413316 251.883751 
L 342.638849 252.400117 
L 342.751615 252.797322 
L 342.977148 253.830054 
L 343.766513 253.869775 
L 343.992046 253.988936 
L 344.217578 254.783346 
L 344.443111 254.823066 
L 344.555878 253.671172 
L 344.894177 255.10111 
L 345.006943 255.259991 
L 345.232476 255.10111 
L 346.021841 255.18055 
L 346.247374 255.418873 
L 346.360141 255.418873 
L 346.472907 255.538035 
L 346.69844 256.054401 
L 347.262272 256.054401 
L 347.487805 256.689929 
L 347.600571 256.689929 
L 347.713338 256.848811 
L 348.164403 258.278748 
L 349.292068 258.278748 
L 349.8559 258.914276 
L 350.306966 258.914276 
L 350.532498 259.232039 
L 350.758031 259.232039 
L 350.983564 260.344213 
L 351.660163 260.344213 
L 351.885696 260.10589 
L 352.111228 259.549803 
L 352.223995 259.430642 
L 352.449528 258.159586 
L 352.675061 255.776358 
L 353.01336 255.379153 
L 353.238893 253.313688 
L 353.577192 249.897727 
L 353.915491 245.727076 
L 354.704856 242.072792 
L 354.930389 241.91391 
L 355.155922 241.91391 
L 355.268688 242.152233 
L 355.494221 243.026084 
L 355.606988 243.105525 
L 355.832521 243.661611 
L 356.058053 243.661611 
L 356.621886 245.250431 
L 356.960185 245.727076 
L 357.298484 246.640647 
L 357.411251 246.680368 
L 357.636783 246.998132 
L 357.74955 246.918691 
L 357.975083 243.939655 
L 358.313382 239.173197 
L 358.538915 237.107732 
L 359.215513 228.885593 
L 359.441046 227.257053 
L 359.666579 227.137892 
L 359.779346 227.137892 
L 359.892112 227.415935 
L 360.343178 230.553853 
L 361.132543 236.392764 
L 361.470842 238.140465 
L 362.147441 239.570402 
L 362.598506 240.20593 
L 362.824039 240.841457 
L 363.049572 241.635867 
L 363.387871 242.549438 
L 363.500638 242.549438 
L 363.613404 242.70832 
L 363.951703 243.820493 
L 364.177236 243.820493 
L 364.402769 244.257419 
L 364.741068 246.442045 
L 364.966601 246.521486 
L 365.079368 246.521486 
L 365.3049 246.203722 
L 365.868733 247.474777 
L 366.319798 249.222479 
L 366.658098 249.738845 
L 366.88363 250.17577 
L 367.672995 250.215491 
L 368.011295 252.558999 
L 369.364492 252.558999 
L 369.477258 253.869775 
L 369.590025 252.717881 
L 369.702791 252.916483 
L 369.928324 253.671172 
L 370.37939 253.750613 
L 370.604923 255.18055 
L 370.830455 255.538035 
L 371.168755 255.577755 
L 371.61982 255.498314 
L 371.845353 255.418873 
L 371.95812 255.418873 
L 372.183653 255.855799 
L 372.296419 256.292724 
L 372.521952 257.960984 
L 372.634718 257.007693 
L 372.747485 257.007693 
L 373.085784 256.411885 
L 373.875149 257.166574 
L 374.213448 257.166574 
L 374.551748 257.484338 
L 375.453879 257.484338 
L 375.566645 257.682941 
L 375.792178 259.232039 
L 375.904945 259.232039 
L 376.243244 258.755394 
L 376.468777 258.914276 
L 377.93474 258.914276 
L 378.498573 259.549803 
L 379.287938 259.589524 
L 379.51347 260.304492 
L 379.739003 260.661977 
L 380.302835 260.661977 
L 380.528368 260.820859 
L 381.656033 260.9003 
L 381.881565 261.138622 
L 382.332631 261.77415 
L 382.558164 261.77415 
L 382.783697 262.091914 
L 383.00923 261.933032 
L 384.24966 262.012473 
L 384.475193 262.409678 
L 385.490091 263.426522 
L 387.40712 263.426522 
L 387.632653 263.633069 
L 390.790113 263.633069 
L 391.128412 264.046162 
L 393.496507 264.097004 
L 393.72204 264.252708 
L 394.06034 264.149435 
L 394.285872 264.046162 
L 394.398639 264.046162 
L 394.736938 264.649913 
L 396.428435 264.54664 
L 396.653967 264.443366 
L 396.766734 264.456077 
L 396.8795 264.355981 
L 397.105033 263.839615 
L 397.781632 263.739519 
L 398.007165 262.806883 
L 398.119931 262.806883 
L 398.345464 263.22792 
L 398.570997 266.683601 
L 398.79653 265.491987 
L 399.022062 265.237776 
L 399.360362 265.190111 
L 399.473128 264.853282 
L 399.585895 263.799895 
L 399.698661 263.799895 
L 399.924194 264.252708 
L 400.03696 264.252708 
L 400.03696 264.252708 
" clip-path="url(#p989ce55d59)" style="fill: none; stroke: #1f77b4; stroke-opacity: 0.75; stroke-width: 1.5; stroke-linecap: square"/>
   </g>
   <g id="line2d_38">
    <path d="M 75.382415 273.487539 
L 78.427108 274.494018 
L 80.90797 275.103007 
L 82.712233 275.42641 
L 84.178196 275.627311 
L 84.854795 275.561127 
L 88.576087 276.229809 
L 89.027153 276.204227 
L 90.04205 276.334125 
L 90.267583 276.070628 
L 90.718649 272.904935 
L 90.944182 272.431909 
L 91.169715 272.468611 
L 91.508014 272.618657 
L 91.62078 272.485644 
L 92.184613 269.723082 
L 92.861211 265.702701 
L 92.973977 265.692696 
L 93.876109 266.487372 
L 94.101642 266.310429 
L 94.552707 266.535141 
L 94.665474 266.469745 
L 95.454839 266.977325 
L 95.905905 267.245303 
L 96.808036 267.966027 
L 98.386766 269.090683 
L 100.191029 270.275486 
L 100.416562 270.159699 
L 101.318693 270.607495 
L 101.544226 269.435886 
L 101.656992 269.488774 
L 101.769759 269.564275 
L 101.882525 269.430826 
L 101.995292 268.84377 
L 102.220825 268.900432 
L 102.67189 268.405624 
L 104.363387 269.530909 
L 104.58892 269.68204 
L 105.265518 264.369585 
L 105.491051 258.937779 
L 105.603817 258.840848 
L 106.731482 260.183067 
L 106.844248 260.245304 
L 106.957015 260.166611 
L 107.295314 260.443741 
L 107.40808 260.259052 
L 107.633613 256.92941 
L 107.859146 248.643152 
L 107.971912 248.615745 
L 108.084679 248.266828 
L 108.422978 245.006107 
L 108.535745 244.947115 
L 109.663409 246.663965 
L 112.369803 252.47903 
L 113.835767 255.180717 
L 114.061299 255.351874 
L 114.512365 254.896389 
L 114.850664 251.542164 
L 114.963431 251.74552 
L 115.076197 251.6146 
L 115.188964 250.104941 
L 115.752796 237.977916 
L 116.091095 233.759258 
L 116.316628 234.085283 
L 116.542161 233.353102 
L 117.669825 228.441383 
L 117.782592 228.633509 
L 121.61665 241.267347 
L 122.518782 243.636233 
L 122.631548 243.778493 
L 122.744314 243.477018 
L 123.082614 241.251455 
L 123.308147 241.681364 
L 124.097512 243.781742 
L 125.901774 248.264333 
L 127.367738 251.365152 
L 129.5103 255.461832 
L 131.427329 258.599553 
L 133.006059 260.852778 
L 133.118826 260.835778 
L 133.231592 259.935974 
L 133.682658 253.017103 
L 134.020957 249.494937 
L 134.24649 248.142773 
L 134.472023 248.023413 
L 134.584789 247.879159 
L 134.810322 247.262948 
L 135.035855 247.020253 
L 135.486921 246.223821 
L 135.599687 246.2706 
L 136.727351 248.657876 
L 136.952884 248.852876 
L 137.40395 249.457233 
L 137.516716 249.208116 
L 137.855016 246.714968 
L 138.193315 244.210552 
L 138.418848 243.690477 
L 138.531614 243.600259 
L 138.757147 243.995406 
L 138.98268 244.350492 
L 139.095446 244.37138 
L 139.320979 243.321034 
L 139.546512 242.431935 
L 139.772045 241.364951 
L 140.674176 243.261153 
L 141.125242 244.451191 
L 141.350775 244.169341 
L 141.689074 244.851434 
L 141.801841 244.768129 
L 142.027374 244.806373 
L 142.252906 243.213452 
L 142.816739 238.956479 
L 143.042271 238.207883 
L 143.267804 237.089887 
L 143.380571 236.961501 
L 143.944403 238.638444 
L 145.410366 242.75598 
L 147.214629 247.371795 
L 149.018892 251.38815 
L 150.823155 254.882907 
L 152.627418 257.923799 
L 154.544447 260.723242 
L 156.461476 263.138033 
L 158.491272 265.334232 
L 160.521068 267.212267 
L 162.66363 268.900296 
L 164.918958 270.40025 
L 167.39982 271.77521 
L 169.767915 272.86375 
L 169.993448 269.709491 
L 170.21898 269.271636 
L 171.459411 270.051946 
L 171.684944 269.934936 
L 172.023243 269.232725 
L 172.248776 269.175826 
L 172.925375 269.452441 
L 173.150908 269.237074 
L 173.263674 268.491134 
L 173.37644 266.962857 
L 173.71474 267.196767 
L 174.95517 268.16051 
L 175.067937 267.764645 
L 175.406236 258.445263 
L 175.631769 257.354274 
L 175.970068 257.829095 
L 176.646667 258.851358 
L 176.759433 258.535015 
L 176.8722 256.608777 
L 177.436032 230.461835 
L 177.548798 230.690099 
L 177.661565 230.639239 
L 177.999864 216.017648 
L 178.11263 216.191091 
L 179.014762 220.264724 
L 180.819025 227.801473 
L 182.623288 234.35941 
L 183.638185 237.666545 
L 183.750952 237.157875 
L 183.976485 232.183999 
L 184.314784 224.032249 
L 184.540317 222.78618 
L 184.991383 221.176595 
L 185.442448 218.123615 
L 185.555215 217.576496 
L 186.119047 210.665784 
L 186.34458 210.197714 
L 186.570113 209.492863 
L 186.795645 208.056993 
L 187.021178 205.627346 
L 187.133945 205.790733 
L 188.712675 211.527341 
L 191.193536 223.122167 
L 192.997799 230.287813 
L 194.802062 236.522866 
L 196.606325 241.948173 
L 198.410587 246.668889 
L 200.21485 250.776534 
L 202.019113 254.35072 
L 203.823376 257.460725 
L 205.740405 260.323798 
L 207.657435 262.793475 
L 207.882967 257.595529 
L 208.1085 256.252231 
L 208.221267 254.598272 
L 208.4468 249.723004 
L 208.559566 249.667944 
L 211.942559 256.214231 
L 212.168092 255.410152 
L 212.393624 255.330964 
L 212.619157 254.785807 
L 212.957457 255.217584 
L 213.070223 254.994497 
L 213.182989 255.026267 
L 213.408522 255.404937 
L 213.521289 254.978066 
L 213.859588 252.321261 
L 214.197887 252.779638 
L 214.987252 250.653992 
L 215.325552 250.680276 
L 215.663851 250.978146 
L 215.776617 250.941749 
L 216.00215 250.481019 
L 216.340449 249.505301 
L 216.565982 249.101096 
L 216.791515 249.439962 
L 217.242581 250.196393 
L 217.355347 250.212589 
L 217.468114 249.946349 
L 218.031946 246.883938 
L 218.370245 246.81852 
L 221.302172 253.171063 
L 223.106435 256.434273 
L 225.023464 259.438383 
L 226.940494 262.02972 
L 228.857523 264.264999 
L 230.887319 266.297936 
L 233.029881 268.125193 
L 235.285209 269.748864 
L 237.653304 271.175573 
L 240.134166 272.415551 
L 242.051195 273.223795 
L 242.276728 272.095341 
L 242.389494 271.92944 
L 242.84056 270.581173 
L 248.366115 273.251371 
L 251.298042 274.272417 
L 254.568268 275.169549 
L 255.019334 275.276476 
L 255.695933 264.657013 
L 255.921466 256.302101 
L 256.372531 235.136632 
L 257.951261 192.535873 
L 258.402327 181.237764 
L 259.191692 126.147635 
L 259.642758 117.249858 
L 259.868291 113.258069 
L 261.334254 72.016311 
L 261.447021 71.914897 
L 261.672553 73.046438 
L 262.123619 77.978127 
L 263.702349 95.894071 
L 264.040648 94.37238 
L 264.153415 94.674239 
L 264.378948 96.349357 
L 265.055546 104.55814 
L 267.085342 129.657019 
L 268.438539 143.863589 
L 270.130035 158.614694 
L 270.468335 160.434274 
L 272.047065 172.494152 
L 272.159831 172.283608 
L 272.949196 158.767688 
L 273.174729 150.826589 
L 273.513028 139.385804 
L 273.964094 132.803755 
L 274.302393 123.462721 
L 274.753459 111.227209 
L 275.091758 108.377201 
L 275.204525 108.501081 
L 275.542824 110.24918 
L 276.219423 113.98988 
L 276.332189 114.33138 
L 276.670488 117.166739 
L 278.587518 138.367704 
L 278.81305 137.359741 
L 279.15135 138.224965 
L 279.715182 142.643963 
L 281.97051 164.194818 
L 283.662007 178.146344 
L 285.353503 190.370614 
L 286.932233 200.30667 
L 288.62373 209.67974 
L 288.736496 209.791128 
L 288.849262 209.701081 
L 289.638627 212.866732 
L 290.653525 217.045212 
L 290.879058 217.119755 
L 291.104591 217.600279 
L 291.217357 217.509335 
L 291.78119 219.734479 
L 291.893956 218.807688 
L 292.232255 208.130621 
L 292.457788 208.900847 
L 293.472686 213.637339 
L 293.698219 214.143973 
L 297.306745 229.670161 
L 299.111007 235.985432 
L 300.91527 241.480534 
L 302.719533 246.261987 
L 303.959964 249.035811 
L 305.200395 251.59573 
L 305.764227 252.084212 
L 306.328059 252.994197 
L 306.440825 252.996266 
L 306.666358 250.609308 
L 307.004657 243.322419 
L 307.342957 240.43409 
L 307.794022 241.014133 
L 308.019555 241.504678 
L 308.245088 241.487007 
L 308.470621 240.899516 
L 308.696154 240.408223 
L 308.921687 240.878258 
L 313.319577 251.454078 
L 315.12384 254.94027 
L 317.040869 258.149658 
L 318.957899 260.918063 
L 320.874928 263.306083 
L 322.904724 265.477937 
L 324.934519 267.335155 
L 327.077081 269.004472 
L 329.33241 270.4878 
L 331.587739 271.734371 
L 331.813271 271.65138 
L 333.617534 272.479204 
L 333.730301 272.371279 
L 333.955834 270.73891 
L 334.294133 265.611262 
L 334.632432 257.457918 
L 334.857965 251.671235 
L 334.970731 251.600747 
L 335.196264 251.936968 
L 337.677126 256.242203 
L 339.481389 259.098019 
L 341.398418 261.73612 
L 343.315447 264.003532 
L 344.104812 264.847562 
L 344.217578 264.582738 
L 344.330345 264.027232 
L 344.894177 264.600551 
L 346.923973 266.584876 
L 348.953768 268.27447 
L 351.096331 269.794579 
L 351.209097 269.65642 
L 351.321863 268.238947 
L 351.660163 262.038118 
L 351.885696 259.607425 
L 352.111228 256.58715 
L 352.336761 251.435513 
L 352.449528 251.346318 
L 352.562294 251.023917 
L 352.675061 251.196377 
L 352.787827 250.169605 
L 353.238893 242.990108 
L 353.464426 241.964158 
L 353.802725 242.55502 
L 354.028258 241.043735 
L 354.141024 240.978244 
L 354.366557 241.561844 
L 354.479323 241.423408 
L 354.817623 240.375422 
L 354.930389 240.358696 
L 355.268688 241.138508 
L 355.494221 241.722551 
L 355.606988 241.715958 
L 355.832521 238.908128 
L 355.945287 238.963397 
L 357.298484 242.302564 
L 357.411251 242.166612 
L 357.975083 223.169689 
L 358.087849 223.304405 
L 358.200616 223.627741 
L 358.313382 223.55969 
L 358.538915 224.128557 
L 360.794243 232.020429 
L 360.90701 231.830487 
L 361.132543 230.016562 
L 361.245309 230.161062 
L 365.417667 243.302143 
L 368.011295 249.616336 
L 369.590025 252.837295 
L 372.070886 257.26151 
L 373.875149 259.984861 
L 375.792178 262.489227 
L 377.821974 264.779419 
L 379.85177 266.737833 
L 381.994332 268.498105 
L 384.24966 270.062254 
L 386.617755 271.436664 
L 388.083719 272.169954 
L 388.196485 271.959293 
L 392.819909 273.851237 
L 394.624172 274.414649 
L 394.849705 274.400313 
L 395.977369 274.654215 
L 396.428435 274.665251 
L 396.8795 274.049409 
L 398.683763 274.593769 
L 398.79653 273.719969 
L 399.134829 265.599485 
L 399.585895 265.982792 
L 400.03696 266.403558 
L 400.03696 266.403558 
" clip-path="url(#p989ce55d59)" style="fill: none; stroke: #ff7f0e; stroke-opacity: 0.75; stroke-width: 1.5; stroke-linecap: square"/>
   </g>
   <g id="patch_3">
    <path d="M 59.149687 288.430125 
L 59.149687 22.318125 
" style="fill: none; stroke: #000000; stroke-width: 0.8; stroke-linejoin: miter; stroke-linecap: square"/>
   </g>
   <g id="patch_4">
    <path d="M 416.269688 288.430125 
L 416.269688 22.318125 
" style="fill: none; stroke: #000000; stroke-width: 0.8; stroke-linejoin: miter; stroke-linecap: square"/>
   </g>
   <g id="patch_5">
    <path d="M 59.149687 288.430125 
L 416.269687 288.430125 
" style="fill: none; stroke: #000000; stroke-width: 0.8; stroke-linejoin: miter; stroke-linecap: square"/>
   </g>
   <g id="patch_6">
    <path d="M 59.149687 22.318125 
L 416.269687 22.318125 
" style="fill: none; stroke: #000000; stroke-width: 0.8; stroke-linejoin: miter; stroke-linecap: square"/>
   </g>
   <g id="text_21">
    <!-- Observed vs. Simulated River Flow -->
    <g transform="translate(133.06875 16.318125) scale(0.12 -0.12)">
     <defs>
      <path id="DejaVuSans-4f" d="M 2522 4238 
Q 1834 4238 1429 3725 
Q 1025 3213 1025 2328 
Q 1025 1447 1429 934 
Q 1834 422 2522 422 
Q 3209 422 3611 934 
Q 4013 1447 4013 2328 
Q 4013 3213 3611 3725 
Q 3209 4238 2522 4238 
z
M 2522 4750 
Q 3503 4750 4090 4092 
Q 4678 3434 4678 2328 
Q 4678 1225 4090 567 
Q 3503 -91 2522 -91 
Q 1538 -91 948 565 
Q 359 1222 359 2328 
Q 359 3434 948 4092 
Q 1538 4750 2522 4750 
z
" transform="scale(0.015625)"/>
      <path id="DejaVuSans-62" d="M 3116 1747 
Q 3116 2381 2855 2742 
Q 2594 3103 2138 3103 
Q 1681 3103 1420 2742 
Q 1159 2381 1159 1747 
Q 1159 1113 1420 752 
Q 1681 391 2138 391 
Q 2594 391 2855 752 
Q 3116 1113 3116 1747 
z
M 1159 2969 
Q 1341 3281 1617 3432 
Q 1894 3584 2278 3584 
Q 2916 3584 3314 3078 
Q 3713 2572 3713 1747 
Q 3713 922 3314 415 
Q 2916 -91 2278 -91 
Q 1894 -91 1617 61 
Q 1341 213 1159 525 
L 1159 0 
L 581 0 
L 581 4863 
L 1159 4863 
L 1159 2969 
z
" transform="scale(0.015625)"/>
      <path id="DejaVuSans-76" d="M 191 3500 
L 800 3500 
L 1894 563 
L 2988 3500 
L 3597 3500 
L 2284 0 
L 1503 0 
L 191 3500 
z
" transform="scale(0.015625)"/>
      <path id="DejaVuSans-64" d="M 2906 2969 
L 2906 4863 
L 3481 4863 
L 3481 0 
L 2906 0 
L 2906 525 
Q 2725 213 2448 61 
Q 2172 -91 1784 -91 
Q 1150 -91 751 415 
Q 353 922 353 1747 
Q 353 2572 751 3078 
Q 1150 3584 1784 3584 
Q 2172 3584 2448 3432 
Q 2725 3281 2906 2969 
z
M 947 1747 
Q 947 1113 1208 752 
Q 1469 391 1925 391 
Q 2381 391 2643 752 
Q 2906 1113 2906 1747 
Q 2906 2381 2643 2742 
Q 2381 3103 1925 3103 
Q 1469 3103 1208 2742 
Q 947 2381 947 1747 
z
" transform="scale(0.015625)"/>
      <path id="DejaVuSans-53" d="M 3425 4513 
L 3425 3897 
Q 3066 4069 2747 4153 
Q 2428 4238 2131 4238 
Q 1616 4238 1336 4038 
Q 1056 3838 1056 3469 
Q 1056 3159 1242 3001 
Q 1428 2844 1947 2747 
L 2328 2669 
Q 3034 2534 3370 2195 
Q 3706 1856 3706 1288 
Q 3706 609 3251 259 
Q 2797 -91 1919 -91 
Q 1588 -91 1214 -16 
Q 841 59 441 206 
L 441 856 
Q 825 641 1194 531 
Q 1563 422 1919 422 
Q 2459 422 2753 634 
Q 3047 847 3047 1241 
Q 3047 1584 2836 1778 
Q 2625 1972 2144 2069 
L 1759 2144 
Q 1053 2284 737 2584 
Q 422 2884 422 3419 
Q 422 4038 858 4394 
Q 1294 4750 2059 4750 
Q 2388 4750 2728 4690 
Q 3069 4631 3425 4513 
z
" transform="scale(0.015625)"/>
      <path id="DejaVuSans-75" d="M 544 1381 
L 544 3500 
L 1119 3500 
L 1119 1403 
Q 1119 906 1312 657 
Q 1506 409 1894 409 
Q 2359 409 2629 706 
Q 2900 1003 2900 1516 
L 2900 3500 
L 3475 3500 
L 3475 0 
L 2900 0 
L 2900 538 
Q 2691 219 2414 64 
Q 2138 -91 1772 -91 
Q 1169 -91 856 284 
Q 544 659 544 1381 
z
M 1991 3584 
L 1991 3584 
z
" transform="scale(0.015625)"/>
      <path id="DejaVuSans-6c" d="M 603 4863 
L 1178 4863 
L 1178 0 
L 603 0 
L 603 4863 
z
" transform="scale(0.015625)"/>
      <path id="DejaVuSans-74" d="M 1172 4494 
L 1172 3500 
L 2356 3500 
L 2356 3053 
L 1172 3053 
L 1172 1153 
Q 1172 725 1289 603 
Q 1406 481 1766 481 
L 2356 481 
L 2356 0 
L 1766 0 
Q 1100 0 847 248 
Q 594 497 594 1153 
L 594 3053 
L 172 3053 
L 172 3500 
L 594 3500 
L 594 4494 
L 1172 4494 
z
" transform="scale(0.015625)"/>
      <path id="DejaVuSans-52" d="M 2841 2188 
Q 3044 2119 3236 1894 
Q 3428 1669 3622 1275 
L 4263 0 
L 3584 0 
L 2988 1197 
Q 2756 1666 2539 1819 
Q 2322 1972 1947 1972 
L 1259 1972 
L 1259 0 
L 628 0 
L 628 4666 
L 2053 4666 
Q 2853 4666 3247 4331 
Q 3641 3997 3641 3322 
Q 3641 2881 3436 2590 
Q 3231 2300 2841 2188 
z
M 1259 4147 
L 1259 2491 
L 2053 2491 
Q 2509 2491 2742 2702 
Q 2975 2913 2975 3322 
Q 2975 3731 2742 3939 
Q 2509 4147 2053 4147 
L 1259 4147 
z
" transform="scale(0.015625)"/>
      <path id="DejaVuSans-46" d="M 628 4666 
L 3309 4666 
L 3309 4134 
L 1259 4134 
L 1259 2759 
L 3109 2759 
L 3109 2228 
L 1259 2228 
L 1259 0 
L 628 0 
L 628 4666 
z
" transform="scale(0.015625)"/>
      <path id="DejaVuSans-6f" d="M 1959 3097 
Q 1497 3097 1228 2736 
Q 959 2375 959 1747 
Q 959 1119 1226 758 
Q 1494 397 1959 397 
Q 2419 397 2687 759 
Q 2956 1122 2956 1747 
Q 2956 2369 2687 2733 
Q 2419 3097 1959 3097 
z
M 1959 3584 
Q 2709 3584 3137 3096 
Q 3566 2609 3566 1747 
Q 3566 888 3137 398 
Q 2709 -91 1959 -91 
Q 1206 -91 779 398 
Q 353 888 353 1747 
Q 353 2609 779 3096 
Q 1206 3584 1959 3584 
z
" transform="scale(0.015625)"/>
      <path id="DejaVuSans-77" d="M 269 3500 
L 844 3500 
L 1563 769 
L 2278 3500 
L 2956 3500 
L 3675 769 
L 4391 3500 
L 4966 3500 
L 4050 0 
L 3372 0 
L 2619 2869 
L 1863 0 
L 1184 0 
L 269 3500 
z
" transform="scale(0.015625)"/>
     </defs>
     <use xlink:href="#DejaVuSans-4f"/>
     <use xlink:href="#DejaVuSans-62" x="78.710938"/>
     <use xlink:href="#DejaVuSans-73" x="142.1875"/>
     <use xlink:href="#DejaVuSans-65" x="194.287109"/>
     <use xlink:href="#DejaVuSans-72" x="255.810547"/>
     <use xlink:href="#DejaVuSans-76" x="296.923828"/>
     <use xlink:href="#DejaVuSans-65" x="356.103516"/>
     <use xlink:href="#DejaVuSans-64" x="417.626953"/>
     <use xlink:href="#DejaVuSans-20" x="481.103516"/>
     <use xlink:href="#DejaVuSans-76" x="512.890625"/>
     <use xlink:href="#DejaVuSans-73" x="572.070312"/>
     <use xlink:href="#DejaVuSans-2e" x="624.169922"/>
     <use xlink:href="#DejaVuSans-20" x="655.957031"/>
     <use xlink:href="#DejaVuSans-53" x="687.744141"/>
     <use xlink:href="#DejaVuSans-69" x="751.220703"/>
     <use xlink:href="#DejaVuSans-6d" x="779.003906"/>
     <use xlink:href="#DejaVuSans-75" x="876.416016"/>
     <use xlink:href="#DejaVuSans-6c" x="939.794922"/>
     <use xlink:href="#DejaVuSans-61" x="967.578125"/>
     <use xlink:href="#DejaVuSans-74" x="1028.857422"/>
     <use xlink:href="#DejaVuSans-65" x="1068.066406"/>
     <use xlink:href="#DejaVuSans-64" x="1129.589844"/>
     <use xlink:href="#DejaVuSans-20" x="1193.066406"/>
     <use xlink:href="#DejaVuSans-52" x="1224.853516"/>
     <use xlink:href="#DejaVuSans-69" x="1294.335938"/>
     <use xlink:href="#DejaVuSans-76" x="1322.119141"/>
     <use xlink:href="#DejaVuSans-65" x="1381.298828"/>
     <use xlink:href="#DejaVuSans-72" x="1442.822266"/>
     <use xlink:href="#DejaVuSans-20" x="1483.935547"/>
     <use xlink:href="#DejaVuSans-46" x="1515.722656"/>
     <use xlink:href="#DejaVuSans-6c" x="1573.242188"/>
     <use xlink:href="#DejaVuSans-6f" x="1601.025391"/>
     <use xlink:href="#DejaVuSans-77" x="1662.207031"/>
    </g>
   </g>
   <g id="legend_1">
    <g id="patch_7">
     <path d="M 358.250937 59.674375 
L 409.269687 59.674375 
Q 411.269687 59.674375 411.269687 57.674375 
L 411.269687 29.318125 
Q 411.269687 27.318125 409.269687 27.318125 
L 358.250937 27.318125 
Q 356.250937 27.318125 356.250937 29.318125 
L 356.250937 57.674375 
Q 356.250937 59.674375 358.250937 59.674375 
z
" style="fill: #ffffff; opacity: 0.8; stroke: #cccccc; stroke-linejoin: miter"/>
    </g>
    <g id="line2d_39">
     <path d="M 360.250937 35.416562 
L 370.250937 35.416562 
L 380.250937 35.416562 
" style="fill: none; stroke: #1f77b4; stroke-opacity: 0.75; stroke-width: 1.5; stroke-linecap: square"/>
    </g>
    <g id="text_22">
     <!-- REF -->
     <g transform="translate(388.250937 38.916562) scale(0.1 -0.1)">
      <defs>
       <path id="DejaVuSans-45" d="M 628 4666 
L 3578 4666 
L 3578 4134 
L 1259 4134 
L 1259 2753 
L 3481 2753 
L 3481 2222 
L 1259 2222 
L 1259 531 
L 3634 531 
L 3634 0 
L 628 0 
L 628 4666 
z
" transform="scale(0.015625)"/>
      </defs>
      <use xlink:href="#DejaVuSans-52"/>
      <use xlink:href="#DejaVuSans-45" x="69.482422"/>
      <use xlink:href="#DejaVuSans-46" x="132.666016"/>
     </g>
    </g>
    <g id="line2d_40">
     <path d="M 360.250937 50.094687 
L 370.250937 50.094687 
L 380.250937 50.094687 
" style="fill: none; stroke: #ff7f0e; stroke-opacity: 0.75; stroke-width: 1.5; stroke-linecap: square"/>
    </g>
    <g id="text_23">
     <!-- SIM -->
     <g transform="translate(388.250937 53.594687) scale(0.1 -0.1)">
      <defs>
       <path id="DejaVuSans-49" d="M 628 4666 
L 1259 4666 
L 1259 0 
L 628 0 
L 628 4666 
z
" transform="scale(0.015625)"/>
       <path id="DejaVuSans-4d" d="M 628 4666 
L 1569 4666 
L 2759 1491 
L 3956 4666 
L 4897 4666 
L 4897 0 
L 4281 0 
L 4281 4097 
L 3078 897 
L 2444 897 
L 1241 4097 
L 1241 0 
L 628 0 
L 628 4666 
z
" transform="scale(0.015625)"/>
      </defs>
      <use xlink:href="#DejaVuSans-53"/>
      <use xlink:href="#DejaVuSans-49" x="63.476562"/>
      <use xlink:href="#DejaVuSans-4d" x="92.96875"/>
     </g>
    </g>
   </g>
  </g>
 </g>
 <defs>
  <clipPath id="p989ce55d59">
   <rect x="59.149687" y="22.318125" width="357.12" height="266.112"/>
  </clipPath>
 </defs>
</svg>
