<?xml version="1.0" encoding="utf-8" standalone="no"?>
<!DOCTYPE svg PUBLIC "-//W3C//DTD SVG 1.1//EN"
  "http://www.w3.org/Graphics/SVG/1.1/DTD/svg11.dtd">
<svg xmlns:xlink="http://www.w3.org/1999/xlink" width="431.318437pt" height="364.24567pt" viewBox="0 0 431.318437 364.24567" xmlns="http://www.w3.org/2000/svg" version="1.1">
 <metadata>
  <rdf:RDF xmlns:dc="http://purl.org/dc/elements/1.1/" xmlns:cc="http://creativecommons.org/ns#" xmlns:rdf="http://www.w3.org/1999/02/22-rdf-syntax-ns#">
   <cc:Work>
    <dc:type rdf:resource="http://purl.org/dc/dcmitype/StillImage"/>
    <dc:date>2025-02-01T17:20:33.645104</dc:date>
    <dc:format>image/svg+xml</dc:format>
    <dc:creator>
     <cc:Agent>
      <dc:title>Matplotlib v3.8.4, https://matplotlib.org/</dc:title>
     </cc:Agent>
    </dc:creator>
   </cc:Work>
  </rdf:RDF>
 </metadata>
 <defs>
  <style type="text/css">*{stroke-linejoin: round; stroke-linecap: butt}</style>
 </defs>
 <g id="figure_1">
  <g id="patch_1">
   <path d="M 0 364.24567 
L 431.318437 364.24567 
L 431.318437 0 
L 0 0 
z
" style="fill: #ffffff"/>
  </g>
  <g id="axes_1">
   <g id="patch_2">
    <path d="M 59.149687 288.430125 
L 416.269688 288.430125 
L 416.269688 22.318125 
L 59.149687 22.318125 
z
" style="fill: #ffffff"/>
   </g>
   <g id="matplotlib.axis_1">
    <g id="xtick_1">
     <g id="line2d_1">
      <path d="M 75.382415 288.430125 
L 75.382415 22.318125 
" clip-path="url(#pd78ac748ae)" style="fill: none; stroke: #b0b0b0; stroke-width: 0.8; stroke-linecap: square"/>
     </g>
     <g id="line2d_2">
      <defs>
       <path id="m4417ad2754" d="M 0 0 
L 0 3.5 
" style="stroke: #000000; stroke-width: 0.8"/>
      </defs>
      <g>
       <use xlink:href="#m4417ad2754" x="75.382415" y="288.430125" style="stroke: #000000; stroke-width: 0.8"/>
      </g>
     </g>
     <g id="text_1">
      <!-- 2010-11-01 -->
      <g transform="translate(56.786611 341.896984) rotate(-45) scale(0.1 -0.1)">
       <defs>
        <path id="DejaVuSans-32" d="M 1228 531 
L 3431 531 
L 3431 0 
L 469 0 
L 469 531 
Q 828 903 1448 1529 
Q 2069 2156 2228 2338 
Q 2531 2678 2651 2914 
Q 2772 3150 2772 3378 
Q 2772 3750 2511 3984 
Q 2250 4219 1831 4219 
Q 1534 4219 1204 4116 
Q 875 4013 500 3803 
L 500 4441 
Q 881 4594 1212 4672 
Q 1544 4750 1819 4750 
Q 2544 4750 2975 4387 
Q 3406 4025 3406 3419 
Q 3406 3131 3298 2873 
Q 3191 2616 2906 2266 
Q 2828 2175 2409 1742 
Q 1991 1309 1228 531 
z
" transform="scale(0.015625)"/>
        <path id="DejaVuSans-30" d="M 2034 4250 
Q 1547 4250 1301 3770 
Q 1056 3291 1056 2328 
Q 1056 1369 1301 889 
Q 1547 409 2034 409 
Q 2525 409 2770 889 
Q 3016 1369 3016 2328 
Q 3016 3291 2770 3770 
Q 2525 4250 2034 4250 
z
M 2034 4750 
Q 2819 4750 3233 4129 
Q 3647 3509 3647 2328 
Q 3647 1150 3233 529 
Q 2819 -91 2034 -91 
Q 1250 -91 836 529 
Q 422 1150 422 2328 
Q 422 3509 836 4129 
Q 1250 4750 2034 4750 
z
" transform="scale(0.015625)"/>
        <path id="DejaVuSans-31" d="M 794 531 
L 1825 531 
L 1825 4091 
L 703 3866 
L 703 4441 
L 1819 4666 
L 2450 4666 
L 2450 531 
L 3481 531 
L 3481 0 
L 794 0 
L 794 531 
z
" transform="scale(0.015625)"/>
        <path id="DejaVuSans-2d" d="M 313 2009 
L 1997 2009 
L 1997 1497 
L 313 1497 
L 313 2009 
z
" transform="scale(0.015625)"/>
       </defs>
       <use xlink:href="#DejaVuSans-32"/>
       <use xlink:href="#DejaVuSans-30" x="63.623047"/>
       <use xlink:href="#DejaVuSans-31" x="127.246094"/>
       <use xlink:href="#DejaVuSans-30" x="190.869141"/>
       <use xlink:href="#DejaVuSans-2d" x="254.492188"/>
       <use xlink:href="#DejaVuSans-31" x="290.576172"/>
       <use xlink:href="#DejaVuSans-31" x="354.199219"/>
       <use xlink:href="#DejaVuSans-2d" x="417.822266"/>
       <use xlink:href="#DejaVuSans-30" x="453.90625"/>
       <use xlink:href="#DejaVuSans-31" x="517.529297"/>
      </g>
     </g>
    </g>
    <g id="xtick_2">
     <g id="line2d_3">
      <path d="M 113.271934 288.430125 
L 113.271934 22.318125 
" clip-path="url(#pd78ac748ae)" style="fill: none; stroke: #b0b0b0; stroke-width: 0.8; stroke-linecap: square"/>
     </g>
     <g id="line2d_4">
      <g>
       <use xlink:href="#m4417ad2754" x="113.271934" y="288.430125" style="stroke: #000000; stroke-width: 0.8"/>
      </g>
     </g>
     <g id="text_2">
      <!-- 2010-11-15 -->
      <g transform="translate(94.676131 341.896984) rotate(-45) scale(0.1 -0.1)">
       <defs>
        <path id="DejaVuSans-35" d="M 691 4666 
L 3169 4666 
L 3169 4134 
L 1269 4134 
L 1269 2991 
Q 1406 3038 1543 3061 
Q 1681 3084 1819 3084 
Q 2600 3084 3056 2656 
Q 3513 2228 3513 1497 
Q 3513 744 3044 326 
Q 2575 -91 1722 -91 
Q 1428 -91 1123 -41 
Q 819 9 494 109 
L 494 744 
Q 775 591 1075 516 
Q 1375 441 1709 441 
Q 2250 441 2565 725 
Q 2881 1009 2881 1497 
Q 2881 1984 2565 2268 
Q 2250 2553 1709 2553 
Q 1456 2553 1204 2497 
Q 953 2441 691 2322 
L 691 4666 
z
" transform="scale(0.015625)"/>
       </defs>
       <use xlink:href="#DejaVuSans-32"/>
       <use xlink:href="#DejaVuSans-30" x="63.623047"/>
       <use xlink:href="#DejaVuSans-31" x="127.246094"/>
       <use xlink:href="#DejaVuSans-30" x="190.869141"/>
       <use xlink:href="#DejaVuSans-2d" x="254.492188"/>
       <use xlink:href="#DejaVuSans-31" x="290.576172"/>
       <use xlink:href="#DejaVuSans-31" x="354.199219"/>
       <use xlink:href="#DejaVuSans-2d" x="417.822266"/>
       <use xlink:href="#DejaVuSans-31" x="453.90625"/>
       <use xlink:href="#DejaVuSans-35" x="517.529297"/>
      </g>
     </g>
    </g>
    <g id="xtick_3">
     <g id="line2d_5">
      <path d="M 156.574243 288.430125 
L 156.574243 22.318125 
" clip-path="url(#pd78ac748ae)" style="fill: none; stroke: #b0b0b0; stroke-width: 0.8; stroke-linecap: square"/>
     </g>
     <g id="line2d_6">
      <g>
       <use xlink:href="#m4417ad2754" x="156.574243" y="288.430125" style="stroke: #000000; stroke-width: 0.8"/>
      </g>
     </g>
     <g id="text_3">
      <!-- 2010-12-01 -->
      <g transform="translate(137.978439 341.896984) rotate(-45) scale(0.1 -0.1)">
       <use xlink:href="#DejaVuSans-32"/>
       <use xlink:href="#DejaVuSans-30" x="63.623047"/>
       <use xlink:href="#DejaVuSans-31" x="127.246094"/>
       <use xlink:href="#DejaVuSans-30" x="190.869141"/>
       <use xlink:href="#DejaVuSans-2d" x="254.492188"/>
       <use xlink:href="#DejaVuSans-31" x="290.576172"/>
       <use xlink:href="#DejaVuSans-32" x="354.199219"/>
       <use xlink:href="#DejaVuSans-2d" x="417.822266"/>
       <use xlink:href="#DejaVuSans-30" x="453.90625"/>
       <use xlink:href="#DejaVuSans-31" x="517.529297"/>
      </g>
     </g>
    </g>
    <g id="xtick_4">
     <g id="line2d_7">
      <path d="M 194.463762 288.430125 
L 194.463762 22.318125 
" clip-path="url(#pd78ac748ae)" style="fill: none; stroke: #b0b0b0; stroke-width: 0.8; stroke-linecap: square"/>
     </g>
     <g id="line2d_8">
      <g>
       <use xlink:href="#m4417ad2754" x="194.463762" y="288.430125" style="stroke: #000000; stroke-width: 0.8"/>
      </g>
     </g>
     <g id="text_4">
      <!-- 2010-12-15 -->
      <g transform="translate(175.867959 341.896984) rotate(-45) scale(0.1 -0.1)">
       <use xlink:href="#DejaVuSans-32"/>
       <use xlink:href="#DejaVuSans-30" x="63.623047"/>
       <use xlink:href="#DejaVuSans-31" x="127.246094"/>
       <use xlink:href="#DejaVuSans-30" x="190.869141"/>
       <use xlink:href="#DejaVuSans-2d" x="254.492188"/>
       <use xlink:href="#DejaVuSans-31" x="290.576172"/>
       <use xlink:href="#DejaVuSans-32" x="354.199219"/>
       <use xlink:href="#DejaVuSans-2d" x="417.822266"/>
       <use xlink:href="#DejaVuSans-31" x="453.90625"/>
       <use xlink:href="#DejaVuSans-35" x="517.529297"/>
      </g>
     </g>
    </g>
    <g id="xtick_5">
     <g id="line2d_9">
      <path d="M 240.472465 288.430125 
L 240.472465 22.318125 
" clip-path="url(#pd78ac748ae)" style="fill: none; stroke: #b0b0b0; stroke-width: 0.8; stroke-linecap: square"/>
     </g>
     <g id="line2d_10">
      <g>
       <use xlink:href="#m4417ad2754" x="240.472465" y="288.430125" style="stroke: #000000; stroke-width: 0.8"/>
      </g>
     </g>
     <g id="text_5">
      <!-- 2011-01-01 -->
      <g transform="translate(221.876661 341.896984) rotate(-45) scale(0.1 -0.1)">
       <use xlink:href="#DejaVuSans-32"/>
       <use xlink:href="#DejaVuSans-30" x="63.623047"/>
       <use xlink:href="#DejaVuSans-31" x="127.246094"/>
       <use xlink:href="#DejaVuSans-31" x="190.869141"/>
       <use xlink:href="#DejaVuSans-2d" x="254.492188"/>
       <use xlink:href="#DejaVuSans-30" x="290.576172"/>
       <use xlink:href="#DejaVuSans-31" x="354.199219"/>
       <use xlink:href="#DejaVuSans-2d" x="417.822266"/>
       <use xlink:href="#DejaVuSans-30" x="453.90625"/>
       <use xlink:href="#DejaVuSans-31" x="517.529297"/>
      </g>
     </g>
    </g>
    <g id="xtick_6">
     <g id="line2d_11">
      <path d="M 278.361985 288.430125 
L 278.361985 22.318125 
" clip-path="url(#pd78ac748ae)" style="fill: none; stroke: #b0b0b0; stroke-width: 0.8; stroke-linecap: square"/>
     </g>
     <g id="line2d_12">
      <g>
       <use xlink:href="#m4417ad2754" x="278.361985" y="288.430125" style="stroke: #000000; stroke-width: 0.8"/>
      </g>
     </g>
     <g id="text_6">
      <!-- 2011-01-15 -->
      <g transform="translate(259.766181 341.896984) rotate(-45) scale(0.1 -0.1)">
       <use xlink:href="#DejaVuSans-32"/>
       <use xlink:href="#DejaVuSans-30" x="63.623047"/>
       <use xlink:href="#DejaVuSans-31" x="127.246094"/>
       <use xlink:href="#DejaVuSans-31" x="190.869141"/>
       <use xlink:href="#DejaVuSans-2d" x="254.492188"/>
       <use xlink:href="#DejaVuSans-30" x="290.576172"/>
       <use xlink:href="#DejaVuSans-31" x="354.199219"/>
       <use xlink:href="#DejaVuSans-2d" x="417.822266"/>
       <use xlink:href="#DejaVuSans-31" x="453.90625"/>
       <use xlink:href="#DejaVuSans-35" x="517.529297"/>
      </g>
     </g>
    </g>
    <g id="xtick_7">
     <g id="line2d_13">
      <path d="M 324.370687 288.430125 
L 324.370687 22.318125 
" clip-path="url(#pd78ac748ae)" style="fill: none; stroke: #b0b0b0; stroke-width: 0.8; stroke-linecap: square"/>
     </g>
     <g id="line2d_14">
      <g>
       <use xlink:href="#m4417ad2754" x="324.370687" y="288.430125" style="stroke: #000000; stroke-width: 0.8"/>
      </g>
     </g>
     <g id="text_7">
      <!-- 2011-02-01 -->
      <g transform="translate(305.774884 341.896984) rotate(-45) scale(0.1 -0.1)">
       <use xlink:href="#DejaVuSans-32"/>
       <use xlink:href="#DejaVuSans-30" x="63.623047"/>
       <use xlink:href="#DejaVuSans-31" x="127.246094"/>
       <use xlink:href="#DejaVuSans-31" x="190.869141"/>
       <use xlink:href="#DejaVuSans-2d" x="254.492188"/>
       <use xlink:href="#DejaVuSans-30" x="290.576172"/>
       <use xlink:href="#DejaVuSans-32" x="354.199219"/>
       <use xlink:href="#DejaVuSans-2d" x="417.822266"/>
       <use xlink:href="#DejaVuSans-30" x="453.90625"/>
       <use xlink:href="#DejaVuSans-31" x="517.529297"/>
      </g>
     </g>
    </g>
    <g id="xtick_8">
     <g id="line2d_15">
      <path d="M 362.260207 288.430125 
L 362.260207 22.318125 
" clip-path="url(#pd78ac748ae)" style="fill: none; stroke: #b0b0b0; stroke-width: 0.8; stroke-linecap: square"/>
     </g>
     <g id="line2d_16">
      <g>
       <use xlink:href="#m4417ad2754" x="362.260207" y="288.430125" style="stroke: #000000; stroke-width: 0.8"/>
      </g>
     </g>
     <g id="text_8">
      <!-- 2011-02-15 -->
      <g transform="translate(343.664403 341.896984) rotate(-45) scale(0.1 -0.1)">
       <use xlink:href="#DejaVuSans-32"/>
       <use xlink:href="#DejaVuSans-30" x="63.623047"/>
       <use xlink:href="#DejaVuSans-31" x="127.246094"/>
       <use xlink:href="#DejaVuSans-31" x="190.869141"/>
       <use xlink:href="#DejaVuSans-2d" x="254.492188"/>
       <use xlink:href="#DejaVuSans-30" x="290.576172"/>
       <use xlink:href="#DejaVuSans-32" x="354.199219"/>
       <use xlink:href="#DejaVuSans-2d" x="417.822266"/>
       <use xlink:href="#DejaVuSans-31" x="453.90625"/>
       <use xlink:href="#DejaVuSans-35" x="517.529297"/>
      </g>
     </g>
    </g>
    <g id="xtick_9">
     <g id="line2d_17">
      <path d="M 400.149727 288.430125 
L 400.149727 22.318125 
" clip-path="url(#pd78ac748ae)" style="fill: none; stroke: #b0b0b0; stroke-width: 0.8; stroke-linecap: square"/>
     </g>
     <g id="line2d_18">
      <g>
       <use xlink:href="#m4417ad2754" x="400.149727" y="288.430125" style="stroke: #000000; stroke-width: 0.8"/>
      </g>
     </g>
     <g id="text_9">
      <!-- 2011-03-01 -->
      <g transform="translate(381.553923 341.896984) rotate(-45) scale(0.1 -0.1)">
       <defs>
        <path id="DejaVuSans-33" d="M 2597 2516 
Q 3050 2419 3304 2112 
Q 3559 1806 3559 1356 
Q 3559 666 3084 287 
Q 2609 -91 1734 -91 
Q 1441 -91 1130 -33 
Q 819 25 488 141 
L 488 750 
Q 750 597 1062 519 
Q 1375 441 1716 441 
Q 2309 441 2620 675 
Q 2931 909 2931 1356 
Q 2931 1769 2642 2001 
Q 2353 2234 1838 2234 
L 1294 2234 
L 1294 2753 
L 1863 2753 
Q 2328 2753 2575 2939 
Q 2822 3125 2822 3475 
Q 2822 3834 2567 4026 
Q 2313 4219 1838 4219 
Q 1578 4219 1281 4162 
Q 984 4106 628 3988 
L 628 4550 
Q 988 4650 1302 4700 
Q 1616 4750 1894 4750 
Q 2613 4750 3031 4423 
Q 3450 4097 3450 3541 
Q 3450 3153 3228 2886 
Q 3006 2619 2597 2516 
z
" transform="scale(0.015625)"/>
       </defs>
       <use xlink:href="#DejaVuSans-32"/>
       <use xlink:href="#DejaVuSans-30" x="63.623047"/>
       <use xlink:href="#DejaVuSans-31" x="127.246094"/>
       <use xlink:href="#DejaVuSans-31" x="190.869141"/>
       <use xlink:href="#DejaVuSans-2d" x="254.492188"/>
       <use xlink:href="#DejaVuSans-30" x="290.576172"/>
       <use xlink:href="#DejaVuSans-33" x="354.199219"/>
       <use xlink:href="#DejaVuSans-2d" x="417.822266"/>
       <use xlink:href="#DejaVuSans-30" x="453.90625"/>
       <use xlink:href="#DejaVuSans-31" x="517.529297"/>
      </g>
     </g>
    </g>
    <g id="text_10">
     <!-- Time [hr] -->
     <g transform="translate(214.76125 354.965983) scale(0.1 -0.1)">
      <defs>
       <path id="DejaVuSans-54" d="M -19 4666 
L 3928 4666 
L 3928 4134 
L 2272 4134 
L 2272 0 
L 1638 0 
L 1638 4134 
L -19 4134 
L -19 4666 
z
" transform="scale(0.015625)"/>
       <path id="DejaVuSans-69" d="M 603 3500 
L 1178 3500 
L 1178 0 
L 603 0 
L 603 3500 
z
M 603 4863 
L 1178 4863 
L 1178 4134 
L 603 4134 
L 603 4863 
z
" transform="scale(0.015625)"/>
       <path id="DejaVuSans-6d" d="M 3328 2828 
Q 3544 3216 3844 3400 
Q 4144 3584 4550 3584 
Q 5097 3584 5394 3201 
Q 5691 2819 5691 2113 
L 5691 0 
L 5113 0 
L 5113 2094 
Q 5113 2597 4934 2840 
Q 4756 3084 4391 3084 
Q 3944 3084 3684 2787 
Q 3425 2491 3425 1978 
L 3425 0 
L 2847 0 
L 2847 2094 
Q 2847 2600 2669 2842 
Q 2491 3084 2119 3084 
Q 1678 3084 1418 2786 
Q 1159 2488 1159 1978 
L 1159 0 
L 581 0 
L 581 3500 
L 1159 3500 
L 1159 2956 
Q 1356 3278 1631 3431 
Q 1906 3584 2284 3584 
Q 2666 3584 2933 3390 
Q 3200 3197 3328 2828 
z
" transform="scale(0.015625)"/>
       <path id="DejaVuSans-65" d="M 3597 1894 
L 3597 1613 
L 953 1613 
Q 991 1019 1311 708 
Q 1631 397 2203 397 
Q 2534 397 2845 478 
Q 3156 559 3463 722 
L 3463 178 
Q 3153 47 2828 -22 
Q 2503 -91 2169 -91 
Q 1331 -91 842 396 
Q 353 884 353 1716 
Q 353 2575 817 3079 
Q 1281 3584 2069 3584 
Q 2775 3584 3186 3129 
Q 3597 2675 3597 1894 
z
M 3022 2063 
Q 3016 2534 2758 2815 
Q 2500 3097 2075 3097 
Q 1594 3097 1305 2825 
Q 1016 2553 972 2059 
L 3022 2063 
z
" transform="scale(0.015625)"/>
       <path id="DejaVuSans-20" transform="scale(0.015625)"/>
       <path id="DejaVuSans-5b" d="M 550 4863 
L 1875 4863 
L 1875 4416 
L 1125 4416 
L 1125 -397 
L 1875 -397 
L 1875 -844 
L 550 -844 
L 550 4863 
z
" transform="scale(0.015625)"/>
       <path id="DejaVuSans-68" d="M 3513 2113 
L 3513 0 
L 2938 0 
L 2938 2094 
Q 2938 2591 2744 2837 
Q 2550 3084 2163 3084 
Q 1697 3084 1428 2787 
Q 1159 2491 1159 1978 
L 1159 0 
L 581 0 
L 581 4863 
L 1159 4863 
L 1159 2956 
Q 1366 3272 1645 3428 
Q 1925 3584 2291 3584 
Q 2894 3584 3203 3211 
Q 3513 2838 3513 2113 
z
" transform="scale(0.015625)"/>
       <path id="DejaVuSans-72" d="M 2631 2963 
Q 2534 3019 2420 3045 
Q 2306 3072 2169 3072 
Q 1681 3072 1420 2755 
Q 1159 2438 1159 1844 
L 1159 0 
L 581 0 
L 581 3500 
L 1159 3500 
L 1159 2956 
Q 1341 3275 1631 3429 
Q 1922 3584 2338 3584 
Q 2397 3584 2469 3576 
Q 2541 3569 2628 3553 
L 2631 2963 
z
" transform="scale(0.015625)"/>
       <path id="DejaVuSans-5d" d="M 1947 4863 
L 1947 -844 
L 622 -844 
L 622 -397 
L 1369 -397 
L 1369 4416 
L 622 4416 
L 622 4863 
L 1947 4863 
z
" transform="scale(0.015625)"/>
      </defs>
      <use xlink:href="#DejaVuSans-54"/>
      <use xlink:href="#DejaVuSans-69" x="57.958984"/>
      <use xlink:href="#DejaVuSans-6d" x="85.742188"/>
      <use xlink:href="#DejaVuSans-65" x="183.154297"/>
      <use xlink:href="#DejaVuSans-20" x="244.677734"/>
      <use xlink:href="#DejaVuSans-5b" x="276.464844"/>
      <use xlink:href="#DejaVuSans-68" x="315.478516"/>
      <use xlink:href="#DejaVuSans-72" x="378.857422"/>
      <use xlink:href="#DejaVuSans-5d" x="419.970703"/>
     </g>
    </g>
   </g>
   <g id="matplotlib.axis_2">
    <g id="ytick_1">
     <g id="line2d_19">
      <path d="M 59.149687 279.489612 
L 416.269688 279.489612 
" clip-path="url(#pd78ac748ae)" style="fill: none; stroke: #b0b0b0; stroke-width: 0.8; stroke-linecap: square"/>
     </g>
     <g id="line2d_20">
      <defs>
       <path id="m8f3c341e22" d="M 0 0 
L -3.5 0 
" style="stroke: #000000; stroke-width: 0.8"/>
      </defs>
      <g>
       <use xlink:href="#m8f3c341e22" x="59.149687" y="279.489612" style="stroke: #000000; stroke-width: 0.8"/>
      </g>
     </g>
     <g id="text_11">
      <!-- 0 -->
      <g transform="translate(45.787188 283.28883) scale(0.1 -0.1)">
       <use xlink:href="#DejaVuSans-30"/>
      </g>
     </g>
    </g>
    <g id="ytick_2">
     <g id="line2d_21">
      <path d="M 59.149687 247.557952 
L 416.269688 247.557952 
" clip-path="url(#pd78ac748ae)" style="fill: none; stroke: #b0b0b0; stroke-width: 0.8; stroke-linecap: square"/>
     </g>
     <g id="line2d_22">
      <g>
       <use xlink:href="#m8f3c341e22" x="59.149687" y="247.557952" style="stroke: #000000; stroke-width: 0.8"/>
      </g>
     </g>
     <g id="text_12">
      <!-- 20 -->
      <g transform="translate(39.424687 251.357171) scale(0.1 -0.1)">
       <use xlink:href="#DejaVuSans-32"/>
       <use xlink:href="#DejaVuSans-30" x="63.623047"/>
      </g>
     </g>
    </g>
    <g id="ytick_3">
     <g id="line2d_23">
      <path d="M 59.149687 215.626293 
L 416.269688 215.626293 
" clip-path="url(#pd78ac748ae)" style="fill: none; stroke: #b0b0b0; stroke-width: 0.8; stroke-linecap: square"/>
     </g>
     <g id="line2d_24">
      <g>
       <use xlink:href="#m8f3c341e22" x="59.149687" y="215.626293" style="stroke: #000000; stroke-width: 0.8"/>
      </g>
     </g>
     <g id="text_13">
      <!-- 40 -->
      <g transform="translate(39.424687 219.425511) scale(0.1 -0.1)">
       <defs>
        <path id="DejaVuSans-34" d="M 2419 4116 
L 825 1625 
L 2419 1625 
L 2419 4116 
z
M 2253 4666 
L 3047 4666 
L 3047 1625 
L 3713 1625 
L 3713 1100 
L 3047 1100 
L 3047 0 
L 2419 0 
L 2419 1100 
L 313 1100 
L 313 1709 
L 2253 4666 
z
" transform="scale(0.015625)"/>
       </defs>
       <use xlink:href="#DejaVuSans-34"/>
       <use xlink:href="#DejaVuSans-30" x="63.623047"/>
      </g>
     </g>
    </g>
    <g id="ytick_4">
     <g id="line2d_25">
      <path d="M 59.149687 183.694633 
L 416.269688 183.694633 
" clip-path="url(#pd78ac748ae)" style="fill: none; stroke: #b0b0b0; stroke-width: 0.8; stroke-linecap: square"/>
     </g>
     <g id="line2d_26">
      <g>
       <use xlink:href="#m8f3c341e22" x="59.149687" y="183.694633" style="stroke: #000000; stroke-width: 0.8"/>
      </g>
     </g>
     <g id="text_14">
      <!-- 60 -->
      <g transform="translate(39.424687 187.493852) scale(0.1 -0.1)">
       <defs>
        <path id="DejaVuSans-36" d="M 2113 2584 
Q 1688 2584 1439 2293 
Q 1191 2003 1191 1497 
Q 1191 994 1439 701 
Q 1688 409 2113 409 
Q 2538 409 2786 701 
Q 3034 994 3034 1497 
Q 3034 2003 2786 2293 
Q 2538 2584 2113 2584 
z
M 3366 4563 
L 3366 3988 
Q 3128 4100 2886 4159 
Q 2644 4219 2406 4219 
Q 1781 4219 1451 3797 
Q 1122 3375 1075 2522 
Q 1259 2794 1537 2939 
Q 1816 3084 2150 3084 
Q 2853 3084 3261 2657 
Q 3669 2231 3669 1497 
Q 3669 778 3244 343 
Q 2819 -91 2113 -91 
Q 1303 -91 875 529 
Q 447 1150 447 2328 
Q 447 3434 972 4092 
Q 1497 4750 2381 4750 
Q 2619 4750 2861 4703 
Q 3103 4656 3366 4563 
z
" transform="scale(0.015625)"/>
       </defs>
       <use xlink:href="#DejaVuSans-36"/>
       <use xlink:href="#DejaVuSans-30" x="63.623047"/>
      </g>
     </g>
    </g>
    <g id="ytick_5">
     <g id="line2d_27">
      <path d="M 59.149687 151.762974 
L 416.269688 151.762974 
" clip-path="url(#pd78ac748ae)" style="fill: none; stroke: #b0b0b0; stroke-width: 0.8; stroke-linecap: square"/>
     </g>
     <g id="line2d_28">
      <g>
       <use xlink:href="#m8f3c341e22" x="59.149687" y="151.762974" style="stroke: #000000; stroke-width: 0.8"/>
      </g>
     </g>
     <g id="text_15">
      <!-- 80 -->
      <g transform="translate(39.424687 155.562192) scale(0.1 -0.1)">
       <defs>
        <path id="DejaVuSans-38" d="M 2034 2216 
Q 1584 2216 1326 1975 
Q 1069 1734 1069 1313 
Q 1069 891 1326 650 
Q 1584 409 2034 409 
Q 2484 409 2743 651 
Q 3003 894 3003 1313 
Q 3003 1734 2745 1975 
Q 2488 2216 2034 2216 
z
M 1403 2484 
Q 997 2584 770 2862 
Q 544 3141 544 3541 
Q 544 4100 942 4425 
Q 1341 4750 2034 4750 
Q 2731 4750 3128 4425 
Q 3525 4100 3525 3541 
Q 3525 3141 3298 2862 
Q 3072 2584 2669 2484 
Q 3125 2378 3379 2068 
Q 3634 1759 3634 1313 
Q 3634 634 3220 271 
Q 2806 -91 2034 -91 
Q 1263 -91 848 271 
Q 434 634 434 1313 
Q 434 1759 690 2068 
Q 947 2378 1403 2484 
z
M 1172 3481 
Q 1172 3119 1398 2916 
Q 1625 2713 2034 2713 
Q 2441 2713 2670 2916 
Q 2900 3119 2900 3481 
Q 2900 3844 2670 4047 
Q 2441 4250 2034 4250 
Q 1625 4250 1398 4047 
Q 1172 3844 1172 3481 
z
" transform="scale(0.015625)"/>
       </defs>
       <use xlink:href="#DejaVuSans-38"/>
       <use xlink:href="#DejaVuSans-30" x="63.623047"/>
      </g>
     </g>
    </g>
    <g id="ytick_6">
     <g id="line2d_29">
      <path d="M 59.149687 119.831314 
L 416.269688 119.831314 
" clip-path="url(#pd78ac748ae)" style="fill: none; stroke: #b0b0b0; stroke-width: 0.8; stroke-linecap: square"/>
     </g>
     <g id="line2d_30">
      <g>
       <use xlink:href="#m8f3c341e22" x="59.149687" y="119.831314" style="stroke: #000000; stroke-width: 0.8"/>
      </g>
     </g>
     <g id="text_16">
      <!-- 100 -->
      <g transform="translate(33.062187 123.630533) scale(0.1 -0.1)">
       <use xlink:href="#DejaVuSans-31"/>
       <use xlink:href="#DejaVuSans-30" x="63.623047"/>
       <use xlink:href="#DejaVuSans-30" x="127.246094"/>
      </g>
     </g>
    </g>
    <g id="ytick_7">
     <g id="line2d_31">
      <path d="M 59.149687 87.899655 
L 416.269688 87.899655 
" clip-path="url(#pd78ac748ae)" style="fill: none; stroke: #b0b0b0; stroke-width: 0.8; stroke-linecap: square"/>
     </g>
     <g id="line2d_32">
      <g>
       <use xlink:href="#m8f3c341e22" x="59.149687" y="87.899655" style="stroke: #000000; stroke-width: 0.8"/>
      </g>
     </g>
     <g id="text_17">
      <!-- 120 -->
      <g transform="translate(33.062187 91.698873) scale(0.1 -0.1)">
       <use xlink:href="#DejaVuSans-31"/>
       <use xlink:href="#DejaVuSans-32" x="63.623047"/>
       <use xlink:href="#DejaVuSans-30" x="127.246094"/>
      </g>
     </g>
    </g>
    <g id="ytick_8">
     <g id="line2d_33">
      <path d="M 59.149687 55.967995 
L 416.269688 55.967995 
" clip-path="url(#pd78ac748ae)" style="fill: none; stroke: #b0b0b0; stroke-width: 0.8; stroke-linecap: square"/>
     </g>
     <g id="line2d_34">
      <g>
       <use xlink:href="#m8f3c341e22" x="59.149687" y="55.967995" style="stroke: #000000; stroke-width: 0.8"/>
      </g>
     </g>
     <g id="text_18">
      <!-- 140 -->
      <g transform="translate(33.062187 59.767214) scale(0.1 -0.1)">
       <use xlink:href="#DejaVuSans-31"/>
       <use xlink:href="#DejaVuSans-34" x="63.623047"/>
       <use xlink:href="#DejaVuSans-30" x="127.246094"/>
      </g>
     </g>
    </g>
    <g id="ytick_9">
     <g id="line2d_35">
      <path d="M 59.149687 24.036336 
L 416.269688 24.036336 
" clip-path="url(#pd78ac748ae)" style="fill: none; stroke: #b0b0b0; stroke-width: 0.8; stroke-linecap: square"/>
     </g>
     <g id="line2d_36">
      <g>
       <use xlink:href="#m8f3c341e22" x="59.149687" y="24.036336" style="stroke: #000000; stroke-width: 0.8"/>
      </g>
     </g>
     <g id="text_19">
      <!-- 160 -->
      <g transform="translate(33.062187 27.835554) scale(0.1 -0.1)">
       <use xlink:href="#DejaVuSans-31"/>
       <use xlink:href="#DejaVuSans-36" x="63.623047"/>
       <use xlink:href="#DejaVuSans-30" x="127.246094"/>
      </g>
     </g>
    </g>
    <g id="text_20">
     <!-- Discharge -->
     <g transform="translate(14.798437 180.418656) rotate(-90) scale(0.1 -0.1)">
      <defs>
       <path id="DejaVuSans-44" d="M 1259 4147 
L 1259 519 
L 2022 519 
Q 2988 519 3436 956 
Q 3884 1394 3884 2338 
Q 3884 3275 3436 3711 
Q 2988 4147 2022 4147 
L 1259 4147 
z
M 628 4666 
L 1925 4666 
Q 3281 4666 3915 4102 
Q 4550 3538 4550 2338 
Q 4550 1131 3912 565 
Q 3275 0 1925 0 
L 628 0 
L 628 4666 
z
" transform="scale(0.015625)"/>
       <path id="DejaVuSans-73" d="M 2834 3397 
L 2834 2853 
Q 2591 2978 2328 3040 
Q 2066 3103 1784 3103 
Q 1356 3103 1142 2972 
Q 928 2841 928 2578 
Q 928 2378 1081 2264 
Q 1234 2150 1697 2047 
L 1894 2003 
Q 2506 1872 2764 1633 
Q 3022 1394 3022 966 
Q 3022 478 2636 193 
Q 2250 -91 1575 -91 
Q 1294 -91 989 -36 
Q 684 19 347 128 
L 347 722 
Q 666 556 975 473 
Q 1284 391 1588 391 
Q 1994 391 2212 530 
Q 2431 669 2431 922 
Q 2431 1156 2273 1281 
Q 2116 1406 1581 1522 
L 1381 1569 
Q 847 1681 609 1914 
Q 372 2147 372 2553 
Q 372 3047 722 3315 
Q 1072 3584 1716 3584 
Q 2034 3584 2315 3537 
Q 2597 3491 2834 3397 
z
" transform="scale(0.015625)"/>
       <path id="DejaVuSans-63" d="M 3122 3366 
L 3122 2828 
Q 2878 2963 2633 3030 
Q 2388 3097 2138 3097 
Q 1578 3097 1268 2742 
Q 959 2388 959 1747 
Q 959 1106 1268 751 
Q 1578 397 2138 397 
Q 2388 397 2633 464 
Q 2878 531 3122 666 
L 3122 134 
Q 2881 22 2623 -34 
Q 2366 -91 2075 -91 
Q 1284 -91 818 406 
Q 353 903 353 1747 
Q 353 2603 823 3093 
Q 1294 3584 2113 3584 
Q 2378 3584 2631 3529 
Q 2884 3475 3122 3366 
z
" transform="scale(0.015625)"/>
       <path id="DejaVuSans-61" d="M 2194 1759 
Q 1497 1759 1228 1600 
Q 959 1441 959 1056 
Q 959 750 1161 570 
Q 1363 391 1709 391 
Q 2188 391 2477 730 
Q 2766 1069 2766 1631 
L 2766 1759 
L 2194 1759 
z
M 3341 1997 
L 3341 0 
L 2766 0 
L 2766 531 
Q 2569 213 2275 61 
Q 1981 -91 1556 -91 
Q 1019 -91 701 211 
Q 384 513 384 1019 
Q 384 1609 779 1909 
Q 1175 2209 1959 2209 
L 2766 2209 
L 2766 2266 
Q 2766 2663 2505 2880 
Q 2244 3097 1772 3097 
Q 1472 3097 1187 3025 
Q 903 2953 641 2809 
L 641 3341 
Q 956 3463 1253 3523 
Q 1550 3584 1831 3584 
Q 2591 3584 2966 3190 
Q 3341 2797 3341 1997 
z
" transform="scale(0.015625)"/>
       <path id="DejaVuSans-67" d="M 2906 1791 
Q 2906 2416 2648 2759 
Q 2391 3103 1925 3103 
Q 1463 3103 1205 2759 
Q 947 2416 947 1791 
Q 947 1169 1205 825 
Q 1463 481 1925 481 
Q 2391 481 2648 825 
Q 2906 1169 2906 1791 
z
M 3481 434 
Q 3481 -459 3084 -895 
Q 2688 -1331 1869 -1331 
Q 1566 -1331 1297 -1286 
Q 1028 -1241 775 -1147 
L 775 -588 
Q 1028 -725 1275 -790 
Q 1522 -856 1778 -856 
Q 2344 -856 2625 -561 
Q 2906 -266 2906 331 
L 2906 616 
Q 2728 306 2450 153 
Q 2172 0 1784 0 
Q 1141 0 747 490 
Q 353 981 353 1791 
Q 353 2603 747 3093 
Q 1141 3584 1784 3584 
Q 2172 3584 2450 3431 
Q 2728 3278 2906 2969 
L 2906 3500 
L 3481 3500 
L 3481 434 
z
" transform="scale(0.015625)"/>
      </defs>
      <use xlink:href="#DejaVuSans-44"/>
      <use xlink:href="#DejaVuSans-69" x="77.001953"/>
      <use xlink:href="#DejaVuSans-73" x="104.785156"/>
      <use xlink:href="#DejaVuSans-63" x="156.884766"/>
      <use xlink:href="#DejaVuSans-68" x="211.865234"/>
      <use xlink:href="#DejaVuSans-61" x="275.244141"/>
      <use xlink:href="#DejaVuSans-72" x="336.523438"/>
      <use xlink:href="#DejaVuSans-67" x="375.886719"/>
      <use xlink:href="#DejaVuSans-65" x="439.363281"/>
     </g>
     <!-- [$m^3.s^{-1}$] -->
     <g transform="translate(26.9825 177.474125) rotate(-90) scale(0.1 -0.1)">
      <defs>
       <path id="DejaVuSans-Oblique-6d" d="M 5747 2113 
L 5338 0 
L 4763 0 
L 5166 2094 
Q 5191 2228 5203 2325 
Q 5216 2422 5216 2491 
Q 5216 2772 5059 2928 
Q 4903 3084 4622 3084 
Q 4203 3084 3875 2770 
Q 3547 2456 3450 1953 
L 3066 0 
L 2491 0 
L 2900 2094 
Q 2925 2209 2937 2307 
Q 2950 2406 2950 2484 
Q 2950 2769 2794 2926 
Q 2638 3084 2363 3084 
Q 1938 3084 1609 2770 
Q 1281 2456 1184 1953 
L 800 0 
L 225 0 
L 909 3500 
L 1484 3500 
L 1375 2956 
Q 1609 3263 1923 3423 
Q 2238 3584 2597 3584 
Q 2978 3584 3223 3384 
Q 3469 3184 3519 2828 
Q 3781 3197 4126 3390 
Q 4472 3584 4856 3584 
Q 5306 3584 5551 3325 
Q 5797 3066 5797 2591 
Q 5797 2488 5784 2364 
Q 5772 2241 5747 2113 
z
" transform="scale(0.015625)"/>
       <path id="DejaVuSans-2e" d="M 684 794 
L 1344 794 
L 1344 0 
L 684 0 
L 684 794 
z
" transform="scale(0.015625)"/>
       <path id="DejaVuSans-Oblique-73" d="M 3200 3397 
L 3091 2853 
Q 2863 2978 2609 3040 
Q 2356 3103 2088 3103 
Q 1634 3103 1373 2948 
Q 1113 2794 1113 2528 
Q 1113 2219 1719 2053 
Q 1766 2041 1788 2034 
L 1972 1978 
Q 2547 1819 2739 1644 
Q 2931 1469 2931 1166 
Q 2931 609 2489 259 
Q 2047 -91 1331 -91 
Q 1053 -91 747 -37 
Q 441 16 72 128 
L 184 722 
Q 500 559 806 475 
Q 1113 391 1394 391 
Q 1816 391 2080 572 
Q 2344 753 2344 1031 
Q 2344 1331 1650 1516 
L 1591 1531 
L 1394 1581 
Q 956 1697 753 1886 
Q 550 2075 550 2369 
Q 550 2928 970 3256 
Q 1391 3584 2113 3584 
Q 2397 3584 2667 3537 
Q 2938 3491 3200 3397 
z
" transform="scale(0.015625)"/>
       <path id="DejaVuSans-2212" d="M 678 2272 
L 4684 2272 
L 4684 1741 
L 678 1741 
L 678 2272 
z
" transform="scale(0.015625)"/>
      </defs>
      <use xlink:href="#DejaVuSans-5b" transform="translate(0 0.765625)"/>
      <use xlink:href="#DejaVuSans-Oblique-6d" transform="translate(39.013672 0.765625)"/>
      <use xlink:href="#DejaVuSans-33" transform="translate(141.075677 39.046875) scale(0.7)"/>
      <use xlink:href="#DejaVuSans-2e" transform="translate(188.346185 0.765625)"/>
      <use xlink:href="#DejaVuSans-Oblique-73" transform="translate(239.615716 0.765625)"/>
      <use xlink:href="#DejaVuSans-2212" transform="translate(296.365221 39.046875) scale(0.7)"/>
      <use xlink:href="#DejaVuSans-31" transform="translate(355.017565 39.046875) scale(0.7)"/>
      <use xlink:href="#DejaVuSans-5d" transform="translate(402.288073 0.765625)"/>
     </g>
    </g>
   </g>
   <g id="line2d_37">
    <path d="M 75.382415 272.767997 
L 76.735612 272.767997 
L 76.961145 272.927656 
L 77.186678 272.887741 
L 77.41221 272.767997 
L 78.088809 272.807912 
L 78.427108 273.047399 
L 78.539875 272.927656 
L 78.765408 273.087314 
L 78.878174 273.087314 
L 78.99094 272.96757 
L 79.216473 273.246972 
L 79.780305 273.246972 
L 80.005838 273.087314 
L 80.118605 273.087314 
L 80.344138 273.246972 
L 80.56967 273.087314 
L 81.471802 273.087314 
L 81.697335 273.446545 
L 81.810101 273.446545 
L 81.922868 273.167143 
L 82.1484 273.40663 
L 82.261167 273.40663 
L 82.4867 273.127228 
L 82.599466 272.648254 
L 82.712233 272.688168 
L 83.050532 273.047399 
L 83.163298 273.007485 
L 83.501598 273.127228 
L 83.72713 273.246972 
L 84.06543 273.047399 
L 84.403729 273.674856 
L 84.516495 273.286887 
L 84.742028 273.366716 
L 84.967561 272.927656 
L 85.080328 272.927656 
L 85.193094 272.807912 
L 85.418627 273.087314 
L 85.982459 273.087314 
L 86.207992 273.40663 
L 86.433525 273.246972 
L 86.771824 273.207058 
L 86.997357 272.927656 
L 87.22289 273.246972 
L 87.335656 273.087314 
L 87.561189 273.167143 
L 87.673955 273.087314 
L 87.786722 273.167143 
L 88.012255 272.927656 
L 88.350554 273.558306 
L 88.46332 273.286887 
L 88.576087 273.366716 
L 88.914386 272.927656 
L 89.027153 272.887741 
L 89.139919 273.087314 
L 89.365452 272.887741 
L 89.703751 273.286887 
L 89.929284 272.927656 
L 90.154817 273.286887 
L 90.493116 272.96757 
L 90.605883 273.167143 
L 90.718649 272.568424 
L 90.831415 272.648254 
L 91.056948 271.964916 
L 91.169715 270.979824 
L 91.282481 271.024529 
L 91.508014 271.315107 
L 91.62078 271.474765 
L 91.733547 271.394936 
L 91.846313 271.682321 
L 91.95908 271.43485 
L 92.071846 271.51468 
L 92.297379 271.024529 
L 92.748445 269.252322 
L 93.086744 266.716948 
L 93.312277 267.291718 
L 94.214408 267.24382 
L 94.439941 267.100128 
L 94.891007 267.148025 
L 95.342072 268.653603 
L 95.567605 269.35131 
L 95.680372 269.35131 
L 95.793138 269.15972 
L 95.905905 269.207617 
L 96.131437 269.718524 
L 96.920802 269.763228 
L 97.146335 269.894148 
L 97.259102 269.894148 
L 97.484635 270.069772 
L 97.710167 270.11767 
L 97.9357 270.392282 
L 98.048467 270.261362 
L 98.274 270.657315 
L 98.386766 270.349174 
L 98.612299 270.436986 
L 98.725065 270.436986 
L 98.950598 270.120863 
L 99.063365 270.61261 
L 99.288897 274.141059 
L 99.51443 269.894148 
L 99.627197 270.793024 
L 99.739963 270.839325 
L 99.965496 270.341191 
L 100.416562 271.139483 
L 100.642095 271.099568 
L 100.754861 270.884029 
L 100.980394 271.95374 
L 101.09316 271.913825 
L 101.43146 271.315107 
L 101.769759 271.315107 
L 102.333591 269.156527 
L 102.559124 270.025068 
L 102.897423 270.069772 
L 103.686788 270.114476 
L 103.912321 270.788234 
L 104.137854 270.700422 
L 104.363387 270.788234 
L 104.927219 270.788234 
L 105.603817 267.997407 
L 106.054883 258.414716 
L 106.393182 256.818133 
L 106.618715 256.977792 
L 106.957015 255.181636 
L 107.182547 255.540867 
L 107.40808 256.019842 
L 107.633613 256.019842 
L 107.74638 255.500952 
L 109.212343 231.991268 
L 109.437876 231.751781 
L 109.550642 231.911439 
L 110.114475 235.024776 
L 110.791073 242.728289 
L 111.580438 248.555816 
L 111.918737 249.992741 
L 112.257037 251.230093 
L 112.708102 251.230093 
L 113.271934 251.709068 
L 113.497467 251.748982 
L 113.723 251.868726 
L 113.835767 251.908641 
L 114.061299 252.507359 
L 114.286832 252.507359 
L 114.625132 252.826676 
L 115.076197 252.826676 
L 115.414497 251.948555 
L 115.640029 247.318465 
L 115.978329 237.499479 
L 116.654927 215.027574 
L 117.218759 206.246368 
L 118.120891 199.500805 
L 118.45919 202.853629 
L 119.474088 219.17869 
L 120.03792 231.352635 
L 120.376219 236.182298 
L 120.488986 236.381871 
L 121.165584 240.572902 
L 121.729417 244.284957 
L 122.293249 246.360515 
L 122.631548 247.039063 
L 122.857081 248.475987 
L 123.19538 248.515902 
L 123.308147 248.515902 
L 123.420913 248.356244 
L 123.646446 247.877269 
L 123.871979 248.356244 
L 124.210278 249.154535 
L 124.435811 250.431801 
L 124.548577 250.431801 
L 124.999643 251.230093 
L 125.112409 251.429666 
L 125.337942 252.028384 
L 125.676242 252.986334 
L 125.789008 252.986334 
L 125.901774 253.185907 
L 126.240074 256.61856 
L 126.465607 257.496681 
L 126.691139 257.616425 
L 127.593271 257.616425 
L 128.044337 258.255058 
L 128.157103 258.334887 
L 128.495402 259.213008 
L 128.608169 259.213008 
L 128.720935 259.05335 
L 129.059234 260.330616 
L 129.961366 260.330616 
L 130.299665 260.570103 
L 130.750731 262.28643 
L 131.540096 263.204465 
L 132.103928 262.406174 
L 132.442227 262.406174 
L 132.66776 262.565832 
L 132.893293 262.406174 
L 133.344359 262.486003 
L 133.569891 262.246515 
L 133.682658 262.246515 
L 133.795424 262.046943 
L 134.584789 255.141721 
L 134.810322 253.026249 
L 135.148621 252.188043 
L 136.163519 248.835218 
L 136.276286 248.835218 
L 136.501819 249.793168 
L 136.727351 250.431801 
L 136.952884 250.990605 
L 137.178417 252.347701 
L 137.40395 254.103942 
L 137.629483 254.103942 
L 138.531614 255.22155 
L 138.644381 255.141721 
L 138.98268 253.225822 
L 139.208213 253.145993 
L 139.546512 253.145993 
L 139.659279 252.986334 
L 139.772045 252.148128 
L 140.223111 245.961369 
L 140.335877 245.961369 
L 140.674176 246.83949 
L 140.899709 248.515902 
L 141.125242 248.67556 
L 141.238009 248.954962 
L 141.463541 250.59146 
L 141.576308 250.751118 
L 141.801841 251.54941 
L 141.914607 251.669153 
L 142.14014 252.108214 
L 142.365673 252.307786 
L 142.591206 252.826676 
L 143.042271 250.751118 
L 143.267804 250.59146 
L 143.944403 250.59146 
L 144.169936 251.070435 
L 144.282702 251.070435 
L 144.508235 251.230093 
L 144.846534 251.230093 
L 145.2976 251.709068 
L 145.523133 251.868726 
L 145.748666 252.547274 
L 146.312498 254.582917 
L 146.538031 254.942148 
L 146.87633 255.940013 
L 147.101863 256.259329 
L 147.327396 256.578646 
L 147.552929 257.855912 
L 147.778461 258.255058 
L 147.891228 258.414716 
L 148.116761 259.532324 
L 148.567826 259.213008 
L 148.793359 259.292837 
L 149.357191 259.691983 
L 149.582724 260.170958 
L 150.259323 260.969249 
L 150.372089 260.969249 
L 150.484856 261.088993 
L 150.710389 262.565832 
L 150.823155 262.246515 
L 150.935921 262.007028 
L 151.161454 262.166686 
L 151.61252 263.364124 
L 151.838053 263.204465 
L 152.289118 263.667474 
L 153.642316 263.49185 
L 153.867848 263.364124 
L 154.318914 263.424794 
L 154.657213 264.039478 
L 154.882746 264.753151 
L 155.333812 264.797855 
L 155.559345 264.928775 
L 155.672111 264.928775 
L 156.235943 265.722277 
L 156.34871 265.667993 
L 156.461476 264.809031 
L 156.687009 264.896843 
L 157.250841 264.880877 
L 157.92744 265.583374 
L 158.378506 265.615306 
L 159.055104 265.695135 
L 159.280637 265.774964 
L 159.618936 265.774964 
L 159.844469 265.950588 
L 160.182768 266.22999 
L 160.521068 267.068196 
L 164.580659 266.967611 
L 165.482791 266.940469 
L 165.82109 267.307683 
L 165.933856 267.307683 
L 166.159389 267.483308 
L 166.723221 267.470535 
L 167.061521 268.026146 
L 168.414718 268.082026 
L 168.640251 268.361428 
L 168.97855 268.249667 
L 169.204083 268.153872 
L 169.316849 268.153872 
L 169.429616 268.476382 
L 169.880681 267.898419 
L 169.993448 267.24382 
L 170.21898 267.384319 
L 170.895579 267.355581 
L 171.233878 267.542381 
L 171.459411 267.627 
L 171.684944 267.714812 
L 172.13601 267.611034 
L 172.812608 267.116094 
L 173.263674 267.116094 
L 173.489207 267.291718 
L 173.940273 267.515239 
L 174.165805 267.642966 
L 174.504105 267.547171 
L 174.729638 267.451376 
L 175.29347 267.339615 
L 175.857302 265.519511 
L 175.970068 264.801048 
L 176.195601 262.086857 
L 176.421134 261.927199 
L 176.5339 261.767541 
L 176.984966 260.410445 
L 177.097733 258.334887 
L 177.323265 246.799575 
L 178.225397 191.118744 
L 178.789229 182.137965 
L 179.014762 179.942663 
L 179.240295 180.182151 
L 179.353061 180.022492 
L 179.578594 182.177879 
L 179.804127 184.692497 
L 181.60839 232.78956 
L 182.059455 239.016233 
L 182.284988 239.535123 
L 182.510521 241.051876 
L 182.961587 245.003419 
L 183.299886 245.003419 
L 183.638185 245.961369 
L 183.863718 248.036927 
L 184.653083 248.67556 
L 184.878616 249.154535 
L 185.329682 246.560088 
L 185.893514 233.108876 
L 187.359478 189.921307 
L 187.472244 189.921307 
L 188.148843 184.572754 
L 188.374375 184.333266 
L 188.487142 184.333266 
L 188.599908 184.213523 
L 188.712675 184.45301 
L 188.825441 185.291216 
L 188.938208 185.291216 
L 189.389273 188.005407 
L 189.614806 191.477975 
L 189.840339 199.02183 
L 190.291405 206.725343 
L 190.629704 211.594921 
L 191.08077 220.495871 
L 191.757368 234.426057 
L 192.3212 240.2935 
L 192.885032 244.644188 
L 192.997799 245.083248 
L 193.223332 247.27855 
L 193.561631 247.877269 
L 193.674397 247.877269 
L 194.576529 252.108214 
L 195.027595 252.826676 
L 195.253127 253.066163 
L 195.591427 254.103942 
L 195.81696 254.183771 
L 196.155259 254.742575 
L 196.268025 254.862319 
L 196.380792 255.30138 
L 196.606325 256.818133 
L 197.170157 256.818133 
L 197.39569 256.498817 
L 197.621222 256.498817 
L 197.959522 256.977792 
L 198.185055 257.13745 
L 198.523354 257.217279 
L 198.748887 259.05335 
L 198.861653 259.013435 
L 199.087186 258.694118 
L 199.199952 258.574375 
L 199.312719 258.654204 
L 199.651018 259.213008 
L 200.327617 259.213008 
L 200.55315 259.05335 
L 201.79358 259.05335 
L 202.019113 260.37053 
L 202.13188 260.170958 
L 202.357412 259.532324 
L 202.808478 259.532324 
L 203.146777 260.011299 
L 203.71061 260.011299 
L 204.612741 260.809591 
L 204.725507 260.809591 
L 205.063807 261.448224 
L 205.514872 261.448224 
L 205.853172 261.767541 
L 206.078705 262.246515 
L 206.417004 262.166686 
L 206.642537 262.565832 
L 207.431902 262.565832 
L 207.770201 261.927199 
L 208.785099 261.927199 
L 209.123398 260.210872 
L 209.236164 260.170958 
L 209.461697 259.851641 
L 209.574464 259.851641 
L 209.68723 260.011299 
L 209.799997 259.851641 
L 210.025529 260.330616 
L 210.138296 260.011299 
L 210.589362 261.049078 
L 210.702128 260.969249 
L 211.491493 260.969249 
L 211.717026 261.607882 
L 212.055325 261.607882 
L 212.280858 261.687711 
L 212.506391 261.607882 
L 212.619157 261.607882 
L 212.84469 262.086857 
L 214.085121 262.046943 
L 214.310654 261.767541 
L 214.648953 260.809591 
L 214.761719 260.809591 
L 214.874486 260.969249 
L 214.987252 260.88942 
L 215.325552 258.614289 
L 215.551084 257.776083 
L 215.663851 257.736169 
L 215.889384 255.30138 
L 216.00215 255.22155 
L 216.114917 254.982063 
L 216.227683 255.061892 
L 216.340449 254.78249 
L 216.678749 253.38548 
L 216.791515 253.305651 
L 217.017048 252.746847 
L 217.242581 252.826676 
L 217.355347 252.826676 
L 217.58088 253.145993 
L 217.806413 253.066163 
L 218.031946 252.587188 
L 218.257479 252.667018 
L 218.483012 252.667018 
L 218.934077 251.709068 
L 219.15961 251.709068 
L 219.385143 252.028384 
L 219.610676 252.028384 
L 219.723442 252.148128 
L 219.836209 252.467445 
L 219.948975 253.145993 
L 220.625574 253.145993 
L 220.851107 253.624967 
L 221.866004 253.624967 
L 222.091537 254.024113 
L 222.31707 254.902234 
L 222.429837 254.902234 
L 222.542603 255.061892 
L 222.768136 255.540867 
L 222.993669 255.580782 
L 223.106435 256.259329 
L 223.219202 256.1795 
L 223.557501 256.339158 
L 223.8958 256.1795 
L 224.121333 256.1795 
L 224.346866 256.658475 
L 224.459632 256.658475 
L 224.685165 257.456767 
L 224.797932 257.736169 
L 225.136231 259.372666 
L 225.47453 260.330616 
L 226.602194 261.368395 
L 228.180924 262.406174 
L 228.293691 262.406174 
L 228.519224 262.565832 
L 229.308589 263.044807 
L 229.421355 263.044807 
L 229.646888 263.204465 
L 230.661786 263.787218 
L 231.676684 264.173591 
L 235.172443 265.299182 
L 238.217136 265.966554 
L 239.795866 266.078315 
L 241.938429 266.333768 
L 250.73421 267.467342 
L 254.455502 267.946317 
L 255.019334 267.986231 
L 255.357633 267.658932 
L 255.695933 266.924504 
L 256.034232 263.839905 
L 256.372531 256.099671 
L 257.274663 222.731087 
L 257.838495 199.141573 
L 258.176794 194.711056 
L 258.289561 193.912764 
L 258.740626 186.568482 
L 258.966159 179.623347 
L 259.191692 158.947597 
L 259.529991 111.848399 
L 259.868291 99.474881 
L 259.981057 99.075735 
L 260.093823 97.479152 
L 260.883188 63.95091 
L 260.995955 65.547493 
L 261.221488 61.556036 
L 261.334254 63.95091 
L 261.447021 61.556036 
L 261.672553 61.556036 
L 261.78532 63.95091 
L 262.010853 70.337242 
L 262.123619 70.736388 
L 262.236386 73.530408 
L 262.349152 73.530408 
L 262.461918 76.723574 
L 262.574685 75.126991 
L 262.800218 78.320157 
L 262.912984 79.91674 
L 263.025751 79.91674 
L 263.251283 76.723574 
L 263.476816 83.109906 
L 263.589583 84.706489 
L 263.702349 84.706489 
L 263.815116 87.899655 
L 264.040648 81.513323 
L 264.266181 91.092821 
L 264.491714 84.706489 
L 264.717247 89.496238 
L 264.94278 92.689404 
L 265.055546 89.895383 
L 265.168313 91.092821 
L 265.281079 91.092821 
L 265.393846 94.285987 
L 265.506612 92.290258 
L 265.844911 95.88257 
L 265.957678 92.689404 
L 266.183211 102.268901 
L 266.408743 105.462067 
L 266.52151 110.251816 
L 266.634276 108.655233 
L 266.972575 130.249018 
L 267.536408 149.886989 
L 268.438539 174.793683 
L 268.889605 184.333266 
L 269.002371 185.051729 
L 269.453437 190.719598 
L 269.791736 194.511483 
L 270.693868 201.616277 
L 271.934298 209.399619 
L 272.047065 209.399619 
L 272.159831 209.519363 
L 272.272598 209.878594 
L 272.385364 209.75885 
L 272.610897 208.840815 
L 272.949196 206.206453 
L 273.513028 198.06388 
L 274.189627 179.543517 
L 274.527926 160.464351 
L 274.753459 132.204832 
L 275.204525 66.74493 
L 275.542824 45.19106 
L 275.99389 35.611562 
L 276.106656 39.203874 
L 276.219423 34.414125 
L 276.332189 38.006437 
L 276.444955 36.808999 
L 276.557722 36.808999 
L 276.670488 39.203874 
L 276.783255 38.006437 
L 276.896021 41.598748 
L 277.008788 40.401311 
L 277.23432 47.585935 
L 277.347087 47.585935 
L 277.685386 58.762015 
L 277.798153 59.959453 
L 277.910919 71.135533 
L 278.023685 69.938096 
L 278.587518 91.092821 
L 278.81305 97.479152 
L 278.925817 97.479152 
L 279.15135 103.865484 
L 279.489649 103.865484 
L 279.940715 116.638148 
L 280.166248 116.638148 
L 280.39178 123.503455 
L 280.504547 123.503455 
L 280.617313 129.889787 
L 280.842846 129.889787 
L 280.955613 135.956802 
L 281.068379 135.956802 
L 281.293912 141.504928 
L 281.406678 141.385184 
L 281.632211 146.49425 
L 281.744978 147.691687 
L 281.857744 151.283999 
L 281.97051 151.283999 
L 282.083277 155.594773 
L 282.196043 155.594773 
L 282.30881 159.426572 
L 282.421576 159.426572 
L 282.534343 163.098713 
L 282.647109 163.098713 
L 282.872642 167.050256 
L 283.436474 176.51001 
L 283.774773 180.740955 
L 284.564138 188.484382 
L 284.676905 188.723869 
L 286.030102 197.185759 
L 286.142868 197.305503 
L 287.383299 203.492262 
L 287.496065 203.65192 
L 287.947131 205.088845 
L 288.510963 206.52577 
L 288.62373 206.52577 
L 288.962029 207.643378 
L 289.187562 207.643378 
L 289.413095 208.282011 
L 289.751394 208.760986 
L 289.86416 208.88073 
L 290.20246 209.918508 
L 290.315226 211.67475 
L 290.427992 210.836544 
L 290.540759 210.956287 
L 290.879058 211.794493 
L 291.44289 211.794493 
L 293.02162 217.143046 
L 293.134387 218.021167 
L 293.923752 218.021167 
L 294.93865 219.61775 
L 296.404613 222.651258 
L 296.51738 222.651258 
L 297.419511 225.365449 
L 297.645044 226.802373 
L 298.547175 234.386143 
L 298.659942 234.545801 
L 299.900372 238.537258 
L 300.125905 239.415379 
L 300.351438 240.572902 
L 301.140803 243.08752 
L 301.591869 243.726153 
L 301.817402 244.205128 
L 302.042935 244.125299 
L 302.155701 243.925726 
L 302.494 242.289228 
L 302.719533 242.12957 
L 303.170599 242.049741 
L 303.396132 241.969912 
L 303.508898 242.049741 
L 303.734431 242.289228 
L 303.847197 242.369057 
L 304.07273 242.608545 
L 304.41103 242.608545 
L 304.523796 242.448887 
L 304.749329 242.768203 
L 306.553592 242.768203 
L 307.117424 243.406836 
L 307.681256 242.12957 
L 308.583387 242.209399 
L 308.921687 242.967776 
L 309.034453 243.726153 
L 309.259986 243.726153 
L 309.372752 243.885811 
L 309.598285 244.684103 
L 311.064249 244.763932 
L 311.402548 245.083248 
L 311.515314 245.322736 
L 311.740847 246.121027 
L 311.853614 246.200857 
L 312.079147 246.440344 
L 312.191913 246.480259 
L 312.417446 247.078977 
L 312.868512 248.356244 
L 313.094044 249.394023 
L 313.319577 250.232229 
L 313.54511 250.950691 
L 313.770643 251.54941 
L 313.883409 251.788897 
L 314.221709 253.465309 
L 314.447242 253.465309 
L 314.560008 253.784626 
L 314.672774 255.660611 
L 314.785541 255.580782 
L 315.011074 254.223686 
L 315.12384 254.103942 
L 315.349373 254.423259 
L 315.462139 254.543003 
L 315.687672 255.860184 
L 316.025972 255.940013 
L 316.364271 256.458902 
L 316.928103 257.13745 
L 317.379169 257.935741 
L 317.717468 258.255058 
L 317.943001 258.734033 
L 318.2813 258.734033 
L 318.506833 258.255058 
L 319.634497 258.334887 
L 319.747264 258.53446 
L 319.86003 258.494545 
L 320.311096 259.213008 
L 320.423862 259.213008 
L 320.649395 259.372666 
L 320.987694 259.372666 
L 321.213227 259.532324 
L 322.228125 259.612154 
L 322.453658 260.011299 
L 322.679191 260.170958 
L 322.791957 260.170958 
L 323.01749 261.128907 
L 323.581322 261.128907 
L 323.694089 261.288566 
L 323.919622 261.767541 
L 324.145154 261.288566 
L 324.59622 261.288566 
L 324.821753 261.607882 
L 325.047286 261.448224 
L 325.498351 261.448224 
L 325.611118 261.647797 
L 325.723884 262.406174 
L 325.836651 262.046943 
L 325.949417 261.128907 
L 326.062184 261.288566 
L 326.287716 261.807455 
L 326.513249 262.086857 
L 326.964315 262.046943 
L 327.189848 261.927199 
L 327.528147 261.967113 
L 328.317512 262.72549 
L 328.655811 262.72549 
L 329.106877 263.204465 
L 329.33241 263.204465 
L 329.557943 262.885149 
L 331.023906 262.80532 
L 331.249439 262.72549 
L 333.392001 262.80532 
L 333.730301 263.044807 
L 334.745199 263.044807 
L 334.970731 262.885149 
L 335.083498 262.885149 
L 335.309031 261.408309 
L 335.985629 256.498817 
L 336.098396 256.498817 
L 336.323929 255.820269 
L 336.549461 254.423259 
L 336.887761 253.545138 
L 337.113294 253.465309 
L 337.451593 251.948555 
L 338.015425 250.511631 
L 338.240958 250.312058 
L 338.466491 249.473852 
L 338.917556 249.513766 
L 339.143089 249.63351 
L 339.368622 249.63351 
L 339.594155 249.952827 
L 339.706921 249.952827 
L 339.932454 250.431801 
L 340.157987 250.431801 
L 340.496286 251.070435 
L 340.609053 251.070435 
L 340.947352 251.389751 
L 341.172885 251.54941 
L 341.285651 251.629239 
L 341.511184 252.028384 
L 341.849484 252.826676 
L 342.300549 252.826676 
L 342.413316 252.94642 
L 342.638849 253.465309 
L 342.751615 253.864455 
L 342.977148 254.902234 
L 343.766513 254.942148 
L 343.992046 255.061892 
L 344.217578 255.860184 
L 344.443111 255.900098 
L 344.555878 254.742575 
L 344.894177 256.1795 
L 345.006943 256.339158 
L 345.232476 256.1795 
L 346.021841 256.259329 
L 346.247374 256.498817 
L 346.360141 256.498817 
L 346.472907 256.61856 
L 346.69844 257.13745 
L 347.262272 257.13745 
L 347.487805 257.776083 
L 347.600571 257.776083 
L 347.713338 257.935741 
L 348.164403 259.372666 
L 349.292068 259.372666 
L 349.8559 260.011299 
L 350.306966 260.011299 
L 350.532498 260.330616 
L 350.758031 260.330616 
L 350.983564 261.448224 
L 351.660163 261.448224 
L 351.885696 261.208737 
L 352.111228 260.649932 
L 352.223995 260.530189 
L 352.449528 259.252922 
L 352.675061 256.858048 
L 353.01336 256.458902 
L 353.238893 254.383344 
L 353.577192 250.950691 
L 353.915491 246.759661 
L 354.704856 243.08752 
L 354.930389 242.927861 
L 355.155922 242.927861 
L 355.268688 243.167349 
L 355.494221 244.04547 
L 355.606988 244.125299 
L 355.832521 244.684103 
L 356.058053 244.684103 
L 356.621886 246.280686 
L 356.960185 246.759661 
L 357.298484 247.677696 
L 357.411251 247.71761 
L 357.636783 248.036927 
L 357.74955 247.957098 
L 357.975083 244.963505 
L 358.313382 240.173756 
L 358.538915 238.098198 
L 359.215513 229.835881 
L 359.441046 228.199384 
L 359.666579 228.07964 
L 359.779346 228.07964 
L 359.892112 228.359042 
L 360.343178 231.512293 
L 361.132543 237.379736 
L 361.470842 239.135977 
L 362.147441 240.572902 
L 362.598506 241.211535 
L 362.824039 241.850168 
L 363.049572 242.648459 
L 363.387871 243.566495 
L 363.500638 243.566495 
L 363.613404 243.726153 
L 363.951703 244.843761 
L 364.177236 244.843761 
L 364.402769 245.282821 
L 364.741068 247.478123 
L 364.966601 247.557952 
L 365.079368 247.557952 
L 365.3049 247.238636 
L 365.868733 248.515902 
L 366.319798 250.272143 
L 366.658098 250.791033 
L 366.88363 251.230093 
L 367.672995 251.270008 
L 368.011295 253.624967 
L 369.364492 253.624967 
L 369.477258 254.942148 
L 369.590025 253.784626 
L 369.702791 253.984199 
L 369.928324 254.742575 
L 370.37939 254.822405 
L 370.604923 256.259329 
L 370.830455 256.61856 
L 371.168755 256.658475 
L 371.61982 256.578646 
L 371.845353 256.498817 
L 371.95812 256.498817 
L 372.183653 256.937877 
L 372.296419 257.376937 
L 372.521952 259.05335 
L 372.634718 258.0954 
L 372.747485 258.0954 
L 373.085784 257.496681 
L 373.875149 258.255058 
L 374.213448 258.255058 
L 374.551748 258.574375 
L 375.453879 258.574375 
L 375.566645 258.773947 
L 375.792178 260.330616 
L 375.904945 260.330616 
L 376.243244 259.851641 
L 376.468777 260.011299 
L 377.93474 260.011299 
L 378.498573 260.649932 
L 379.287938 260.689847 
L 379.51347 261.408309 
L 379.739003 261.767541 
L 380.302835 261.767541 
L 380.528368 261.927199 
L 381.656033 262.007028 
L 381.881565 262.246515 
L 382.332631 262.885149 
L 382.558164 262.885149 
L 382.783697 263.204465 
L 383.00923 263.044807 
L 384.24966 263.124636 
L 384.475193 263.523782 
L 385.490091 264.545595 
L 387.40712 264.545595 
L 387.632653 264.753151 
L 390.790113 264.753151 
L 391.128412 265.168262 
L 393.496507 265.219353 
L 393.72204 265.375818 
L 394.06034 265.27204 
L 394.285872 265.168262 
L 394.398639 265.168262 
L 394.736938 265.774964 
L 396.428435 265.671186 
L 396.653967 265.567408 
L 396.766734 265.580181 
L 396.8795 265.479596 
L 397.105033 264.960707 
L 397.781632 264.860122 
L 398.007165 263.922928 
L 398.119931 263.922928 
L 398.345464 264.346022 
L 398.570997 267.81859 
L 398.79653 266.621153 
L 399.022062 266.3657 
L 399.360362 266.317802 
L 399.473128 265.979326 
L 399.585895 264.920792 
L 399.698661 264.920792 
L 399.924194 265.375818 
L 400.03696 265.375818 
L 400.03696 265.375818 
" clip-path="url(#pd78ac748ae)" style="fill: none; stroke: #1f77b4; stroke-opacity: 0.75; stroke-width: 1.5; stroke-linecap: square"/>
   </g>
   <g id="line2d_38">
    <path d="M 75.382415 267.410822 
L 77.41221 269.197479 
L 79.554773 270.791409 
L 81.246269 271.818461 
L 82.4867 272.462408 
L 83.050532 272.723803 
L 84.290963 273.168255 
L 84.742028 273.204496 
L 87.22289 274.308777 
L 88.688853 274.808712 
L 89.478218 275.032743 
L 90.04205 275.193792 
L 90.154817 275.113572 
L 90.267583 274.889067 
L 90.605883 271.756725 
L 90.831415 270.794447 
L 91.056948 270.672179 
L 91.508014 270.976189 
L 91.62078 270.824953 
L 92.184613 267.642955 
L 92.861211 263.134166 
L 92.973977 263.159151 
L 93.876109 264.221022 
L 94.101642 264.0533 
L 94.439941 264.392596 
L 94.77824 264.449545 
L 95.229306 264.860848 
L 95.793138 265.271729 
L 97.710167 267.243159 
L 100.191029 269.343797 
L 100.303795 269.193388 
L 100.642095 269.41621 
L 101.318693 269.818617 
L 101.544226 268.485335 
L 101.656992 268.58276 
L 101.769759 268.675174 
L 101.882525 268.516843 
L 101.995292 267.855603 
L 102.220825 267.958245 
L 102.559124 267.353278 
L 102.67189 267.443318 
L 104.025087 268.566091 
L 104.58892 269.019125 
L 105.152752 263.954257 
L 105.265518 263.005125 
L 105.491051 256.921075 
L 105.603817 256.979324 
L 106.618715 258.604322 
L 106.957015 258.593902 
L 107.295314 258.937781 
L 107.40808 258.706743 
L 107.633613 254.809485 
L 107.859146 245.770686 
L 107.971912 246.00562 
L 108.084679 245.584911 
L 108.422978 242.051199 
L 108.535745 242.111561 
L 109.32511 243.523444 
L 109.437876 243.613769 
L 112.14427 250.311127 
L 113.723 253.708537 
L 114.061299 254.079275 
L 114.512365 253.578751 
L 114.737898 249.865276 
L 114.850664 250.027791 
L 114.963431 250.281418 
L 115.076197 250.086492 
L 115.30173 244.869854 
L 115.640029 236.806984 
L 116.091095 230.953837 
L 116.316628 231.522331 
L 116.654927 230.181605 
L 117.218759 227.902499 
L 117.331526 227.808795 
L 117.669825 225.600466 
L 118.233657 227.786188 
L 119.925154 234.242846 
L 121.61665 239.893101 
L 122.518782 242.482399 
L 122.631548 242.610737 
L 122.744314 242.220328 
L 122.969847 239.904538 
L 123.082614 239.937476 
L 123.308147 240.482016 
L 123.984745 242.447905 
L 125.789008 247.360614 
L 127.142205 250.504646 
L 129.172001 254.779402 
L 130.976264 258.056633 
L 132.780526 260.899215 
L 133.006059 261.218837 
L 133.118826 261.174389 
L 133.231592 260.135391 
L 133.569891 254.3031 
L 134.133724 248.009461 
L 134.359256 247.760857 
L 134.584789 247.510401 
L 134.810322 246.872161 
L 134.923089 246.82256 
L 135.486921 245.829041 
L 135.599687 245.898884 
L 136.389052 247.69602 
L 136.840118 248.508861 
L 137.40395 249.320862 
L 137.516716 249.022231 
L 138.418848 243.273613 
L 138.531614 243.189181 
L 138.757147 243.670617 
L 138.98268 244.023603 
L 139.095446 244.022854 
L 139.320979 242.912977 
L 139.546512 241.915764 
L 139.772045 240.875943 
L 140.110344 241.503783 
L 140.335877 242.00882 
L 141.125242 244.253642 
L 141.350775 243.906916 
L 141.689074 244.689796 
L 141.914607 244.573028 
L 142.027374 244.6178 
L 142.365673 241.7768 
L 142.703972 238.942992 
L 143.267804 236.482627 
L 143.380571 236.425988 
L 144.846534 240.995206 
L 146.650797 246.100588 
L 148.45506 250.528855 
L 150.259323 254.369821 
L 152.063586 257.701368 
L 153.867848 260.591066 
L 155.784878 263.242636 
L 157.701907 265.522185 
L 159.731703 267.588204 
L 161.874265 269.438408 
L 164.016827 271.000975 
L 166.384922 272.447005 
L 168.865783 273.698434 
L 169.767915 274.062627 
L 169.993448 270.741371 
L 170.21898 270.323429 
L 171.459411 271.13382 
L 171.684944 271.001327 
L 172.023243 270.26883 
L 172.248776 270.211449 
L 172.925375 270.496223 
L 173.150908 270.256216 
L 173.37644 267.830777 
L 173.489207 267.933998 
L 174.95517 269.135727 
L 175.067937 268.644159 
L 175.406236 258.805815 
L 175.631769 257.803011 
L 176.646667 259.419957 
L 176.759433 259.023758 
L 176.8722 256.830754 
L 177.323265 230.91504 
L 177.436032 231.042652 
L 177.548798 231.450948 
L 177.661565 231.238086 
L 177.887098 215.198796 
L 177.999864 215.767994 
L 179.69136 223.725471 
L 181.382857 230.689221 
L 183.074353 236.78335 
L 183.638185 238.622928 
L 183.750952 237.914696 
L 183.976485 232.174275 
L 184.314784 223.980051 
L 184.540317 222.966599 
L 184.991383 221.053286 
L 185.442448 217.737491 
L 185.555215 217.116396 
L 186.119047 209.883706 
L 186.231813 209.567196 
L 186.34458 209.583695 
L 186.570113 208.588869 
L 186.795645 206.814579 
L 187.021178 204.317092 
L 187.472244 206.500694 
L 187.58501 206.410134 
L 189.614806 215.740044 
L 191.306302 223.701003 
L 192.997799 230.667813 
L 194.689295 236.764615 
L 196.493558 242.431083 
L 198.297821 247.346031 
L 200.102084 251.609122 
L 201.906347 255.306813 
L 203.71061 258.514092 
L 205.627639 261.457075 
L 207.544668 263.987145 
L 207.657435 264.052214 
L 207.882967 258.583905 
L 208.1085 257.152276 
L 208.221267 255.316884 
L 208.4468 250.597516 
L 208.559566 250.648985 
L 210.363829 254.474014 
L 211.942559 257.390159 
L 212.168092 256.508851 
L 212.393624 256.442085 
L 212.619157 255.874803 
L 212.957457 256.325436 
L 213.070223 256.07076 
L 213.182989 256.127787 
L 213.408522 256.519852 
L 213.521289 256.004114 
L 213.746822 253.273141 
L 213.859588 253.291205 
L 214.197887 253.771625 
L 214.874486 251.18877 
L 215.325552 250.81885 
L 215.551084 250.912185 
L 215.663851 250.87811 
L 215.776617 250.727956 
L 216.565982 247.95496 
L 216.678749 248.025561 
L 217.129814 249.115553 
L 217.355347 248.950757 
L 217.468114 248.511998 
L 218.031946 244.529336 
L 218.370245 244.347371 
L 220.400041 249.540662 
L 222.204304 253.512688 
L 224.008567 256.957916 
L 225.812829 259.946213 
L 227.729859 262.688266 
L 229.646888 265.045592 
L 231.676684 267.182107 
L 233.706479 269.002596 
L 235.849041 270.632917 
L 238.10437 272.076009 
L 240.585231 273.393363 
L 242.051195 274.046467 
L 242.276728 272.874723 
L 242.389494 272.706802 
L 242.84056 271.317904 
L 245.208655 272.709943 
L 247.689516 273.91465 
L 250.395911 274.986103 
L 253.440604 275.947405 
L 255.019334 276.334052 
L 255.695933 265.276214 
L 255.921466 257.245002 
L 256.372531 238.041313 
L 257.387429 207.488509 
L 258.515093 168.678786 
L 258.966159 136.909962 
L 259.417225 124.570723 
L 259.868291 115.062592 
L 260.432123 95.500563 
L 260.770422 82.312013 
L 261.221488 60.976588 
L 261.334254 60.609821 
L 262.349152 76.541531 
L 262.687451 81.204633 
L 263.36405 90.53515 
L 263.476816 90.698742 
L 263.589583 91.906399 
L 263.702349 91.171923 
L 263.927882 87.42325 
L 264.717247 97.960794 
L 266.408743 120.629861 
L 268.10024 140.457554 
L 268.664072 145.673151 
L 270.017269 158.146192 
L 270.130035 158.19302 
L 271.032167 164.618532 
L 272.047065 172.938016 
L 272.159831 172.126629 
L 272.49813 165.959039 
L 272.610897 165.249534 
L 273.061963 152.119315 
L 273.400262 135.877244 
L 273.513028 135.892691 
L 273.851328 131.524075 
L 274.189627 121.754143 
L 274.527926 108.351222 
L 274.753459 105.022528 
L 274.978992 104.064706 
L 275.091758 104.43442 
L 275.768357 109.792886 
L 276.106656 112.198945 
L 276.219423 111.549479 
L 276.332189 112.2182 
L 278.474751 137.730271 
L 278.587518 138.128442 
L 278.81305 135.856209 
L 279.038583 136.975933 
L 279.376883 139.381728 
L 281.632211 162.116335 
L 283.323708 176.773765 
L 285.015204 189.596705 
L 286.819467 201.353352 
L 288.398197 210.39077 
L 288.62373 211.533787 
L 288.849262 211.31587 
L 289.525861 214.351134 
L 289.751394 215.193528 
L 290.653525 218.927608 
L 290.766292 218.777879 
L 290.879058 218.865922 
L 290.991825 219.392536 
L 291.217357 219.190265 
L 291.78119 221.550366 
L 291.893956 220.150881 
L 292.119489 208.4682 
L 292.232255 209.096987 
L 293.247153 214.237912 
L 294.713117 220.527199 
L 296.404613 227.890349 
L 298.09611 234.333993 
L 299.900372 240.322829 
L 301.704635 245.517375 
L 303.283365 249.457753 
L 305.200395 253.445398 
L 305.65146 253.72734 
L 306.328059 254.790128 
L 306.440825 254.758701 
L 306.666358 252.105038 
L 307.004657 244.540073 
L 307.342957 241.587265 
L 307.568489 242.023185 
L 307.681256 242.072071 
L 308.019555 242.817298 
L 308.245088 242.747626 
L 308.470621 242.074656 
L 308.583387 241.591873 
L 308.696154 241.621588 
L 309.034453 242.437021 
L 310.38765 245.996387 
L 312.191913 250.438478 
L 313.996176 254.291431 
L 315.800439 257.633376 
L 317.604702 260.532097 
L 319.521731 263.191943 
L 321.43876 265.4786 
L 323.468556 267.551065 
L 325.611118 269.40704 
L 327.75368 270.974485 
L 330.121775 272.425026 
L 331.926038 273.304181 
L 333.617534 274.036856 
L 333.730301 273.809991 
L 333.955834 271.744184 
L 334.294133 265.502491 
L 334.857965 252.185744 
L 335.421797 253.035932 
L 339.255856 259.778594 
L 341.172885 262.544165 
L 343.089914 264.913076 
L 344.104812 266.027234 
L 344.330345 265.146368 
L 344.443111 265.273353 
L 346.472907 267.376181 
L 348.502703 269.160197 
L 350.645265 270.765906 
L 351.096331 271.060657 
L 351.209097 270.886091 
L 351.321863 269.345916 
L 351.660163 262.905564 
L 351.885696 260.375785 
L 352.111228 257.179454 
L 352.336761 251.935559 
L 352.449528 251.935224 
L 352.562294 251.587747 
L 352.675061 251.799241 
L 352.900593 248.267022 
L 353.464426 242.233535 
L 353.802725 242.865389 
L 354.028258 241.228179 
L 354.141024 241.249629 
L 354.366557 241.913009 
L 354.479323 241.698009 
L 354.817623 240.622543 
L 354.930389 240.64116 
L 355.494221 242.112879 
L 355.606988 242.047906 
L 355.832521 238.881892 
L 355.945287 239.24141 
L 357.072951 242.643829 
L 357.298484 242.735705 
L 357.411251 242.484454 
L 357.862316 222.811031 
L 357.975083 222.750346 
L 358.200616 223.475534 
L 358.313382 223.320801 
L 358.989981 225.367676 
L 360.681477 232.119764 
L 360.794243 232.141585 
L 360.90701 231.697658 
L 361.132543 229.920669 
L 362.824039 236.095372 
L 364.515535 241.492709 
L 367.672995 249.81461 
L 369.364492 253.486036 
L 373.19855 260.227678 
L 375.002813 262.769265 
L 376.919843 265.115225 
L 378.949638 267.241443 
L 380.979434 269.053157 
L 383.121996 270.675616 
L 385.377325 272.111752 
L 387.858186 273.422753 
L 388.083719 273.524978 
L 388.196485 273.303368 
L 390.790113 274.447664 
L 393.496507 275.400402 
L 395.075237 275.792873 
L 395.977369 275.972733 
L 396.428435 275.957519 
L 396.8795 274.962698 
L 398.683763 275.53614 
L 398.79653 274.38804 
L 399.022062 266.493835 
L 399.134829 266.602412 
L 400.03696 267.479822 
L 400.03696 267.479822 
" clip-path="url(#pd78ac748ae)" style="fill: none; stroke: #ff7f0e; stroke-opacity: 0.75; stroke-width: 1.5; stroke-linecap: square"/>
   </g>
   <g id="patch_3">
    <path d="M 59.149687 288.430125 
L 59.149687 22.318125 
" style="fill: none; stroke: #000000; stroke-width: 0.8; stroke-linejoin: miter; stroke-linecap: square"/>
   </g>
   <g id="patch_4">
    <path d="M 416.269688 288.430125 
L 416.269688 22.318125 
" style="fill: none; stroke: #000000; stroke-width: 0.8; stroke-linejoin: miter; stroke-linecap: square"/>
   </g>
   <g id="patch_5">
    <path d="M 59.149687 288.430125 
L 416.269687 288.430125 
" style="fill: none; stroke: #000000; stroke-width: 0.8; stroke-linejoin: miter; stroke-linecap: square"/>
   </g>
   <g id="patch_6">
    <path d="M 59.149687 22.318125 
L 416.269687 22.318125 
" style="fill: none; stroke: #000000; stroke-width: 0.8; stroke-linejoin: miter; stroke-linecap: square"/>
   </g>
   <g id="text_21">
    <!-- Observed vs. Simulated River Flow -->
    <g transform="translate(133.06875 16.318125) scale(0.12 -0.12)">
     <defs>
      <path id="DejaVuSans-4f" d="M 2522 4238 
Q 1834 4238 1429 3725 
Q 1025 3213 1025 2328 
Q 1025 1447 1429 934 
Q 1834 422 2522 422 
Q 3209 422 3611 934 
Q 4013 1447 4013 2328 
Q 4013 3213 3611 3725 
Q 3209 4238 2522 4238 
z
M 2522 4750 
Q 3503 4750 4090 4092 
Q 4678 3434 4678 2328 
Q 4678 1225 4090 567 
Q 3503 -91 2522 -91 
Q 1538 -91 948 565 
Q 359 1222 359 2328 
Q 359 3434 948 4092 
Q 1538 4750 2522 4750 
z
" transform="scale(0.015625)"/>
      <path id="DejaVuSans-62" d="M 3116 1747 
Q 3116 2381 2855 2742 
Q 2594 3103 2138 3103 
Q 1681 3103 1420 2742 
Q 1159 2381 1159 1747 
Q 1159 1113 1420 752 
Q 1681 391 2138 391 
Q 2594 391 2855 752 
Q 3116 1113 3116 1747 
z
M 1159 2969 
Q 1341 3281 1617 3432 
Q 1894 3584 2278 3584 
Q 2916 3584 3314 3078 
Q 3713 2572 3713 1747 
Q 3713 922 3314 415 
Q 2916 -91 2278 -91 
Q 1894 -91 1617 61 
Q 1341 213 1159 525 
L 1159 0 
L 581 0 
L 581 4863 
L 1159 4863 
L 1159 2969 
z
" transform="scale(0.015625)"/>
      <path id="DejaVuSans-76" d="M 191 3500 
L 800 3500 
L 1894 563 
L 2988 3500 
L 3597 3500 
L 2284 0 
L 1503 0 
L 191 3500 
z
" transform="scale(0.015625)"/>
      <path id="DejaVuSans-64" d="M 2906 2969 
L 2906 4863 
L 3481 4863 
L 3481 0 
L 2906 0 
L 2906 525 
Q 2725 213 2448 61 
Q 2172 -91 1784 -91 
Q 1150 -91 751 415 
Q 353 922 353 1747 
Q 353 2572 751 3078 
Q 1150 3584 1784 3584 
Q 2172 3584 2448 3432 
Q 2725 3281 2906 2969 
z
M 947 1747 
Q 947 1113 1208 752 
Q 1469 391 1925 391 
Q 2381 391 2643 752 
Q 2906 1113 2906 1747 
Q 2906 2381 2643 2742 
Q 2381 3103 1925 3103 
Q 1469 3103 1208 2742 
Q 947 2381 947 1747 
z
" transform="scale(0.015625)"/>
      <path id="DejaVuSans-53" d="M 3425 4513 
L 3425 3897 
Q 3066 4069 2747 4153 
Q 2428 4238 2131 4238 
Q 1616 4238 1336 4038 
Q 1056 3838 1056 3469 
Q 1056 3159 1242 3001 
Q 1428 2844 1947 2747 
L 2328 2669 
Q 3034 2534 3370 2195 
Q 3706 1856 3706 1288 
Q 3706 609 3251 259 
Q 2797 -91 1919 -91 
Q 1588 -91 1214 -16 
Q 841 59 441 206 
L 441 856 
Q 825 641 1194 531 
Q 1563 422 1919 422 
Q 2459 422 2753 634 
Q 3047 847 3047 1241 
Q 3047 1584 2836 1778 
Q 2625 1972 2144 2069 
L 1759 2144 
Q 1053 2284 737 2584 
Q 422 2884 422 3419 
Q 422 4038 858 4394 
Q 1294 4750 2059 4750 
Q 2388 4750 2728 4690 
Q 3069 4631 3425 4513 
z
" transform="scale(0.015625)"/>
      <path id="DejaVuSans-75" d="M 544 1381 
L 544 3500 
L 1119 3500 
L 1119 1403 
Q 1119 906 1312 657 
Q 1506 409 1894 409 
Q 2359 409 2629 706 
Q 2900 1003 2900 1516 
L 2900 3500 
L 3475 3500 
L 3475 0 
L 2900 0 
L 2900 538 
Q 2691 219 2414 64 
Q 2138 -91 1772 -91 
Q 1169 -91 856 284 
Q 544 659 544 1381 
z
M 1991 3584 
L 1991 3584 
z
" transform="scale(0.015625)"/>
      <path id="DejaVuSans-6c" d="M 603 4863 
L 1178 4863 
L 1178 0 
L 603 0 
L 603 4863 
z
" transform="scale(0.015625)"/>
      <path id="DejaVuSans-74" d="M 1172 4494 
L 1172 3500 
L 2356 3500 
L 2356 3053 
L 1172 3053 
L 1172 1153 
Q 1172 725 1289 603 
Q 1406 481 1766 481 
L 2356 481 
L 2356 0 
L 1766 0 
Q 1100 0 847 248 
Q 594 497 594 1153 
L 594 3053 
L 172 3053 
L 172 3500 
L 594 3500 
L 594 4494 
L 1172 4494 
z
" transform="scale(0.015625)"/>
      <path id="DejaVuSans-52" d="M 2841 2188 
Q 3044 2119 3236 1894 
Q 3428 1669 3622 1275 
L 4263 0 
L 3584 0 
L 2988 1197 
Q 2756 1666 2539 1819 
Q 2322 1972 1947 1972 
L 1259 1972 
L 1259 0 
L 628 0 
L 628 4666 
L 2053 4666 
Q 2853 4666 3247 4331 
Q 3641 3997 3641 3322 
Q 3641 2881 3436 2590 
Q 3231 2300 2841 2188 
z
M 1259 4147 
L 1259 2491 
L 2053 2491 
Q 2509 2491 2742 2702 
Q 2975 2913 2975 3322 
Q 2975 3731 2742 3939 
Q 2509 4147 2053 4147 
L 1259 4147 
z
" transform="scale(0.015625)"/>
      <path id="DejaVuSans-46" d="M 628 4666 
L 3309 4666 
L 3309 4134 
L 1259 4134 
L 1259 2759 
L 3109 2759 
L 3109 2228 
L 1259 2228 
L 1259 0 
L 628 0 
L 628 4666 
z
" transform="scale(0.015625)"/>
      <path id="DejaVuSans-6f" d="M 1959 3097 
Q 1497 3097 1228 2736 
Q 959 2375 959 1747 
Q 959 1119 1226 758 
Q 1494 397 1959 397 
Q 2419 397 2687 759 
Q 2956 1122 2956 1747 
Q 2956 2369 2687 2733 
Q 2419 3097 1959 3097 
z
M 1959 3584 
Q 2709 3584 3137 3096 
Q 3566 2609 3566 1747 
Q 3566 888 3137 398 
Q 2709 -91 1959 -91 
Q 1206 -91 779 398 
Q 353 888 353 1747 
Q 353 2609 779 3096 
Q 1206 3584 1959 3584 
z
" transform="scale(0.015625)"/>
      <path id="DejaVuSans-77" d="M 269 3500 
L 844 3500 
L 1563 769 
L 2278 3500 
L 2956 3500 
L 3675 769 
L 4391 3500 
L 4966 3500 
L 4050 0 
L 3372 0 
L 2619 2869 
L 1863 0 
L 1184 0 
L 269 3500 
z
" transform="scale(0.015625)"/>
     </defs>
     <use xlink:href="#DejaVuSans-4f"/>
     <use xlink:href="#DejaVuSans-62" x="78.710938"/>
     <use xlink:href="#DejaVuSans-73" x="142.1875"/>
     <use xlink:href="#DejaVuSans-65" x="194.287109"/>
     <use xlink:href="#DejaVuSans-72" x="255.810547"/>
     <use xlink:href="#DejaVuSans-76" x="296.923828"/>
     <use xlink:href="#DejaVuSans-65" x="356.103516"/>
     <use xlink:href="#DejaVuSans-64" x="417.626953"/>
     <use xlink:href="#DejaVuSans-20" x="481.103516"/>
     <use xlink:href="#DejaVuSans-76" x="512.890625"/>
     <use xlink:href="#DejaVuSans-73" x="572.070312"/>
     <use xlink:href="#DejaVuSans-2e" x="624.169922"/>
     <use xlink:href="#DejaVuSans-20" x="655.957031"/>
     <use xlink:href="#DejaVuSans-53" x="687.744141"/>
     <use xlink:href="#DejaVuSans-69" x="751.220703"/>
     <use xlink:href="#DejaVuSans-6d" x="779.003906"/>
     <use xlink:href="#DejaVuSans-75" x="876.416016"/>
     <use xlink:href="#DejaVuSans-6c" x="939.794922"/>
     <use xlink:href="#DejaVuSans-61" x="967.578125"/>
     <use xlink:href="#DejaVuSans-74" x="1028.857422"/>
     <use xlink:href="#DejaVuSans-65" x="1068.066406"/>
     <use xlink:href="#DejaVuSans-64" x="1129.589844"/>
     <use xlink:href="#DejaVuSans-20" x="1193.066406"/>
     <use xlink:href="#DejaVuSans-52" x="1224.853516"/>
     <use xlink:href="#DejaVuSans-69" x="1294.335938"/>
     <use xlink:href="#DejaVuSans-76" x="1322.119141"/>
     <use xlink:href="#DejaVuSans-65" x="1381.298828"/>
     <use xlink:href="#DejaVuSans-72" x="1442.822266"/>
     <use xlink:href="#DejaVuSans-20" x="1483.935547"/>
     <use xlink:href="#DejaVuSans-46" x="1515.722656"/>
     <use xlink:href="#DejaVuSans-6c" x="1573.242188"/>
     <use xlink:href="#DejaVuSans-6f" x="1601.025391"/>
     <use xlink:href="#DejaVuSans-77" x="1662.207031"/>
    </g>
   </g>
   <g id="legend_1">
    <g id="patch_7">
     <path d="M 358.250937 59.674375 
L 409.269687 59.674375 
Q 411.269687 59.674375 411.269687 57.674375 
L 411.269687 29.318125 
Q 411.269687 27.318125 409.269687 27.318125 
L 358.250937 27.318125 
Q 356.250937 27.318125 356.250937 29.318125 
L 356.250937 57.674375 
Q 356.250937 59.674375 358.250937 59.674375 
z
" style="fill: #ffffff; opacity: 0.8; stroke: #cccccc; stroke-linejoin: miter"/>
    </g>
    <g id="line2d_39">
     <path d="M 360.250937 35.416562 
L 370.250937 35.416562 
L 380.250937 35.416562 
" style="fill: none; stroke: #1f77b4; stroke-opacity: 0.75; stroke-width: 1.5; stroke-linecap: square"/>
    </g>
    <g id="text_22">
     <!-- REF -->
     <g transform="translate(388.250937 38.916562) scale(0.1 -0.1)">
      <defs>
       <path id="DejaVuSans-45" d="M 628 4666 
L 3578 4666 
L 3578 4134 
L 1259 4134 
L 1259 2753 
L 3481 2753 
L 3481 2222 
L 1259 2222 
L 1259 531 
L 3634 531 
L 3634 0 
L 628 0 
L 628 4666 
z
" transform="scale(0.015625)"/>
      </defs>
      <use xlink:href="#DejaVuSans-52"/>
      <use xlink:href="#DejaVuSans-45" x="69.482422"/>
      <use xlink:href="#DejaVuSans-46" x="132.666016"/>
     </g>
    </g>
    <g id="line2d_40">
     <path d="M 360.250937 50.094687 
L 370.250937 50.094687 
L 380.250937 50.094687 
" style="fill: none; stroke: #ff7f0e; stroke-opacity: 0.75; stroke-width: 1.5; stroke-linecap: square"/>
    </g>
    <g id="text_23">
     <!-- SIM -->
     <g transform="translate(388.250937 53.594687) scale(0.1 -0.1)">
      <defs>
       <path id="DejaVuSans-49" d="M 628 4666 
L 1259 4666 
L 1259 0 
L 628 0 
L 628 4666 
z
" transform="scale(0.015625)"/>
       <path id="DejaVuSans-4d" d="M 628 4666 
L 1569 4666 
L 2759 1491 
L 3956 4666 
L 4897 4666 
L 4897 0 
L 4281 0 
L 4281 4097 
L 3078 897 
L 2444 897 
L 1241 4097 
L 1241 0 
L 628 0 
L 628 4666 
z
" transform="scale(0.015625)"/>
      </defs>
      <use xlink:href="#DejaVuSans-53"/>
      <use xlink:href="#DejaVuSans-49" x="63.476562"/>
      <use xlink:href="#DejaVuSans-4d" x="92.96875"/>
     </g>
    </g>
   </g>
  </g>
 </g>
 <defs>
  <clipPath id="pd78ac748ae">
   <rect x="59.149687" y="22.318125" width="357.12" height="266.112"/>
  </clipPath>
 </defs>
</svg>
